<?xml version="1.0" encoding="UTF-8" standalone="no"?>
<!-- Created with Inkscape (http://www.inkscape.org/) -->

<svg
   xmlns:dc="http://purl.org/dc/elements/1.1/"
   xmlns:cc="http://creativecommons.org/ns#"
   xmlns:rdf="http://www.w3.org/1999/02/22-rdf-syntax-ns#"
   xmlns:svg="http://www.w3.org/2000/svg"
   xmlns="http://www.w3.org/2000/svg"
   xmlns:sodipodi="http://sodipodi.sourceforge.net/DTD/sodipodi-0.dtd"
   xmlns:inkscape="http://www.inkscape.org/namespaces/inkscape"
   width="380.258mm"
   height="384.49133mm"
   viewBox="0 0 380.258 384.49133"
   version="1.1"
   id="svg4798"
   inkscape:version="0.92pre3 r"
   sodipodi:docname="resuelvo_logo.svg"
   inkscape:export-filename="/home/fundacion/Documentos/fundecyt/resuelvo/resuelvo_logo.svg.png"
   inkscape:export-xdpi="96"
   inkscape:export-ydpi="96">
  <defs
     id="defs4792" />
  <sodipodi:namedview
     id="base"
     pagecolor="#ffffff"
     bordercolor="#666666"
     borderopacity="1.0"
     inkscape:pageopacity="0.0"
     inkscape:pageshadow="2"
     inkscape:zoom="0.175"
     inkscape:cx="1174.8954"
     inkscape:cy="641.61277"
     inkscape:document-units="mm"
     inkscape:current-layer="layer1"
     showgrid="false"
     inkscape:window-width="1366"
     inkscape:window-height="699"
     inkscape:window-x="0"
     inkscape:window-y="32"
     inkscape:window-maximized="1"
     fit-margin-top="0"
     fit-margin-left="0"
     fit-margin-right="0"
     fit-margin-bottom="0" />
  <metadata
     id="metadata4795">
    <rdf:RDF>
      <cc:Work
         rdf:about="">
        <dc:format>image/svg+xml</dc:format>
        <dc:type
           rdf:resource="http://purl.org/dc/dcmitype/StillImage" />
        <dc:title></dc:title>
      </cc:Work>
    </rdf:RDF>
  </metadata>
  <g
     inkscape:label="Capa 1"
     inkscape:groupmode="layer"
     id="layer1"
     transform="translate(124.36114,-50.32576)">
    <ellipse
       style="color:#000000;clip-rule:nonzero;display:inline;overflow:visible;visibility:visible;opacity:0.98000004;isolation:auto;mix-blend-mode:normal;color-interpolation:sRGB;color-interpolation-filters:linearRGB;solid-color:#000000;solid-opacity:1;fill:#e7e7e7;fill-opacity:1;fill-rule:evenodd;stroke:#2c2ca0;stroke-width:10;stroke-linecap:round;stroke-linejoin:bevel;stroke-miterlimit:4;stroke-dasharray:none;stroke-dashoffset:0;stroke-opacity:1;color-rendering:auto;image-rendering:auto;shape-rendering:auto;text-rendering:auto;enable-background:accumulate"
       id="path4893-7"
       cx="65.76786"
       cy="242.57143"
       rx="185.129"
       ry="187.24567" />
    <text
       xml:space="preserve"
       style="font-style:normal;font-weight:normal;font-size:92.64499664px;line-height:57.90312576px;font-family:sans-serif;letter-spacing:0px;word-spacing:0px;fill:#cccccc;fill-opacity:1;stroke:none;stroke-width:2.31612492px;stroke-linecap:butt;stroke-linejoin:miter;stroke-opacity:1"
       x="32.026318"
       y="271.36127"
       id="text5591"
       transform="rotate(-33.68724)"><tspan
         sodipodi:role="line"
         id="tspan5589"
         x="32.026318"
         y="271.36127"
         style="font-style:normal;font-variant:normal;font-weight:bold;font-stretch:normal;font-family:Comfortaa;-inkscape-font-specification:'Comfortaa Bold';fill:#cccccc;fill-opacity:1;stroke-width:2.31612492px">7</tspan></text>
    <text
       xml:space="preserve"
       style="font-style:normal;font-weight:normal;font-size:91.90901184px;line-height:57.44312668px;font-family:sans-serif;letter-spacing:0px;word-spacing:0px;fill:#cccccc;fill-opacity:1;stroke:none;stroke-width:2.29772496px;stroke-linecap:butt;stroke-linejoin:miter;stroke-opacity:1"
       x="97.029175"
       y="192.68095"
       id="text5587"
       transform="rotate(21.654954)"><tspan
         sodipodi:role="line"
         id="tspan5585"
         x="97.029175"
         y="192.68095"
         style="font-style:normal;font-variant:normal;font-weight:bold;font-stretch:normal;font-family:Comfortaa;-inkscape-font-specification:'Comfortaa Bold';fill:#cccccc;fill-opacity:1;stroke-width:2.29772496px">6</tspan></text>
    <text
       xml:space="preserve"
       style="font-style:normal;font-weight:normal;font-size:83.56377411px;line-height:52.22735977px;font-family:sans-serif;letter-spacing:0px;word-spacing:0px;fill:#cccccc;fill-opacity:1;stroke:none;stroke-width:2.0890944px;stroke-linecap:butt;stroke-linejoin:miter;stroke-opacity:1"
       x="200.62714"
       y="191.92378"
       id="text5571"
       transform="rotate(39.153997)"><tspan
         sodipodi:role="line"
         id="tspan5569"
         x="200.62714"
         y="191.92378"
         style="font-style:normal;font-variant:normal;font-weight:bold;font-stretch:normal;font-family:Comfortaa;-inkscape-font-specification:'Comfortaa Bold';fill:#cccccc;fill-opacity:1;stroke-width:2.0890944px">2</tspan></text>
    <text
       xml:space="preserve"
       style="font-style:normal;font-weight:normal;font-size:100.33483887px;line-height:62.70926666px;font-family:sans-serif;letter-spacing:0px;word-spacing:0px;fill:#cccccc;fill-opacity:1;stroke:none;stroke-width:2.50837088px;stroke-linecap:butt;stroke-linejoin:miter;stroke-opacity:1"
       x="117.40477"
       y="362.66135"
       id="text5599"><tspan
         sodipodi:role="line"
         id="tspan5597"
         x="117.40477"
         y="362.66135"
         style="font-style:normal;font-variant:normal;font-weight:bold;font-stretch:normal;font-family:Comfortaa;-inkscape-font-specification:'Comfortaa Bold';fill:#cccccc;fill-opacity:1;stroke-width:2.50837088px">9</tspan></text>
    <text
       xml:space="preserve"
       style="font-style:normal;font-weight:normal;font-size:93.70336151px;line-height:58.5646019px;font-family:sans-serif;letter-spacing:0px;word-spacing:0px;fill:#cccccc;fill-opacity:1;stroke:none;stroke-width:2.34258413px;stroke-linecap:butt;stroke-linejoin:miter;stroke-opacity:1"
       x="-127.44756"
       y="166.01439"
       id="text5575"
       transform="rotate(-27.257299)"><tspan
         sodipodi:role="line"
         id="tspan5573"
         x="-127.44756"
         y="166.01439"
         style="font-style:normal;font-variant:normal;font-weight:bold;font-stretch:normal;font-family:Comfortaa;-inkscape-font-specification:'Comfortaa Bold';fill:#cccccc;fill-opacity:1;stroke-width:2.34258413px">3</tspan></text>
    <text
       xml:space="preserve"
       style="font-style:normal;font-weight:normal;font-size:91.95925903px;line-height:57.47453308px;font-family:sans-serif;letter-spacing:0px;word-spacing:0px;fill:#cccccc;fill-opacity:1;stroke:none;stroke-width:2.29898143px;stroke-linecap:butt;stroke-linejoin:miter;stroke-opacity:1"
       x="-230.16597"
       y="312.41803"
       id="text5595"
       transform="rotate(-34.384339)"><tspan
         sodipodi:role="line"
         id="tspan5593"
         x="-230.16597"
         y="312.41803"
         style="font-style:normal;font-variant:normal;font-weight:bold;font-stretch:normal;font-family:Comfortaa;-inkscape-font-specification:'Comfortaa Bold';fill:#cccccc;fill-opacity:1;stroke-width:2.29898143px">8</tspan></text>
    <text
       xml:space="preserve"
       style="font-style:normal;font-weight:normal;font-size:93.60817719px;line-height:58.50510788px;font-family:sans-serif;letter-spacing:0px;word-spacing:0px;fill:#cccccc;fill-opacity:1;stroke:none;stroke-width:2.34020448px;stroke-linecap:butt;stroke-linejoin:miter;stroke-opacity:1"
       x="-216.56113"
       y="198.29973"
       id="text5567"
       transform="rotate(-36.642366)"><tspan
         sodipodi:role="line"
         id="tspan5565"
         x="-216.56113"
         y="198.29973"
         style="font-style:normal;font-variant:normal;font-weight:bold;font-stretch:normal;font-family:Comfortaa;-inkscape-font-specification:'Comfortaa Bold';fill:#cccccc;fill-opacity:1;stroke-width:2.34020448px">1</tspan></text>
    <text
       xml:space="preserve"
       style="font-style:normal;font-weight:normal;font-size:93.56700897px;line-height:58.47937775px;font-family:sans-serif;letter-spacing:0px;word-spacing:0px;fill:#cccccc;fill-opacity:1;stroke:none;stroke-width:2.33917522px;stroke-linecap:butt;stroke-linejoin:miter;stroke-opacity:1"
       x="-38.89587"
       y="173.11343"
       id="text5579"
       transform="rotate(-36.606755)"><tspan
         sodipodi:role="line"
         id="tspan5577"
         x="-38.89587"
         y="173.11343"
         style="font-style:normal;font-variant:normal;font-weight:bold;font-stretch:normal;font-family:Comfortaa;-inkscape-font-specification:'Comfortaa Bold';fill:#cccccc;fill-opacity:1;stroke-width:2.33917522px">4</tspan></text>
    <text
       xml:space="preserve"
       style="font-style:normal;font-weight:normal;font-size:85.32448578px;line-height:53.32780075px;font-family:sans-serif;letter-spacing:0px;word-spacing:0px;fill:#cccccc;fill-opacity:1;stroke:none;stroke-width:2.13311195px;stroke-linecap:butt;stroke-linejoin:miter;stroke-opacity:1"
       x="30.237808"
       y="348.73013"
       id="text5583"
       transform="rotate(-28.8202)"><tspan
         sodipodi:role="line"
         id="tspan5581"
         x="30.237808"
         y="348.73013"
         style="font-style:normal;font-variant:normal;font-weight:bold;font-stretch:normal;font-family:Comfortaa;-inkscape-font-specification:'Comfortaa Bold';fill:#cccccc;fill-opacity:1;stroke-width:2.13311195px">5</tspan></text>
    <text
       xml:space="preserve"
       style="font-style:normal;font-weight:normal;font-size:81.83328247px;line-height:51.14579391px;font-family:sans-serif;letter-spacing:0px;word-spacing:0px;fill:#cccccc;fill-opacity:1;stroke:none;stroke-width:2.04583192px;stroke-linecap:butt;stroke-linejoin:miter;stroke-opacity:1"
       x="163.03281"
       y="355.58231"
       id="text5603"
       transform="rotate(18.634043)"><tspan
         sodipodi:role="line"
         id="tspan5601"
         x="163.03281"
         y="355.58231"
         style="font-style:normal;font-variant:normal;font-weight:bold;font-stretch:normal;font-family:Comfortaa;-inkscape-font-specification:'Comfortaa Bold';fill:#cccccc;fill-opacity:1;stroke-width:2.04583192px">0</tspan></text>
    <g
       id="g5525"
       transform="translate(0.51327224,-4.7625002)">
      <circle
         r="9.434267"
         cy="284.03235"
         cx="3.4159665"
         id="path4483-6"
         style="color:#000000;clip-rule:nonzero;display:inline;overflow:visible;visibility:visible;opacity:1;isolation:auto;mix-blend-mode:normal;color-interpolation:sRGB;color-interpolation-filters:linearRGB;solid-color:#000000;solid-opacity:1;fill:#fddbad;fill-opacity:1;fill-rule:evenodd;stroke:none;stroke-width:0.59801483;stroke-linecap:round;stroke-linejoin:round;stroke-miterlimit:4;stroke-dasharray:none;stroke-dashoffset:0;stroke-opacity:1;color-rendering:auto;image-rendering:auto;shape-rendering:auto;text-rendering:auto;enable-background:accumulate" />
      <path
         id="path4483-6-5"
         d="m 65.146959,354.128 a 72.683944,75.105453 0 0 0 -71.2788597,60.97923 185.129,187.24567 0 0 0 71.8999897,14.7097 185.129,187.24567 0 0 0 70.771391,-14.395 A 72.683944,75.105453 0 0 0 65.146959,354.128 Z"
         style="color:#000000;clip-rule:nonzero;display:inline;overflow:visible;visibility:visible;opacity:1;isolation:auto;mix-blend-mode:normal;color-interpolation:sRGB;color-interpolation-filters:linearRGB;solid-color:#000000;solid-opacity:1;fill:#80cece;fill-opacity:1;fill-rule:evenodd;stroke:none;stroke-width:4.68337297;stroke-linecap:round;stroke-linejoin:round;stroke-miterlimit:4;stroke-dasharray:none;stroke-dashoffset:0;stroke-opacity:1;color-rendering:auto;image-rendering:auto;shape-rendering:auto;text-rendering:auto;enable-background:accumulate"
         inkscape:connector-curvature="0" />
      <path
         inkscape:connector-curvature="0"
         id="path4483-6-3"
         d="m 51.321969,340.10992 v 18.27684 h 0.003 a 14.22113,14.22113 0 0 0 14.21849,14.19905 14.22113,14.22113 0 0 0 14.21997,-14.19905 h 0.002 v -18.27684 z"
         style="color:#000000;clip-rule:nonzero;display:inline;overflow:visible;visibility:visible;opacity:1;isolation:auto;mix-blend-mode:normal;color-interpolation:sRGB;color-interpolation-filters:linearRGB;solid-color:#000000;solid-opacity:1;fill:#fddbad;fill-opacity:1;fill-rule:evenodd;stroke:none;stroke-width:0.90144235;stroke-linecap:round;stroke-linejoin:round;stroke-miterlimit:4;stroke-dasharray:none;stroke-dashoffset:0;stroke-opacity:1;color-rendering:auto;image-rendering:auto;shape-rendering:auto;text-rendering:auto;enable-background:accumulate" />
      <circle
         r="9.434267"
         cy="284.03235"
         cx="127.20681"
         id="path4483-6-7"
         style="color:#000000;clip-rule:nonzero;display:inline;overflow:visible;visibility:visible;opacity:1;isolation:auto;mix-blend-mode:normal;color-interpolation:sRGB;color-interpolation-filters:linearRGB;solid-color:#000000;solid-opacity:1;fill:#fddbad;fill-opacity:1;fill-rule:evenodd;stroke:none;stroke-width:0.59801483;stroke-linecap:round;stroke-linejoin:round;stroke-miterlimit:4;stroke-dasharray:none;stroke-dashoffset:0;stroke-opacity:1;color-rendering:auto;image-rendering:auto;shape-rendering:auto;text-rendering:auto;enable-background:accumulate" />
      <path
         sodipodi:nodetypes="sccsccs"
         inkscape:connector-curvature="0"
         id="path4483"
         d="m 65.506049,202.92138 c -33.80028,-5.2e-4 -61.2011597,27.39978 -61.2015497,61.20007 0,18.9829 0,0 0,18.9829 -5.3e-4,33.80086 27.4006897,61.20197 61.2015497,61.20155 33.80028,0 61.200481,-27.40127 61.200051,-61.20155 0,-18.9829 0,0 0,-18.9829 -4e-4,-33.7997 -27.400361,-61.19967 -61.200051,-61.20007 z"
         style="color:#000000;clip-rule:nonzero;display:inline;overflow:visible;visibility:visible;opacity:1;isolation:auto;mix-blend-mode:normal;color-interpolation:sRGB;color-interpolation-filters:linearRGB;solid-color:#000000;solid-opacity:1;fill:#fddbad;fill-opacity:1;fill-rule:evenodd;stroke:none;stroke-width:3.87936544;stroke-linecap:round;stroke-linejoin:round;stroke-miterlimit:4;stroke-dasharray:none;stroke-dashoffset:0;stroke-opacity:1;color-rendering:auto;image-rendering:auto;shape-rendering:auto;text-rendering:auto;enable-background:accumulate" />
      <ellipse
         ry="5.690207"
         rx="5.6560893"
         cy="279.17889"
         cx="42.445957"
         id="path4562"
         style="color:#000000;clip-rule:nonzero;display:inline;overflow:visible;visibility:visible;opacity:1;isolation:auto;mix-blend-mode:normal;color-interpolation:sRGB;color-interpolation-filters:linearRGB;solid-color:#000000;solid-opacity:1;fill:#1f274c;fill-opacity:1;fill-rule:evenodd;stroke:none;stroke-width:5.12401724;stroke-linecap:round;stroke-linejoin:round;stroke-miterlimit:4;stroke-dasharray:none;stroke-dashoffset:0;stroke-opacity:1;color-rendering:auto;image-rendering:auto;shape-rendering:auto;text-rendering:auto;enable-background:accumulate" />
      <ellipse
         ry="5.690207"
         rx="5.6560903"
         cy="279.17889"
         cx="88.310341"
         id="path4562-9"
         style="color:#000000;clip-rule:nonzero;display:inline;overflow:visible;visibility:visible;opacity:1;isolation:auto;mix-blend-mode:normal;color-interpolation:sRGB;color-interpolation-filters:linearRGB;solid-color:#000000;solid-opacity:1;fill:#1f274c;fill-opacity:1;fill-rule:evenodd;stroke:none;stroke-width:5.12401724;stroke-linecap:round;stroke-linejoin:round;stroke-miterlimit:4;stroke-dasharray:none;stroke-dashoffset:0;stroke-opacity:1;color-rendering:auto;image-rendering:auto;shape-rendering:auto;text-rendering:auto;enable-background:accumulate" />
      <path
         sodipodi:nodetypes="cacaccaacccccccccascsacccccccccacaaccacacc"
         inkscape:connector-curvature="0"
         id="path4558"
         d="m 102.64912,182.30646 c 0,0 -14.502331,0.22869 -21.205811,2.63726 -6.14505,2.20793 -16.53263,10.50717 -16.53263,10.50717 0,0 -0.20231,-3.80713 0.35153,-5.59016 0.39963,-1.28656 2.07631,-3.46748 2.07631,-3.46748 0,0 -20.72872,8.09747 -30.00616,14.10329 -8.65071,5.60012 -17.37263,11.82309 -23.45264,20.14372 -4.4442997,6.08212 -6.7270497,13.57009 -8.8197997,20.8064 -0.34419,1.19012 -0.43546,2.43968 -0.59985,3.66794 -0.1236,0.92414 -0.2902,2.78237 -0.2902,2.78237 l -0.0194,25.65609 c 0.004,1.8567 1.50076,3.3599 3.34632,3.35978 1.84557,1.4e-4 3.3427497,-1.50308 3.3463197,-3.35978 h 0.0269 v -21.4975 c 0,0 -0.01,-1.86052 0.0957,-2.78237 0.11059,-0.95553 0.14736,-1.19431 0.56096,-2.83024 0.71413,-2.82471 1.59376,-6.58466 3.27601,-9.47051 3.27228,-5.61346 7.41961,-11.11702 12.89013,-14.62237 10.79475,-6.91693 24.01984,-10.88192 36.83941,-11.05168 12.52737,-0.16586 25.40212,3.61686 36.273961,9.843 6.64258,3.80411 12.21058,9.66705 16.40249,16.07189 1.1759,1.79668 1.73462,4.00485 2.29021,6.02098 0.46718,1.69539 0.42459,2.03718 0.55648,3.06808 0.1088,0.84967 0.19297,2.56247 0.19297,2.56247 l 0.0165,24.68825 h 0.0238 c 0.002,2.01041 1.62322,3.63884 3.62155,3.63952 1.99893,1.6e-4 3.62025,-1.62854 3.62306,-3.63952 h 0.005 l -0.0239,-23.30553 c 0,0 -0.11371,-2.06014 -0.23308,-3.0842 -0.13107,-1.12398 -0.2741,-2.21667 -0.52994,-3.35315 -0.25531,-1.13436 -0.46568,-2.28029 -0.77336,-3.40166 -1.04611,-3.81266 -2.13273,-7.63347 -3.64102,-11.28803 -3.61823,-8.76691 -12.96751,-15.8729 -12.90658,-25.35692 0.0203,-2.93516 4.09576,-7.79659 4.09576,-7.79659 0,0 -6.26889,-0.006 -9.21022,0.92595 -3.19982,1.01422 -8.770441,4.94843 -8.770441,4.94843 0,0 0.52583,-9.10755 2.30966,-13.20428 1.05677,-2.42697 4.794351,-6.33062 4.794351,-6.33062 z"
         style="fill:#202741;fill-opacity:1;fill-rule:evenodd;stroke:none;stroke-width:0.76589817px;stroke-linecap:butt;stroke-linejoin:miter;stroke-opacity:1" />
      <ellipse
         ry="2.2376862"
         rx="2.2242696"
         cy="278.18652"
         cx="40.808125"
         id="path4562-1"
         style="color:#000000;clip-rule:nonzero;display:inline;overflow:visible;visibility:visible;opacity:1;isolation:auto;mix-blend-mode:normal;color-interpolation:sRGB;color-interpolation-filters:linearRGB;solid-color:#000000;solid-opacity:1;fill:#f8fdfe;fill-opacity:1;fill-rule:evenodd;stroke:none;stroke-width:2.01503086;stroke-linecap:round;stroke-linejoin:round;stroke-miterlimit:4;stroke-dasharray:none;stroke-dashoffset:0;stroke-opacity:1;color-rendering:auto;image-rendering:auto;shape-rendering:auto;text-rendering:auto;enable-background:accumulate" />
      <ellipse
         ry="2.2376862"
         rx="2.2242696"
         cy="278.18652"
         cx="86.617943"
         id="path4562-1-2"
         style="color:#000000;clip-rule:nonzero;display:inline;overflow:visible;visibility:visible;opacity:1;isolation:auto;mix-blend-mode:normal;color-interpolation:sRGB;color-interpolation-filters:linearRGB;solid-color:#000000;solid-opacity:1;fill:#f8fdfe;fill-opacity:1;fill-rule:evenodd;stroke:none;stroke-width:2.01503086;stroke-linecap:round;stroke-linejoin:round;stroke-miterlimit:4;stroke-dasharray:none;stroke-dashoffset:0;stroke-opacity:1;color-rendering:auto;image-rendering:auto;shape-rendering:auto;text-rendering:auto;enable-background:accumulate" />
      <path
         inkscape:connector-curvature="0"
         id="path4626"
         d="m 42.930189,257.33764 a 2.8950229,2.8950229 0 0 0 -1.0516,0.16963 l -9.07433,3.11523 a 2.8964946,2.8964946 0 1 0 1.88271,5.47851 l 9.06865,-3.11523 a 2.8950229,2.8950229 0 0 0 -0.82543,-5.64814 z"
         style="color:#000000;font-style:normal;font-variant:normal;font-weight:normal;font-stretch:normal;font-size:medium;line-height:normal;font-family:sans-serif;font-variant-ligatures:normal;font-variant-position:normal;font-variant-caps:normal;font-variant-numeric:normal;font-variant-alternates:normal;font-feature-settings:normal;text-indent:0;text-align:start;text-decoration:none;text-decoration-line:none;text-decoration-style:solid;text-decoration-color:#000000;letter-spacing:normal;word-spacing:normal;text-transform:none;writing-mode:lr-tb;direction:ltr;text-orientation:mixed;dominant-baseline:auto;baseline-shift:baseline;text-anchor:start;white-space:normal;shape-padding:0;clip-rule:nonzero;display:inline;overflow:visible;visibility:visible;opacity:1;isolation:auto;mix-blend-mode:normal;color-interpolation:sRGB;color-interpolation-filters:linearRGB;solid-color:#000000;solid-opacity:1;vector-effect:none;fill:#202741;fill-opacity:1;fill-rule:evenodd;stroke:none;stroke-width:5.78946733;stroke-linecap:round;stroke-linejoin:miter;stroke-miterlimit:4;stroke-dasharray:none;stroke-dashoffset:0;stroke-opacity:1;color-rendering:auto;image-rendering:auto;shape-rendering:auto;text-rendering:auto;enable-background:accumulate" />
      <path
         inkscape:connector-curvature="0"
         id="path4626-7"
         d="m 87.233169,257.34331 a 2.8950229,2.8950229 0 0 0 -0.74066,5.64247 l 9.06868,3.11523 a 2.8964951,2.8964951 0 1 0 1.88271,-5.47851 l -9.07432,-3.11523 a 2.8950229,2.8950229 0 0 0 -1.13641,-0.16384 z"
         style="color:#000000;font-style:normal;font-variant:normal;font-weight:normal;font-stretch:normal;font-size:medium;line-height:normal;font-family:sans-serif;font-variant-ligatures:normal;font-variant-position:normal;font-variant-caps:normal;font-variant-numeric:normal;font-variant-alternates:normal;font-feature-settings:normal;text-indent:0;text-align:start;text-decoration:none;text-decoration-line:none;text-decoration-style:solid;text-decoration-color:#000000;letter-spacing:normal;word-spacing:normal;text-transform:none;writing-mode:lr-tb;direction:ltr;text-orientation:mixed;dominant-baseline:auto;baseline-shift:baseline;text-anchor:start;white-space:normal;shape-padding:0;clip-rule:nonzero;display:inline;overflow:visible;visibility:visible;opacity:1;isolation:auto;mix-blend-mode:normal;color-interpolation:sRGB;color-interpolation-filters:linearRGB;solid-color:#000000;solid-opacity:1;vector-effect:none;fill:#202741;fill-opacity:1;fill-rule:evenodd;stroke:none;stroke-width:5.78946733;stroke-linecap:round;stroke-linejoin:miter;stroke-miterlimit:4;stroke-dasharray:none;stroke-dashoffset:0;stroke-opacity:1;color-rendering:auto;image-rendering:auto;shape-rendering:auto;text-rendering:auto;enable-background:accumulate" />
      <path
         inkscape:connector-curvature="0"
         id="path4659"
         d="m 65.725939,281.79545 a 1.4475115,1.4475115 0 0 0 -1.4241,1.47045 v 5.49442 a 1.4475115,1.4475115 0 0 0 0.32013,1.14586 1.4475115,1.4475115 0 0 0 0.0111,0.0123 1.4475115,1.4475115 0 0 0 0.0254,0.0284 1.4475115,1.4475115 0 0 0 1.25656,0.48766 c 10e-4,2e-5 0.002,-4e-5 0.002,0 1.54438,0.0495 2.9568,0.87772 3.73825,2.21991 0.80861,1.38892 0.81542,3.09893 0.0179,4.49366 -0.79849,1.39475 -2.27476,2.25299 -3.88185,2.25882 a 1.4475115,1.4475115 0 0 0 -1.46449,1.47644 h -0.003 a 1.4475115,1.4475115 0 0 0 1.47495,1.4196 c 2.63664,-0.009 5.06996,-1.42758 6.38,-3.71581 1.31001,-2.28822 1.30038,-5.11107 -0.0254,-7.38972 -1.07829,-1.85209 -2.89915,-3.10793 -4.9574,-3.51385 v -4.41738 a 1.4475115,1.4475115 0 0 0 -1.47037,-1.47045 z"
         style="color:#000000;font-style:normal;font-variant:normal;font-weight:normal;font-stretch:normal;font-size:medium;line-height:normal;font-family:sans-serif;font-variant-ligatures:normal;font-variant-position:normal;font-variant-caps:normal;font-variant-numeric:normal;font-variant-alternates:normal;font-feature-settings:normal;text-indent:0;text-align:start;text-decoration:none;text-decoration-line:none;text-decoration-style:solid;text-decoration-color:#000000;letter-spacing:normal;word-spacing:normal;text-transform:none;writing-mode:lr-tb;direction:ltr;text-orientation:mixed;dominant-baseline:auto;baseline-shift:baseline;text-anchor:start;white-space:normal;shape-padding:0;clip-rule:nonzero;display:inline;overflow:visible;visibility:visible;opacity:1;isolation:auto;mix-blend-mode:normal;color-interpolation:sRGB;color-interpolation-filters:linearRGB;solid-color:#000000;solid-opacity:1;vector-effect:none;fill:#c4854e;fill-opacity:1;fill-rule:evenodd;stroke:none;stroke-width:2.89473367;stroke-linecap:round;stroke-linejoin:round;stroke-miterlimit:4;stroke-dasharray:none;stroke-dashoffset:0;stroke-opacity:1;color-rendering:auto;image-rendering:auto;shape-rendering:auto;text-rendering:auto;enable-background:accumulate" />
      <path
         inkscape:connector-curvature="0"
         id="path4659-3"
         d="m 58.325419,308.97358 a 1.8432703,1.8432703 0 0 0 -1.81488,1.86573 c 0,3.46078 1.73204,6.68887 4.6248,8.46371 2.89276,1.77487 6.52076,1.77487 9.41353,0 2.89279,-1.77484 4.6248,-5.00293 4.6248,-8.46371 a 1.8432703,1.8432703 0 1 0 -3.68627,0 c 0,2.2271 -1.12403,4.25681 -2.86646,5.32588 -1.74244,1.06906 -3.82087,1.06906 -5.56332,0 -1.74244,-1.06907 -2.86081,-3.09878 -2.86081,-5.32588 a 1.8432703,1.8432703 0 0 0 -1.87139,-1.86573 z"
         style="color:#000000;font-style:normal;font-variant:normal;font-weight:normal;font-stretch:normal;font-size:medium;line-height:normal;font-family:sans-serif;font-variant-ligatures:normal;font-variant-position:normal;font-variant-caps:normal;font-variant-numeric:normal;font-variant-alternates:normal;font-feature-settings:normal;text-indent:0;text-align:start;text-decoration:none;text-decoration-line:none;text-decoration-style:solid;text-decoration-color:#000000;letter-spacing:normal;word-spacing:normal;text-transform:none;writing-mode:lr-tb;direction:ltr;text-orientation:mixed;dominant-baseline:auto;baseline-shift:baseline;text-anchor:start;white-space:normal;shape-padding:0;clip-rule:nonzero;display:inline;overflow:visible;visibility:visible;opacity:1;isolation:auto;mix-blend-mode:normal;color-interpolation:sRGB;color-interpolation-filters:linearRGB;solid-color:#000000;solid-opacity:1;vector-effect:none;fill:#c4854e;fill-opacity:1;fill-rule:evenodd;stroke:none;stroke-width:3.68617201;stroke-linecap:round;stroke-linejoin:round;stroke-miterlimit:4;stroke-dasharray:none;stroke-dashoffset:0;stroke-opacity:1;color-rendering:auto;image-rendering:auto;shape-rendering:auto;text-rendering:auto;enable-background:accumulate" />
    </g>
    <path
       style="opacity:1;fill:#f2f2f2;fill-opacity:1;stroke:none;stroke-width:22.29697227;stroke-linecap:butt;stroke-linejoin:round;stroke-miterlimit:4;stroke-dasharray:none;stroke-opacity:1"
       d="m 2.0239974,103.68118 c 36.1660726,3e-5 65.4844556,29.31841 65.4845016,65.48449 -0.03198,27.07987 -16.728945,51.34672 -42.008926,61.05461 -5.55108,2.91049 -12.427751,7.05241 -15.6120827,11.11921 -3.5708275,4.56039 -5.9389168,10.70907 -5.4946878,16.48407 0.3299356,4.28922 4.3534137,10.726 6.7110255,13.89698 0.526998,0.7088 0.592072,0.92003 0.338053,1.28147 -0.209094,0.29753 -0.411122,0.28394 -1.086785,0.0955 -3.9255713,-1.0946 -11.9200485,-3.77202 -16.0733993,-6.21826 C -19.360824,258.8441 -32.676501,250.24384 -41.886265,236.0895 -51.096029,221.93517 -59.128,202.59181 -61.395288,189.59926 c -2.267274,-12.99257 -2.042175,-16.72976 -2.065216,-20.43365 3e-5,-36.16608 29.318428,-65.48446 65.4845014,-65.48449 z"
       id="path4485-3"
       inkscape:connector-curvature="0"
       sodipodi:nodetypes="cccsssasszzcc" />
    <path
       inkscape:connector-curvature="0"
       id="path4894-5"
       style="font-style:normal;font-variant:normal;font-weight:bold;font-stretch:normal;font-size:medium;line-height:176.43554688px;font-family:Comfortaa;-inkscape-font-specification:'Comfortaa Bold';text-align:start;letter-spacing:0px;word-spacing:0px;writing-mode:lr-tb;text-anchor:start;fill:#ff9955;fill-opacity:1;stroke:none;stroke-width:1.91417778px;stroke-linecap:butt;stroke-linejoin:miter;stroke-opacity:1"
       d="M -33.021413,217.33923 H 2.8694354 q 1.6449934,0 2.7665726,-1.15898 1.1589763,-1.1216 1.1589763,-2.72919 0,-1.64502 -1.1589763,-2.80399 -1.1215792,-1.12158 -2.7665726,-1.12158 H -33.021413 q -1.607617,0 -2.729196,1.12158 -1.158996,1.15897 -1.158996,2.80399 0,1.60759 1.158996,2.72919 1.121579,1.15898 2.729196,1.15898 z" />
    <path
       style="font-style:normal;font-variant:normal;font-weight:bold;font-stretch:normal;font-size:medium;line-height:176.43554688px;font-family:Comfortaa;-inkscape-font-specification:'Comfortaa Bold';text-align:start;letter-spacing:0px;word-spacing:0px;writing-mode:lr-tb;text-anchor:start;fill:#ff5599;fill-opacity:1;stroke:none;stroke-width:1.77370465px;stroke-linecap:butt;stroke-linejoin:miter;stroke-opacity:1"
       d="m -28.09337,147.87285 c 1.374247,0 2.550209,0.48887 3.528501,1.46717 0.954985,0.95499 1.432695,2.11978 1.432695,3.49405 0,1.37424 -0.47771,2.55062 -1.432695,3.5289 -0.978292,0.95502 -2.154254,1.43233 -3.528501,1.43233 -1.374266,0 -2.539064,-0.47731 -3.494068,-1.43233 -0.978292,-0.97828 -1.467582,-2.15466 -1.467582,-3.5289 0,-1.37427 0.48929,-2.53906 1.467582,-3.49405 0.955004,-0.9783 2.119802,-1.46717 3.494068,-1.46717 z m 16.610981,16.6251 c 1.016182,0 1.8705587,0.3461 2.5634007,1.03895 0.715931,0.71596 1.074232,1.58206 1.074232,2.59825 0,0.9931 -0.358301,1.8361 -1.074232,2.52894 -0.692842,0.71598 -1.5472187,1.07384 -2.5634007,1.07384 h -33.25685 c -0.993075,0 -1.836107,-0.35786 -2.528949,-1.07384 -0.715931,-0.69284 -1.074213,-1.53584 -1.074213,-2.52894 0,-1.01619 0.358282,-1.88229 1.074213,-2.59825 0.692842,-0.69285 1.535874,-1.03895 2.528949,-1.03895 z M -28.09337,178.4472 c 1.374247,0 2.550209,0.4893 3.528501,1.4676 0.954985,0.95498 1.432695,2.11937 1.432695,3.49363 0,1.37427 -0.47771,2.55063 -1.432695,3.5289 -0.978292,0.95503 -2.154254,1.43273 -3.528501,1.43273 -1.374266,0 -2.539064,-0.4777 -3.494068,-1.43273 -0.978292,-0.97827 -1.467582,-2.15463 -1.467582,-3.5289 0,-1.37426 0.48929,-2.53865 1.467582,-3.49363 0.955004,-0.9783 2.119802,-1.4676 3.494068,-1.4676 z"
       id="path4885-6"
       inkscape:connector-curvature="0" />
    <path
       inkscape:connector-curvature="0"
       id="path4891-2"
       style="font-style:normal;font-variant:normal;font-weight:bold;font-stretch:normal;font-size:medium;line-height:213.07107544px;font-family:Comfortaa;-inkscape-font-specification:'Comfortaa Bold';text-align:start;letter-spacing:0px;word-spacing:0px;writing-mode:lr-tb;text-anchor:start;fill:#5599ff;fill-opacity:1;stroke:none;stroke-width:2.1702776px;stroke-linecap:butt;stroke-linejoin:miter;stroke-opacity:1"
       d="M -9.5116006,144.60045 H 2.1451537 v 11.65678 q 0,1.90746 1.2716609,3.1791 1.2292538,1.22928 3.1367157,1.22928 1.9074826,0 3.1791246,-1.22928 1.2716591,-1.27164 1.2716591,-3.1791 v -11.65678 h 11.656755 q 1.907482,0 3.179124,-1.27164 1.229272,-1.27164 1.229272,-3.1791 0,-1.90748 -1.229272,-3.13671 -1.271642,-1.27169 -3.179124,-1.27169 H 11.004314 v -11.65677 q 0,-1.82267 -1.2716591,-3.13671 -1.314031,-1.31403 -3.1791246,-1.31403 -1.9074619,0 -3.1367157,1.31403 -1.2716609,1.27164 -1.2716609,3.13671 v 11.65677 H -9.5116006 q -1.8226864,0 -3.1367354,1.31405 -1.314048,1.27164 -1.314048,3.13674 0,1.82271 1.314048,3.13671 1.314049,1.27164 3.1367354,1.27164 z" />
    <path
       inkscape:connector-curvature="0"
       id="path4897-9"
       style="font-style:normal;font-variant:normal;font-weight:bold;font-stretch:normal;font-size:medium;line-height:213.07107544px;font-family:Comfortaa;-inkscape-font-specification:'Comfortaa Bold';text-align:start;letter-spacing:0px;word-spacing:0px;writing-mode:lr-tb;text-anchor:start;fill:#8dd35f;fill-opacity:1;stroke:none;stroke-width:2.42438054px;stroke-linecap:butt;stroke-linejoin:miter;stroke-opacity:1"
       d="m 19.589426,199.16987 9.190188,-9.22507 9.225067,9.19018 q 1.509558,1.50385 3.518494,1.50002 1.941985,-0.003 3.445829,-1.51324 1.503845,-1.50952 1.533583,-3.48506 -0.004,-2.00894 -1.513369,-3.51278 l -9.225067,-9.19021 9.190168,-9.22504 q 1.503866,-1.50956 1.500015,-3.51849 -0.03728,-1.97541 -1.54675,-3.47924 -1.50958,-1.50384 -3.451524,-1.50018 -2.008935,0.003 -3.512801,1.51335 l -9.190166,9.22509 -9.225069,-9.19019 q -1.442464,-1.43699 -3.484947,-1.46663 -2.075927,0.004 -3.546347,1.47994 -1.503865,1.50956 -1.433085,3.5184 0.004,2.00893 1.479821,3.47933 l 9.225068,9.19018 -9.190168,9.22511 q -1.437018,1.44245 -1.433085,3.51836 -0.02949,2.04248 1.446417,3.5129 1.442464,1.43701 3.518371,1.43309 2.042339,-0.0373 3.479357,-1.47982 z" />
  </g>
</svg>
