<?xml version="1.0" encoding="UTF-8" standalone="no"?>
<!-- Created with Inkscape (http://www.inkscape.org/) -->

<svg
   xmlns:dc="http://purl.org/dc/elements/1.1/"
   xmlns:cc="http://creativecommons.org/ns#"
   xmlns:rdf="http://www.w3.org/1999/02/22-rdf-syntax-ns#"
   xmlns:svg="http://www.w3.org/2000/svg"
   xmlns="http://www.w3.org/2000/svg"
   xmlns:xlink="http://www.w3.org/1999/xlink"
   xmlns:sodipodi="http://sodipodi.sourceforge.net/DTD/sodipodi-0.dtd"
   xmlns:inkscape="http://www.inkscape.org/namespaces/inkscape"
   width="14.552083mm"
   height="14.552083mm"
   viewBox="0 0 14.552083 14.552083"
   version="1.1"
   id="svg4798"
   inkscape:version="0.92.0 r"
   sodipodi:docname="logo.svg"
   inkscape:export-filename="/home/fundacion/Documentos/fundecyt/resuelvo/resuelvo_logo.svg.png"
   inkscape:export-xdpi="96"
   inkscape:export-ydpi="96">
  <defs
     id="defs4792">
    <linearGradient
       inkscape:collect="always"
       id="linearGradient4550">
      <stop
         style="stop-color:#ffffff;stop-opacity:1;"
         offset="0"
         id="stop4546" />
      <stop
         style="stop-color:#ffffff;stop-opacity:0;"
         offset="1"
         id="stop4548" />
    </linearGradient>
    <radialGradient
       inkscape:collect="always"
       xlink:href="#linearGradient4550"
       id="radialGradient4552"
       cx="552.97217"
       cy="257.92426"
       fx="552.97217"
       fy="257.92426"
       r="185.129"
       gradientTransform="matrix(1,0,0,1.0114335,-487.20431,-18.301801)"
       gradientUnits="userSpaceOnUse" />
  </defs>
  <sodipodi:namedview
     id="base"
     pagecolor="#ffffff"
     bordercolor="#666666"
     borderopacity="1.0"
     inkscape:pageopacity="0.0"
     inkscape:pageshadow="2"
     inkscape:zoom="7.9195959"
     inkscape:cx="46.4567"
     inkscape:cy="30.720995"
     inkscape:document-units="mm"
     inkscape:current-layer="layer1"
     showgrid="false"
     inkscape:window-width="1366"
     inkscape:window-height="707"
     inkscape:window-x="0"
     inkscape:window-y="0"
     inkscape:window-maximized="1"
     fit-margin-top="0"
     fit-margin-left="0"
     fit-margin-right="0"
     fit-margin-bottom="0" />
  <metadata
     id="metadata4795">
    <rdf:RDF>
      <cc:Work
         rdf:about="">
        <dc:format>image/svg+xml</dc:format>
        <dc:type
           rdf:resource="http://purl.org/dc/dcmitype/StillImage" />
        <dc:title></dc:title>
      </cc:Work>
    </rdf:RDF>
  </metadata>
  <g
     inkscape:label="Capa 1"
     inkscape:groupmode="layer"
     id="layer1"
     transform="translate(127.33451,-422.46997)">
    <g
       id="g1132"
       style="opacity:1"
       transform="translate(-1.6502672,0.90262256)">
      <circle
         r="5.9266667"
         cy="428.79703"
         cx="-118.4082"
         id="path1045"
         style="color:#000000;clip-rule:nonzero;display:inline;overflow:visible;visibility:visible;opacity:1;isolation:auto;mix-blend-mode:normal;color-interpolation:sRGB;color-interpolation-filters:linearRGB;solid-color:#000000;solid-opacity:1;fill:#e6e6e6;fill-opacity:1;fill-rule:evenodd;stroke:none;stroke-width:0.05291667;stroke-linecap:butt;stroke-linejoin:miter;stroke-miterlimit:4;stroke-dasharray:none;stroke-dashoffset:0;stroke-opacity:1;color-rendering:auto;image-rendering:auto;shape-rendering:auto;text-rendering:auto;enable-background:accumulate" />
      <g
         transform="matrix(0.03131099,0,0,0.03096633,-120.46745,421.35175)"
         id="g190"
         style="opacity:1;stroke-width:32.11491013">
        <path
           inkscape:connector-curvature="0"
           id="path4893-7"
           d="m 65.767578,50.326172 c -104.977019,0 -190.128908,86.161508 -190.128908,192.246098 10e-6,106.08457 85.151893,192.24414 190.128908,192.24414 104.977012,0 190.128902,-86.15957 190.128902,-192.24414 0,-106.08459 -85.15188,-192.246098 -190.128902,-192.246098 z m 0,10 c 99.510832,0 180.128902,81.504818 180.128902,182.246098 0,100.74127 -80.61808,182.24414 -180.128902,182.24414 -99.510823,0 -180.128898,-81.50287 -180.128908,-182.24414 0,-100.74128 80.618081,-182.246098 180.128908,-182.246098 z"
           style="color:#000000;font-style:normal;font-variant:normal;font-weight:normal;font-stretch:normal;font-size:medium;line-height:normal;font-family:sans-serif;font-variant-ligatures:normal;font-variant-position:normal;font-variant-caps:normal;font-variant-numeric:normal;font-variant-alternates:normal;font-feature-settings:normal;text-indent:0;text-align:start;text-decoration:none;text-decoration-line:none;text-decoration-style:solid;text-decoration-color:#000000;letter-spacing:normal;word-spacing:normal;text-transform:none;writing-mode:lr-tb;direction:ltr;text-orientation:mixed;dominant-baseline:auto;baseline-shift:baseline;text-anchor:start;white-space:normal;shape-padding:0;clip-rule:nonzero;display:inline;overflow:visible;visibility:visible;opacity:0.98000004;isolation:auto;mix-blend-mode:normal;color-interpolation:sRGB;color-interpolation-filters:linearRGB;solid-color:#000000;solid-opacity:1;vector-effect:none;fill:#2c2ca0;fill-opacity:1;fill-rule:evenodd;stroke:none;stroke-width:321.14910889;stroke-linecap:round;stroke-linejoin:bevel;stroke-miterlimit:4;stroke-dasharray:none;stroke-dashoffset:0;stroke-opacity:1;color-rendering:auto;image-rendering:auto;shape-rendering:auto;text-rendering:auto;enable-background:accumulate" />
        <path
           style="color:#000000;clip-rule:nonzero;display:inline;overflow:visible;visibility:visible;opacity:0.98000004;isolation:auto;mix-blend-mode:normal;color-interpolation:sRGB;color-interpolation-filters:linearRGB;solid-color:#000000;solid-opacity:1;fill:url(#radialGradient4552);fill-opacity:1;fill-rule:evenodd;stroke:none;stroke-width:321.14910889;stroke-linecap:round;stroke-linejoin:bevel;stroke-miterlimit:4;stroke-dasharray:none;stroke-dashoffset:0;stroke-opacity:1;color-rendering:auto;image-rendering:auto;shape-rendering:auto;text-rendering:auto;enable-background:accumulate"
           d="m 250.89686,242.57143 a 185.129,187.24567 0 0 1 -185.129,187.24566 185.129,187.24567 0 0 1 -185.129,-187.24566 185.129,187.24567 0 0 1 185.129,-187.24567 185.129,187.24567 0 0 1 185.129,187.24567 z"
           id="path4893-7-3"
           inkscape:connector-curvature="0" />
        <g
           aria-label="7"
           transform="rotate(-33.68724)"
           style="font-style:normal;font-weight:normal;font-size:92.64499664px;line-height:57.90312576px;font-family:sans-serif;letter-spacing:0px;word-spacing:0px;fill:#cccccc;fill-opacity:1;stroke:none;stroke-width:74.38214111px;stroke-linecap:butt;stroke-linejoin:miter;stroke-opacity:1"
           id="text5591">
          <path
             d="M 36.369052,263.71625 67.220559,208.43686 H 40.847496 q -2.035656,0 -3.392761,-1.31187 -1.311867,-1.3571 -1.311867,-3.39276 0,-1.99042 1.311867,-3.34753 1.357105,-1.40234 3.392761,-1.40234 h 34.334743 q 0.99521,0 1.854709,0.40713 0.8595,0.3619 1.492815,0.99521 0.633316,0.63332 0.99521,1.49282 0.407131,0.8595 0.407131,1.85471 0,1.22139 -0.678552,2.53326 l -34.741874,62.47204 q -0.361894,0.67855 -0.904736,1.2214 -1.402341,1.40234 -3.392761,1.40234 -1.945183,0 -3.347524,-1.35711 -1.357105,-1.40234 -1.357105,-3.34752 0,-1.44758 0.8595,-2.94039 z"
             style="font-style:normal;font-variant:normal;font-weight:bold;font-stretch:normal;font-family:Comfortaa;-inkscape-font-specification:'Comfortaa Bold';fill:#cccccc;fill-opacity:1;stroke-width:74.38214111px"
             id="path130"
             inkscape:connector-curvature="0" />
        </g>
        <g
           aria-label="6"
           transform="rotate(21.654954)"
           style="font-style:normal;font-weight:normal;font-size:91.90901184px;line-height:57.44312668px;font-family:sans-serif;letter-spacing:0px;word-spacing:0px;fill:#cccccc;fill-opacity:1;stroke:none;stroke-width:73.79122925px;stroke-linecap:butt;stroke-linejoin:miter;stroke-opacity:1"
           id="text5587">
          <path
             d="m 120.94885,149.23959 h 1.30145 q 4.48774,0 8.43696,1.75022 3.94922,1.70534 6.91113,4.66725 2.96191,2.96191 4.66725,6.91113 1.70534,3.94921 1.70534,8.39208 0,4.44287 -1.70534,8.39208 -1.70534,3.94922 -4.66725,6.91113 -2.96191,2.96191 -6.91113,4.71213 -3.94922,1.70534 -8.43696,1.70534 -4.48774,0 -8.43696,-1.70534 -3.94922,-1.70534 -6.91113,-4.66725 -2.96191,-2.96192 -4.66725,-6.91113 -1.70534,-3.94922 -1.70534,-8.43696 0,-6.64186 3.50044,-11.89252 l -0.0449,0.0898 21.54117,-35.76732 q 0.67317,-1.12194 1.75022,-1.7951 1.07706,-0.71804 2.42339,-0.71804 2.01948,0 3.32093,1.3912 1.34632,1.34632 1.34632,3.32093 0,1.12194 -0.62828,2.37851 z m 13.64275,21.72068 q 0,-2.51314 -0.98731,-4.75701 -0.94242,-2.24387 -2.60289,-3.90434 -1.66046,-1.70534 -3.94921,-2.69264 -2.24388,-0.98731 -4.80189,-0.98731 -2.60289,0 -4.84676,0.98731 -2.24388,0.94242 -3.90434,2.60289 -1.66047,1.66046 -2.64777,3.94921 -0.94243,2.24388 -0.94243,4.80189 0,2.60289 0.94243,4.84676 0.9873,2.24388 2.64777,3.90434 1.66046,1.66047 3.90434,2.64777 2.24387,0.94243 4.84676,0.94243 2.55801,0 4.80189,-0.98731 2.28875,-0.9873 3.94921,-2.64777 1.66047,-1.70534 2.60289,-3.94921 0.98731,-2.24387 0.98731,-4.75701 z"
             style="font-style:normal;font-variant:normal;font-weight:bold;font-stretch:normal;font-family:Comfortaa;-inkscape-font-specification:'Comfortaa Bold';fill:#cccccc;fill-opacity:1;stroke-width:73.79122925px"
             id="path127"
             inkscape:connector-curvature="0" />
        </g>
        <g
           aria-label="2"
           transform="rotate(39.153997)"
           style="font-style:normal;font-weight:normal;font-size:83.56377411px;line-height:52.22735977px;font-family:sans-serif;letter-spacing:0px;word-spacing:0px;fill:#cccccc;fill-opacity:1;stroke:none;stroke-width:67.09107971px;stroke-linecap:butt;stroke-linejoin:miter;stroke-opacity:1"
           id="text5571">
          <path
             d="m 203.80974,146.42886 q 0,-4.08027 1.5505,-7.6709 1.5913,-3.59063 4.28428,-6.2836 2.69297,-2.69297 6.2836,-4.24347 3.59063,-1.5505 7.63009,-1.5505 4.03946,0 7.63009,1.5913 3.59063,1.5913 6.28361,4.28427 2.69297,2.69298 4.24347,6.28361 1.5913,3.59063 1.5913,7.58929 0,4.08026 -1.5097,7.58928 -1.46889,3.50903 -4.28427,6.36521 l -19.83008,23.01268 h 21.33978 q 1.79531,0 3.01939,1.26489 1.26488,1.26488 1.26488,3.01939 0,1.75451 -1.26488,3.01939 -1.22408,1.22408 -3.01939,1.22408 h -30.9692 q -0.89765,0 -1.6729,-0.32642 -0.77525,-0.32642 -1.34649,-0.89766 -0.57124,-0.61204 -0.89766,-1.38729 -0.32642,-0.77525 -0.32642,-1.6321 0,-1.83612 1.18328,-3.01939 l 26.4401,-30.19395 q 3.34581,-3.34581 3.34581,-8.03811 0,-2.28495 -0.89766,-4.32508 -0.89765,-2.04013 -2.44815,-3.54983 -1.5097,-1.5505 -3.54983,-2.44816 -2.04013,-0.89766 -4.32508,-0.89766 -2.32575,0 -4.36588,0.89766 -2.04013,0.85686 -3.59063,2.36655 -1.5097,1.5097 -2.40736,3.54983 -0.85685,2.04013 -0.85685,4.40669 0,1.75451 -1.26488,3.01939 -1.22408,1.22408 -3.0194,1.22408 -1.75451,0 -3.01939,-1.22408 -1.22408,-1.26488 -1.22408,-3.01939 z"
             style="font-style:normal;font-variant:normal;font-weight:bold;font-stretch:normal;font-family:Comfortaa;-inkscape-font-specification:'Comfortaa Bold';fill:#cccccc;fill-opacity:1;stroke-width:67.09107971px"
             id="path124"
             inkscape:connector-curvature="0" />
        </g>
        <g
           aria-label="9"
           style="font-style:normal;font-weight:normal;font-size:100.33483887px;line-height:62.70926666px;font-family:sans-serif;letter-spacing:0px;word-spacing:0px;fill:#cccccc;fill-opacity:1;stroke:none;stroke-width:80.55609894px;stroke-linecap:butt;stroke-linejoin:miter;stroke-opacity:1"
           id="text5599">
          <path
             d="M 146.65277,332.5315 H 145.281 q -4.94815,0 -9.30841,-1.91067 -4.36025,-1.91068 -7.64269,-5.14412 -3.28244,-3.28244 -5.19311,-7.6427 -1.91067,-4.40924 -1.91067,-9.40639 0,-4.99714 1.91067,-9.3574 1.91067,-4.36025 5.19311,-7.64269 3.28244,-3.28244 7.64269,-5.14412 4.36026,-1.91067 9.30841,-1.91067 4.89916,0 9.25942,1.95966 4.40924,1.91067 7.64269,5.19311 3.28244,3.28244 5.19311,7.6427 1.95967,4.36025 1.95967,9.25941 0,7.29975 -3.91933,13.12976 l -23.07506,38.31144 q -1.76369,2.79253 -4.60521,2.79253 -1.1268,0 -2.05765,-0.39194 -0.93084,-0.39193 -1.66571,-1.1268 -0.73488,-0.73488 -1.12681,-1.66572 -0.39193,-0.93084 -0.39193,-1.95966 0,-1.42076 0.73487,-2.69454 z m -15.04043,-24.10388 q 0,2.9395 1.07782,5.43807 1.1268,2.49858 2.98848,4.36026 1.86169,1.81269 4.31127,2.8905 2.49857,1.02883 5.29109,1.02883 2.84152,0 5.2911,-1.07782 2.49857,-1.12681 4.36025,-2.98849 1.86168,-1.86168 2.9395,-4.31126 1.07781,-2.49857 1.07781,-5.34009 0,-2.79252 -1.1268,-5.2421 -1.07782,-2.49857 -2.9395,-4.36026 -1.86168,-1.86168 -4.36025,-2.93949 -2.44959,-1.12681 -5.24211,-1.12681 -2.84151,0 -5.34008,1.07782 -2.44959,1.07781 -4.31127,2.93949 -1.86168,1.81269 -2.93949,4.31127 -1.07782,2.44958 -1.07782,5.34008 z"
             style="font-style:normal;font-variant:normal;font-weight:bold;font-stretch:normal;font-family:Comfortaa;-inkscape-font-specification:'Comfortaa Bold';fill:#cccccc;fill-opacity:1;stroke-width:80.55609894px"
             id="path121"
             inkscape:connector-curvature="0" />
        </g>
        <g
           aria-label="3"
           transform="rotate(-27.257299)"
           style="font-style:normal;font-weight:normal;font-size:93.70336151px;line-height:58.5646019px;font-family:sans-serif;letter-spacing:0px;word-spacing:0px;fill:#cccccc;fill-opacity:1;stroke:none;stroke-width:75.23188019px;stroke-linecap:butt;stroke-linejoin:miter;stroke-opacity:1"
           id="text5575">
          <path
             d="m -120.40151,111.75063 q 0,-3.98057 1.46412,-7.41209 1.50986,-3.47727 4.02631,-6.039471 2.5622,-2.607955 5.94797,-4.07207 3.38576,-1.509868 7.22907,-1.509868 3.843299,0 7.229065,1.509868 3.385766,1.509869 5.902214,4.117824 2.562201,2.607957 4.026316,6.039477 1.509868,3.43152 1.509868,7.36633 0,7.59509 -5.627692,13.49731 9.104966,7.27482 9.104966,18.25568 0,4.62111 -1.738637,8.73894 -1.738637,4.07207 -4.758374,7.13756 -3.019737,3.06549 -7.046053,4.84988 -4.026317,1.78439 -8.601673,1.78439 -4.57536,0 -8.60168,-1.73864 -4.02632,-1.78439 -7.04605,-4.84988 -3.01974,-3.06549 -4.75838,-7.13756 -1.73863,-4.11782 -1.73863,-8.78469 0,-2.10466 1.32685,-3.47727 1.37261,-1.37261 3.43152,-1.37261 2.01316,0 3.38577,1.37261 1.41836,1.37261 1.41836,3.47727 0,2.69946 0.96082,5.0329 1.00658,2.33343 2.69947,4.07207 1.69288,1.69288 3.98056,2.69946 2.28768,1.00658 4.94139,1.00658 2.607952,0 4.895632,-1.00658 2.333433,-1.05233 4.026316,-2.79097 1.692883,-1.73864 2.653708,-4.07207 1.006579,-2.33343 1.006579,-4.94139 0,-2.60795 -1.006579,-4.94139 -0.960825,-2.33343 -2.653708,-4.07207 -1.692883,-1.73863 -4.026316,-2.74521 -2.28768,-1.05234 -4.895632,-1.05234 -2.05891,0 -3.43152,-1.3726 -1.37261,-1.41837 -1.37261,-3.47728 0,-2.10466 1.37261,-3.47727 1.37261,-1.37261 3.43152,-1.37261 1.830141,0 3.47727,-0.73206 1.692883,-0.73205 2.92823,-1.9674 1.235347,-1.2811 1.967405,-2.97398 0.732057,-1.69289 0.732057,-3.56878 0,-1.92165 -0.732057,-3.61454 -0.732058,-1.69288 -2.013158,-2.92823 -1.235347,-1.2811 -2.882477,-2.01316 -1.647129,-0.77781 -3.47727,-0.77781 -1.8759,0 -3.56878,0.77781 -1.64713,0.73206 -2.88248,2.01316 -1.23535,1.23535 -1.9674,2.92823 -0.73206,1.69289 -0.68631,3.61454 0,1.9674 -1.41836,3.38576 -1.37261,1.41836 -3.38577,1.41836 -1.9674,0 -3.38576,-1.41836 -1.37261,-1.41836 -1.37261,-3.38576 z"
             style="font-style:normal;font-variant:normal;font-weight:bold;font-stretch:normal;font-family:Comfortaa;-inkscape-font-specification:'Comfortaa Bold';fill:#cccccc;fill-opacity:1;stroke-width:75.23188019px"
             id="path118"
             inkscape:connector-curvature="0" />
        </g>
        <g
           aria-label="8"
           transform="rotate(-34.384339)"
           style="font-style:normal;font-weight:normal;font-size:91.95925903px;line-height:57.47453308px;font-family:sans-serif;letter-spacing:0px;word-spacing:0px;fill:#cccccc;fill-opacity:1;stroke:none;stroke-width:73.83158112px;stroke-linecap:butt;stroke-linejoin:miter;stroke-opacity:1"
           id="text5595">
          <path
             d="m -204.61674,250.18388 q -1.88589,0 -3.54726,0.71843 -1.66137,0.71844 -2.91863,1.97569 -1.21235,1.21236 -1.93078,2.87373 -0.71843,1.66137 -0.71843,3.54726 0,1.84098 0.67353,3.50235 0.71843,1.66137 1.93078,2.91863 1.25726,1.21235 2.91863,1.93078 1.66137,0.67353 3.59216,0.67353 1.79608,0 3.45745,-0.71843 1.66137,-0.71843 2.87373,-1.93078 1.25725,-1.25726 1.97568,-2.87373 0.76334,-1.66137 0.76334,-3.50235 0,-1.88589 -0.76334,-3.54726 -0.71843,-1.66137 -1.97568,-2.87373 -1.25726,-1.25725 -2.91863,-1.97569 -1.61647,-0.71843 -3.41255,-0.71843 z m 0,27.65962 q -2.64922,0 -4.93922,0.98785 -2.2451,0.98784 -3.95137,2.69412 -1.66138,1.66137 -2.64922,3.95137 -0.98785,2.29 -0.98785,4.89432 0,2.64921 0.98785,4.93921 0.98784,2.2451 2.64922,3.95138 1.70627,1.66137 3.95137,2.64922 2.29,0.98784 4.93922,0.98784 2.60431,0 4.89431,-0.98784 2.29,-1.03275 3.95138,-2.73902 1.70627,-1.70628 2.69412,-3.95138 0.98784,-2.29 0.98784,-4.84941 0,-2.55942 -0.98784,-4.80452 -0.98785,-2.29 -2.69412,-3.99627 -1.66138,-1.70628 -3.95138,-2.69412 -2.29,-1.03275 -4.89431,-1.03275 z m -13.02158,-5.29843 q -5.56784,-5.56785 -5.56784,-13.24608 0,-3.86158 1.48176,-7.27413 1.48177,-3.41255 3.99628,-5.92706 2.55941,-2.51451 5.92706,-3.95137 3.36765,-1.48177 7.18432,-1.48177 3.81667,0 7.18431,1.48177 3.36765,1.48176 5.88216,4.04118 2.55942,2.51451 3.99628,5.92706 1.48177,3.36765 1.48177,7.18432 0,7.63333 -5.56785,13.24608 9.0702,7.13941 9.0702,17.82609 0,4.5351 -1.75118,8.53137 -1.75117,3.99628 -4.75961,7.00471 -2.96353,3.00844 -7.00471,4.75961 -3.99627,1.75118 -8.53137,1.75118 -4.58,0 -8.57628,-1.70628 -3.99628,-1.75117 -7.00471,-4.75961 -3.00843,-3.00843 -4.75961,-7.0047 -1.70628,-3.99628 -1.70628,-8.57628 0,-10.73158 9.0253,-17.82609 z"
             style="font-style:normal;font-variant:normal;font-weight:bold;font-stretch:normal;font-family:Comfortaa;-inkscape-font-specification:'Comfortaa Bold';fill:#cccccc;fill-opacity:1;stroke-width:73.83158112px"
             id="path115"
             inkscape:connector-curvature="0" />
        </g>
        <g
           aria-label="1"
           transform="rotate(-36.642366)"
           style="font-style:normal;font-weight:normal;font-size:93.60817719px;line-height:58.50510788px;font-family:sans-serif;letter-spacing:0px;word-spacing:0px;fill:#cccccc;fill-opacity:1;stroke:none;stroke-width:75.15545654px;stroke-linecap:butt;stroke-linejoin:miter;stroke-opacity:1"
           id="text5567">
          <path
             d="m -203.39748,193.54619 v -56.90536 q -1.37121,0.45707 -2.87955,1.05126 -1.50833,0.54849 -2.74242,0.54849 -2.05682,0 -3.42804,-1.32551 -1.3255,-1.37121 -1.3255,-3.42803 0,-1.46263 0.73131,-2.60531 0.77702,-1.14268 2.33106,-1.87399 l 10.46693,-3.47374 q 0.82273,-0.31995 1.64546,-0.31995 2.05682,0 3.38233,1.41692 1.37121,1.37121 1.37121,3.38232 v 63.5329 q 0,1.9654 -1.41692,3.38232 -1.37121,1.37122 -3.38233,1.37122 -1.9654,0 -3.38232,-1.37122 -1.37122,-1.41692 -1.37122,-3.38232 z"
             style="font-style:normal;font-variant:normal;font-weight:bold;font-stretch:normal;font-family:Comfortaa;-inkscape-font-specification:'Comfortaa Bold';fill:#cccccc;fill-opacity:1;stroke-width:75.15545654px"
             id="path112"
             inkscape:connector-curvature="0" />
        </g>
        <g
           aria-label="4"
           transform="rotate(-36.606755)"
           style="font-style:normal;font-weight:normal;font-size:93.56700897px;line-height:58.47937775px;font-family:sans-serif;letter-spacing:0px;word-spacing:0px;fill:#cccccc;fill-opacity:1;stroke:none;stroke-width:75.12240601px;stroke-linecap:butt;stroke-linejoin:miter;stroke-opacity:1"
           id="text5579">
          <path
             d="M -4.0366769,145.19867 V 120.1165 l -17.3153791,25.08217 z m 0,23.16331 V 154.70157 H -30.489459 q -2.055916,0 -3.426526,-1.32493 -1.324924,-1.37061 -1.324924,-3.42652 0,-1.59905 0.91374,-2.78691 l 31.1585454,-45.09309 q 0.6396182,-0.91374 1.6447326,-1.46198 1.05080133,-0.54824 2.28435077,-0.54824 0.95942733,0 1.82748063,0.41118 0.8680533,0.36549 1.5076715,1.00511 0.6853053,0.63962 1.0508014,1.50767 0.3654961,0.86806 0.3654961,1.87317 v 40.34164 h 5.6195026 q 2.010229,0 3.38084,1.37061 1.416297,1.32492 1.416297,3.38084 0,2.05591 -1.416297,3.42652 -1.370611,1.32493 -3.38084,1.32493 H 5.5119094 v 13.66041 q 0,1.96455 -1.4162975,3.38084 -1.3706104,1.37061 -3.38083915,1.37061 -1.96454165,0 -3.38083915,-1.37061 -1.3706105,-1.41629 -1.3706105,-3.38084 z"
             style="font-style:normal;font-variant:normal;font-weight:bold;font-stretch:normal;font-family:Comfortaa;-inkscape-font-specification:'Comfortaa Bold';fill:#cccccc;fill-opacity:1;stroke-width:75.12240601px"
             id="path109"
             inkscape:connector-curvature="0" />
        </g>
        <g
           aria-label="5"
           transform="rotate(-28.8202)"
           style="font-style:normal;font-weight:normal;font-size:85.32448578px;line-height:53.32780075px;font-family:sans-serif;letter-spacing:0px;word-spacing:0px;fill:#cccccc;fill-opacity:1;stroke:none;stroke-width:68.50469208px;stroke-linecap:butt;stroke-linejoin:miter;stroke-opacity:1"
           id="text5583">
          <path
             d="M 69.483739,290.81947 H 45.36124 v 14.41517 h 9.915639 q 4.374546,0 8.290806,1.70816 3.957923,1.70816 6.957612,4.66618 2.999689,2.91637 4.749508,6.91595 1.749818,3.95792 1.749818,8.45746 0,4.45787 -1.749818,8.41579 -1.708156,3.95793 -4.666183,6.91595 -2.958027,2.95803 -6.915949,4.70785 -3.957923,1.70815 -8.415794,1.70815 -4.457872,0 -8.415794,-1.70815 -3.957923,-1.74982 -6.91595,-4.70785 -2.958027,-2.95802 -4.707845,-6.91595 -1.708156,-3.95792 -1.708156,-8.41579 0,-1.87481 1.208208,-3.08302 1.24987,-1.24987 3.124676,-1.24987 1.833143,0 3.083013,1.24987 1.291533,1.20821 1.291533,3.08302 0,2.70805 0.999896,5.0828 1.041559,2.37476 2.791378,4.16624 1.79148,1.74982 4.166234,2.79138 2.374754,0.99989 5.082807,0.99989 2.66639,0 5.041143,-0.99989 2.374754,-1.04156 4.166235,-2.83304 1.791481,-1.79148 2.791377,-4.12458 1.041559,-2.37475 1.041559,-5.0828 0,-2.66639 -1.041559,-5.04115 -1.041558,-2.37475 -2.833039,-4.12457 -1.749819,-1.79148 -4.124573,-2.83304 -2.374753,-1.04156 -5.041143,-1.04156 H 41.028356 q -1.874806,0 -3.124676,-1.24987 -1.208208,-1.24987 -1.208208,-3.12467 v -23.08094 q 0,-1.83315 1.208208,-3.08302 1.24987,-1.29153 3.124676,-1.29153 h 28.455383 q 1.833143,0 3.083013,1.29153 1.291533,1.29154 1.291533,3.08302 0,1.79148 -1.291533,3.08301 -1.24987,1.24987 -3.083013,1.24987 z"
             style="font-style:normal;font-variant:normal;font-weight:bold;font-stretch:normal;font-family:Comfortaa;-inkscape-font-specification:'Comfortaa Bold';fill:#cccccc;fill-opacity:1;stroke-width:68.50469208px"
             id="path106"
             inkscape:connector-curvature="0" />
        </g>
        <g
           aria-label="0"
           transform="rotate(18.634043)"
           style="font-style:normal;font-weight:normal;font-size:81.83328247px;line-height:51.14579391px;font-family:sans-serif;letter-spacing:0px;word-spacing:0px;fill:#cccccc;fill-opacity:1;stroke:none;stroke-width:65.70170593px;stroke-linecap:butt;stroke-linejoin:miter;stroke-opacity:1"
           id="text5603">
          <path
             d="m 166.1495,323.57622 q 0,-7.55199 1.31861,-13.46573 1.3186,-5.95369 3.79597,-10.06933 2.47738,-4.11564 6.11353,-6.27335 3.63614,-2.19767 8.31119,-2.19767 4.67504,0 8.31119,2.23763 3.63615,2.19767 6.11352,6.35327 2.51733,4.11563 3.79598,10.06932 1.3186,5.91374 1.3186,13.34586 0,7.43213 -1.3186,13.38582 -1.27865,5.91373 -3.79598,10.06933 -2.47737,4.11564 -6.11352,6.35326 -3.63615,2.19768 -8.31119,2.19768 -4.67505,0 -8.31119,-2.15772 -3.63615,-2.19767 -6.11353,-6.27335 -2.47737,-4.11564 -3.79597,-10.06933 -1.31861,-5.95369 -1.31861,-13.50569 z m 19.5393,-23.53506 q -2.79704,0 -4.91479,1.7981 -2.0778,1.79809 -3.47632,4.91479 -1.35856,3.1167 -2.03784,7.47208 -0.67928,4.31543 -0.67928,9.35009 0,5.11458 0.67928,9.46997 0.67928,4.31542 2.0778,7.43212 1.39852,3.1167 3.47631,4.87484 2.0778,1.75813 4.87484,1.75813 2.83699,0 4.91479,-1.79809 2.11776,-1.7981 3.47632,-4.91479 1.35856,-3.15666 2.03784,-7.47209 0.67928,-4.31542 0.67928,-9.35009 0,-4.9947 -0.71924,-9.31013 -0.67928,-4.31543 -2.03784,-7.47208 -1.35856,-3.15666 -3.47632,-4.95475 -2.0778,-1.7981 -4.87483,-1.7981 z"
             style="font-style:normal;font-variant:normal;font-weight:bold;font-stretch:normal;font-family:Comfortaa;-inkscape-font-specification:'Comfortaa Bold';fill:#cccccc;fill-opacity:1;stroke-width:65.70170593px"
             id="path103"
             inkscape:connector-curvature="0" />
        </g>
        <path
           inkscape:connector-curvature="0"
           id="path4483-6"
           d="m 13.363506,279.26985 a 9.434267,9.434267 0 0 1 -9.4342673,9.43427 9.434267,9.434267 0 0 1 -9.434267,-9.43427 9.434267,9.434267 0 0 1 9.434267,-9.43427 9.434267,9.434267 0 0 1 9.4342673,9.43427 z"
           style="color:#000000;clip-rule:nonzero;display:inline;overflow:visible;visibility:visible;opacity:1;isolation:auto;mix-blend-mode:normal;color-interpolation:sRGB;color-interpolation-filters:linearRGB;solid-color:#000000;solid-opacity:1;fill:#fddbad;fill-opacity:1;fill-rule:evenodd;stroke:none;stroke-width:19.20519257;stroke-linecap:round;stroke-linejoin:round;stroke-miterlimit:4;stroke-dasharray:none;stroke-dashoffset:0;stroke-opacity:1;color-rendering:auto;image-rendering:auto;shape-rendering:auto;text-rendering:auto;enable-background:accumulate" />
        <path
           inkscape:connector-curvature="0"
           style="color:#000000;clip-rule:nonzero;display:inline;overflow:visible;visibility:visible;opacity:1;isolation:auto;mix-blend-mode:normal;color-interpolation:sRGB;color-interpolation-filters:linearRGB;solid-color:#000000;solid-opacity:1;fill:#80cece;fill-opacity:1;fill-rule:evenodd;stroke:none;stroke-width:150.40609741;stroke-linecap:round;stroke-linejoin:round;stroke-miterlimit:4;stroke-dasharray:none;stroke-dashoffset:0;stroke-opacity:1;color-rendering:auto;image-rendering:auto;shape-rendering:auto;text-rendering:auto;enable-background:accumulate"
           d="m 65.660231,349.3655 a 72.683944,75.105453 0 0 0 -71.2788595,60.97923 185.129,187.24567 0 0 0 71.8999895,14.7097 185.129,187.24567 0 0 0 70.771389,-14.395 72.683944,75.105453 0 0 0 -71.392519,-61.29393 z"
           id="path4483-6-5" />
        <path
           style="color:#000000;clip-rule:nonzero;display:inline;overflow:visible;visibility:visible;opacity:1;isolation:auto;mix-blend-mode:normal;color-interpolation:sRGB;color-interpolation-filters:linearRGB;solid-color:#000000;solid-opacity:1;fill:#fddbad;fill-opacity:1;fill-rule:evenodd;stroke:none;stroke-width:28.94973946;stroke-linecap:round;stroke-linejoin:round;stroke-miterlimit:4;stroke-dasharray:none;stroke-dashoffset:0;stroke-opacity:1;color-rendering:auto;image-rendering:auto;shape-rendering:auto;text-rendering:auto;enable-background:accumulate"
           d="m 51.835241,335.34742 v 18.27684 h 0.003 a 14.22113,14.22113 0 0 0 14.21849,14.19905 14.22113,14.22113 0 0 0 14.21997,-14.19905 h 0.002 v -18.27684 z"
           id="path4483-6-3"
           inkscape:connector-curvature="0" />
        <path
           inkscape:connector-curvature="0"
           id="path4483-6-7"
           d="m 137.15435,279.26985 a 9.434267,9.434267 0 0 1 -9.43427,9.43427 9.434267,9.434267 0 0 1 -9.43427,-9.43427 9.434267,9.434267 0 0 1 9.43427,-9.43427 9.434267,9.434267 0 0 1 9.43427,9.43427 z"
           style="color:#000000;clip-rule:nonzero;display:inline;overflow:visible;visibility:visible;opacity:1;isolation:auto;mix-blend-mode:normal;color-interpolation:sRGB;color-interpolation-filters:linearRGB;solid-color:#000000;solid-opacity:1;fill:#fddbad;fill-opacity:1;fill-rule:evenodd;stroke:none;stroke-width:19.20519257;stroke-linecap:round;stroke-linejoin:round;stroke-miterlimit:4;stroke-dasharray:none;stroke-dashoffset:0;stroke-opacity:1;color-rendering:auto;image-rendering:auto;shape-rendering:auto;text-rendering:auto;enable-background:accumulate" />
        <path
           style="color:#000000;clip-rule:nonzero;display:inline;overflow:visible;visibility:visible;opacity:1;isolation:auto;mix-blend-mode:normal;color-interpolation:sRGB;color-interpolation-filters:linearRGB;solid-color:#000000;solid-opacity:1;fill:#fddbad;fill-opacity:1;fill-rule:evenodd;stroke:none;stroke-width:124.58547211;stroke-linecap:round;stroke-linejoin:round;stroke-miterlimit:4;stroke-dasharray:none;stroke-dashoffset:0;stroke-opacity:1;color-rendering:auto;image-rendering:auto;shape-rendering:auto;text-rendering:auto;enable-background:accumulate"
           d="m 66.019321,198.15888 c -33.80028,-5.2e-4 -61.2011595,27.39978 -61.2015495,61.20007 0,18.9829 0,0 0,18.9829 -5.3e-4,33.80086 27.4006895,61.20197 61.2015495,61.20155 33.80028,0 61.200479,-27.40127 61.200049,-61.20155 0,-18.9829 0,0 0,-18.9829 -4e-4,-33.7997 -27.400359,-61.19967 -61.200049,-61.20007 z"
           id="path4483"
           inkscape:connector-curvature="0"
           sodipodi:nodetypes="sccsccs" />
        <path
           inkscape:connector-curvature="0"
           id="path4562"
           d="m 48.615318,274.41639 a 5.6560893,5.690207 0 0 1 -5.656089,5.69021 5.6560893,5.690207 0 0 1 -5.656089,-5.69021 5.6560893,5.690207 0 0 1 5.656089,-5.6902 5.6560893,5.690207 0 0 1 5.656089,5.6902 z"
           style="color:#000000;clip-rule:nonzero;display:inline;overflow:visible;visibility:visible;opacity:1;isolation:auto;mix-blend-mode:normal;color-interpolation:sRGB;color-interpolation-filters:linearRGB;solid-color:#000000;solid-opacity:1;fill:#1f274c;fill-opacity:1;fill-rule:evenodd;stroke:none;stroke-width:164.55735779;stroke-linecap:round;stroke-linejoin:round;stroke-miterlimit:4;stroke-dasharray:none;stroke-dashoffset:0;stroke-opacity:1;color-rendering:auto;image-rendering:auto;shape-rendering:auto;text-rendering:auto;enable-background:accumulate" />
        <path
           inkscape:connector-curvature="0"
           id="path4562-9"
           d="m 94.479703,274.41639 a 5.6560903,5.690207 0 0 1 -5.65609,5.69021 5.6560903,5.690207 0 0 1 -5.65609,-5.69021 5.6560903,5.690207 0 0 1 5.65609,-5.6902 5.6560903,5.690207 0 0 1 5.65609,5.6902 z"
           style="color:#000000;clip-rule:nonzero;display:inline;overflow:visible;visibility:visible;opacity:1;isolation:auto;mix-blend-mode:normal;color-interpolation:sRGB;color-interpolation-filters:linearRGB;solid-color:#000000;solid-opacity:1;fill:#1f274c;fill-opacity:1;fill-rule:evenodd;stroke:none;stroke-width:164.55735779;stroke-linecap:round;stroke-linejoin:round;stroke-miterlimit:4;stroke-dasharray:none;stroke-dashoffset:0;stroke-opacity:1;color-rendering:auto;image-rendering:auto;shape-rendering:auto;text-rendering:auto;enable-background:accumulate" />
        <path
           style="fill:#202741;fill-opacity:1;fill-rule:evenodd;stroke:none;stroke-width:24.59675026px;stroke-linecap:butt;stroke-linejoin:miter;stroke-opacity:1"
           d="m 103.16239,177.54396 c 0,0 -14.502329,0.22869 -21.205809,2.63726 -6.14505,2.20793 -16.53263,10.50717 -16.53263,10.50717 0,0 -0.20231,-3.80713 0.35153,-5.59016 0.39963,-1.28656 2.07631,-3.46748 2.07631,-3.46748 0,0 -20.72872,8.09747 -30.00616,14.10329 -8.65071,5.60012 -17.37263,11.82309 -23.45264,20.14372 -4.4442995,6.08212 -6.7270495,13.57009 -8.8197995,20.8064 -0.34419,1.19012 -0.43546,2.43968 -0.59985,3.66794 -0.1236,0.92414 -0.2902,2.78237 -0.2902,2.78237 l -0.0194,25.65609 c 0.004,1.8567 1.50076,3.3599 3.34632,3.35978 1.84557,1.4e-4 3.3427495,-1.50308 3.3463195,-3.35978 h 0.0269 v -21.4975 c 0,0 -0.01,-1.86052 0.0957,-2.78237 0.11059,-0.95553 0.14736,-1.19431 0.56096,-2.83024 0.71413,-2.82471 1.59376,-6.58466 3.27601,-9.47051 3.27228,-5.61346 7.41961,-11.11702 12.89013,-14.62237 10.79475,-6.91693 24.01984,-10.88192 36.83941,-11.05168 12.52737,-0.16586 25.40212,3.61686 36.273959,9.843 6.64258,3.80411 12.21058,9.66705 16.40249,16.07189 1.1759,1.79668 1.73462,4.00485 2.29021,6.02098 0.46718,1.69539 0.42459,2.03718 0.55648,3.06808 0.1088,0.84967 0.19297,2.56247 0.19297,2.56247 l 0.0165,24.68825 h 0.0238 c 0.002,2.01041 1.62322,3.63884 3.62155,3.63952 1.99893,1.6e-4 3.62025,-1.62854 3.62306,-3.63952 h 0.005 l -0.0239,-23.30553 c 0,0 -0.11371,-2.06014 -0.23308,-3.0842 -0.13107,-1.12398 -0.2741,-2.21667 -0.52994,-3.35315 -0.25531,-1.13436 -0.46568,-2.28029 -0.77336,-3.40166 -1.04611,-3.81266 -2.13273,-7.63347 -3.64102,-11.28803 -3.61823,-8.76691 -12.96751,-15.8729 -12.90658,-25.35692 0.0203,-2.93516 4.09576,-7.79659 4.09576,-7.79659 0,0 -6.26889,-0.006 -9.21022,0.92595 -3.19982,1.01422 -8.770439,4.94843 -8.770439,4.94843 0,0 0.52583,-9.10755 2.30966,-13.20428 1.05677,-2.42697 4.794349,-6.33062 4.794349,-6.33062 z"
           id="path4558"
           inkscape:connector-curvature="0"
           sodipodi:nodetypes="cacaccaacccccccccascsacccccccccacaaccacacc" />
        <path
           inkscape:connector-curvature="0"
           id="path4562-1"
           d="m 43.545666,273.42402 a 2.2242696,2.2376862 0 0 1 -2.224269,2.23769 2.2242696,2.2376862 0 0 1 -2.22427,-2.23769 2.2242696,2.2376862 0 0 1 2.22427,-2.23768 2.2242696,2.2376862 0 0 1 2.224269,2.23768 z"
           style="color:#000000;clip-rule:nonzero;display:inline;overflow:visible;visibility:visible;opacity:1;isolation:auto;mix-blend-mode:normal;color-interpolation:sRGB;color-interpolation-filters:linearRGB;solid-color:#000000;solid-opacity:1;fill:#f8fdfe;fill-opacity:1;fill-rule:evenodd;stroke:none;stroke-width:64.71253204;stroke-linecap:round;stroke-linejoin:round;stroke-miterlimit:4;stroke-dasharray:none;stroke-dashoffset:0;stroke-opacity:1;color-rendering:auto;image-rendering:auto;shape-rendering:auto;text-rendering:auto;enable-background:accumulate" />
        <path
           inkscape:connector-curvature="0"
           id="path4562-1-2"
           d="m 89.355484,273.42402 a 2.2242696,2.2376862 0 0 1 -2.224269,2.23769 2.2242696,2.2376862 0 0 1 -2.22427,-2.23769 2.2242696,2.2376862 0 0 1 2.22427,-2.23768 2.2242696,2.2376862 0 0 1 2.224269,2.23768 z"
           style="color:#000000;clip-rule:nonzero;display:inline;overflow:visible;visibility:visible;opacity:1;isolation:auto;mix-blend-mode:normal;color-interpolation:sRGB;color-interpolation-filters:linearRGB;solid-color:#000000;solid-opacity:1;fill:#f8fdfe;fill-opacity:1;fill-rule:evenodd;stroke:none;stroke-width:64.71253204;stroke-linecap:round;stroke-linejoin:round;stroke-miterlimit:4;stroke-dasharray:none;stroke-dashoffset:0;stroke-opacity:1;color-rendering:auto;image-rendering:auto;shape-rendering:auto;text-rendering:auto;enable-background:accumulate" />
        <path
           style="color:#000000;font-style:normal;font-variant:normal;font-weight:normal;font-stretch:normal;font-size:medium;line-height:normal;font-family:sans-serif;font-variant-ligatures:normal;font-variant-position:normal;font-variant-caps:normal;font-variant-numeric:normal;font-variant-alternates:normal;font-feature-settings:normal;text-indent:0;text-align:start;text-decoration:none;text-decoration-line:none;text-decoration-style:solid;text-decoration-color:#000000;letter-spacing:normal;word-spacing:normal;text-transform:none;writing-mode:lr-tb;direction:ltr;text-orientation:mixed;dominant-baseline:auto;baseline-shift:baseline;text-anchor:start;white-space:normal;shape-padding:0;clip-rule:nonzero;display:inline;overflow:visible;visibility:visible;opacity:1;isolation:auto;mix-blend-mode:normal;color-interpolation:sRGB;color-interpolation-filters:linearRGB;solid-color:#000000;solid-opacity:1;vector-effect:none;fill:#202741;fill-opacity:1;fill-rule:evenodd;stroke:none;stroke-width:185.92822266;stroke-linecap:round;stroke-linejoin:miter;stroke-miterlimit:4;stroke-dasharray:none;stroke-dashoffset:0;stroke-opacity:1;color-rendering:auto;image-rendering:auto;shape-rendering:auto;text-rendering:auto;enable-background:accumulate"
           d="m 43.443461,252.57514 a 2.8950229,2.8950229 0 0 0 -1.0516,0.16963 l -9.07433,3.11523 a 2.8964946,2.8964946 0 1 0 1.88271,5.47851 l 9.06865,-3.11523 a 2.8950229,2.8950229 0 0 0 -0.82543,-5.64814 z"
           id="path4626"
           inkscape:connector-curvature="0" />
        <path
           style="color:#000000;font-style:normal;font-variant:normal;font-weight:normal;font-stretch:normal;font-size:medium;line-height:normal;font-family:sans-serif;font-variant-ligatures:normal;font-variant-position:normal;font-variant-caps:normal;font-variant-numeric:normal;font-variant-alternates:normal;font-feature-settings:normal;text-indent:0;text-align:start;text-decoration:none;text-decoration-line:none;text-decoration-style:solid;text-decoration-color:#000000;letter-spacing:normal;word-spacing:normal;text-transform:none;writing-mode:lr-tb;direction:ltr;text-orientation:mixed;dominant-baseline:auto;baseline-shift:baseline;text-anchor:start;white-space:normal;shape-padding:0;clip-rule:nonzero;display:inline;overflow:visible;visibility:visible;opacity:1;isolation:auto;mix-blend-mode:normal;color-interpolation:sRGB;color-interpolation-filters:linearRGB;solid-color:#000000;solid-opacity:1;vector-effect:none;fill:#202741;fill-opacity:1;fill-rule:evenodd;stroke:none;stroke-width:185.92822266;stroke-linecap:round;stroke-linejoin:miter;stroke-miterlimit:4;stroke-dasharray:none;stroke-dashoffset:0;stroke-opacity:1;color-rendering:auto;image-rendering:auto;shape-rendering:auto;text-rendering:auto;enable-background:accumulate"
           d="m 87.746441,252.58081 a 2.8950229,2.8950229 0 0 0 -0.74066,5.64247 l 9.06868,3.11523 a 2.8964951,2.8964951 0 1 0 1.88271,-5.47851 l -9.07432,-3.11523 a 2.8950229,2.8950229 0 0 0 -1.13641,-0.16384 z"
           id="path4626-7"
           inkscape:connector-curvature="0" />
        <path
           style="color:#000000;font-style:normal;font-variant:normal;font-weight:normal;font-stretch:normal;font-size:medium;line-height:normal;font-family:sans-serif;font-variant-ligatures:normal;font-variant-position:normal;font-variant-caps:normal;font-variant-numeric:normal;font-variant-alternates:normal;font-feature-settings:normal;text-indent:0;text-align:start;text-decoration:none;text-decoration-line:none;text-decoration-style:solid;text-decoration-color:#000000;letter-spacing:normal;word-spacing:normal;text-transform:none;writing-mode:lr-tb;direction:ltr;text-orientation:mixed;dominant-baseline:auto;baseline-shift:baseline;text-anchor:start;white-space:normal;shape-padding:0;clip-rule:nonzero;display:inline;overflow:visible;visibility:visible;opacity:1;isolation:auto;mix-blend-mode:normal;color-interpolation:sRGB;color-interpolation-filters:linearRGB;solid-color:#000000;solid-opacity:1;vector-effect:none;fill:#c4854e;fill-opacity:1;fill-rule:evenodd;stroke:none;stroke-width:92.96411133;stroke-linecap:round;stroke-linejoin:round;stroke-miterlimit:4;stroke-dasharray:none;stroke-dashoffset:0;stroke-opacity:1;color-rendering:auto;image-rendering:auto;shape-rendering:auto;text-rendering:auto;enable-background:accumulate"
           d="m 66.239211,277.03295 a 1.4475115,1.4475115 0 0 0 -1.4241,1.47045 v 5.49442 a 1.4475115,1.4475115 0 0 0 0.32013,1.14586 1.4475115,1.4475115 0 0 0 0.0111,0.0123 1.4475115,1.4475115 0 0 0 0.0254,0.0284 1.4475115,1.4475115 0 0 0 1.25656,0.48766 c 10e-4,2e-5 0.002,-4e-5 0.002,0 1.54438,0.0495 2.9568,0.87772 3.73825,2.21991 0.80861,1.38892 0.81542,3.09893 0.0179,4.49366 -0.79849,1.39475 -2.27476,2.25299 -3.88185,2.25882 a 1.4475115,1.4475115 0 0 0 -1.46449,1.47644 h -0.003 a 1.4475115,1.4475115 0 0 0 1.47495,1.4196 c 2.63664,-0.009 5.06996,-1.42758 6.38,-3.71581 1.31001,-2.28822 1.30038,-5.11107 -0.0254,-7.38972 -1.07829,-1.85209 -2.89915,-3.10793 -4.9574,-3.51385 v -4.41738 a 1.4475115,1.4475115 0 0 0 -1.47037,-1.47045 z"
           id="path4659"
           inkscape:connector-curvature="0" />
        <path
           style="color:#000000;font-style:normal;font-variant:normal;font-weight:normal;font-stretch:normal;font-size:medium;line-height:normal;font-family:sans-serif;font-variant-ligatures:normal;font-variant-position:normal;font-variant-caps:normal;font-variant-numeric:normal;font-variant-alternates:normal;font-feature-settings:normal;text-indent:0;text-align:start;text-decoration:none;text-decoration-line:none;text-decoration-style:solid;text-decoration-color:#000000;letter-spacing:normal;word-spacing:normal;text-transform:none;writing-mode:lr-tb;direction:ltr;text-orientation:mixed;dominant-baseline:auto;baseline-shift:baseline;text-anchor:start;white-space:normal;shape-padding:0;clip-rule:nonzero;display:inline;overflow:visible;visibility:visible;opacity:1;isolation:auto;mix-blend-mode:normal;color-interpolation:sRGB;color-interpolation-filters:linearRGB;solid-color:#000000;solid-opacity:1;vector-effect:none;fill:#c4854e;fill-opacity:1;fill-rule:evenodd;stroke:none;stroke-width:118.38108063;stroke-linecap:round;stroke-linejoin:round;stroke-miterlimit:4;stroke-dasharray:none;stroke-dashoffset:0;stroke-opacity:1;color-rendering:auto;image-rendering:auto;shape-rendering:auto;text-rendering:auto;enable-background:accumulate"
           d="m 58.838691,304.21108 a 1.8432703,1.8432703 0 0 0 -1.81488,1.86573 c 0,3.46078 1.73204,6.68887 4.6248,8.46371 2.89276,1.77487 6.52076,1.77487 9.41353,0 2.89279,-1.77484 4.6248,-5.00293 4.6248,-8.46371 a 1.8432703,1.8432703 0 1 0 -3.68627,0 c 0,2.2271 -1.12403,4.25681 -2.86646,5.32588 -1.74244,1.06906 -3.82087,1.06906 -5.56332,0 -1.74244,-1.06907 -2.86081,-3.09878 -2.86081,-5.32588 a 1.8432703,1.8432703 0 0 0 -1.87139,-1.86573 z"
           id="path4659-3"
           inkscape:connector-curvature="0" />
        <path
           style="opacity:1;fill:#f9f9f9;fill-opacity:1;stroke:none;stroke-width:716.06524658;stroke-linecap:butt;stroke-linejoin:round;stroke-miterlimit:4;stroke-dasharray:none;stroke-opacity:1"
           d="m 2.0239974,103.68118 c 36.1660726,3e-5 65.4844556,29.31841 65.4845016,65.48449 -0.03198,27.07987 -16.728945,51.34672 -42.008926,61.05461 -5.55108,2.91049 -12.427751,7.05241 -15.6120827,11.11921 -3.5708275,4.56039 -5.9389168,10.70907 -5.4946878,16.48407 0.3299356,4.28922 4.3534137,10.726 6.7110255,13.89698 0.526998,0.7088 0.592072,0.92003 0.338053,1.28147 -0.209094,0.29753 -0.411122,0.28394 -1.086785,0.0955 -3.9255713,-1.0946 -11.9200485,-3.77202 -16.0733993,-6.21826 C -19.360824,258.8441 -32.676501,250.24384 -41.886265,236.0895 -51.096029,221.93517 -59.128,202.59181 -61.395288,189.59926 c -2.267274,-12.99257 -2.042175,-16.72976 -2.065216,-20.43365 3e-5,-36.16608 29.318428,-65.48446 65.4845014,-65.48449 z"
           id="path4485-3"
           inkscape:connector-curvature="0"
           sodipodi:nodetypes="cccsssasszzcc" />
        <path
           inkscape:connector-curvature="0"
           id="path4894-5"
           style="font-style:normal;font-variant:normal;font-weight:bold;font-stretch:normal;font-size:medium;line-height:176.43554688px;font-family:Comfortaa;-inkscape-font-specification:'Comfortaa Bold';text-align:start;letter-spacing:0px;word-spacing:0px;writing-mode:lr-tb;text-anchor:start;fill:#ff9955;fill-opacity:1;stroke:none;stroke-width:61.47364426px;stroke-linecap:butt;stroke-linejoin:miter;stroke-opacity:1"
           d="M -33.021413,217.33923 H 2.8694354 q 1.6449934,0 2.7665726,-1.15898 1.1589763,-1.1216 1.1589763,-2.72919 0,-1.64502 -1.1589763,-2.80399 -1.1215792,-1.12158 -2.7665726,-1.12158 H -33.021413 q -1.607617,0 -2.729196,1.12158 -1.158996,1.15897 -1.158996,2.80399 0,1.60759 1.158996,2.72919 1.121579,1.15898 2.729196,1.15898 z" />
        <path
           style="font-style:normal;font-variant:normal;font-weight:bold;font-stretch:normal;font-size:medium;line-height:176.43554688px;font-family:Comfortaa;-inkscape-font-specification:'Comfortaa Bold';text-align:start;letter-spacing:0px;word-spacing:0px;writing-mode:lr-tb;text-anchor:start;fill:#ff5599;fill-opacity:1;stroke:none;stroke-width:56.9623642px;stroke-linecap:butt;stroke-linejoin:miter;stroke-opacity:1"
           d="m -28.09337,147.87285 c 1.374247,0 2.550209,0.48887 3.528501,1.46717 0.954985,0.95499 1.432695,2.11978 1.432695,3.49405 0,1.37424 -0.47771,2.55062 -1.432695,3.5289 -0.978292,0.95502 -2.154254,1.43233 -3.528501,1.43233 -1.374266,0 -2.539064,-0.47731 -3.494068,-1.43233 -0.978292,-0.97828 -1.467582,-2.15466 -1.467582,-3.5289 0,-1.37427 0.48929,-2.53906 1.467582,-3.49405 0.955004,-0.9783 2.119802,-1.46717 3.494068,-1.46717 z m 16.610981,16.6251 c 1.016182,0 1.8705587,0.3461 2.5634007,1.03895 0.715931,0.71596 1.074232,1.58206 1.074232,2.59825 0,0.9931 -0.358301,1.8361 -1.074232,2.52894 -0.692842,0.71598 -1.5472187,1.07384 -2.5634007,1.07384 h -33.25685 c -0.993075,0 -1.836107,-0.35786 -2.528949,-1.07384 -0.715931,-0.69284 -1.074213,-1.53584 -1.074213,-2.52894 0,-1.01619 0.358282,-1.88229 1.074213,-2.59825 0.692842,-0.69285 1.535874,-1.03895 2.528949,-1.03895 z M -28.09337,178.4472 c 1.374247,0 2.550209,0.4893 3.528501,1.4676 0.954985,0.95498 1.432695,2.11937 1.432695,3.49363 0,1.37427 -0.47771,2.55063 -1.432695,3.5289 -0.978292,0.95503 -2.154254,1.43273 -3.528501,1.43273 -1.374266,0 -2.539064,-0.4777 -3.494068,-1.43273 -0.978292,-0.97827 -1.467582,-2.15463 -1.467582,-3.5289 0,-1.37426 0.48929,-2.53865 1.467582,-3.49363 0.955004,-0.9783 2.119802,-1.4676 3.494068,-1.4676 z"
           id="path4885-6"
           inkscape:connector-curvature="0" />
        <path
           inkscape:connector-curvature="0"
           id="path4891-2"
           style="font-style:normal;font-variant:normal;font-weight:bold;font-stretch:normal;font-size:medium;line-height:213.07107544px;font-family:Comfortaa;-inkscape-font-specification:'Comfortaa Bold';text-align:start;letter-spacing:0px;word-spacing:0px;writing-mode:lr-tb;text-anchor:start;fill:#5599ff;fill-opacity:1;stroke:none;stroke-width:69.69827271px;stroke-linecap:butt;stroke-linejoin:miter;stroke-opacity:1"
           d="M -9.5116006,144.60045 H 2.1451537 v 11.65678 q 0,1.90746 1.2716609,3.1791 1.2292538,1.22928 3.1367157,1.22928 1.9074826,0 3.1791246,-1.22928 1.2716591,-1.27164 1.2716591,-3.1791 v -11.65678 h 11.656755 q 1.907482,0 3.179124,-1.27164 1.229272,-1.27164 1.229272,-3.1791 0,-1.90748 -1.229272,-3.13671 -1.271642,-1.27169 -3.179124,-1.27169 H 11.004314 v -11.65677 q 0,-1.82267 -1.2716591,-3.13671 -1.314031,-1.31403 -3.1791246,-1.31403 -1.9074619,0 -3.1367157,1.31403 -1.2716609,1.27164 -1.2716609,3.13671 v 11.65677 H -9.5116006 q -1.8226864,0 -3.1367354,1.31405 -1.314048,1.27164 -1.314048,3.13674 0,1.82271 1.314048,3.13671 1.314049,1.27164 3.1367354,1.27164 z" />
        <path
           inkscape:connector-curvature="0"
           id="path4897-9"
           style="font-style:normal;font-variant:normal;font-weight:bold;font-stretch:normal;font-size:medium;line-height:213.07107544px;font-family:Comfortaa;-inkscape-font-specification:'Comfortaa Bold';text-align:start;letter-spacing:0px;word-spacing:0px;writing-mode:lr-tb;text-anchor:start;fill:#8dd35f;fill-opacity:1;stroke:none;stroke-width:77.85876465px;stroke-linecap:butt;stroke-linejoin:miter;stroke-opacity:1"
           d="m 19.589426,199.16987 9.190188,-9.22507 9.225067,9.19018 q 1.509558,1.50385 3.518494,1.50002 1.941985,-0.003 3.445829,-1.51324 1.503845,-1.50952 1.533583,-3.48506 -0.004,-2.00894 -1.513369,-3.51278 l -9.225067,-9.19021 9.190168,-9.22504 q 1.503866,-1.50956 1.500015,-3.51849 -0.03728,-1.97541 -1.54675,-3.47924 -1.50958,-1.50384 -3.451524,-1.50018 -2.008935,0.003 -3.512801,1.51335 l -9.190166,9.22509 -9.225069,-9.19019 q -1.442464,-1.43699 -3.484947,-1.46663 -2.075927,0.004 -3.546347,1.47994 -1.503865,1.50956 -1.433085,3.5184 0.004,2.00893 1.479821,3.47933 l 9.225068,9.19018 -9.190168,9.22511 q -1.437018,1.44245 -1.433085,3.51836 -0.02949,2.04248 1.446417,3.5129 1.442464,1.43701 3.518371,1.43309 2.042339,-0.0373 3.479357,-1.47982 z" />
      </g>
    </g>
  </g>
</svg>
