<?xml version="1.0" encoding="UTF-8" standalone="no"?>
<!-- Generator: Adobe Illustrator 18.0.0, SVG Export Plug-In . SVG Version: 6.00 Build 0)  -->

<svg
   xmlns:dc="http://purl.org/dc/elements/1.1/"
   xmlns:cc="http://creativecommons.org/ns#"
   xmlns:rdf="http://www.w3.org/1999/02/22-rdf-syntax-ns#"
   xmlns:svg="http://www.w3.org/2000/svg"
   xmlns="http://www.w3.org/2000/svg"
   xmlns:sodipodi="http://sodipodi.sourceforge.net/DTD/sodipodi-0.dtd"
   xmlns:inkscape="http://www.inkscape.org/namespaces/inkscape"
   version="1.1"
   id="Capa_1"
   x="0px"
   y="0px"
   viewBox="0 0 279.55354 194.74354"
   enable-background="new 0 0 188.6 112.3"
   xml:space="preserve"
   sodipodi:docname="boton_inicio_gradiente.svg"
   width="279.55356"
   height="194.74353"
   inkscape:version="0.92+devel unknown"
   inkscape:export-filename="/home/fundacion/Documentos/fundecyt_02/resuelvo/nuevo_diseño/boton-inicio.png"
   inkscape:export-xdpi="96"
   inkscape:export-ydpi="96"><metadata
     id="metadata9"><rdf:RDF><cc:Work
         rdf:about=""><dc:format>image/svg+xml</dc:format><dc:type
           rdf:resource="http://purl.org/dc/dcmitype/StillImage" /><dc:title></dc:title></cc:Work></rdf:RDF></metadata><defs
     id="defs7"><filter
       inkscape:collect="always"
       style="color-interpolation-filters:sRGB"
       id="filter4338"
       x="-0.098221615"
       width="1.1964432"
       y="-0.15418755"
       height="1.3083751"><feGaussianBlur
         inkscape:collect="always"
         stdDeviation="9.5624413"
         id="feGaussianBlur4340" /></filter></defs><sodipodi:namedview
     pagecolor="#ffffff"
     bordercolor="#666666"
     borderopacity="1"
     objecttolerance="10"
     gridtolerance="10"
     guidetolerance="10"
     inkscape:pageopacity="0"
     inkscape:pageshadow="2"
     inkscape:window-width="1920"
     inkscape:window-height="1012"
     id="namedview5"
     showgrid="false"
     fit-margin-top="0"
     fit-margin-left="0"
     fit-margin-right="0"
     fit-margin-bottom="0"
     inkscape:zoom="2.9719892"
     inkscape:cx="128.27938"
     inkscape:cy="103.32337"
     inkscape:window-x="0"
     inkscape:window-y="32"
     inkscape:window-maximized="1"
     inkscape:current-layer="Capa_1"
     inkscape:document-rotation="0" /><path
     style="opacity:1;fill:#006838;fill-opacity:1;stroke:none;stroke-width:9.71892452;stroke-miterlimit:4;stroke-dasharray:9.71892466, 9.71892466;stroke-dashoffset:0;stroke-opacity:1;filter:url(#filter4338)"
     d="M 72.035804,22.949863 C 61.981104,22.950089 52.089831,27.616174 45.274085,35.22916 38.458339,42.842146 34.664356,53.242733 34.66471,63.656895 a 8.8517552,8.8517552 0 0 0 0,0.01953 c 0.0086,3.848832 0.579345,7.679137 1.578125,11.382812 -7.920844,5.55497 -13.281607,14.801622 -13.292969,24.466797 a 8.8517552,8.8517552 0 0 0 0,0.02344 c 0.0094,5.711566 1.881665,11.322546 5.017578,16.103516 -1.86722,4.04661 -2.971776,8.44502 -2.980468,12.90039 a 8.8517552,8.8517552 0 0 0 0,0.0176 c -7.6e-5,8.22189 3.451455,16.38116 9.322265,22.15235 2.027168,1.99276 4.397615,3.57329 6.886719,4.94726 -0.09421,0.55767 -0.196726,1.11378 -0.197266,1.70117 -0.005,5.93724 5.036096,10.28935 10.16211,11.0586 0.280156,0.24871 0.505261,0.57415 0.804687,0.79297 a 8.8517552,8.8517552 0 0 0 0.0059,0.004 c 1.75677,1.28202 3.895684,2.12952 6.501953,2.08984 1.845652,-0.0281 4.02362,-0.70777 5.859375,-2.05468 1.306216,0.29643 2.638034,0.49327 4.003906,0.49414 a 8.8517552,8.8517552 0 0 0 0.0078,0 c 4.055477,-0.001 7.871639,-1.39646 11.103515,-3.6875 4.003392,1.12032 8.473687,0.13081 11.41211,-2.09766 l 0.002,-0.002 c 0.871202,-0.66101 1.590682,-1.5963 2.292969,-2.53125 1.829688,-0.61718 3.524946,-1.50022 4.68164,-2.75586 1.166654,-1.26645 1.91121,-3.0447 2.373051,-4.9375 0.0909,0.0161 0.18235,0.0222 0.27343,0.0371 8.11049,11.23536 22.85402,18.0004 37.625,18.01172 a 8.8517552,8.8517552 0 0 0 0.0156,0 c 11.58038,-0.0115 23.10348,-4.11056 31.47461,-11.34375 5.18771,2.06823 10.86763,3.1902 16.58203,3.19531 a 8.8517552,8.8517552 0 0 0 0.0156,0 c 11.49927,-0.01 23.10187,-4.44115 30.14453,-12.57813 3.02504,0.009 6.07211,-0.39904 9.04297,-1.24609 a 8.8517552,8.8517552 0 0 0 0.008,-0.002 c 15.48825,-4.43392 29.32521,-19.25231 30.73828,-34.97071 a 8.8517552,8.8517552 0 0 0 0.002,-0.004 c 0.52841,-5.91022 -0.90919,-12.1133 -4.6836,-16.822262 -0.72671,-0.906656 -1.58771,-1.675554 -2.45312,-2.435547 4.74441,-7.259895 7.75036,-15.473375 7.60352,-23.552734 a 8.8517552,8.8517552 0 0 0 0,-0.01758 c -0.1553,-7.727278 -3.47441,-15.469802 -9.68555,-20.056641 -3.91269,-2.889466 -8.6443,-4.212503 -13.50195,-4.472656 -1.82021,-3.660251 -4.5348,-6.891678 -7.85963,-9.220701 -5.80243,-4.064568 -13.1231,-6.056621 -20.42969,-6.05664 a 8.8517552,8.8517552 0 0 0 -0.008,0 c -6.72232,0.0052 -13.56717,1.820599 -19.11895,5.279297 -2.15304,-2.266162 -4.55756,-4.337119 -7.30274,-5.951172 -7.39721,-4.349266 -16.58796,-6.528678 -25.79687,-6.53125 a 8.8517552,8.8517552 0 0 0 -0.008,0 c -13.2247,0.0083 -26.95396,4.770094 -34.47852,13.734375 -2.80133,-1.019657 -5.74468,-1.666113 -8.71875,-1.669922 a 8.8517552,8.8517552 0 0 0 -0.0215,0 c -2.85943,0.0034 -5.69475,0.589761 -8.40039,1.53125 C 94.325744,29.241119 83.467467,22.967593 72.049476,22.949863 a 8.8517552,8.8517552 0 0 0 -0.01367,0 z"
     id="path10569-6"
     inkscape:connector-curvature="0" /><g
     id="g4329"
     transform="translate(31.801429,31.801426)"><path
       inkscape:connector-curvature="0"
       style="opacity:1;fill:#ffffff;fill-opacity:1;stroke:none;stroke-width:9.71892452;stroke-miterlimit:4;stroke-dasharray:9.71892466, 9.71892466;stroke-dashoffset:0;stroke-opacity:1"
       d="M 40.23308,-1.0023996e-7 A 28.520105,31.85426 0 0 0 11.714052,31.855202 28.520105,31.85426 0 0 0 15.471686,47.580949 22.026689,21.135433 0 0 0 -1.8463599e-7,67.735892 22.026689,21.135433 0 0 0 6.8614253,83.030332 22.79062,22.402145 0 0 0 2.0363697,96.770904 22.79062,22.402145 0 0 0 24.826384,119.17295 a 22.79062,22.402145 0 0 0 0.153615,-0.006 11.968258,13.368799 0 0 0 11.560437,9.93763 11.968258,13.368799 0 0 0 11.910992,-12.08429 11.594252,10.900814 0 0 0 1.557804,0.11028 11.594252,10.900814 0 0 0 11.469845,-9.39802 11.926122,10.69504 0 0 0 10.626937,5.8393 11.926122,10.69504 0 0 0 1.656274,-0.1162 35.268163,28.647427 0 0 0 32.550412,17.68531 35.268163,28.647427 0 0 0 29.67704,-13.22459 27.82893,20.244181 0 0 0 18.39626,5.07714 27.82893,20.244181 0 0 0 25.9647,-13.02174 17.533418,26.009507 47.677817 0 0 10.80419,-0.46282 17.533418,26.009507 47.677817 0 0 24.35767,-27.254666 17.533418,26.009507 47.677817 0 0 -12.2261,-15.253078 20.374123,30.223479 41.43215 0 0 12.66134,-26.608699 20.374123,30.223479 41.43215 0 0 -20.9506,-15.46972 21.70907,15.206836 0 0 0 0.0315,-0.454932 A 21.70907,15.206836 0 0 0 173.31991,9.2601627 21.70907,15.206836 0 0 0 152.40084,20.466105 31.420534,19.986699 0 0 0 121.09115,2.0580278 31.420534,19.986699 0 0 0 89.958717,19.495187 14.85498,12.784285 0 0 0 77.876386,14.122641 14.85498,12.784285 0 0 0 66.268682,18.949656 28.520105,31.85426 0 0 0 40.23308,-1.0023996e-7 Z M 58.641157,117.91252 a 1.6430507,2.0256789 42.628459 0 0 -1.532201,0.74641 1.6430507,2.0256789 42.628459 0 0 -0.163461,2.60356 1.6430507,2.0256789 42.628459 0 0 2.579927,-0.37616 1.6430507,2.0256789 42.628459 0 0 0.163461,-2.60356 1.6430507,2.0256789 42.628459 0 0 -1.047726,-0.37025 z m -5.900353,1.416 a 3.0641082,3.8021783 52.80767 0 0 -2.735511,0.9079 3.0641082,3.8021783 52.80767 0 0 -1.175738,4.7384 3.0641082,3.8021783 52.80767 0 0 4.880199,0.14377 3.0641082,3.8021783 52.80767 0 0 1.177707,-4.74037 3.0641082,3.8021783 52.80767 0 0 -2.146657,-1.0497 z m -31.876873,3.74583 a 2.8165283,2.5059469 0 0 0 -2.816256,2.50508 2.8165283,2.5059469 0 0 0 2.816256,2.50706 2.8165283,2.5059469 0 0 0 2.818226,-2.50706 2.8165283,2.5059469 0 0 0 -2.818226,-2.50508 z m 4.850657,4.81323 a 1.6403135,1.236544 36.155575 0 0 -0.923653,0.42343 1.6403135,1.236544 36.155575 0 0 0.594761,1.96546 1.6403135,1.236544 36.155575 0 0 2.054096,-0.0315 1.6403135,1.236544 36.155575 0 0 -0.594762,-1.96546 1.6403135,1.236544 36.155575 0 0 -1.130442,-0.39192 z"
       id="path10569" /><path
       id="path10642"
       style="font-style:normal;font-variant:normal;font-weight:normal;font-stretch:normal;font-size:21.58781815px;line-height:1.25;font-family:'Fontdinerdotcom Sparkly';-inkscape-font-specification:'Fontdinerdotcom Sparkly, Normal';font-variant-ligatures:normal;font-variant-caps:normal;font-variant-numeric:normal;font-feature-settings:normal;text-align:start;letter-spacing:0px;word-spacing:0px;writing-mode:lr-tb;text-anchor:start;fill:#006838;fill-opacity:1;stroke:none;stroke-width:2.05680156"
       d="m 54.061734,21.576262 q 0,0.822728 -0.822721,0.987288 l -4.607236,0.246956 -1.398623,74.209396 q 1.151807,-0.164637 2.385888,-0.328892 1.316353,-0.164637 2.468162,-0.164637 0.904993,0 0.904993,0.904969 0,0.740448 -0.822721,0.905008 l -14.479882,1.645417 h -0.08228 q -0.41136,0 -0.740451,-0.246955 -0.246803,-0.246956 -0.246803,-0.658167 0,-0.905008 0.82272,-0.905008 L 42.872736,97.51347 40.486845,23.386316 34.892347,23.71559 q -0.41136,0.08232 -0.658179,-0.164637 -0.329083,-0.246955 -0.329083,-0.658167 0,-0.411364 0.246803,-0.658167 0.164561,-0.329274 0.575906,-0.329274 l 18.346671,-1.234053 q 0.41136,0 0.658177,0.246956 0.329087,0.246955 0.329087,0.658166 z"
       inkscape:connector-curvature="0" /><path
       id="path10644"
       style="font-style:normal;font-variant:normal;font-weight:normal;font-stretch:normal;font-size:21.58781815px;line-height:1.25;font-family:'Fontdinerdotcom Sparkly';-inkscape-font-specification:'Fontdinerdotcom Sparkly, Normal';font-variant-ligatures:normal;font-variant-caps:normal;font-variant-numeric:normal;font-feature-settings:normal;text-align:start;letter-spacing:0px;word-spacing:0px;writing-mode:lr-tb;text-anchor:start;fill:#006838;fill-opacity:1;stroke:none;stroke-width:2.05680156"
       d="m 68.090406,32.107084 -0.904993,8.144957 -0.904993,-8.144957 -4.854051,4.442721 4.524963,-5.018608 -4.278147,-0.822727 4.278147,-0.740447 -4.524963,-5.018608 4.854051,4.442721 0.904993,-8.144957 0.904993,8.144957 4.854052,-4.442721 -4.524964,5.018608 4.278148,0.740447 -4.278148,0.822727 4.524964,5.018608 z m 17.935311,45.907841 q 0,0.411364 -0.246817,0.740448 -0.246816,0.246955 -0.658176,0.246955 l -13.903979,0.164637 q -0.904993,0 -0.904993,-0.905008 0,-0.822728 0.904993,-0.98725 h 4.360419 q 0.246815,-2.632706 0.411361,-5.265411 0.164545,-2.714986 0.164545,-5.347691 0,-1.398652 -0.08227,-3.455433 -0.08227,-2.056819 -0.658176,-3.949078 -0.493633,-1.892258 -1.645442,-3.208591 -1.069536,-1.316372 -3.044066,-1.316372 -1.480897,0 -2.79725,0.905008 -1.234081,0.740447 -2.056802,1.974538 -0.82272,1.151811 -1.316353,2.550425 -0.493633,1.398614 -0.740449,2.879509 -0.164545,1.480894 -0.164545,2.879546 v 6.828586 l 3.702243,-0.164637 q 0.41136,0 0.658176,0.246956 0.329087,0.164637 0.329087,0.575924 0,0.98725 -0.904992,0.98725 l -14.562156,0.575925 q -0.41136,0 -0.658177,-0.164637 -0.329087,-0.246955 -0.329087,-0.658167 0,-0.987288 0.904993,-0.987288 l 7.815846,-0.329274 -2.961795,-17.688491 -6.00586,0.329274 q -0.411361,0.08232 -0.658177,-0.164637 -0.329087,-0.246955 -0.329087,-0.658167 0,-0.822727 0.822721,-0.987288 l 10.942185,-0.575887 q 0.987264,0 0.987264,0.90497 l 0.08227,4.031358 q 1.069537,-2.1391 2.879523,-3.619994 1.892257,-1.480894 4.360419,-1.480894 3.044066,0 5.018596,0.822727 1.97453,0.822728 3.126339,2.385903 1.234081,1.563174 1.727713,3.784516 0.493632,2.221342 0.493632,5.01857 0,6.170419 -1.398625,12.258557 l 5.347685,-0.08232 q 0.41136,0 0.658176,0.246955 0.329088,0.246956 0.329088,0.658205 z"
       inkscape:connector-curvature="0" /><path
       id="path10646"
       style="font-style:normal;font-variant:normal;font-weight:normal;font-stretch:normal;font-size:21.58781815px;line-height:1.25;font-family:'Fontdinerdotcom Sparkly';-inkscape-font-specification:'Fontdinerdotcom Sparkly, Normal';font-variant-ligatures:normal;font-variant-caps:normal;font-variant-numeric:normal;font-feature-settings:normal;text-align:start;letter-spacing:0px;word-spacing:0px;writing-mode:lr-tb;text-anchor:start;fill:#006838;fill-opacity:1;stroke:none;stroke-width:2.05680156"
       d="m 91.819472,52.675121 -0.904992,8.14492 -0.904993,-8.14492 -4.854052,4.442684 4.524963,-5.018608 -4.278147,-0.82269 4.278147,-0.740485 -4.524963,-5.01857 4.854052,4.442683 0.904993,-8.144919 0.904992,8.144919 4.854052,-4.442683 -4.524964,5.01857 4.278148,0.740485 -4.278148,0.82269 4.524964,5.018608 z m 7.15767,25.092963 q 0,0.740447 -0.822721,0.905008 l -11.518089,1.069531 h -0.08227 q -0.904993,0 -0.904993,-0.905008 0,-0.90497 0.822721,-0.90497 L 90.338577,77.521281 89.26904,64.522277 q -0.904993,0.164637 -1.892257,0.329274 -0.987265,0.08232 -1.892258,0.08232 -0.904993,0 -0.904993,-0.90497 0,-0.905008 0.822721,-0.905008 0.740449,-0.08232 1.892258,-0.246955 1.151808,-0.164637 2.303617,-0.246956 1.234081,-0.164637 2.303618,-0.246955 1.069537,-0.164637 1.727714,-0.164637 0.904993,0 0.904993,0.90497 l -0.164546,14.068535 q 0.904993,-0.08232 1.809985,-0.164637 0.987265,-0.164637 1.892258,-0.164637 0.904993,0 0.904993,0.90497 z"
       inkscape:connector-curvature="0" /><path
       id="path10648"
       style="font-style:normal;font-variant:normal;font-weight:normal;font-stretch:normal;font-size:21.58781815px;line-height:1.25;font-family:'Fontdinerdotcom Sparkly';-inkscape-font-specification:'Fontdinerdotcom Sparkly, Normal';font-variant-ligatures:normal;font-variant-caps:normal;font-variant-numeric:normal;font-feature-settings:normal;text-align:start;letter-spacing:0px;word-spacing:0px;writing-mode:lr-tb;text-anchor:start;fill:#006838;fill-opacity:1;stroke:none;stroke-width:2.05680156"
       d="m 109.5761,41.897458 -0.905,8.144958 -0.90499,-8.144958 -4.85405,4.360441 4.52496,-4.936327 -4.27815,-0.822728 4.27815,-0.822727 -4.52496,-4.936328 4.85405,4.442722 0.90499,-8.227238 0.905,8.227238 4.85405,-4.442722 -4.52497,4.936328 4.27815,0.822727 -4.27815,0.822728 4.52497,4.936327 z m 11.10672,13.163528 q 0,0.08232 -0.16454,0.411363 l -2.0568,4.442722 q -0.32909,0.493606 -0.82272,0.493606 -0.16455,0 -0.49364,-0.164637 -0.90499,-0.329274 -1.80998,-0.493644 -0.82272,-0.164637 -1.89226,-0.164637 -1.80998,0 -3.5377,0.822727 -1.64544,0.740447 -2.96179,2.056819 -1.31636,1.234092 -2.13908,2.961789 -0.82272,1.645455 -0.82272,3.455433 0,3.949039 2.46817,6.499502 2.55043,2.468145 6.58176,2.468145 1.06954,0 1.89226,-0.329274 0.90499,-0.411364 1.56317,-0.905008 0.65817,-0.493606 1.06953,-0.822689 0.49364,-0.411364 0.74045,-0.411364 0.905,0 0.905,0.90497 0,0.328893 -0.24682,0.575924 -0.49363,0.740447 -1.4809,1.398614 -0.90499,0.575887 -2.0568,0.987251 -1.06953,0.493644 -2.13907,0.658205 -1.06954,0.246955 -1.97453,0.246955 -2.22135,0 -4.44269,-0.905008 -2.13908,-0.822689 -3.86679,-2.303622 -1.64544,-1.563137 -2.71498,-3.537675 -1.069535,-2.056819 -1.069535,-4.360441 0,-2.797228 1.234085,-4.854047 1.31635,-2.139062 3.37315,-3.537676 2.0568,-1.480894 4.60724,-2.139099 2.55043,-0.740447 5.01859,-0.740447 0.905,0 1.80999,0.08232 0.90499,0.08232 1.80998,0.411364 l 1.15181,-3.537713 q 0.16455,-0.493607 0.57591,-0.493607 0.49363,-0.08232 0.90499,-0.08232 0.41136,0 0.65818,0.246955 0.32908,0.246956 0.32908,0.658167 z"
       inkscape:connector-curvature="0" /><path
       id="path10650"
       style="font-style:normal;font-variant:normal;font-weight:normal;font-stretch:normal;font-size:21.58781815px;line-height:1.25;font-family:'Fontdinerdotcom Sparkly';-inkscape-font-specification:'Fontdinerdotcom Sparkly, Normal';font-variant-ligatures:normal;font-variant-caps:normal;font-variant-numeric:normal;font-feature-settings:normal;text-align:start;letter-spacing:0px;word-spacing:0px;writing-mode:lr-tb;text-anchor:start;fill:#006838;fill-opacity:1;stroke:none;stroke-width:2.05680156"
       d="m 127.65281,52.675121 -0.90499,8.14492 -0.905,-8.14492 -4.85405,4.442684 4.52497,-5.018608 -4.27815,-0.82269 4.27815,-0.740485 -4.52497,-5.01857 4.85405,4.442683 0.905,-8.144919 0.90499,8.144919 4.85405,-4.442683 -4.52496,5.01857 4.27815,0.740485 -4.27815,0.82269 4.52496,5.018608 z m 7.15767,25.092963 q 0,0.740447 -0.82272,0.905008 l -11.51809,1.069531 h -0.0823 q -0.905,0 -0.905,-0.905008 0,-0.90497 0.82273,-0.90497 l 3.86678,-0.411364 -1.06953,-12.999004 q -0.905,0.164637 -1.89226,0.329274 -0.98727,0.08232 -1.89226,0.08232 -0.90499,0 -0.90499,-0.90497 0,-0.905008 0.82272,-0.905008 0.74045,-0.08232 1.89226,-0.246955 1.15181,-0.164637 2.30361,-0.246956 1.23408,-0.164637 2.30362,-0.246955 1.06954,-0.164637 1.72772,-0.164637 0.90499,0 0.90499,0.90497 l -0.16456,14.068535 q 0.90499,-0.08232 1.80998,-0.164637 0.98727,-0.164637 1.89226,-0.164637 0.90499,0 0.90499,0.90497 z"
       inkscape:connector-curvature="0" /><path
       id="path10652"
       style="font-style:normal;font-variant:normal;font-weight:normal;font-stretch:normal;font-size:21.58781815px;line-height:1.25;font-family:'Fontdinerdotcom Sparkly';-inkscape-font-specification:'Fontdinerdotcom Sparkly, Normal';font-variant-ligatures:normal;font-variant-caps:normal;font-variant-numeric:normal;font-feature-settings:normal;text-align:start;letter-spacing:0px;word-spacing:0px;writing-mode:lr-tb;text-anchor:start;fill:#006838;fill-opacity:1;stroke:none;stroke-width:2.05680156"
       d="m 150.01667,45.517452 -0.90499,8.144919 -0.90499,-8.144919 -4.85406,4.442683 4.52496,-5.018607 -4.27814,-0.82269 4.27814,-0.740485 -4.52496,-5.01857 4.85406,4.442683 0.90499,-8.144919 0.90499,8.144919 4.85405,-4.442683 -4.52496,5.01857 4.27814,0.740485 -4.27814,0.82269 4.52496,5.018607 z m 3.70224,19.580749 q 0,-3.044069 -1.56317,-4.27816 -1.56317,-1.316334 -4.44269,-1.316334 -2.79725,0 -5.01859,1.563175 -2.13908,1.480894 -2.13908,4.607206 0,2.797266 1.97453,4.19588 2.0568,1.398652 4.60724,1.398652 2.6327,0 4.60723,-1.727735 1.97453,-1.809978 1.97453,-4.442684 z m 5.18314,0.164637 q 0,1.974539 -1.23408,3.455433 -1.23408,1.480895 -3.04407,2.468183 -1.80998,0.98725 -3.86678,1.480894 -2.05681,0.411364 -3.70225,0.411364 -1.72771,0 -3.94905,-0.411364 -2.13908,-0.411363 -4.03133,-1.316371 -1.89226,-0.90497 -3.20862,-2.385865 -1.23408,-1.563174 -1.23408,-3.784516 0,-2.139099 1.39863,-3.537713 1.39862,-1.398615 3.37315,-2.303623 1.97453,-0.904969 4.19588,-1.234091 2.22134,-0.411326 3.78451,-0.411326 1.64545,0 3.61997,0.493606 2.05681,0.411364 3.78452,1.316372 1.72771,0.90497 2.87952,2.385865 1.23408,1.398652 1.23408,3.373152 z"
       inkscape:connector-curvature="0" /></g></svg>