<?xml version="1.0" encoding="UTF-8" standalone="no"?>
<!-- Generator: Adobe Illustrator 18.0.0, SVG Export Plug-In . SVG Version: 6.00 Build 0)  -->

<svg
   xmlns:dc="http://purl.org/dc/elements/1.1/"
   xmlns:cc="http://creativecommons.org/ns#"
   xmlns:rdf="http://www.w3.org/1999/02/22-rdf-syntax-ns#"
   xmlns:svg="http://www.w3.org/2000/svg"
   xmlns="http://www.w3.org/2000/svg"
   xmlns:sodipodi="http://sodipodi.sourceforge.net/DTD/sodipodi-0.dtd"
   xmlns:inkscape="http://www.inkscape.org/namespaces/inkscape"
   version="1.1"
   id="Capa_1"
   x="0px"
   y="0px"
   viewBox="0 0 318.01412 169.38071"
   enable-background="new 0 0 519.4 505.9"
   xml:space="preserve"
   sodipodi:docname="medidas_longitud.svg"
   inkscape:version="0.92.1 r"
   width="318.01413"
   height="169.38071"><metadata
     id="metadata9"><rdf:RDF><cc:Work
         rdf:about=""><dc:format>image/svg+xml</dc:format><dc:type
           rdf:resource="http://purl.org/dc/dcmitype/StillImage" /><dc:title></dc:title></cc:Work></rdf:RDF></metadata><defs
     id="defs7" /><sodipodi:namedview
     pagecolor="#ffffff"
     bordercolor="#666666"
     borderopacity="1"
     objecttolerance="10"
     gridtolerance="10"
     guidetolerance="10"
     inkscape:pageopacity="0"
     inkscape:pageshadow="2"
     inkscape:window-width="1920"
     inkscape:window-height="1012"
     id="namedview5"
     showgrid="false"
     inkscape:zoom="0.46649539"
     inkscape:cx="-115.8201"
     inkscape:cy="-177.07538"
     inkscape:window-x="0"
     inkscape:window-y="32"
     inkscape:window-maximized="1"
     inkscape:current-layer="Capa_1"
     fit-margin-top="0"
     fit-margin-left="0"
     fit-margin-right="0"
     fit-margin-bottom="0" /><path
     style="fill:#4a4006;fill-opacity:1;stroke:none;stroke-width:0.23250963px;stroke-linecap:butt;stroke-linejoin:miter;stroke-opacity:1"
     d="m 317.86526,50.23839 c 0,0 -0.54017,-0.92451 -0.92284,-1.28886 -0.61614,-0.58666 -2.14553,-1.38232 -2.14553,-1.38232 l -0.0469,4.05354 z"
     id="path4488"
     inkscape:connector-curvature="0"
     sodipodi:nodetypes="caccc" /><path
     style="fill:#4a4006;fill-opacity:1;stroke:none;stroke-width:0.23250963px;stroke-linecap:butt;stroke-linejoin:miter;stroke-opacity:1"
     d="m 197.38054,45.05953 c 0,0 0.6952,-0.81438 1.13635,-1.10525 0.71021,-0.46839 2.35623,-0.98094 2.35623,-0.98094 l -0.6712,3.99787 z"
     id="path4488-3"
     inkscape:connector-curvature="0"
     sodipodi:nodetypes="caccc"
     inkscape:transform-center-x="-0.33494436"
     inkscape:transform-center-y="-0.066988867" /><path
     style="fill:#bac849;fill-opacity:1;stroke:none;stroke-width:0.23250963px;stroke-linecap:butt;stroke-linejoin:miter;stroke-opacity:1"
     d="m 283.71923,112.51476 c 4.54337,-2.24787 8.52639,-5.75422 11.71847,-9.69195 7.41218,-9.14366 13.10963,-19.97379 16.38822,-31.27858 2.79897,-9.65102 5.05636,-20.33567 2.46701,-30.04505 -2.21465,-8.30442 -7.93829,-15.83585 -14.62602,-21.23418 -5.04181,-4.0698 -11.64094,-6.03243 -17.97418,-7.40115 -6.54917,-1.41536 -13.39431,-0.42323 -20.08876,-0.70484 -7.78541,-0.32769 -15.6404,-2.2859 -23.34879,-1.14543 -8.29814,1.22771 -16.90571,3.54048 -23.70122,8.45843 -5.5445,4.01258 -10.69115,9.63935 -12.59955,16.21199 -4.29445,14.79023 -0.78531,31.49276 4.40542,45.99273 4.07966,11.39633 10.21935,23.38008 20.26499,30.13315 4.43135,2.97891 10.35088,2.98534 15.68334,3.26003 3.74445,0.19276 7.44064,-1.10018 11.18982,-1.14542 6.03863,-0.0729 12.04018,1.86217 18.06225,1.40976 4.14886,-0.31181 8.42993,-0.97451 12.159,-2.81949 z"
     id="path4485"
     inkscape:connector-curvature="0"
     sodipodi:nodetypes="aaaaaaaaaaaaaaaa" /><path
     style="fill:#53421d;fill-opacity:1;stroke:none;stroke-width:0.23250963px;stroke-linecap:butt;stroke-linejoin:miter;stroke-opacity:1"
     d="m 266.80237,0 c 0,0 -0.0922,1.64988 0,2.46705 0.1183,1.0478 0.70488,3.08379 0.70488,3.08379 0,0 -2.93196,2.361 -4.14111,3.78868 -2.12701,2.51138 -3.84767,5.36681 -5.37464,8.28223 -0.57441,1.0967 -1.40973,3.43623 -1.40973,3.43623 l -3.87677,0.35263 c 0,0 1.3217,-3.93895 2.20271,-5.81518 1.92306,-4.09542 3.68424,-8.43043 6.69626,-11.80657 1.42742,-1.59998 5.1984,-3.78867 5.1984,-3.78867 z"
     id="path4489"
     inkscape:connector-curvature="0"
     sodipodi:nodetypes="cacaaccaac" /><path
     style="fill:#d3dc9e;fill-opacity:1;stroke:none;stroke-width:0.23250963px;stroke-linecap:butt;stroke-linejoin:miter;stroke-opacity:1"
     d="m 233.84973,17.1812 c 0,0 5.24137,2.76473 8.10599,3.34814 5.69851,1.16046 11.64752,0.62657 17.44554,0.17612 7.12445,-0.55343 21.14608,-3.52433 21.14608,-3.52433 0,0 -13.97306,3.89356 -21.14608,4.75786 -6.29937,0.75904 -13.01495,2.36715 -19.03147,0.35263 -2.61845,-0.87685 -6.52006,-5.1103 -6.52006,-5.1103 z"
     id="path4487"
     inkscape:connector-curvature="0"
     sodipodi:nodetypes="caacaac" /><path
     style="fill:#e8bb02;fill-opacity:1;stroke:none;stroke-width:0.23250963px;stroke-linecap:butt;stroke-linejoin:miter;stroke-opacity:1"
     d="m 197.38054,45.05953 c 0,0 4.03226,2.86106 6.28475,3.83546 6.36476,2.75343 13.21614,4.39193 20.05833,5.52171 11.02307,1.82014 22.28719,1.90337 33.45936,1.96501 12.28725,0.0676 24.58557,-0.62049 36.82054,-1.75491 4.74856,-0.44028 9.49047,-1.0501 14.17221,-1.95791 3.26902,-0.63386 9.68953,-2.4305 9.68953,-2.4305 0,0 0.28838,7.00328 0.0624,10.49405 -0.2589,3.99477 -1.61987,11.89973 -1.61987,11.89973 0,0 -14.44898,4.25567 -21.86808,5.42029 -12.13263,1.90451 -24.47634,2.59744 -36.75727,2.51955 -13.43928,-0.085 -27.10382,-0.1886 -40.18602,-3.26718 -6.14131,-1.44521 -17.56921,-7.04016 -17.56921,-7.04016 0,0 -1.64031,-7.77071 -2.05598,-11.71279 -0.47192,-4.47561 -0.49062,-13.49235 -0.49062,-13.49235 z"
     id="path4486"
     inkscape:connector-curvature="0"
     sodipodi:nodetypes="caaaaacacaaacac" /><path
     style="fill:none;fill-opacity:1;stroke:#201916;stroke-width:0.46501926;stroke-linecap:butt;stroke-linejoin:miter;stroke-miterlimit:4;stroke-dasharray:none;stroke-opacity:1"
     d="m 203.01169,48.90032 c 0,0 0.47588,9.00257 0.96923,13.4806 0.39341,3.57123 1.58592,10.66117 1.58592,10.66117"
     id="path4491"
     inkscape:connector-curvature="0"
     sodipodi:nodetypes="cac" /><path
     style="fill:none;fill-opacity:1;stroke:#201916;stroke-width:0.46501926;stroke-linecap:butt;stroke-linejoin:miter;stroke-miterlimit:4;stroke-dasharray:none;stroke-opacity:1"
     d="m 211.20726,52.01503 c 0,0 0.35414,8.88015 0.74891,13.30439 0.31144,3.49236 1.2776,10.44087 1.2776,10.44087"
     id="path4491-3"
     inkscape:connector-curvature="0"
     sodipodi:nodetypes="cac" /><path
     style="fill:none;fill-opacity:1;stroke:#201916;stroke-width:0.46501926;stroke-linecap:butt;stroke-linejoin:miter;stroke-miterlimit:4;stroke-dasharray:none;stroke-opacity:1"
     d="m 222.00057,54.52611 c 0,0 0.17877,9.02166 0.44054,13.5247 0.19389,3.33944 0.83705,10.00033 0.83705,10.00033"
     id="path4491-6"
     inkscape:connector-curvature="0"
     sodipodi:nodetypes="cac" /><path
     style="fill:none;fill-opacity:1;stroke:#201916;stroke-width:0.46501926;stroke-linecap:butt;stroke-linejoin:miter;stroke-miterlimit:4;stroke-dasharray:none;stroke-opacity:1"
     d="m 234.82039,56.02398 c 0,0 0.19011,9.1073 0.39647,13.65683 0.15118,3.33634 0.61678,10.00033 0.61678,10.00033"
     id="path4491-7"
     inkscape:connector-curvature="0"
     sodipodi:nodetypes="cac" /><path
     style="fill:none;fill-opacity:1;stroke:#201916;stroke-width:0.46501926;stroke-linecap:butt;stroke-linejoin:miter;stroke-miterlimit:4;stroke-dasharray:none;stroke-opacity:1"
     d="m 250.37156,56.72882 c 0,0 0.0907,8.87006 0.17612,13.30443 0.0673,3.48076 0.26419,10.44087 0.26419,10.44087"
     id="path4491-5"
     inkscape:connector-curvature="0"
     sodipodi:nodetypes="cac" /><path
     style="fill:none;fill-opacity:1;stroke:#201916;stroke-width:0.46501926;stroke-linecap:butt;stroke-linejoin:miter;stroke-miterlimit:4;stroke-dasharray:none;stroke-opacity:1"
     d="m 264.86544,56.59665 c 0,0 0.2846,8.89795 0.35263,13.3485 0.0541,3.52395 0.0438,10.573 0.0438,10.573"
     id="path4491-35"
     inkscape:connector-curvature="0"
     sodipodi:nodetypes="cac" /><path
     style="fill:none;fill-opacity:1;stroke:#201916;stroke-width:0.46501926;stroke-linecap:butt;stroke-linejoin:miter;stroke-miterlimit:4;stroke-dasharray:none;stroke-opacity:1"
     d="m 279.88797,55.97991 c 0,0 0.42149,8.89678 0.52864,13.34846 0.0828,3.43536 0.0881,10.3087 0.0881,10.3087"
     id="path4491-62"
     inkscape:connector-curvature="0"
     sodipodi:nodetypes="cac" /><path
     style="fill:none;fill-opacity:1;stroke:#201916;stroke-width:0.46501926;stroke-linecap:butt;stroke-linejoin:miter;stroke-miterlimit:4;stroke-dasharray:none;stroke-opacity:1"
     d="m 293.98534,54.83448 c 0,0 0.35716,8.89735 0.44054,13.34846 0.0609,3.2448 0.0442,9.73603 0.0442,9.73603"
     id="path4491-9"
     inkscape:connector-curvature="0"
     sodipodi:nodetypes="cac" /><path
     style="fill:none;fill-opacity:1;stroke:#201916;stroke-width:0.46501926;stroke-linecap:butt;stroke-linejoin:miter;stroke-miterlimit:4;stroke-dasharray:none;stroke-opacity:1"
     d="m 305.26326,53.33666 c 0,0 0.48469,8.95445 0.52864,13.43656 0.0302,2.98144 -0.17612,8.94304 -0.17612,8.94304"
     id="path4491-1"
     inkscape:connector-curvature="0"
     sodipodi:nodetypes="cac" /><path
     style="fill:none;fill-opacity:1;stroke:#201916;stroke-width:0.46501926;stroke-linecap:butt;stroke-linejoin:miter;stroke-miterlimit:4;stroke-dasharray:none;stroke-opacity:1"
     d="m 314.28288,51.43382 c 0,0 0.35527,8.79976 0.28384,13.20026 -0.0473,2.9034 -0.47002,8.69862 -0.47002,8.69862"
     id="path4491-2"
     inkscape:connector-curvature="0"
     sodipodi:nodetypes="cac" /><path
     style="fill:none;fill-opacity:1;stroke:#211915;stroke-width:0.34876445;stroke-linecap:butt;stroke-linejoin:miter;stroke-miterlimit:4;stroke-dasharray:none;stroke-opacity:1"
     d="m 299.98455,54.19072 0.31143,6.47943"
     id="path4556"
     inkscape:connector-curvature="0" /><path
     style="fill:none;fill-opacity:1;stroke:#211915;stroke-width:0.34876445;stroke-linecap:butt;stroke-linejoin:miter;stroke-miterlimit:4;stroke-dasharray:none;stroke-opacity:1"
     d="m 310.04633,52.41509 0.31143,6.47944"
     id="path4556-7"
     inkscape:connector-curvature="0" /><path
     style="fill:none;fill-opacity:1;stroke:#211915;stroke-width:0.34876445;stroke-linecap:butt;stroke-linejoin:miter;stroke-miterlimit:4;stroke-dasharray:none;stroke-opacity:1"
     d="m 287.21258,55.49904 0.31143,6.47943"
     id="path4556-0"
     inkscape:connector-curvature="0"
     inkscape:transform-center-x="-0.53591101"
     inkscape:transform-center-y="6.5649099" /><path
     style="fill:none;fill-opacity:1;stroke:#211915;stroke-width:0.34876445;stroke-linecap:butt;stroke-linejoin:miter;stroke-miterlimit:4;stroke-dasharray:none;stroke-opacity:1"
     d="m 272.95325,56.30733 0.23358,6.48272"
     id="path4556-9"
     inkscape:connector-curvature="0" /><path
     style="fill:none;fill-opacity:1;stroke:#211915;stroke-width:0.34876445;stroke-linecap:butt;stroke-linejoin:miter;stroke-miterlimit:4;stroke-dasharray:none;stroke-opacity:1"
     d="m 257.23231,56.6185 0.21278,6.48344"
     id="path4556-3"
     inkscape:connector-curvature="0" /><path
     style="fill:none;fill-opacity:1;stroke:#211915;stroke-width:0.34876445;stroke-linecap:butt;stroke-linejoin:miter;stroke-miterlimit:4;stroke-dasharray:none;stroke-opacity:1"
     d="m 242.26152,56.52703 0.31143,6.47944"
     id="path4556-6"
     inkscape:connector-curvature="0" /><path
     style="fill:none;fill-opacity:1;stroke:#211915;stroke-width:0.33994424;stroke-linecap:butt;stroke-linejoin:miter;stroke-miterlimit:4;stroke-dasharray:none;stroke-opacity:1"
     d="m 228.16842,55.34087 0.15005,6.14165"
     id="path4556-06"
     inkscape:connector-curvature="0" /><path
     style="fill:none;fill-opacity:1;stroke:#211915;stroke-width:0.34318283;stroke-linecap:butt;stroke-linejoin:miter;stroke-miterlimit:4;stroke-dasharray:none;stroke-opacity:1"
     d="m 216.37459,53.25657 0.31219,6.26056"
     id="path4556-2"
     inkscape:connector-curvature="0" /><path
     style="fill:none;fill-opacity:1;stroke:#211915;stroke-width:0.33582699;stroke-linecap:butt;stroke-linejoin:miter;stroke-miterlimit:4;stroke-dasharray:none;stroke-opacity:1"
     d="m 206.40087,50.32562 0.13606,5.98571"
     id="path4556-61"
     inkscape:connector-curvature="0" /><path
     style="fill:none;fill-opacity:1;stroke:#211915;stroke-width:0.32403427;stroke-linecap:butt;stroke-linejoin:miter;stroke-miterlimit:4;stroke-dasharray:none;stroke-opacity:1"
     d="m 199.14769,46.52485 0.0635,5.55024"
     id="path4556-8"
     inkscape:connector-curvature="0" /><path
     style="fill:none;stroke:#211915;stroke-width:0.34876445;stroke-linecap:butt;stroke-linejoin:miter;stroke-miterlimit:4;stroke-dasharray:none;stroke-opacity:1"
     d="m 298.8008,54.34647 0.24907,5.23336"
     id="path4621"
     inkscape:connector-curvature="0" /><path
     style="fill:none;stroke:#211915;stroke-width:0.34876445;stroke-linecap:butt;stroke-linejoin:miter;stroke-miterlimit:4;stroke-dasharray:none;stroke-opacity:1"
     d="m 301.07483,54.06611 0.24907,5.23336"
     id="path4621-7"
     inkscape:connector-curvature="0" /><path
     style="fill:none;stroke:#211915;stroke-width:0.34876445;stroke-linecap:butt;stroke-linejoin:miter;stroke-miterlimit:4;stroke-dasharray:none;stroke-opacity:1"
     d="m 302.19625,53.81688 0.24907,5.2334"
     id="path4621-9"
     inkscape:connector-curvature="0" /><path
     style="fill:none;stroke:#211915;stroke-width:0.34876445;stroke-linecap:butt;stroke-linejoin:miter;stroke-miterlimit:4;stroke-dasharray:none;stroke-opacity:1"
     d="m 303.28653,53.66113 0.24907,5.2334"
     id="path4621-2"
     inkscape:connector-curvature="0" /><path
     style="fill:none;stroke:#211915;stroke-width:0.34876445;stroke-linecap:butt;stroke-linejoin:miter;stroke-miterlimit:4;stroke-dasharray:none;stroke-opacity:1"
     d="m 304.37685,53.47423 0.24907,5.2334"
     id="path4621-0"
     inkscape:connector-curvature="0" /><path
     style="fill:none;stroke:#211915;stroke-width:0.34876445;stroke-linecap:butt;stroke-linejoin:miter;stroke-miterlimit:4;stroke-dasharray:none;stroke-opacity:1"
     d="m 306.2459,53.16272 0.24907,5.23336"
     id="path4621-23"
     inkscape:connector-curvature="0" /><path
     style="fill:none;stroke:#211915;stroke-width:0.34876445;stroke-linecap:butt;stroke-linejoin:miter;stroke-miterlimit:4;stroke-dasharray:none;stroke-opacity:1"
     d="m 307.18043,52.97583 0.24907,5.23336"
     id="path4621-75"
     inkscape:connector-curvature="0" /><path
     style="fill:none;stroke:#211915;stroke-width:0.34876445;stroke-linecap:butt;stroke-linejoin:miter;stroke-miterlimit:4;stroke-dasharray:none;stroke-opacity:1"
     d="m 308.08381,52.82003 0.24907,5.2334"
     id="path4621-92"
     inkscape:connector-curvature="0" /><path
     style="fill:none;stroke:#211915;stroke-width:0.34876445;stroke-linecap:butt;stroke-linejoin:miter;stroke-miterlimit:4;stroke-dasharray:none;stroke-opacity:1"
     d="m 309.08066,52.60199 0.24907,5.2334"
     id="path4621-28"
     inkscape:connector-curvature="0" /><path
     style="fill:none;stroke:#211915;stroke-width:0.34876445;stroke-linecap:butt;stroke-linejoin:miter;stroke-miterlimit:4;stroke-dasharray:none;stroke-opacity:1"
     d="m 310.88742,52.2282 0.24907,5.23336"
     id="path4621-97"
     inkscape:connector-curvature="0" /><path
     style="fill:none;stroke:#211915;stroke-width:0.34876445;stroke-linecap:butt;stroke-linejoin:miter;stroke-miterlimit:4;stroke-dasharray:none;stroke-opacity:1"
     d="m 311.72848,52.07244 0.24907,5.23336"
     id="path4621-3"
     inkscape:connector-curvature="0" /><path
     style="fill:none;stroke:#211915;stroke-width:0.34876445;stroke-linecap:butt;stroke-linejoin:miter;stroke-miterlimit:4;stroke-dasharray:none;stroke-opacity:1"
     d="m 312.60072,51.85436 0.24907,5.2334"
     id="path4621-6"
     inkscape:connector-curvature="0" /><path
     style="fill:none;stroke:#211915;stroke-width:0.34876445;stroke-linecap:butt;stroke-linejoin:miter;stroke-miterlimit:4;stroke-dasharray:none;stroke-opacity:1"
     d="m 313.47296,51.60514 0.24907,5.2334"
     id="path4621-1"
     inkscape:connector-curvature="0" /><path
     style="fill:none;stroke:#211915;stroke-width:0.34876445;stroke-linecap:butt;stroke-linejoin:miter;stroke-miterlimit:4;stroke-dasharray:none;stroke-opacity:1"
     d="m 315.21744,51.26249 0.24907,5.2334"
     id="path4621-29"
     inkscape:connector-curvature="0" /><path
     style="fill:none;stroke:#211915;stroke-width:0.34876445;stroke-linecap:butt;stroke-linejoin:miter;stroke-miterlimit:4;stroke-dasharray:none;stroke-opacity:1"
     d="m 315.93389,50.95098 0.24907,5.2334"
     id="path4621-31"
     inkscape:connector-curvature="0" /><path
     style="fill:none;stroke:#211915;stroke-width:0.34876445;stroke-linecap:butt;stroke-linejoin:miter;stroke-miterlimit:4;stroke-dasharray:none;stroke-opacity:1"
     d="m 316.65037,50.73294 0.24907,5.23336"
     id="path4621-94"
     inkscape:connector-curvature="0" /><path
     style="fill:none;stroke:#211915;stroke-width:0.34876445;stroke-linecap:butt;stroke-linejoin:miter;stroke-miterlimit:4;stroke-dasharray:none;stroke-opacity:1"
     d="m 317.36686,50.48372 0.24907,5.2334"
     id="path4621-78"
     inkscape:connector-curvature="0" /><path
     style="fill:none;stroke:#211915;stroke-width:0.34876445;stroke-linecap:butt;stroke-linejoin:miter;stroke-miterlimit:4;stroke-dasharray:none;stroke-opacity:1"
     d="m 297.46129,54.50223 0.24908,5.23336"
     id="path4621-4"
     inkscape:connector-curvature="0" /><path
     style="fill:none;stroke:#211915;stroke-width:0.34876445;stroke-linecap:butt;stroke-linejoin:miter;stroke-miterlimit:4;stroke-dasharray:none;stroke-opacity:1"
     d="m 296.30869,54.62684 0.24907,5.23336"
     id="path4621-5"
     inkscape:connector-curvature="0" /><path
     style="fill:none;stroke:#211915;stroke-width:0.34876445;stroke-linecap:butt;stroke-linejoin:miter;stroke-miterlimit:4;stroke-dasharray:none;stroke-opacity:1"
     d="m 295.03151,54.75141 0.24907,5.2334"
     id="path4621-03"
     inkscape:connector-curvature="0" /><path
     style="fill:none;stroke:#211915;stroke-width:0.34876445;stroke-linecap:butt;stroke-linejoin:miter;stroke-miterlimit:4;stroke-dasharray:none;stroke-opacity:1"
     d="m 292.78863,55.0941 0.24907,5.23336"
     id="path4621-61"
     inkscape:connector-curvature="0" /><path
     style="fill:none;stroke:#211915;stroke-width:0.34876445;stroke-linecap:butt;stroke-linejoin:miter;stroke-miterlimit:4;stroke-dasharray:none;stroke-opacity:1"
     d="m 291.35566,55.12524 0.24907,5.2334"
     id="path4621-06"
     inkscape:connector-curvature="0" /><path
     style="fill:none;stroke:#211915;stroke-width:0.34876445;stroke-linecap:butt;stroke-linejoin:miter;stroke-miterlimit:4;stroke-dasharray:none;stroke-opacity:1"
     d="m 290.01615,55.34328 0.24908,5.2334"
     id="path4621-32"
     inkscape:connector-curvature="0" /><path
     style="fill:none;stroke:#211915;stroke-width:0.34876445;stroke-linecap:butt;stroke-linejoin:miter;stroke-miterlimit:4;stroke-dasharray:none;stroke-opacity:1"
     d="m 288.55208,55.31214 0.24907,5.2334"
     id="path4621-061"
     inkscape:connector-curvature="0" /><path
     style="fill:none;stroke:#211915;stroke-width:0.34876445;stroke-linecap:butt;stroke-linejoin:miter;stroke-miterlimit:4;stroke-dasharray:none;stroke-opacity:1"
     d="m 285.77961,55.62365 0.24907,5.2334"
     id="path4621-55"
     inkscape:connector-curvature="0" /><path
     style="fill:none;stroke:#211915;stroke-width:0.34876445;stroke-linecap:butt;stroke-linejoin:miter;stroke-miterlimit:4;stroke-dasharray:none;stroke-opacity:1"
     d="m 284.09745,55.74826 0.24907,5.2334"
     id="path4621-47"
     inkscape:connector-curvature="0" /><path
     style="fill:none;stroke:#211915;stroke-width:0.34876445;stroke-linecap:butt;stroke-linejoin:miter;stroke-miterlimit:4;stroke-dasharray:none;stroke-opacity:1"
     d="m 282.57105,55.7794 0.24907,5.2334"
     id="path4621-65"
     inkscape:connector-curvature="0" /><path
     style="fill:none;stroke:#211915;stroke-width:0.34876445;stroke-linecap:butt;stroke-linejoin:miter;stroke-miterlimit:4;stroke-dasharray:none;stroke-opacity:1"
     d="m 281.01351,55.84173 0.24907,5.23336"
     id="path4621-69"
     inkscape:connector-curvature="0" /><path
     style="fill:none;stroke:#211915;stroke-width:0.34876445;stroke-linecap:butt;stroke-linejoin:miter;stroke-miterlimit:4;stroke-dasharray:none;stroke-opacity:1"
     d="m 278.61487,56.02863 0.24907,5.23339"
     id="path4621-37"
     inkscape:connector-curvature="0" /><path
     style="fill:none;stroke:#211915;stroke-width:0.34876445;stroke-linecap:butt;stroke-linejoin:miter;stroke-miterlimit:4;stroke-dasharray:none;stroke-opacity:1"
     d="m 277.1819,56.09091 0.24907,5.2334"
     id="path4621-45"
     inkscape:connector-curvature="0" /><path
     style="fill:none;stroke:#211915;stroke-width:0.34876445;stroke-linecap:butt;stroke-linejoin:miter;stroke-miterlimit:4;stroke-dasharray:none;stroke-opacity:1"
     d="m 275.74897,56.15324 0.24907,5.23336"
     id="path4621-25"
     inkscape:connector-curvature="0" /><path
     style="fill:none;stroke:#211915;stroke-width:0.34876445;stroke-linecap:butt;stroke-linejoin:miter;stroke-miterlimit:4;stroke-dasharray:none;stroke-opacity:1"
     d="m 274.28406,56.21333 0.12624,5.23778"
     id="path4621-474"
     inkscape:connector-curvature="0" /><path
     style="fill:none;stroke:#211915;stroke-width:0.34876445;stroke-linecap:butt;stroke-linejoin:miter;stroke-miterlimit:4;stroke-dasharray:none;stroke-opacity:1"
     d="m 271.34449,56.30589 0.18218,5.23616"
     id="path4621-43"
     inkscape:connector-curvature="0"
     inkscape:transform-center-x="0.59854101"
     inkscape:transform-center-y="4.882918" /><path
     style="fill:none;stroke:#211915;stroke-width:0.34876445;stroke-linecap:butt;stroke-linejoin:miter;stroke-miterlimit:4;stroke-dasharray:none;stroke-opacity:1"
     d="m 269.67236,56.38511 0.15987,5.23688"
     id="path4621-07"
     inkscape:connector-curvature="0" /><path
     style="fill:none;stroke:#211915;stroke-width:0.34876445;stroke-linecap:butt;stroke-linejoin:miter;stroke-miterlimit:4;stroke-dasharray:none;stroke-opacity:1"
     d="m 268.16153,56.38511 0.15987,5.23688"
     id="path4621-07-8"
     inkscape:connector-curvature="0" /><path
     style="fill:none;stroke:#211915;stroke-width:0.34876445;stroke-linecap:butt;stroke-linejoin:miter;stroke-miterlimit:4;stroke-dasharray:none;stroke-opacity:1"
     d="m 266.4638,56.4474 0.15988,5.23687"
     id="path4621-07-6"
     inkscape:connector-curvature="0" /><path
     style="fill:none;stroke:#211915;stroke-width:0.34876445;stroke-linecap:butt;stroke-linejoin:miter;stroke-miterlimit:4;stroke-dasharray:none;stroke-opacity:1"
     d="m 263.69137,56.50972 0.15987,5.23688"
     id="path4621-07-88"
     inkscape:connector-curvature="0"
     inkscape:transform-center-x="0.53591101"
     inkscape:transform-center-y="4.2202992" /><path
     style="fill:none;stroke:#211915;stroke-width:0.34876445;stroke-linecap:butt;stroke-linejoin:miter;stroke-miterlimit:4;stroke-dasharray:none;stroke-opacity:1"
     d="m 262.04036,56.61876 0.15987,5.23688"
     id="path4621-07-4"
     inkscape:connector-curvature="0"
     inkscape:transform-center-y="2.8135328" /><path
     style="fill:none;stroke:#211915;stroke-width:0.34876445;stroke-linecap:butt;stroke-linejoin:miter;stroke-miterlimit:4;stroke-dasharray:none;stroke-opacity:1"
     d="m 260.51392,56.6499 0.15987,5.23688"
     id="path4621-07-3"
     inkscape:connector-curvature="0" /><path
     style="fill:none;stroke:#211915;stroke-width:0.34876445;stroke-linecap:butt;stroke-linejoin:miter;stroke-miterlimit:4;stroke-dasharray:none;stroke-opacity:1"
     d="m 258.76948,56.68105 0.15987,5.23687"
     id="path4621-07-1"
     inkscape:connector-curvature="0" /><path
     style="fill:none;stroke:#211915;stroke-width:0.34876445;stroke-linecap:butt;stroke-linejoin:miter;stroke-miterlimit:4;stroke-dasharray:none;stroke-opacity:1"
     d="m 255.87243,56.69662 0.15988,5.23688"
     id="path4621-07-49"
     inkscape:connector-curvature="0" /><path
     style="fill:none;stroke:#211915;stroke-width:0.34876445;stroke-linecap:butt;stroke-linejoin:miter;stroke-miterlimit:4;stroke-dasharray:none;stroke-opacity:1"
     d="m 254.43946,56.69662 0.15988,5.23688"
     id="path4621-07-2"
     inkscape:connector-curvature="0" /><path
     style="fill:none;stroke:#211915;stroke-width:0.34876445;stroke-linecap:butt;stroke-linejoin:miter;stroke-miterlimit:4;stroke-dasharray:none;stroke-opacity:1"
     d="m 252.97539,56.69662 0.15987,5.23688"
     id="path4621-07-0"
     inkscape:connector-curvature="0" /><path
     style="fill:none;stroke:#211915;stroke-width:0.34876445;stroke-linecap:butt;stroke-linejoin:miter;stroke-miterlimit:4;stroke-dasharray:none;stroke-opacity:1"
     d="m 251.55799,56.68105 0.15987,5.23687"
     id="path4621-07-68"
     inkscape:connector-curvature="0" /><path
     style="fill:none;stroke:#211915;stroke-width:0.34876445;stroke-linecap:butt;stroke-linejoin:miter;stroke-miterlimit:4;stroke-dasharray:none;stroke-opacity:1"
     d="m 248.94131,56.72776 0.15987,5.23688"
     id="path4621-07-9"
     inkscape:connector-curvature="0" /><path
     style="fill:none;stroke:#211915;stroke-width:0.34876445;stroke-linecap:butt;stroke-linejoin:miter;stroke-miterlimit:4;stroke-dasharray:none;stroke-opacity:1"
     d="m 247.27472,56.61876 0.15988,5.23688"
     id="path4621-07-26"
     inkscape:connector-curvature="0" /><path
     style="fill:none;stroke:#211915;stroke-width:0.34876445;stroke-linecap:butt;stroke-linejoin:miter;stroke-miterlimit:4;stroke-dasharray:none;stroke-opacity:1"
     d="m 245.67043,56.60319 0.15987,5.23684"
     id="path4621-07-64"
     inkscape:connector-curvature="0" /><path
     style="fill:none;stroke:#211915;stroke-width:0.34876445;stroke-linecap:butt;stroke-linejoin:miter;stroke-miterlimit:4;stroke-dasharray:none;stroke-opacity:1"
     d="m 243.81695,56.50972 0.15987,5.23688"
     id="path4621-07-95"
     inkscape:connector-curvature="0" /><path
     style="fill:none;stroke:#211915;stroke-width:0.34876445;stroke-linecap:butt;stroke-linejoin:miter;stroke-miterlimit:4;stroke-dasharray:none;stroke-opacity:1"
     d="m 240.77972,56.35397 0.15987,5.23687"
     id="path4621-07-04"
     inkscape:connector-curvature="0" /><path
     style="fill:none;stroke:#211915;stroke-width:0.34876445;stroke-linecap:butt;stroke-linejoin:miter;stroke-miterlimit:4;stroke-dasharray:none;stroke-opacity:1"
     d="m 239.25328,56.29164 0.15988,5.23688"
     id="path4621-07-87"
     inkscape:connector-curvature="0" /><path
     style="fill:none;stroke:#211915;stroke-width:0.34876445;stroke-linecap:butt;stroke-linejoin:miter;stroke-miterlimit:4;stroke-dasharray:none;stroke-opacity:1"
     d="m 237.75806,56.12032 0.15988,5.23687"
     id="path4621-07-17"
     inkscape:connector-curvature="0" /><path
     style="fill:none;stroke:#211915;stroke-width:0.34285283;stroke-linecap:butt;stroke-linejoin:miter;stroke-miterlimit:4;stroke-dasharray:none;stroke-opacity:1"
     d="m 236.26262,56.05841 0.16025,5.04918"
     id="path4621-07-27"
     inkscape:connector-curvature="0" /><path
     style="fill:none;stroke:#211915;stroke-width:0.33882695;stroke-linecap:butt;stroke-linejoin:miter;stroke-miterlimit:4;stroke-dasharray:none;stroke-opacity:1"
     d="m 233.67693,55.90288 0.16063,4.92416"
     id="path4621-07-22"
     inkscape:connector-curvature="0" /><path
     style="fill:none;stroke:#211915;stroke-width:0.33833772;stroke-linecap:butt;stroke-linejoin:miter;stroke-miterlimit:4;stroke-dasharray:none;stroke-opacity:1"
     d="m 232.25957,55.73159 0.16063,4.90848"
     id="path4621-07-61"
     inkscape:connector-curvature="0" /><path
     style="fill:none;stroke:#211915;stroke-width:0.3393473;stroke-linecap:butt;stroke-linejoin:miter;stroke-miterlimit:4;stroke-dasharray:none;stroke-opacity:1"
     d="m 230.95125,55.56023 0.16063,4.93973"
     id="path4621-07-06"
     inkscape:connector-curvature="0" /><path
     style="fill:none;stroke:#211915;stroke-width:0.33681652;stroke-linecap:butt;stroke-linejoin:miter;stroke-miterlimit:4;stroke-dasharray:none;stroke-opacity:1"
     d="m 229.40916,55.46691 0.16063,4.86153"
     id="path4621-07-15"
     inkscape:connector-curvature="0" /><path
     style="fill:none;stroke:#211915;stroke-width:0.33376658;stroke-linecap:butt;stroke-linejoin:miter;stroke-miterlimit:4;stroke-dasharray:none;stroke-opacity:1"
     d="m 226.87026,55.10888 0.16101,4.76768"
     id="path4621-07-94"
     inkscape:connector-curvature="0"
     inkscape:transform-center-x="-0.60650379"
     inkscape:transform-center-y="2.1955221" /><path
     style="fill:none;stroke:#211915;stroke-width:0.33012813;stroke-linecap:butt;stroke-linejoin:miter;stroke-miterlimit:4;stroke-dasharray:none;stroke-opacity:1"
     d="m 225.62412,55.03117 0.161,4.65831"
     id="path4621-07-90"
     inkscape:connector-curvature="0" /><path
     style="fill:none;stroke:#211915;stroke-width:0.3285616;stroke-linecap:butt;stroke-linejoin:miter;stroke-miterlimit:4;stroke-dasharray:none;stroke-opacity:1"
     d="m 224.39358,54.82878 0.16138,4.6114"
     id="path4621-07-91"
     inkscape:connector-curvature="0" /><path
     style="fill:none;stroke:#211915;stroke-width:0.3316859;stroke-linecap:butt;stroke-linejoin:miter;stroke-miterlimit:4;stroke-dasharray:none;stroke-opacity:1"
     d="m 223.13205,54.59498 0.161,4.7052"
     id="path4621-07-7"
     inkscape:connector-curvature="0" /><path
     style="fill:none;stroke:#211915;stroke-width:0.32908475;stroke-linecap:butt;stroke-linejoin:miter;stroke-miterlimit:4;stroke-dasharray:none;stroke-opacity:1"
     d="m 220.71776,54.19015 0.16139,4.62701"
     id="path4621-07-71"
     inkscape:connector-curvature="0" /><path
     style="fill:none;stroke:#211915;stroke-width:0.32803744;stroke-linecap:butt;stroke-linejoin:miter;stroke-miterlimit:4;stroke-dasharray:none;stroke-opacity:1"
     d="m 219.64301,54.03447 0.16139,4.59576"
     id="path4621-07-159"
     inkscape:connector-curvature="0" /><path
     style="fill:none;stroke:#211915;stroke-width:0.32803744;stroke-linecap:butt;stroke-linejoin:miter;stroke-miterlimit:4;stroke-dasharray:none;stroke-opacity:1"
     d="m 218.58388,53.832 0.16138,4.59572"
     id="path4621-07-77"
     inkscape:connector-curvature="0" /><path
     style="fill:none;stroke:#211915;stroke-width:0.3285616;stroke-linecap:butt;stroke-linejoin:miter;stroke-miterlimit:4;stroke-dasharray:none;stroke-opacity:1"
     d="m 217.41574,53.5516 0.16138,4.61136"
     id="path4621-07-67"
     inkscape:connector-curvature="0" /><path
     style="fill:none;stroke:#211915;stroke-width:0.33012813;stroke-linecap:butt;stroke-linejoin:miter;stroke-miterlimit:4;stroke-dasharray:none;stroke-opacity:1"
     d="m 215.39097,53.1154 0.16101,4.65827"
     id="path4621-07-36"
     inkscape:connector-curvature="0" /><path
     style="fill:none;stroke:#211915;stroke-width:0.32380787;stroke-linecap:butt;stroke-linejoin:miter;stroke-miterlimit:4;stroke-dasharray:none;stroke-opacity:1"
     d="m 214.47183,52.8977 0.16138,4.47065"
     id="path4621-07-5"
     inkscape:connector-curvature="0" /><path
     style="fill:none;stroke:#211915;stroke-width:0.32380787;stroke-linecap:butt;stroke-linejoin:miter;stroke-miterlimit:4;stroke-dasharray:none;stroke-opacity:1"
     d="m 213.44383,52.61734 0.16139,4.47065"
     id="path4621-07-63"
     inkscape:connector-curvature="0" /><path
     style="fill:none;stroke:#211915;stroke-width:0.32540163;stroke-linecap:butt;stroke-linejoin:miter;stroke-miterlimit:4;stroke-dasharray:none;stroke-opacity:1"
     d="m 212.49377,52.36804 0.16139,4.51756"
     id="path4621-07-948"
     inkscape:connector-curvature="0" /><path
     style="fill:none;stroke:#211915;stroke-width:0.32487139;stroke-linecap:butt;stroke-linejoin:miter;stroke-miterlimit:4;stroke-dasharray:none;stroke-opacity:1"
     d="m 210.20413,51.69831 0.16139,4.50194"
     id="path4621-07-12"
     inkscape:connector-curvature="0" /><path
     style="fill:none;stroke:#211915;stroke-width:0.32220483;stroke-linecap:butt;stroke-linejoin:miter;stroke-miterlimit:4;stroke-dasharray:none;stroke-opacity:1"
     d="m 209.23835,51.30905 0.16177,4.42379"
     id="path4621-07-93"
     inkscape:connector-curvature="0" /><path
     style="fill:none;stroke:#211915;stroke-width:0.31404406;stroke-linecap:butt;stroke-linejoin:miter;stroke-miterlimit:4;stroke-dasharray:none;stroke-opacity:1"
     d="m 208.19456,51.01353 0.16214,4.18934"
     id="path4621-07-908"
     inkscape:connector-curvature="0" /><path
     style="fill:none;stroke:#211915;stroke-width:0.31404406;stroke-linecap:butt;stroke-linejoin:miter;stroke-miterlimit:4;stroke-dasharray:none;stroke-opacity:1"
     d="m 207.26003,50.65531 0.16215,4.1893"
     id="path4621-07-85"
     inkscape:connector-curvature="0" /><path
     style="fill:none;stroke:#211915;stroke-width:0.31182522;stroke-linecap:butt;stroke-linejoin:miter;stroke-miterlimit:4;stroke-dasharray:none;stroke-opacity:1"
     d="m 205.53105,49.97008 0.16252,4.12679"
     id="path4621-07-09"
     inkscape:connector-curvature="0" /><path
     style="fill:none;stroke:#211915;stroke-width:0.30562553;stroke-linecap:butt;stroke-linejoin:miter;stroke-miterlimit:4;stroke-dasharray:none;stroke-opacity:1"
     d="m 204.67423,49.61212 0.16252,3.9549"
     id="path4621-07-638"
     inkscape:connector-curvature="0" /><path
     style="fill:none;stroke:#211915;stroke-width:0.30279902;stroke-linecap:butt;stroke-linejoin:miter;stroke-miterlimit:4;stroke-dasharray:none;stroke-opacity:1"
     d="m 203.87974,49.22294 0.1629,3.87663"
     id="path4621-07-56"
     inkscape:connector-curvature="0" /><path
     style="fill:none;stroke:#211915;stroke-width:0.29985875;stroke-linecap:butt;stroke-linejoin:miter;stroke-miterlimit:4;stroke-dasharray:none;stroke-opacity:1"
     d="m 202.05733,48.41307 0.16327,3.79865"
     id="path4621-07-11"
     inkscape:connector-curvature="0" /><path
     style="fill:none;stroke:#211915;stroke-width:0.29633564;stroke-linecap:butt;stroke-linejoin:miter;stroke-miterlimit:4;stroke-dasharray:none;stroke-opacity:1"
     d="m 201.24643,47.91311 0.0404,3.70828"
     id="path4621-07-59"
     inkscape:connector-curvature="0" /><path
     style="fill:none;stroke:#211915;stroke-width:0.29336193;stroke-linecap:butt;stroke-linejoin:miter;stroke-miterlimit:4;stroke-dasharray:none;stroke-opacity:1"
     d="m 200.50103,47.5081 0.004,3.6305"
     id="path4621-07-84"
     inkscape:connector-curvature="0" /><path
     style="fill:none;stroke:#211915;stroke-width:0.29336193;stroke-linecap:butt;stroke-linejoin:miter;stroke-miterlimit:4;stroke-dasharray:none;stroke-opacity:1"
     d="m 199.81569,47.04862 0.004,3.6305"
     id="path4621-07-84-0"
     inkscape:connector-curvature="0" /><path
     style="fill:none;stroke:#211915;stroke-width:0.29336193;stroke-linecap:butt;stroke-linejoin:miter;stroke-miterlimit:4;stroke-dasharray:none;stroke-opacity:1"
     d="m 198.53851,46.20752 0.004,3.6305"
     id="path4621-07-84-3"
     inkscape:connector-curvature="0" /><path
     style="fill:none;stroke:#211915;stroke-width:0.29336193;stroke-linecap:butt;stroke-linejoin:miter;stroke-miterlimit:4;stroke-dasharray:none;stroke-opacity:1"
     d="m 197.8376,45.72469 0.004,3.6305"
     id="path4621-07-84-04"
     inkscape:connector-curvature="0" /><path
     d="m 311.80373,64.91751 q 0.0302,0.47425 0.27024,0.73334 0.23962,0.25587 0.62914,0.23093 0.38956,-0.0265 0.59441,-0.30917 0.20447,-0.28762 0.17423,-0.76191 -0.0302,-0.47426 -0.27023,-0.73338 -0.24265,-0.2589 -0.62933,-0.23395 -0.38956,0.0264 -0.59422,0.31256 -0.20485,0.28422 -0.17424,0.76192 z m -0.2056,0.68122 q -0.065,0.43408 -0.30615,0.69101 -0.24151,0.25361 -0.61099,0.27742 -0.51655,0.034 -0.84352,-0.36586 -0.32731,-0.40229 -0.37417,-1.13348 -0.0472,-0.73444 0.22601,-1.17199 0.27326,-0.43756 0.78977,-0.47074 0.36926,-0.0227 0.64165,0.20031 0.27213,0.22073 0.39168,0.63957 0.0673,-0.48714 0.33562,-0.77227 0.26835,-0.28838 0.68099,-0.31483 0.6262,-0.0401 0.98907,0.37644 0.36283,0.41325 0.41488,1.22679 0.0521,0.81351 -0.25436,1.27306 -0.3069,0.45623 -0.93306,0.49644 -0.41265,0.0265 -0.71565,-0.22526 -0.30312,-0.25171 -0.43204,-0.72631 z m -0.9049,0.30274 q 0.33487,-0.0227 0.5071,-0.27061 0.17197,-0.25248 0.14438,-0.68395 -0.0265,-0.42814 -0.23055,-0.65654 -0.20334,-0.23168 -0.53798,-0.21014 -0.33487,0.0227 -0.50665,0.27742 -0.17196,0.25247 -0.14475,0.68065 0.0265,0.43147 0.23055,0.65983 0.20296,0.22526 0.53752,0.20372 z"
     style="font-style:normal;font-weight:normal;font-size:medium;line-height:1.25;font-family:sans-serif;letter-spacing:0px;word-spacing:0px;fill:#000001;fill-opacity:1;stroke:none;stroke-width:0.15816994"
     id="path4956"
     inkscape:connector-curvature="0" /><path
     d="m 304.92768,67.62441 h -0.58179 q 0.11377,-0.2778 0.17386,-0.56263 0.0601,-0.28497 0.0601,-0.55899 0,-0.73069 -0.42369,-1.11432 -0.42682,-0.38725 -1.29316,-0.44205 0.27174,0.21203 0.41733,0.53703 0.14551,0.32504 0.14551,0.71978 0,0.81838 -0.42686,1.29698 -0.42999,0.47494 -1.17305,0.47494 -0.72722,0 -1.1667,-0.49686 -0.43952,-0.4969 -0.43952,-1.32257 0,-0.94624 0.62921,-1.44314 0.62604,-0.50052 1.82124,-0.50052 1.11614,0 1.78326,0.61379 0.66399,0.61013 0.66399,1.64406 0,0.2778 -0.0472,0.56266 -0.0476,0.28498 -0.14211,0.59184 z m -2.00145,-1.46869 q 0,-0.4969 -0.29405,-0.7855 -0.29405,-0.29216 -0.80629,-0.29216 -0.50906,0 -0.80311,0.29216 -0.29707,0.28876 -0.29707,0.7855 0,0.49686 0.29707,0.78916 0.29405,0.28876 0.80311,0.28876 0.51224,0 0.80629,-0.28876 0.29405,-0.29215 0.29405,-0.78916 z"
     style="font-style:normal;font-weight:normal;font-size:medium;line-height:1.25;font-family:sans-serif;letter-spacing:0px;word-spacing:0px;fill:#000001;fill-opacity:1;stroke:none;stroke-width:0.1740178"
     id="path4959"
     inkscape:connector-curvature="0" /><path
     d="m 292.54341,72.0169 v -1.09501 h -3.77949 l 0.23887,1.19123 h -0.61055 l -0.23886,-1.18461 v -0.6703 h 4.39007 V 69.1632 h 0.56409 v 2.8537 z"
     style="font-style:normal;font-weight:normal;font-size:medium;line-height:1.25;font-family:sans-serif;letter-spacing:0px;word-spacing:0px;fill:#000001;fill-opacity:1;stroke:none;stroke-width:0.16989502"
     id="path4962"
     inkscape:connector-curvature="0" /><path
     d="m 288.59467,66.37255 q 0,0.51764 0.51103,0.77979 0.50767,0.2589 1.52973,0.2589 1.0187,0 1.52969,-0.2589 0.5077,-0.2623 0.5077,-0.77979 0,-0.52097 -0.5077,-0.77979 -0.51099,-0.2623 -1.52969,-0.2623 -1.02206,0 -1.52973,0.2623 -0.51103,0.2589 -0.51103,0.77979 z m -0.53091,0 q 0,-0.83289 0.66033,-1.2709 0.65703,-0.44134 1.91134,-0.44134 1.25099,0 1.91131,0.44134 0.65699,0.43801 0.65699,1.2709 0,0.83286 -0.65699,1.27419 -0.66032,0.43801 -1.91131,0.43801 -1.25431,0 -1.91134,-0.43801 -0.66033,-0.44133 -0.66033,-1.27419 z"
     style="font-style:normal;font-weight:normal;font-size:medium;line-height:1.25;font-family:sans-serif;letter-spacing:0px;word-spacing:0px;fill:#000001;fill-opacity:1;stroke:none;stroke-width:0.16989502"
     id="path4964"
     inkscape:connector-curvature="0" /><path
     d="m 278.97491,72.76808 -0.0454,-1.187 -4.15778,0.16819 0.31181,1.28069 -0.6717,0.0265 -0.31181,-1.27348 -0.0265,-0.72661 4.82944,-0.19502 -0.045,-1.187 0.62056,-0.0265 0.11755,3.09339 z"
     style="font-style:normal;font-weight:normal;font-size:medium;line-height:1.25;font-family:sans-serif;letter-spacing:0px;word-spacing:0px;fill:#000001;fill-opacity:1;stroke:none;stroke-width:0.18566957"
     id="path4967"
     inkscape:connector-curvature="0" /><path
     d="m 278.79651,68.07761 -0.045,-1.187 -4.15775,0.16819 0.31181,1.28065 -0.67166,0.0265 -0.31181,-1.27351 -0.0265,-0.72658 4.82944,-0.19502 -0.045,-1.187 0.62056,-0.0265 0.11755,3.0934 z"
     style="font-style:normal;font-weight:normal;font-size:medium;line-height:1.25;font-family:sans-serif;letter-spacing:0px;word-spacing:0px;fill:#000001;fill-opacity:1;stroke:none;stroke-width:0.18566957"
     id="path4969"
     inkscape:connector-curvature="0" /><path
     d="m 263.34244,73.87612 v -1.24819 l -4.30809,0.16517 0.27212,1.34744 -0.69596,0.0265 -0.27213,-1.33984 v -0.76403 l 5.00406,-0.19162 v -1.24819 l 0.64297,-0.0265 v 3.25282 z"
     style="font-style:normal;font-weight:normal;font-size:medium;line-height:1.25;font-family:sans-serif;letter-spacing:0px;word-spacing:0px;fill:#000001;fill-opacity:1;stroke:none;stroke-width:0.193656"
     id="path4972"
     inkscape:connector-curvature="0" /><path
     d="m 263.34244,68.41818 v -2.66657 l 0.64297,-0.0265 v 3.58564 l -0.64297,0.0265 q -0.4501,-0.41771 -1.20658,-1.13764 -0.76025,-0.72355 -0.97961,-0.90807 -0.41231,-0.35112 -0.69596,-0.48393 -0.28763,-0.13644 -0.56357,-0.12586 -0.4501,0.0189 -0.73379,0.34583 -0.28385,0.32466 -0.28385,0.83165 0,0.35943 0.12473,0.75545 0.12472,0.39239 0.37825,0.83656 l -0.77163,0.0302 q -0.18519,-0.45434 -0.27968,-0.85164 -0.0945,-0.39731 -0.0945,-0.73017 0,-0.87749 0.43877,-1.41627 0.43872,-0.53877 1.17252,-0.56689 0.34809,-0.0151 0.66191,0.10696 0.3103,0.11679 0.73376,0.44466 0.1096,0.0903 0.63545,0.57706 0.52195,0.48684 1.46377,1.37363 z"
     style="font-style:normal;font-weight:normal;font-size:medium;line-height:1.25;font-family:sans-serif;letter-spacing:0px;word-spacing:0px;fill:#000001;fill-opacity:1;stroke:none;stroke-width:0.193656"
     id="path4974"
     inkscape:connector-curvature="0" /><path
     d="m 248.5815,74.1419 -0.059,-1.2497 h -4.31347 l 0.33676,1.35953 h -0.69683 l -0.33638,-1.35197 -0.0378,-0.76498 h 5.0103 l -0.059,-1.24974 h 0.6438 l 0.15383,3.25686 z"
     style="font-style:normal;font-weight:normal;font-size:medium;line-height:1.25;font-family:sans-serif;letter-spacing:0px;word-spacing:0px;fill:#000001;fill-opacity:1;stroke:none;stroke-width:0.19389752"
     id="path4977"
     inkscape:connector-curvature="0" /><path
     d="m 245.84047,67.01847 q 0.0915,-0.54913 0.44814,-0.85587 0.35641,-0.31068 0.90179,-0.31068 0.83694,0 1.32235,0.57562 0.48544,0.57566 0.53548,1.63605 0.0151,0.35603 -0.0378,0.73466 -0.0506,0.37493 -0.17159,0.77635 h -0.73848 q 0.17046,-0.31823 0.24718,-0.69683 0.0767,-0.37867 0.0574,-0.79147 -0.034,-0.71955 -0.33562,-1.09447 -0.30198,-0.37871 -0.84344,-0.37871 -0.49988,0 -0.7635,0.35225 -0.26759,0.34847 -0.23811,0.97327 l 0.0302,0.65896 h -0.62864 l -0.034,-0.68928 q -0.0265,-0.56424 -0.26419,-0.86343 -0.24151,-0.29934 -0.6655,-0.29934 -0.43548,0 -0.65185,0.31068 -0.22035,0.3069 -0.19314,0.88237 0.0151,0.31445 0.10016,0.67408 0.085,0.35981 0.24945,0.7915 h -0.68168 q -0.14173,-0.43551 -0.22034,-0.81422 -0.0786,-0.38249 -0.0945,-0.71955 -0.0412,-0.87099 0.3326,-1.37846 0.37001,-0.50748 1.04402,-0.50748 0.46956,0 0.80795,0.26872 0.33448,0.26873 0.48298,0.76502 z"
     style="font-style:normal;font-weight:normal;font-size:medium;line-height:1.25;font-family:sans-serif;letter-spacing:0px;word-spacing:0px;fill:#000001;fill-opacity:1;stroke:none;stroke-width:0.19389752"
     id="path4979"
     inkscape:connector-curvature="0" /><path
     d="m 233.9458,72.62173 -0.0786,-1.2404 -4.29778,-0.26154 0.35717,1.36592 -0.6943,-0.0423 -0.35641,-1.3584 -0.048,-0.75927 4.99208,0.3035 -0.0786,-1.24041 0.64146,0.0389 0.20448,3.23252 z"
     style="font-style:normal;font-weight:normal;font-size:medium;line-height:1.25;font-family:sans-serif;letter-spacing:0px;word-spacing:0px;fill:#000001;fill-opacity:1;stroke:none;stroke-width:0.19244927"
     id="path4982"
     inkscape:connector-curvature="0" /><path
     d="m 229.18417,65.50247 3.12858,2.0999 -0.12133,-1.91698 z m -0.65152,0.15874 -0.0605,-0.95475 3.67143,0.22337 -0.0506,-0.80062 0.6339,0.0385 0.0506,0.80062 1.32821,0.0809 0.0476,0.75553 -1.3282,-0.0809 0.16025,2.53342 -0.7358,-0.0446 z"
     style="font-style:normal;font-weight:normal;font-size:medium;line-height:1.25;font-family:sans-serif;letter-spacing:0px;word-spacing:0px;fill:#000001;fill-opacity:1;stroke:none;stroke-width:0.19244927"
     id="path4984"
     inkscape:connector-curvature="0" /><path
     d="m 220.69939,70.6619 -0.0586,-1.09338 -3.80746,-0.62941 0.30463,1.22922 -0.61508,-0.10167 -0.30425,-1.2226 -0.0378,-0.66928 4.42258,0.73111 -0.0586,-1.09334 0.56829,0.0941 0.15307,2.84931 z"
     style="font-style:normal;font-weight:normal;font-size:medium;line-height:1.25;font-family:sans-serif;letter-spacing:0px;word-spacing:0px;fill:#000001;fill-opacity:1;stroke:none;stroke-width:0.1696343"
     id="path4987"
     inkscape:connector-curvature="0" /><path
     d="m 216.05076,65.71975 -0.14097,-2.62738 0.56825,0.0941 0.10809,2.01442 1.22347,0.2022 q -0.0578,-0.1542 -0.0892,-0.30387 -0.034,-0.15005 -0.0423,-0.29594 -0.0446,-0.82828 0.38755,-1.23628 0.432,-0.40804 1.21421,-0.27855 0.80564,0.13304 1.28024,0.7042 0.47127,0.57048 0.51983,1.47496 0.0151,0.31143 -0.0189,0.62729 -0.0378,0.31256 -0.12473,0.63942 l -0.67861,-0.11226 q 0.14778,-0.27099 0.2109,-0.57592 0.0631,-0.30463 0.0442,-0.6593 -0.0302,-0.57317 -0.35301,-0.95811 -0.32202,-0.38491 -0.84363,-0.47112 -0.5215,-0.0862 -0.80772,0.19805 -0.28611,0.28422 -0.2555,0.85754 0.0151,0.26834 0.0888,0.54667 0.0745,0.27515 0.21619,0.57433 z"
     style="font-style:normal;font-weight:normal;font-size:medium;line-height:1.25;font-family:sans-serif;letter-spacing:0px;word-spacing:0px;fill:#000001;fill-opacity:1;stroke:none;stroke-width:0.1696343"
     id="path4989"
     inkscape:connector-curvature="0" /><path
     d="m 211.22037,68.61033 -0.1285,-0.98094 -3.49962,-0.87042 0.36095,1.12218 -0.56534,-0.1406 -0.36019,-1.11621 -0.0786,-0.60045 4.065,1.01102 -0.1285,-0.98097 0.52233,0.13001 0.33448,2.5564 z"
     style="font-style:normal;font-weight:normal;font-size:medium;line-height:1.25;font-family:sans-serif;letter-spacing:0px;word-spacing:0px;fill:#000001;fill-opacity:1;stroke:none;stroke-width:0.15219644"
     id="path4992"
     inkscape:connector-curvature="0" /><path
     d="m 208.5306,62.97759 q 0.0529,0.40426 0.36964,0.71312 0.31634,0.30576 0.81422,0.42973 0.4947,0.12284 0.75277,-0.0401 0.25474,-0.16668 0.20182,-0.57101 -0.0529,-0.40426 -0.36926,-0.71017 -0.31974,-0.30955 -0.8146,-0.43268 -0.49772,-0.12359 -0.75239,0.0431 -0.25512,0.16366 -0.2022,0.56807 z m -2.10085,-1.67577 0.56534,0.1406 q -0.0809,0.19843 -0.10923,0.41575 -0.0302,0.2143 0.001,0.44028 0.0779,0.59452 0.53375,1.01276 0.45562,0.41529 1.30027,0.66852 -0.29027,-0.24189 -0.4662,-0.5416 -0.17915,-0.30048 -0.22073,-0.61852 -0.0873,-0.66883 0.28271,-0.95059 0.36699,-0.28536 1.089,-0.10583 0.70669,0.17575 1.18665,0.68629 0.47997,0.5105 0.56784,1.18227 0.10054,0.76993 -0.45438,1.02584 -0.55819,0.25512 -1.71654,-0.034 -1.08768,-0.27061 -1.79823,-0.9304 -0.71365,-0.66063 -0.82367,-1.50187 -0.0302,-0.22602 -0.0151,-0.44334 0.0151,-0.22035 0.0752,-0.4472 z"
     style="font-style:normal;font-weight:normal;font-size:medium;line-height:1.25;font-family:sans-serif;letter-spacing:0px;word-spacing:0px;fill:#000001;fill-opacity:1;stroke:none;stroke-width:0.15219644"
     id="path4994"
     inkscape:connector-curvature="0" /><path
     d="m 203.47435,65.17482 -0.15912,-1.11617 -2.63891,-0.4094 0.33978,1.24014 -0.42633,-0.0661 -0.33864,-1.23338 -0.0971,-0.68322 3.0652,0.47558 -0.15912,-1.11617 0.39387,0.0612 0.41427,2.90877 z"
     style="font-style:normal;font-weight:normal;font-size:medium;line-height:1.25;font-family:sans-serif;letter-spacing:0px;word-spacing:0px;fill:#000001;fill-opacity:1;stroke:none;stroke-width:0.14173296"
     id="path4997"
     inkscape:connector-curvature="0" /><path
     d="m 199.82245,60.57967 -0.46246,-3.24699 0.19918,0.0302 3.5209,2.33893 0.10166,0.71365 -3.31086,-2.20048 0.34545,2.42506 z"
     style="font-style:normal;font-weight:normal;font-size:medium;line-height:1.25;font-family:sans-serif;letter-spacing:0px;word-spacing:0px;fill:#000001;fill-opacity:1;stroke:none;stroke-width:0.14173296"
     id="path4999"
     inkscape:connector-curvature="0" /><path
     inkscape:connector-curvature="0"
     id="path5002"
     style="font-size:12.69847107px;font-family:FontdinerdotcomSparkly;fill:#046939;stroke-width:0.31996149"
     d="m 34.21992,123.45022 q 0,0.52796 -0.47993,0.52796 l -4.36747,0.43193 -2.11173,38.97131 q 0.38392,-0.048 0.91188,-0.144 0.57593,-0.048 1.15185,-0.144 0.62393,-0.096 1.15185,-0.192 0.57593,-0.048 0.91189,-0.048 0.24,0 0.336,0.144 0.144,0.192 0.144,0.43196 0,0.47993 -0.43196,0.47993 l -9.88679,1.34385 h -0.096 q -0.24,0 -0.38397,-0.192 -0.144,-0.144 -0.144,-0.38397 0,-0.43196 0.47993,-0.52792 l 3.55158,-0.43196 -0.096,-34.21988 -8.59094,39.11527 q -0.096,0.38396 -0.52796,0.38396 -0.38396,0 -0.47993,-0.38396 l -9.55086,-40.55508 0.192,35.41973 4.07951,0.95988 q 0.38392,0.096 0.38392,0.47993 0,0.52792 -0.52792,0.52792 -0.096,0 -0.76793,-0.144 -0.67188,-0.144 -1.63177,-0.38396 -0.95989,-0.192 -2.11177,-0.43196 -1.10385,-0.24 -2.15974,-0.47993 -1.00789,-0.24 -1.77577,-0.43196 -0.71993,-0.192 -0.95989,-0.24 -0.43196,-0.096 -0.43196,-0.47992 0,-0.57593 0.52796,-0.57593 0.096,0 0.71989,0.144 0.62392,0.144 1.34385,0.288 0.71992,0.192 1.39184,0.336 0.67193,0.144 0.86389,0.192 l -0.192,-38.68331 q -0.192,0.048 -0.81592,0.192 -0.62393,0.144 -1.34385,0.336 -0.67189,0.144 -1.29581,0.288 -0.57597,0.096 -0.67193,0.096 Q 0,125.46611 0,124.93814 q 0,-0.43192 0.43196,-0.52792 0.288,-0.096 1.53581,-0.38396 1.29585,-0.288 2.6877,-0.57593 1.39181,-0.336 2.54366,-0.57592 1.19989,-0.288 1.34385,-0.288 0.43196,0 0.52792,0.43196 l 8.01506,36.85954 7.87105,-35.70769 q 0.096,-0.43196 0.47993,-0.43196 l 8.20702,-0.81589 h 0.048 q 0.52792,0 0.52792,0.52793 z" /><path
     inkscape:connector-curvature="0"
     id="path5004"
     style="font-size:12.69847107px;font-family:FontdinerdotcomSparkly;fill:#046939;stroke-width:0.31996149"
     d="m 38.84988,147.87927 q 0,-0.47992 -0.048,-1.19985 -0.048,-0.71992 -0.288,-1.34385 -0.192,-0.67188 -0.57593,-1.15184 -0.38396,-0.47993 -1.10388,-0.47993 -0.67189,0 -1.19985,0.71989 -0.47993,0.67192 -0.86389,1.63181 -0.336,0.91189 -0.57592,1.87177 -0.192,0.91189 -0.288,1.39185 l 4.89539,-0.38396 q 0.048,-0.24 0.048,-0.52793 0,-0.288 0,-0.52796 z m 3.35958,1.34385 q 0,0.47996 -0.52792,0.57593 l -7.91906,0.62392 q -0.048,0.62392 -0.096,1.24785 0,0.57592 0,1.24785 0,0.71992 0.096,1.82381 0.096,1.10385 0.38396,2.15973 0.336,1.10385 0.95989,1.87178 0.62393,0.76788 1.63181,0.76788 0.76789,0 1.24785,-0.24 0.47993,-0.24 0.81589,-0.52792 0.336,-0.24 0.52792,-0.47996 0.192,-0.24 0.38396,-0.24 0.52797,0 0.52797,0.52792 0,0.144 -0.048,0.24 -0.192,0.43193 -0.62393,0.76789 -0.38396,0.336 -0.86392,0.52792 -0.47993,0.24 -1.00785,0.336 -0.52796,0.144 -0.95989,0.144 -1.53581,0 -2.6397,-0.86388 -1.05588,-0.86393 -1.77577,-2.15978 -0.67192,-1.29581 -1.00789,-2.78366 -0.336,-1.48781 -0.336,-2.73566 0,-1.29585 0.288,-2.92766 0.336,-1.63177 1.00789,-3.07162 0.71993,-1.43981 1.82377,-2.4477 1.15185,-1.00788 2.73566,-1.00788 2.11178,0 3.31163,1.39185 1.19985,1.34381 1.72777,3.16762 0.096,0.52792 0.192,1.05585 0.144,0.47996 0.144,1.00788 z" /><path
     inkscape:connector-curvature="0"
     id="path5006"
     style="font-size:12.69847107px;font-family:FontdinerdotcomSparkly;fill:#046939;stroke-width:0.31996149"
     d="m 56.00704,148.16723 q -0.81588,-0.81588 -2.01573,-1.19984 -1.15185,-0.38393 -2.35174,-0.38393 -0.86388,0 -1.72777,0.24 -0.86389,0.192 -1.58381,0.62393 -0.67193,0.43192 -1.10389,1.15184 -0.38392,0.71993 -0.38392,1.72782 0,0.86388 0.336,1.43981 0.38392,0.52792 0.95988,0.86388 0.62393,0.288 1.34381,0.38397 0.71993,0.096 1.43985,0.096 1.29585,0 2.63966,-0.336 1.34385,-0.336 2.35174,-1.19985 0.048,-0.81593 0.048,-1.67981 0.048,-0.86389 0.048,-1.72782 z m 5.61536,5.1354 q 0,0.38396 -0.38396,0.52792 -0.192,0.048 -0.95989,0.288 -0.76792,0.24 -1.63181,0.52797 -0.86389,0.24 -1.58381,0.47992 -0.71992,0.192 -0.81589,0.192 -0.24,0 -0.38396,-0.144 -0.144,-0.192 -0.144,-0.43192 0,-0.43197 0.048,-0.86393 0.048,-0.47992 0.048,-0.91188 -0.43196,0.24 -1.10385,0.47996 -0.62392,0.192 -1.34385,0.38392 -0.67192,0.144 -1.34385,0.24 -0.67192,0.096 -1.19984,0.096 -0.91189,0 -2.25574,-0.144 -1.29585,-0.192 -2.4957,-0.67192 -1.19985,-0.47996 -2.06373,-1.24785 -0.81593,-0.81589 -0.81593,-2.01577 0,-1.34382 0.86393,-2.20774 0.91188,-0.86389 2.15973,-1.39181 1.29585,-0.52796 2.68766,-0.71993 1.39185,-0.24 2.3997,-0.24 1.24785,0 2.44774,0.288 1.19984,0.24 2.30369,1.00789 0.048,-0.91189 0.048,-1.82377 0,-0.91193 0,-1.87178 0,-4.65547 -0.048,-9.2629 -0.048,-4.65543 -0.144,-9.31087 h -2.87966 q -0.57592,0 -0.57592,-0.52796 0,-0.52792 0.57592,-0.52792 h 6.14325 q 0.52796,0 0.52796,0.57592 0,0.43196 -0.048,0.91189 -0.048,0.43196 -0.096,0.81592 l -0.288,3.31159 q -0.43196,5.23136 -0.57592,10.51075 -0.144,4.22347 -0.144,8.59094 0,1.34385 0,2.6397 0,1.29585 0.048,2.63966 0.144,-0.048 0.52796,-0.144 0.38392,-0.144 0.76788,-0.24 0.43197,-0.144 0.76793,-0.24 0.336,-0.096 0.43192,-0.096 0.52797,0 0.52797,0.52792 z" /><path
     inkscape:connector-curvature="0"
     id="path5008"
     style="font-size:12.69847107px;font-family:FontdinerdotcomSparkly;fill:#046939;stroke-width:0.31996149"
     d="m 65.18744,141.59203 -0.52792,4.75143 -0.52793,-4.75143 -2.83166,2.5917 2.63966,-2.92766 -2.4957,-0.47993 2.4957,-0.43196 -2.63966,-2.92762 2.83166,2.59166 0.52793,-4.7514 0.52792,4.7514 2.83166,-2.59166 -2.63966,2.92762 2.4957,0.43196 -2.4957,0.47993 2.63966,2.92766 z m 4.17551,14.63826 q 0,0.43192 -0.47993,0.52792 l -6.7192,0.62393 h -0.048 q -0.52793,0 -0.52793,-0.52793 0,-0.52796 0.47993,-0.52796 l 2.25573,-0.24 -0.62392,-7.58309 q -0.52793,0.096 -1.10385,0.192 -0.57596,0.048 -1.10389,0.048 -0.52792,0 -0.52792,-0.52796 0,-0.52793 0.47992,-0.52793 0.43197,-0.048 1.10389,-0.144 0.67192,-0.096 1.34385,-0.144 0.71989,-0.096 1.34381,-0.144 0.62392,-0.096 1.00789,-0.096 0.52792,0 0.52792,0.52793 l -0.096,8.20701 q 0.52793,-0.048 1.05585,-0.096 0.57592,-0.096 1.10389,-0.096 0.52792,0 0.52792,0.52797 z" /><path
     inkscape:connector-curvature="0"
     id="path5010"
     style="font-size:12.69847107px;font-family:FontdinerdotcomSparkly;fill:#046939;stroke-width:0.31996149"
     d="m 81.7852,148.16723 q -0.81589,-0.81588 -2.01574,-1.19984 -1.15188,-0.38393 -2.35173,-0.38393 -0.86389,0 -1.72778,0.24 -0.86392,0.192 -1.58381,0.62393 -0.67192,0.43192 -1.10388,1.15184 -0.38397,0.71993 -0.38397,1.72782 0,0.86388 0.336,1.43981 0.38397,0.52792 0.95989,0.86388 0.62393,0.288 1.34385,0.38397 0.71992,0.096 1.43981,0.096 1.29585,0 2.6397,-0.336 1.34385,-0.336 2.35173,-1.19985 0.048,-0.81593 0.048,-1.67981 0.048,-0.86389 0.048,-1.72782 z m 5.61532,5.1354 q 0,0.38396 -0.38393,0.52792 -0.192,0.048 -0.95988,0.288 -0.76793,0.24 -1.63181,0.52797 -0.86389,0.24 -1.58382,0.47992 -0.71992,0.192 -0.81588,0.192 -0.24,0 -0.38396,-0.144 -0.144,-0.192 -0.144,-0.43192 0,-0.43197 0.048,-0.86393 0.048,-0.47992 0.048,-0.91188 -0.43197,0.24 -1.10389,0.47996 -0.62393,0.192 -1.34381,0.38392 -0.67193,0.144 -1.34385,0.24 -0.67193,0.096 -1.19985,0.096 -0.91189,0 -2.25573,-0.144 -1.29585,-0.192 -2.4957,-0.67192 -1.19985,-0.47996 -2.06378,-1.24785 -0.81588,-0.81589 -0.81588,-2.01577 0,-1.34382 0.86388,-2.20774 0.91189,-0.86389 2.15974,-1.39181 1.29585,-0.52796 2.6877,-0.71993 1.39181,-0.24 2.39969,-0.24 1.24785,0 2.4477,0.288 1.19989,0.24 2.30374,1.00789 0.048,-0.91189 0.048,-1.82377 0,-0.91193 0,-1.87178 0,-4.65547 -0.048,-9.2629 -0.048,-4.65543 -0.144,-9.31087 h -2.87966 q -0.57593,0 -0.57593,-0.52796 0,-0.52792 0.57593,-0.52792 h 6.14324 q 0.52796,0 0.52796,0.57592 0,0.43196 -0.048,0.91189 -0.048,0.43196 -0.096,0.81592 l -0.288,3.31159 q -0.43196,5.23136 -0.57592,10.51075 -0.144,4.22347 -0.144,8.59094 0,1.34385 0,2.6397 0,1.29585 0.048,2.63966 0.144,-0.048 0.52792,-0.144 0.38397,-0.144 0.76793,-0.24 0.43196,-0.144 0.76789,-0.24 0.336,-0.096 0.43196,-0.096 0.52792,0 0.52792,0.52792 z" /><path
     inkscape:connector-curvature="0"
     id="path5012"
     style="font-size:12.69847107px;font-family:FontdinerdotcomSparkly;fill:#046939;stroke-width:0.31996149"
     d="m 97.33758,133.86497 -0.52793,4.75144 -0.52792,-4.75144 -2.83166,2.5437 2.63966,-2.87966 -2.4957,-0.47992 2.4957,-0.47997 -2.63966,-2.87966 2.83166,2.5917 0.52792,-4.79943 0.52793,4.79943 2.83166,-2.5917 -2.63966,2.87966 2.49569,0.47997 -2.49569,0.47992 2.63966,2.87966 z m 0.096,18.86174 q -0.67193,-0.192 -1.39185,-0.24 -0.67189,-0.096 -1.34381,-0.096 -0.52797,0 -1.29585,0.144 -0.76793,0.096 -1.48781,0.38392 -0.67193,0.288 -1.19989,0.76792 -0.47992,0.43193 -0.47992,1.15185 0,0.57593 0.288,0.95989 0.336,0.336 0.81588,0.57592 0.47996,0.192 1.00789,0.288 0.52796,0.048 1.00789,0.048 1.05588,0 2.11173,-0.24 1.10389,-0.288 1.91977,-1.00788 z m 4.75143,4.46347 q 0,0.52792 -0.47996,0.57592 l -3.79155,0.47993 q -0.288,0.048 -0.43192,-0.144 -0.144,-0.144 -0.192,-0.38397 0,-0.24 0,-0.52792 0.048,-0.24 0.048,-0.38396 -0.76789,0.43196 -2.01574,0.71992 -1.19985,0.288 -2.01577,0.288 -0.76789,0 -1.87178,-0.096 -1.05588,-0.096 -2.06373,-0.47992 -0.95989,-0.336 -1.63181,-0.95989 -0.67193,-0.67192 -0.67193,-1.77581 0,-1.19985 0.91189,-1.82377 0.91189,-0.67193 2.15974,-0.95989 1.24784,-0.288 2.54369,-0.336 1.34385,-0.048 2.15974,-0.048 0.57592,0 1.29585,0.096 0.71992,0.048 1.29585,0.192 v -0.81589 q 0,-1.05588 -0.192,-2.06373 -0.144,-1.05589 -0.62393,-1.87178 -0.43196,-0.81592 -1.24785,-1.29585 -0.81592,-0.52796 -2.06377,-0.52796 -0.47992,0 -1.05585,0.096 -0.52796,0.096 -1.00789,0.336 -0.47996,0.24 -0.81592,0.67193 -0.288,0.38396 -0.288,1.00788 0,0.81589 0.38396,1.10385 0.38396,0.288 0.81589,0.38396 0.47996,0.096 0.86392,0.192 0.38393,0.048 0.38393,0.43197 0,0.24 -0.192,0.38396 -0.144,0.144 -0.336,0.144 -0.57593,0 -1.24785,-0.144 -0.67193,-0.192 -1.24785,-0.52796 -0.52792,-0.336 -0.91189,-0.81589 -0.336,-0.52792 -0.336,-1.19985 0,-0.91189 0.43197,-1.48781 0.47992,-0.62392 1.19984,-0.95989 0.71993,-0.38396 1.53582,-0.52796 0.81588,-0.144 1.53581,-0.144 1.96777,0 3.31162,0.62393 1.39181,0.62392 2.2077,1.77577 0.86392,1.10389 1.19988,2.6877 0.38393,1.53581 0.38393,3.35958 0,1.10385 -0.096,2.25574 -0.096,1.15185 -0.192,2.25569 l 1.77581,-0.24 q 0.192,0 0.38392,0.096 0.192,0.144 0.192,0.38397 z" /><path
     inkscape:connector-curvature="0"
     id="path5014"
     style="font-size:12.69847107px;font-family:FontdinerdotcomSparkly;fill:#046939;stroke-width:0.31996149"
     d="m 106.16251,132.95309 -0.52793,4.75143 -0.52792,-4.75143 -2.83166,2.59169 2.63966,-2.92766 -2.4957,-0.47992 2.4957,-0.43196 -2.63966,-2.92766 2.83166,2.5917 0.52792,-4.75144 0.52793,4.75144 2.83166,-2.5917 -2.63966,2.92766 2.4957,0.43196 -2.4957,0.47992 2.63966,2.92766 z m 6.95917,20.10958 q 0,0.95988 -0.47993,1.67981 -0.47996,0.71989 -1.19985,1.19985 -0.71992,0.47992 -1.63181,0.71988 -0.86392,0.24 -1.72781,0.24 -0.62392,0 -1.53581,-0.144 -0.91189,-0.144 -1.77577,-0.47992 -0.81593,-0.336 -1.43985,-0.86392 -0.57593,-0.57593 -0.57593,-1.43982 0,-0.81588 0.52793,-1.29584 0.57596,-0.52793 1.39185,-0.52793 0.62392,0 1.29585,0.47993 0.67192,0.43196 0.67192,1.15188 0,0.52793 -0.52796,0.52793 -0.288,0 -0.38393,-0.144 -0.096,-0.192 -0.192,-0.38393 -0.096,-0.24 -0.288,-0.38396 -0.144,-0.192 -0.57592,-0.192 -0.62392,0 -0.62392,0.76792 0,0.52793 0.47996,0.91189 0.47992,0.336 1.15185,0.57593 0.67192,0.192 1.34385,0.288 0.67188,0.048 1.05584,0.048 0.43197,0 0.91189,-0.048 0.47996,-0.096 0.91189,-0.288 0.43196,-0.24 0.67192,-0.57593 0.288,-0.38396 0.288,-0.91189 0,-0.57592 -0.67192,-0.95988 -0.67189,-0.38396 -1.67978,-0.71993 -0.95988,-0.336 -2.11173,-0.71988 -1.15189,-0.43197 -2.15977,-1.00789 -0.95989,-0.62392 -1.63178,-1.53581 -0.67192,-0.91189 -0.67192,-2.30374 0,-1.10385 0.43192,-2.01577 0.43196,-0.95985 1.15189,-1.63177 0.76789,-0.71993 1.72777,-1.10389 0.95989,-0.43192 2.01578,-0.47992 0.38396,0 0.81588,0.048 0.43196,0 0.81593,0 0.95988,0 1.72777,-0.192 0.76792,-0.24 1.15185,-1.24785 0.096,-0.38397 0.47996,-0.38397 0.24,0 0.38396,0.144 0.192,0.144 0.192,0.38397 l -0.47992,5.95128 -0.144,2.11173 q 0,0.24 -0.192,0.38397 -0.144,0.096 -0.38396,0.096 -0.24,0 -0.38397,-0.144 -0.096,-0.192 -0.096,-0.43197 0.048,-0.62392 0.096,-1.19984 0.096,-0.62393 0.096,-1.24785 0,-1.67981 -1.05588,-2.4477 -1.05585,-0.76793 -2.63966,-0.76793 -1.34385,0 -2.30374,0.67193 -0.95988,0.67192 -0.95988,2.15973 0,1.05589 0.62392,1.77582 0.67192,0.71988 1.63181,1.29584 0.95989,0.52793 2.11174,1.00785 1.15185,0.43197 2.11173,0.95989 0.95989,0.47996 1.58381,1.10389 0.67193,0.62392 0.67193,1.53581 z" /><path
     inkscape:connector-curvature="0"
     id="path5016"
     style="font-size:12.69847107px;font-family:FontdinerdotcomSparkly;fill:#046939;stroke-width:0.31996149"
     d="m 138.59086,148.16723 q -0.81589,-0.81588 -2.01574,-1.19984 -1.15189,-0.38393 -2.35174,-0.38393 -0.86388,0 -1.72777,0.24 -0.86389,0.192 -1.58381,0.62393 -0.67192,0.43192 -1.10389,1.15184 -0.38392,0.71993 -0.38392,1.72782 0,0.86388 0.336,1.43981 0.38396,0.52792 0.95989,0.86388 0.62392,0.288 1.34384,0.38397 0.71993,0.096 1.43985,0.096 1.29581,0 2.63966,-0.336 1.34385,-0.336 2.35174,-1.19985 0.048,-0.81593 0.048,-1.67981 0.048,-0.86389 0.048,-1.72782 z m 5.61532,5.1354 q 0,0.38396 -0.38393,0.52792 -0.192,0.048 -0.95989,0.288 -0.76792,0.24 -1.63181,0.52797 -0.86388,0.24 -1.58381,0.47992 -0.71992,0.192 -0.81588,0.192 -0.24,0 -0.38397,-0.144 -0.144,-0.192 -0.144,-0.43192 0,-0.43197 0.048,-0.86393 0.048,-0.47992 0.048,-0.91188 -0.43196,0.24 -1.10388,0.47996 -0.62393,0.192 -1.34381,0.38392 -0.67193,0.144 -1.34385,0.24 -0.67193,0.096 -1.19985,0.096 -0.91189,0 -2.25574,-0.144 -1.29585,-0.192 -2.4957,-0.67192 -1.19984,-0.47996 -2.06373,-1.24785 -0.81593,-0.81589 -0.81593,-2.01577 0,-1.34382 0.86389,-2.20774 0.91193,-0.86389 2.15977,-1.39181 1.29582,-0.52796 2.68766,-0.71993 1.39185,-0.24 2.3997,-0.24 1.24785,0 2.44774,0.288 1.19985,0.24 2.3037,1.00789 0.048,-0.91189 0.048,-1.82377 0,-0.91193 0,-1.87178 0,-4.65547 -0.048,-9.2629 -0.048,-4.65543 -0.144,-9.31087 h -2.87966 q -0.57593,0 -0.57593,-0.52796 0,-0.52792 0.57593,-0.52792 h 6.14324 q 0.52796,0 0.52796,0.57592 0,0.43196 -0.048,0.91189 -0.048,0.43196 -0.096,0.81592 l -0.288,3.31159 q -0.43196,5.23136 -0.57592,10.51075 -0.144,4.22347 -0.144,8.59094 0,1.34385 0,2.6397 0,1.29585 0.048,2.63966 0.144,-0.048 0.52792,-0.144 0.38396,-0.144 0.76793,-0.24 0.43196,-0.144 0.76792,-0.24 0.336,-0.096 0.43193,-0.096 0.52792,0 0.52792,0.52792 z" /><path
     inkscape:connector-curvature="0"
     id="path5018"
     style="font-size:12.69847107px;font-family:FontdinerdotcomSparkly;fill:#046939;stroke-width:0.31996149"
     d="m 152.36746,147.87927 q 0,-0.47992 -0.048,-1.19985 -0.048,-0.71992 -0.288,-1.34385 -0.192,-0.67188 -0.57592,-1.15184 -0.38397,-0.47993 -1.10389,-0.47993 -0.67189,0 -1.19985,0.71989 -0.47992,0.67192 -0.86389,1.63181 -0.336,0.91189 -0.57592,1.87177 -0.192,0.91189 -0.288,1.39185 l 4.89539,-0.38396 q 0.048,-0.24 0.048,-0.52793 0,-0.288 0,-0.52796 z m 3.35958,1.34385 q 0,0.47996 -0.52792,0.57593 l -7.91906,0.62392 q -0.048,0.62392 -0.096,1.24785 0,0.57592 0,1.24785 0,0.71992 0.096,1.82381 0.096,1.10385 0.38397,2.15973 0.336,1.10385 0.95988,1.87178 0.62393,0.76788 1.63181,0.76788 0.76789,0 1.24785,-0.24 0.47993,-0.24 0.81589,-0.52792 0.336,-0.24 0.52796,-0.47996 0.192,-0.24 0.38393,-0.24 0.52796,0 0.52796,0.52792 0,0.144 -0.048,0.24 -0.192,0.43193 -0.62393,0.76789 -0.38396,0.336 -0.86388,0.52792 -0.47996,0.24 -1.00789,0.336 -0.52796,0.144 -0.95989,0.144 -1.53581,0 -2.63969,-0.86388 -1.05585,-0.86393 -1.77578,-2.15978 -0.67192,-1.29581 -1.00788,-2.78366 -0.336,-1.48781 -0.336,-2.73566 0,-1.29585 0.288,-2.92766 0.336,-1.63177 1.00788,-3.07162 0.71993,-1.43981 1.82378,-2.4477 1.15188,-1.00788 2.73566,-1.00788 2.11177,0 3.31162,1.39185 1.19985,1.34381 1.72777,3.16762 0.096,0.52792 0.192,1.05585 0.144,0.47996 0.144,1.00788 z" /><path
     inkscape:connector-curvature="0"
     id="path5020"
     style="font-size:12.69847107px;font-family:FontdinerdotcomSparkly;fill:#046939;stroke-width:0.31996149"
     d="m 187.3575,167.70089 q 0,0.43196 -0.47993,0.52796 l -18.86173,1.15185 q -0.57596,0 -0.57596,-0.57592 0,-0.43196 0.47996,-0.52796 l 4.17551,-0.24 -1.77581,-43.14679 q -0.95989,0.096 -1.91978,0.192 -0.91188,0.096 -1.87177,0.096 -0.24,0 -0.38392,-0.144 -0.144,-0.192 -0.144,-0.43192 0,-0.43197 0.47992,-0.52797 l 12.43053,-0.91188 h 0.048 q 0.24,-0.048 0.38396,0.144 0.144,0.144 0.144,0.38392 0,0.43196 -0.47993,0.52796 l -3.45558,0.24 -0.86393,43.43479 11.18268,-0.67193 0.67193,-5.66331 q 0,-0.52797 0.52792,-0.52797 0.24,0 0.38396,0.144 0.144,0.192 0.144,0.43197 z" /><path
     inkscape:connector-curvature="0"
     id="path5022"
     style="font-size:12.69847107px;font-family:FontdinerdotcomSparkly;fill:#046939;stroke-width:0.31996149"
     d="m 187.06428,137.41656 -0.52792,4.75143 -0.52797,-4.75143 -2.83166,2.59166 2.6397,-2.92762 -2.4957,-0.47997 2.4957,-0.43192 -2.6397,-2.92766 2.83166,2.5917 0.52797,-4.75144 0.52792,4.75144 2.83166,-2.5917 -2.6397,2.92766 2.4957,0.43192 -2.4957,0.47997 2.6397,2.92762 z m 2.15973,11.4226 q 0,-1.77577 -0.91188,-2.4957 -0.91189,-0.76789 -2.5917,-0.76789 -1.63181,0 -2.92762,0.91189 -1.24789,0.86389 -1.24789,2.68766 0,1.63181 1.15189,2.4477 1.19985,0.81592 2.68766,0.81592 1.53581,0 2.6877,-1.00788 1.15184,-1.05589 1.15184,-2.5917 z m 3.02363,0.096 q 0,1.15185 -0.71989,2.01577 -0.71992,0.86389 -1.77581,1.43981 -1.05585,0.57593 -2.2557,0.86389 -1.19988,0.24 -2.15977,0.24 -1.00785,0 -2.3037,-0.24 -1.24785,-0.24 -2.35173,-0.76789 -1.10385,-0.52796 -1.87178,-1.39185 -0.71992,-0.91188 -0.71992,-2.20773 0,-1.24785 0.81592,-2.06374 0.81589,-0.81592 1.96778,-1.34385 1.15184,-0.52792 2.44769,-0.71992 1.29585,-0.24 2.20774,-0.24 0.95989,0 2.11173,0.288 1.19985,0.24 2.20774,0.76792 1.00789,0.52793 1.67981,1.39182 0.71989,0.81592 0.71989,1.96777 z" /><path
     inkscape:connector-curvature="0"
     id="path5024"
     style="font-size:12.69847107px;font-family:FontdinerdotcomSparkly;fill:#046939;stroke-width:0.31996149"
     d="m 199.92072,129.5935 -0.52792,4.7514 -0.52793,-4.7514 -2.83166,2.59166 2.63966,-2.92762 -2.4957,-0.47996 2.4957,-0.43193 -2.63966,-2.92766 2.83166,2.5917 0.52793,-4.75143 0.52792,4.75143 2.83166,-2.5917 -2.63966,2.92766 2.4957,0.43193 -2.4957,0.47996 2.63966,2.92762 z m 10.46275,26.78075 q 0,0.24 -0.144,0.43196 -0.144,0.144 -0.38392,0.144 l -8.11106,0.096 q -0.52792,0 -0.52792,-0.52792 0,-0.47996 0.52792,-0.57592 h 2.5437 q 0.144,-1.53582 0.24,-3.07166 0.096,-1.58378 0.096,-3.11963 0,-0.81588 -0.048,-2.01573 -0.048,-1.19985 -0.38392,-2.30374 -0.288,-1.10385 -0.95989,-1.87177 -0.62392,-0.76789 -1.77581,-0.76789 -0.86389,0 -1.63177,0.52793 -0.71993,0.43196 -1.19989,1.15185 -0.47992,0.67192 -0.76789,1.48781 -0.288,0.81592 -0.43196,1.67981 -0.096,0.86388 -0.096,1.67981 v 3.98351 l 2.15974,-0.096 q 0.24,0 0.38392,0.144 0.192,0.096 0.192,0.336 0,0.57592 -0.52796,0.57592 l -8.49494,0.336 q -0.24,0 -0.38397,-0.096 -0.192,-0.144 -0.192,-0.38396 0,-0.57592 0.52797,-0.57592 l 4.55943,-0.192 -1.72777,-10.31876 -3.50359,0.192 q -0.24,0.048 -0.38396,-0.096 -0.192,-0.144 -0.192,-0.38396 0,-0.47996 0.47992,-0.57592 l 6.38325,-0.336 q 0.57592,0 0.57592,0.52792 l 0.048,2.3517 q 0.62393,-1.24785 1.67978,-2.11174 1.10388,-0.86388 2.54369,-0.86388 1.77581,0 2.92766,0.47992 1.15185,0.47996 1.82378,1.39185 0.71992,0.91189 1.00788,2.20773 0.288,1.29585 0.288,2.92766 0,3.59955 -0.81588,7.15114 l 3.11962,-0.048 q 0.24,0 0.38396,0.144 0.192,0.144 0.192,0.38392 z" /><path
     inkscape:connector-curvature="0"
     id="path5026"
     style="font-size:12.69847107px;font-family:FontdinerdotcomSparkly;fill:#046939;stroke-width:0.31996149"
     d="m 213.43862,138.66441 -0.52797,4.75143 -0.52792,-4.75143 -2.83166,2.54369 2.6397,-2.87966 -2.4957,-0.47996 2.4957,-0.47992 -2.6397,-2.87966 2.83166,2.5917 0.52792,-4.79944 0.52797,4.79944 2.83166,-2.5917 -2.6397,2.87966 2.4957,0.47992 -2.4957,0.47996 2.6397,2.87966 z m 7.00713,10.99067 q 0,-1.67981 -1.10385,-2.49569 -1.05589,-0.86393 -2.6397,-0.86393 -1.63181,0 -2.68766,1.05589 -1.00789,1.05588 -1.00789,2.73566 0,1.53581 0.91189,2.30373 0.95989,0.71993 2.4477,0.71993 0.76792,0 1.48785,-0.24 0.76788,-0.24 1.34381,-0.67189 0.57596,-0.43196 0.91189,-1.05589 0.336,-0.67192 0.336,-1.48781 z m 5.27939,12.52649 q 0,1.10385 -0.62392,1.91978 -0.57596,0.81588 -1.39185,1.43981 -1.24785,0.95988 -2.97566,1.39184 -1.67977,0.43193 -3.21558,0.43193 -0.91189,0 -2.20774,-0.144 -1.24785,-0.144 -2.4477,-0.57593 -1.15188,-0.43196 -1.96777,-1.19988 -0.81593,-0.76789 -0.81593,-2.01574 0,-1.19985 0.81593,-1.87177 0.86389,-0.62392 1.96777,-0.62392 1.10385,0 1.67978,0.67192 0.62392,0.71989 0.62392,1.82377 0,0.62393 -0.52792,0.62393 -0.38397,0 -0.47997,-0.336 -0.048,-0.288 -0.144,-0.71993 -0.048,-0.38396 -0.288,-0.71988 -0.192,-0.288 -0.86388,-0.288 -1.34385,0 -1.34385,1.43985 0,0.91188 0.67192,1.48781 0.71989,0.57592 1.67978,0.86388 0.95988,0.336 1.96777,0.43196 1.00789,0.096 1.67981,0.096 0.67192,0 1.72777,-0.192 1.10389,-0.144 2.15974,-0.52792 1.05589,-0.336 1.77581,-0.95989 0.76789,-0.62392 0.76789,-1.53581 0,-0.91188 -0.95989,-1.48781 -0.95989,-0.57596 -2.4477,-1.00788 -1.43981,-0.38397 -3.16762,-0.76793 -1.67977,-0.336 -3.16762,-0.81589 -1.43981,-0.43196 -2.3997,-1.10388 -0.95989,-0.62393 -0.95989,-1.67978 0,-0.95988 0.52793,-1.58381 0.52796,-0.67192 1.34385,-1.10388 -1.19985,-0.43193 -2.30374,-1.29585 -1.05585,-0.91189 -1.05585,-2.3037 0,-0.81592 0.38393,-1.48781 0.43196,-0.71993 1.05588,-1.24785 0.67193,-0.52796 1.39185,-0.91192 0.76789,-0.43193 1.43981,-0.62393 1.53581,-0.43192 3.07163,-0.43192 1.67981,0 3.16762,0.43192 0.144,-0.144 0.47996,-0.52792 0.336,-0.38397 0.71989,-0.81589 0.38396,-0.43196 0.71992,-0.71992 0.38396,-0.336 0.57593,-0.336 0.24,0 0.62392,0.24 0.38396,0.192 0.38396,0.43196 0,0.38396 -0.192,0.52792 l -2.06377,1.63181 q 1.10389,0.47997 1.91977,1.29585 0.86389,0.81589 0.86389,2.15974 0,1.29585 -0.81589,2.20773 -0.76792,0.86389 -1.96777,1.43981 -1.15185,0.52797 -2.4477,0.76793 -1.29585,0.24 -2.30373,0.24 -0.43193,0 -0.91189,-0.048 -0.43193,-0.048 -0.86389,-0.144 -0.47992,0.144 -1.05588,0.47992 -0.57593,0.288 -0.57593,0.86393 0,0.336 0.57593,0.62392 0.62392,0.24 1.34384,0.43193 0.76793,0.192 1.48782,0.336 0.71992,0.096 0.95988,0.144 1.10389,0.24 2.5437,0.52792 1.43985,0.288 2.73566,0.86389 1.29585,0.57592 2.20774,1.48781 0.91192,0.95989 0.91192,2.39973 z" /><path
     inkscape:connector-curvature="0"
     id="path5028"
     style="font-size:12.69847107px;font-family:FontdinerdotcomSparkly;fill:#046939;stroke-width:0.31996149"
     d="m 229.32393,141.59203 -0.52792,4.75143 -0.52793,-4.75143 -2.83166,2.5917 2.63966,-2.92766 -2.49569,-0.47993 2.49569,-0.43196 -2.63966,-2.92762 2.83166,2.59166 0.52793,-4.7514 0.52792,4.7514 2.83166,-2.59166 -2.63966,2.92762 2.4957,0.43196 -2.4957,0.47993 2.63966,2.92766 z m 4.17551,14.63826 q 0,0.43192 -0.47992,0.52792 l -6.71921,0.62393 h -0.048 q -0.52792,0 -0.52792,-0.52793 0,-0.52796 0.47992,-0.52796 l 2.25574,-0.24 -0.62393,-7.58309 q -0.52792,0.096 -1.10385,0.192 -0.57592,0.048 -1.10388,0.048 -0.52793,0 -0.52793,-0.52796 0,-0.52793 0.47993,-0.52793 0.43196,-0.048 1.10388,-0.144 0.67193,-0.096 1.34385,-0.144 0.71989,-0.096 1.34381,-0.144 0.62393,-0.096 1.00789,-0.096 0.52792,0 0.52792,0.52793 l -0.096,8.20701 q 0.52793,-0.048 1.05585,-0.096 0.57593,-0.096 1.10389,-0.096 0.52792,0 0.52792,0.52797 z" /><path
     inkscape:connector-curvature="0"
     id="path5030"
     style="font-size:12.69847107px;font-family:FontdinerdotcomSparkly;fill:#046939;stroke-width:0.31996149"
     d="m 242.32211,130.74535 q 0,0.24 -0.144,0.43196 -0.096,0.144 -0.336,0.192 l -4.17551,0.52793 q -0.24,4.65543 -0.43193,9.35886 -0.192,4.65547 -0.192,9.35891 0,0.336 0,1.34381 0,0.95989 0.096,2.06377 0.144,1.05585 0.43197,1.91978 0.288,0.81588 0.91188,0.81588 0.52793,0 0.86389,-0.24 0.336,-0.24 0.52792,-0.62392 0.192,-0.43196 0.24,-0.86389 0.096,-0.47996 0.096,-0.91192 0,-0.52793 0.47997,-0.52793 0.57592,0 0.57592,0.67193 0,0.67192 -0.192,1.43981 -0.192,0.76792 -0.57592,1.43985 -0.38397,0.67192 -0.95989,1.10385 -0.57593,0.47996 -1.39181,0.47996 -1.29585,0 -2.06378,-1.10389 -0.71988,-1.10385 -1.05584,-2.59166 -0.336,-1.53585 -0.43197,-3.07166 -0.048,-1.53581 -0.048,-2.3517 0,-4.36747 0.144,-8.68694 0.144,-4.31951 0.24,-8.68698 l -2.83166,0.336 q -0.192,0.048 -0.38396,-0.048 -0.192,-0.144 -0.192,-0.38392 0,-0.57596 0.47993,-0.62393 l 2.97566,-0.38396 0.096,-3.16762 q 0.096,-0.38396 0.38396,-0.47996 0.096,-0.048 0.38396,-0.144 0.288,-0.096 0.57592,-0.192 0.288,-0.144 0.52793,-0.24 0.288,-0.096 0.38396,-0.096 0.52796,0 0.52796,0.57596 0,0.81589 -0.048,1.67977 -0.048,0.86393 -0.096,1.72781 l 4.03151,-0.47996 q 0.192,-0.048 0.38396,0.096 0.192,0.096 0.192,0.336 z" /><path
     inkscape:connector-curvature="0"
     id="path5032"
     style="font-size:12.69847107px;font-family:FontdinerdotcomSparkly;fill:#046939;stroke-width:0.31996149"
     d="m 255.672,153.63859 q 0,0.57593 -0.52792,0.57593 l -3.83955,0.288 q -0.47992,0 -0.57592,-0.47993 l -0.24,-2.78366 q -0.67193,1.24785 -1.77578,2.06374 -1.05588,0.81588 -2.59169,0.81588 -1.34385,0 -2.25574,-0.62392 -0.86389,-0.67189 -1.39185,-1.67977 -0.52792,-1.00789 -0.76788,-2.20774 -0.192,-1.19985 -0.192,-2.25573 0,-1.34385 0.096,-2.6397 0.096,-1.34381 0.24,-2.63966 l -2.06374,0.144 q -0.24,0 -0.38396,-0.144 -0.192,-0.144 -0.192,-0.38396 0,-0.52793 0.47992,-0.52793 l 4.46347,-0.288 q 0.288,-0.048 0.43197,0.144 0.144,0.192 0.144,0.43196 0,0.52793 -0.096,1.15185 -0.096,0.57593 -0.192,1.10389 -0.192,1.53581 -0.38397,3.16762 -0.144,1.58381 -0.144,3.11962 0,0.47993 0.096,1.05585 0.144,0.52796 0.38393,1.00789 0.288,0.43196 0.67192,0.71992 0.43196,0.288 1.05589,0.288 1.39181,0 2.15973,-1.15185 0.76793,-1.15188 1.15185,-2.73569 0.43197,-1.58381 0.52797,-3.21563 0.096,-1.63177 0.096,-2.59166 0,-0.52796 -0.048,-1.00788 -0.048,-0.52793 -0.048,-1.05589 0,-0.57592 0.47992,-0.57592 l 1.87177,-0.192 q 0.24,-0.048 0.43197,0.144 0.192,0.144 0.144,0.38396 l -0.24,12.23853 2.44769,-0.144 q 0.24,0 0.38397,0.144 0.192,0.096 0.192,0.336 z" /><path
     inkscape:connector-curvature="0"
     id="path5034"
     style="font-size:12.69847107px;font-family:FontdinerdotcomSparkly;fill:#046939;stroke-width:0.31996149"
     d="m 268.32522,148.16723 q -0.81589,-0.81588 -2.01574,-1.19984 -1.15188,-0.38393 -2.35173,-0.38393 -0.86389,0 -1.72778,0.24 -0.86388,0.192 -1.58381,0.62393 -0.67192,0.43192 -1.10388,1.15184 -0.38393,0.71993 -0.38393,1.72782 0,0.86388 0.336,1.43981 0.38393,0.52792 0.95985,0.86388 0.62393,0.288 1.34385,0.38397 0.71992,0.096 1.43985,0.096 1.29581,0 2.63966,-0.336 1.34385,-0.336 2.35173,-1.19985 0.048,-0.81593 0.048,-1.67981 0.048,-0.86389 0.048,-1.72782 z m 5.61532,5.1354 q 0,0.38396 -0.38393,0.52792 -0.192,0.048 -0.95988,0.288 -0.76793,0.24 -1.63181,0.52797 -0.86389,0.24 -1.58381,0.47992 -0.71993,0.192 -0.81589,0.192 -0.24,0 -0.38396,-0.144 -0.144,-0.192 -0.144,-0.43192 0,-0.43197 0.048,-0.86393 0.048,-0.47992 0.048,-0.91188 -0.43197,0.24 -1.10385,0.47996 -0.62396,0.192 -1.34385,0.38392 -0.67193,0.144 -1.34385,0.24 -0.67192,0.096 -1.19985,0.096 -0.91189,0 -2.25573,-0.144 -1.29585,-0.192 -2.4957,-0.67192 -1.19985,-0.47996 -2.06374,-1.24785 -0.81592,-0.81589 -0.81592,-2.01577 0,-1.34382 0.86389,-2.20774 0.91192,-0.86389 2.15977,-1.39181 1.29581,-0.52796 2.68766,-0.71993 1.39185,-0.24 2.3997,-0.24 1.24784,0 2.44773,0.288 1.19985,0.24 2.3037,1.00789 0.048,-0.91189 0.048,-1.82377 0,-0.91193 0,-1.87178 0,-4.65547 -0.048,-9.2629 -0.048,-4.65543 -0.144,-9.31087 h -2.87966 q -0.57593,0 -0.57593,-0.52796 0,-0.52792 0.57593,-0.52792 h 6.14324 q 0.52797,0 0.52797,0.57592 0,0.43196 -0.048,0.91189 -0.048,0.43196 -0.096,0.81592 l -0.288,3.31159 q -0.43197,5.23136 -0.57593,10.51075 -0.144,4.22347 -0.144,8.59094 0,1.34385 0,2.6397 0,1.29585 0.048,2.63966 0.144,-0.048 0.52793,-0.144 0.38396,-0.144 0.76792,-0.24 0.43196,-0.144 0.76792,-0.24 0.336,-0.096 0.43193,-0.096 0.52792,0 0.52792,0.52792 z" /></svg>