<?xml version="1.0" encoding="UTF-8" standalone="no"?>
<!-- Generator: Adobe Illustrator 18.0.0, SVG Export Plug-In . SVG Version: 6.00 Build 0)  -->

<svg
   xmlns:dc="http://purl.org/dc/elements/1.1/"
   xmlns:cc="http://creativecommons.org/ns#"
   xmlns:rdf="http://www.w3.org/1999/02/22-rdf-syntax-ns#"
   xmlns:svg="http://www.w3.org/2000/svg"
   xmlns="http://www.w3.org/2000/svg"
   xmlns:sodipodi="http://sodipodi.sourceforge.net/DTD/sodipodi-0.dtd"
   xmlns:inkscape="http://www.inkscape.org/namespaces/inkscape"
   version="1.1"
   id="Capa_1"
   x="0px"
   y="0px"
   viewBox="0 0 378.15401 222.02332"
   enable-background="new 0 0 277.1 286.2"
   xml:space="preserve"
   sodipodi:docname="btn_mc_grd.svg"
   width="378.15402"
   height="222.02333"
   inkscape:version="0.92+devel unknown"
   inkscape:export-filename="/home/fundacion/Documentos/fundecyt_02/resuelvo/dibujo.png"
   inkscape:export-xdpi="89"
   inkscape:export-ydpi="89"><metadata
     id="metadata57"><rdf:RDF><cc:Work
         rdf:about=""><dc:format>image/svg+xml</dc:format><dc:type
           rdf:resource="http://purl.org/dc/dcmitype/StillImage" /><dc:title></dc:title></cc:Work></rdf:RDF></metadata><defs
     id="defs55"><filter
       inkscape:collect="always"
       style="color-interpolation-filters:sRGB"
       id="filter4535"
       x="-0.090732113"
       width="1.1814642"
       y="-0.17714132"
       height="1.3542826"><feGaussianBlur
         inkscape:collect="always"
         stdDeviation="12.10035"
         id="feGaussianBlur4537" /></filter></defs><sodipodi:namedview
     pagecolor="#ffffff"
     bordercolor="#666666"
     borderopacity="1"
     objecttolerance="10"
     gridtolerance="10"
     guidetolerance="10"
     inkscape:pageopacity="0"
     inkscape:pageshadow="2"
     inkscape:window-width="1920"
     inkscape:window-height="1012"
     id="namedview53"
     showgrid="false"
     fit-margin-top="0"
     fit-margin-left="0"
     fit-margin-right="0"
     fit-margin-bottom="0"
     inkscape:zoom="0.82459815"
     inkscape:cx="-9.1143769"
     inkscape:cy="65.3235"
     inkscape:window-x="0"
     inkscape:window-y="32"
     inkscape:window-maximized="1"
     inkscape:current-layer="Capa_1"
     inkscape:document-rotation="0" /><path
     style="clip-rule:evenodd;fill:#ffffff;fill-opacity:1;fill-rule:evenodd;stroke-width:0.31489879;filter:url(#filter4535)"
     d="m 214.79084,29.040841 c -8.04886,9.3e-4 -13.01987,8.781673 -8.87891,15.683594 0.65732,1.09536 0.78463,1.250859 0.31641,0.470703 0.11674,0.19475 0.23985,0.385609 0.36914,0.572266 1.39913,2.01797 3.41235,5.205519 5.10352,8.58789 0.0243,0.04902 0.0491,0.09785 0.0742,0.146485 0.25489,0.490185 0.56568,1.153627 0.92773,1.9375 1.26395,2.807836 2.06176,5.55613 2.25,7.30664 v 54.058591 c 0,1.61682 0.15595,3.18735 0.4082,4.72657 -0.7692,0.20176 -1.542,0.39161 -2.28125,0.70117 -1.82888,0.73915 -3.54237,1.76497 -5.04492,2.99609 -1.43076,1.14345 -2.71987,2.45881 -3.8125,3.89649 -0.9483,1.24775 -1.79438,2.5793 -2.51953,3.9746 -1.06517,2.03926 -1.91589,4.1876 -2.57031,6.40821 -0.37208,1.24335 -0.61117,2.53207 -0.88867,3.80859 -2.08439,-1.37372 -4.49484,-2.19272 -6.75391,-2.48633 0.0565,-0.82279 0.067,-1.65373 0.13477,-2.47461 l 0.2715,-3.13086 c 0.0284,-0.23531 0.0555,-0.47006 0.082,-0.70898 0.004,-0.0377 0.008,-0.0755 0.0117,-0.11328 0.0608,-0.60839 0.10156,-1.25028 0.10156,-1.94141 0,-1.78457 -0.45459,-4.818 -2.86719,-7.4414 -2.41259,-2.6234 -5.95853,-3.49024 -8.01757,-3.49024 h -6.14453 c -1.78437,0 -4.81786,0.45261 -7.44141,2.86524 -2.62355,2.41262 -3.49024,5.96055 -3.49023,8.01953 -1e-5,2.05907 0.87607,5.62669 3.51171,8.03711 0.0199,0.0182 0.0406,0.0269 0.0605,0.0449 0.008,0.6227 0.0229,1.24424 0.0293,1.86719 0.007,0.66935 0.004,1.34687 0.01,2.01758 -1.14718,0.25887 -2.30768,0.46531 -3.40429,0.9121 -0.0431,0.0173 -0.0861,0.0348 -0.12891,0.0527 -0.65428,0.27679 -1.28585,0.65215 -1.91992,1.01562 -0.60331,-2.245 -1.98255,-4.56066 -3.58789,-5.97265 -0.0219,-0.018 -0.0443,-0.035 -0.0664,-0.0527 v -0.0156 c -0.0962,-0.0826 -0.17954,-0.20591 -0.27734,-0.28125 l 0.002,-0.008 0.27149,0.23632 c -0.008,-0.34219 -0.0339,-0.68376 -0.0762,-1.02343 0.99148,-4.89274 -1.64883,-9.79642 -6.27929,-11.66211 -3.36969,-3.26699 -8.51523,-3.85928 -12.53907,-1.44336 -2.13192,-0.76221 -4.45488,-0.80475 -6.61328,-0.1211 -0.23631,-0.32628 -0.41423,-0.65816 -0.70525,-0.97637 -2.41047,-2.63565 -5.97812,-3.51172 -8.03711,-3.51172 h -6.14453 c -1.78437,0 -4.81785,0.45451 -7.44141,2.86719 -1.096,1.0079 -1.82744,2.21707 -2.375,3.42969 -0.42455,-0.93271 -0.95792,-1.87638 -1.78906,-2.78516 -2.41044,-2.63559 -5.97807,-3.51172 -8.037112,-3.51172 h -6.146485 c -1.784404,0 -4.817885,0.45457 -7.441406,2.86719 -0.925069,0.8507 -1.566603,1.84938 -2.09375,2.86719 -0.480606,-1.07132 -1.103687,-2.14907 -2.072266,-3.12305 -2.520519,-2.53457 -5.825242,-3.1875 -7.738281,-3.1875 h -0.04883 c -0.342426,-4e-5 -0.684644,0.0169 -1.025391,0.0508 l -8.208984,0.81641 1.025391,-0.0508 c -2.089197,0 -5.142661,0.87338 -7.253907,2.78125 -0.330369,0.29854 -0.456021,0.62866 -0.728515,0.9414 -0.5489,-0.83475 -1.115851,-1.68451 -1.984375,-2.40039 -2.222149,-1.83158 -5.045984,-2.47461 -6.933594,-2.47461 -1.76888,0 -1.676276,0.12927 -1.949218,0.17774 -0.272942,0.0485 -0.451693,0.0872 -0.636719,0.12695 -0.370053,0.0796 -0.732881,0.16521 -1.175781,0.27148 -0.731867,0.15559 -1.49466,0.32739 -2.298828,0.51954 -0.946419,0.1962 -1.86985,0.39516 -2.763672,0.59375 -0.02737,0.006 -0.05471,0.0116 -0.08203,0.0176 -0.565396,0.13047 -1.090026,0.28281 -1.566406,0.4082 -1.758067,0.41128 -4.211984,1.51573 -5.996094,3.70703 -1.817406,2.2322 -2.433594,5.02252 -2.433594,6.88672 0,1.89422 0.632158,5.18294 3.166016,7.71679 0.485192,0.4852 1.011605,0.84467 1.53711,1.19922 l 0.09961,19.95508 c -0.695713,0.44929 -1.36218,0.98824 -1.957032,1.63867 -2.410412,2.63565 -2.845703,5.65293 -2.845703,7.41993 0,2.06322 0.851006,5.10411 2.757813,7.22851 1.906807,2.1244 4.206934,3.00918 5.783203,3.35938 0.07145,0.0164 0.143065,0.032 0.214844,0.0469 -0.494583,-0.0989 -0.08739,-0.0179 0.324218,0.0918 0.05198,0.0134 0.104066,0.0265 0.15625,0.0391 0.564649,0.14121 1.189463,0.2945 1.888672,0.46094 0.03446,0.008 0.06897,0.0158 0.103516,0.0234 0.737502,0.16764 1.490737,0.33523 2.257812,0.50195 0.02862,0.006 0.05727,0.0119 0.08594,0.0176 0.749157,0.15611 1.432681,0.2956 2.072266,0.42382 0.563147,0.1384 1.106581,0.27189 1.615234,0.38086 0.282722,0.0606 0.52633,0.11079 0.814453,0.16407 0.0077,0.001 0.05029,0.004 0.05664,0.006 0.408925,0.47511 0.693421,0.99402 1.216797,1.41015 2.191605,1.74255 4.919232,2.34571 6.755859,2.34571 1.662577,0 4.158144,-0.42229 6.427734,-2.06836 0.723417,-0.52468 1.204739,-1.23705 1.75,-1.9043 l 8.916016,-1.21094 -1.394531,0.0957 c 2.065785,0 5.640271,-0.91324 8.007812,-3.5332 0.0504,-0.0558 0.07441,-0.11386 0.123047,-0.16992 0.117709,-0.0257 0.266308,-0.0248 0.380859,-0.0527 1.009192,-0.2152 1.997988,-0.54999 2.935547,-0.97851 1.195974,-0.52084 2.337345,-1.20827 3.3125,-2.03125 0.949214,-0.78408 1.83993,-1.85955 2.617188,-3.10352 0.66665,0.0492 1.334805,0.1211 2.017578,0.1211 0.256055,0 0.459165,-0.0423 0.701172,-0.0527 1.454185,0.67784 2.900222,1.00254 4.140625,1.08594 2.291374,1.65849 4.858551,2.18359 6.455077,2.18359 h 0.0488 c 0.31888,-2.5e-4 0.63758,-0.0152 0.95508,-0.0449 l 6.7207,-0.62304 c 0.36056,-0.0333 0.71913,-0.0854 1.07422,-0.15625 1.30621,-0.26116 3.09348,-1.07683 4.7832,-2.44727 0.30095,0.0108 0.60233,0.0547 0.91016,0.0547 0.25553,0 0.45753,-0.0423 0.69922,-0.0527 1.66155,0.7745 3.41119,1.20508 4.72461,1.20508 0.71673,0 0.65742,-0.0372 1.03125,-0.0547 0.89779,0.54591 1.82267,0.98979 2.74609,1.32422 1.49378,0.55796 3.08717,0.94333 4.69922,1.08985 0.0137,10e-4 0.0273,0.003 0.041,0.004 0.94424,0.0821 1.82816,0.13477 2.76758,0.13477 0.73691,0 1.22273,-0.16339 1.83984,-0.23828 1.67809,0.48596 3.32935,0.71789 4.47266,0.52734 l -0.40234,0.0606 3.79296,-0.48047 -0.27149,0.0293 c 0.93914,-0.0939 2.1461,-0.44474 3.35352,-0.98243 0.63363,0.0738 1.22401,0.17188 1.99805,0.17188 1.51031,0 3.01112,-0.22448 4.42187,-0.60938 1.59313,-0.42592 3.21669,-1.11512 4.68164,-2.09179 1.47958,-0.98636 2.79015,-2.31121 3.82227,-3.76953 1.21609,0.88422 2.49188,1.64909 3.80859,2.17578 1.55807,0.62332 3.18671,1.05795 4.82617,1.30078 0.13766,0.0204 0.27571,0.0379 0.41407,0.0527 1.15303,0.12351 2.22249,0.20313 3.35937,0.20313 0.24962,0 0.44736,-0.0409 0.68359,-0.0508 1.66954,0.78276 3.4192,1.20312 4.74219,1.20312 0.10181,0 0.0525,-0.007 0.14649,-0.008 0.63901,0.73831 1.31559,1.45528 2.08398,2.08398 0.0581,0.0475 0.11668,0.0944 0.17578,0.14063 2.58266,2.02117 6.06384,3.06445 9.02344,3.06445 1.22295,0 2.24553,-0.20774 3.20508,-0.44141 1.00913,-0.21519 1.99807,-0.55005 2.93554,-0.97851 1.18496,-0.51508 2.3226,-1.19436 3.3125,-2.0293 0.25001,-0.20671 0.48572,-0.48251 0.73243,-0.72265 0.77012,1.87139 1.62953,3.71636 2.80468,5.38867 1.55475,2.21249 3.59966,4.17645 5.93555,5.64844 2.46304,1.58043 5.2484,2.36773 7.95508,2.6914 1.86457,1.60649 4.45304,3.07227 7.20898,3.07227 2.03055,0 4.89161,-0.89703 7.00782,-2.63086 0.005,-0.004 0.009,-0.01 0.0137,-0.0137 0.001,2.9e-4 0.003,-3e-4 0.004,0 0.2238,-0.18424 0.47951,-0.33099 0.6836,-0.53516 l -0.62891,0.54492 c 0.5108,0.11263 1.05634,0.28125 1.48828,0.28125 l -1.00586,-0.0488 5.9043,0.57618 -0.56836,-0.0723 c 1.86892,0.28746 5.53501,0.28064 8.71484,-2.39844 3.17984,-2.67908 3.83985,-6.42239 3.83985,-8.36328 0,-1.60948 -0.0324,-3.2043 -0.0488,-4.80664 0.5896,0.30267 1.17988,0.60913 1.77344,0.82422 1.49471,0.55868 3.08768,0.94515 4.70117,1.0918 0.0137,0.001 0.0273,0.003 0.041,0.004 0.94583,0.0822 1.8301,0.13477 2.76953,0.13477 0.73721,0 1.2224,-0.16321 1.83984,-0.23828 1.67743,0.48554 3.32782,0.71782 4.4707,0.52734 l -0.40234,0.0606 3.79297,-0.48047 -0.27149,0.0293 c 0.64435,-0.0644 1.49726,-0.40618 2.30079,-0.67383 1.34438,0.33984 2.72798,0.58203 4.14453,0.58203 1.10226,0 2.08797,-0.1627 3.02929,-0.35547 0.36252,-0.0644 0.66624,-0.21933 1.01563,-0.30859 0.86566,0.18886 1.78814,0.42382 2.42187,0.42382 h 0.0488 c 0.31888,-2.5e-4 0.63758,-0.0152 0.95508,-0.0449 l 6.7207,-0.62304 c 0.36122,-0.0332 0.72044,-0.0854 1.07618,-0.15625 1.30641,-0.26123 3.09143,-1.07652 4.78124,-2.44727 0.30095,0.0108 0.60233,0.0547 0.91016,0.0547 0.24981,0 0.44706,-0.0408 0.6836,-0.0508 1.66872,0.7821 3.41919,1.20312 4.74218,1.20312 0.71294,0 0.65338,-0.0392 1.02735,-0.0566 0.89768,0.54606 1.82267,0.9896 2.74609,1.32422 1.49468,0.55866 3.08767,0.94515 4.70117,1.0918 0.0137,0.001 0.0273,0.003 0.041,0.004 0.94426,0.0821 1.82815,0.13477 2.76758,0.13477 0.73689,0 1.22272,-0.16338 1.83984,-0.23828 1.67809,0.48596 3.32934,0.71789 4.47266,0.52734 l -0.40235,0.0606 3.79297,-0.48047 -0.27148,0.0293 c 1.95229,-0.19518 4.94609,-1.2972 7.01757,-3.58789 0.0554,-0.002 0.10347,-0.009 0.15821,-0.0117 1.66871,0.78208 3.4192,1.20312 4.74219,1.20312 3.45068,0 2.29599,-0.24651 2.61132,-0.32031 0.31534,-0.0738 0.57329,-0.14078 0.87305,-0.2207 0.2043,-0.055 0.40687,-0.11621 0.60742,-0.1836 0.28891,-0.0963 0.6522,-0.20735 1.08008,-0.32617 0.16926,-0.0472 0.33728,-0.0986 0.50391,-0.1543 0.51159,-0.17057 0.99322,-0.32555 1.44531,-0.46679 0.48238,-0.1507 1.10942,-0.30861 0.38281,-0.12696 0.38067,-0.0952 0.75563,-0.21189 1.12305,-0.34961 3.06772,-1.15008 7.10547,-6.49683 7.10547,-10.22265 0,-1.85337 -0.63094,-5.03451 -3.03125,-7.54492 0.0189,-1.94423 0.0313,-3.89522 0.0957,-5.78516 7.5e-4,-0.0241 10e-4,-0.0482 0.002,-0.0723 0.0907,-3.32788 0.2731,-6.63703 0.54492,-9.93164 3.2e-4,-0.004 -3.2e-4,-0.008 0,-0.0117 l 0.2754,-3.14453 c 0.0278,-0.23065 0.0541,-0.46101 0.0801,-0.69531 0.004,-0.0377 0.008,-0.0755 0.0117,-0.11328 0.0608,-0.60818 0.10156,-1.25004 0.10157,-1.94141 -10e-6,-1.78457 -0.45456,-4.818 -2.86719,-7.4414 -2.41263,-2.62341 -5.95858,-3.49024 -8.01758,-3.49024 h -6.14453 c -1.78437,0 -4.81785,0.4545 -7.44141,2.86719 -0.83321,0.76625 -1.43613,1.65341 -1.94336,2.56445 -2.52799,-1.48361 -5.56631,-1.82641 -8.36133,-0.94336 -0.23602,-0.32627 -0.41423,-0.65853 -0.70507,-0.97656 -2.41052,-2.63581 -5.97821,-3.51172 -8.03711,-3.51172 h -6.14453 c -0.20671,0 -0.55143,0.10855 -0.78907,0.12305 0.27756,-1.56106 0.54688,-3.138 0.54688,-4.81641 v -1.48437 h 2.71484 c 4.20906,0 7.70574,-2.30736 9.625,-4.77735 1.91926,-2.46998 2.77735,-5.25841 2.77735,-8.1914 V 58.036935 c 0,-2.90037 -0.84867,-5.742343 -2.80274,-8.236328 -1.95406,-2.493986 -5.48646,-4.732422 -9.59961,-4.732422 h -2.71484 V 39.39631 c -1.6e-4,-5.719159 -4.63646,-10.355388 -10.35562,-10.355469 h -58.57031 z m 81.95132,93.611879 -0.0646,0.009 c -0.002,1.1e-4 -0.004,-1.2e-4 -0.006,0 0.008,-0.19896 0.0706,0.21289 0.0706,-0.009 z M 88.935374,172.65431 c 0.0064,0.005 0.01316,0.009 0.01953,0.0137 l -0.08789,0.18555 c 0.03638,-0.0728 0.03423,-0.1273 0.06836,-0.19922 z m 192.166016,3.24219 -0.85352,0.34961 c 0.16434,-0.0587 0.33086,-0.17548 0.4961,-0.24023 0.1103,-0.0478 0.24932,-0.0595 0.35742,-0.10938 z m -143.93164,1.09766 -0.0879,0.0215 c 0.0127,-0.003 0.0283,-0.0127 0.041,-0.0156 0.0139,-0.003 0.033,-0.003 0.0469,-0.006 z m 179.29492,0 -0.0879,0.0215 c 0.0127,-0.003 0.0283,-0.0127 0.041,-0.0156 0.0139,-0.003 0.033,-0.003 0.0469,-0.006 z"
     id="path5933-6"
     inkscape:connector-curvature="0"
     sodipodi:nodetypes="ccccccccsccccccccccccscsssccccccccccccccccccsssscssssccsccccscsscccccccssccccsscccccccccccccsccccccccccsccscccccscsccccsccccccsccccccscscccscccccccsccccccccccsccccsccccccsccscccccscsccccscccccccsccccccccscccccccccsssccccsscscsssscsccccccccccccccccccccccccccccc" /><g
     transform="matrix(3.7795276,0,0,3.7795276,-1253.7386,-246.58368)"
     id="g6245"><path
       id="path5933"
       d="m 406.95328,79.906373 h 4.14085 c 0.29994,0 0.54156,0.308273 0.54156,0.691531 v 11.997644 c 0,0.374925 -0.24162,0.69153 -0.54156,0.69153 h -4.14085 c -0.29994,0 -0.54156,-0.308273 -0.54156,-0.69153 V 80.597904 c 0,-0.383258 0.24995,-0.691531 0.54156,-0.691531 z m 0.54156,1.824641 v 9.731424 h 3.06606 v -9.731424 z"
       inkscape:connector-curvature="0"
       style="clip-rule:evenodd;fill:#5a4b43;fill-rule:evenodd;stroke-width:0.08331697" /><path
       id="path5935"
       d="m 407.64481,75.665539 h -15.50529 -3.59096 c 0.025,0.04166 0.0583,0.08332 0.0833,0.124975 0.43325,0.624878 1.0248,1.558028 1.54969,2.607822 0.10831,0.208292 0.20829,0.424916 0.30827,0.64154 0.42492,0.941482 0.75819,1.941286 0.84151,2.874436 v 14.497154 0 c 0,0.958143 0.2916,1.82464 0.74152,2.391197 0.34993,0.441579 0.80817,0.708194 1.29141,0.708194 h 12.23093 c 0.0667,0 0.12498,-0.0083 0.19163,-0.01666 0.0167,0 0.0417,-0.0083 0.0583,-0.0083 0.0417,-0.0083 0.0833,-0.01666 0.13331,-0.03333 0.0167,-0.0083 0.0417,-0.0083 0.0583,-0.01666 0.0417,-0.01666 0.0833,-0.03333 0.13331,-0.04999 0.0167,-0.0083 0.0333,-0.01666 0.05,-0.025 0.0583,-0.025 0.11664,-0.05832 0.16663,-0.09165 0.008,-0.0083 0.0167,-0.01666 0.025,-0.01666 0.0417,-0.03333 0.0916,-0.06665 0.1333,-0.09998 0.0167,-0.01666 0.0333,-0.025 0.05,-0.04166 0.0333,-0.03333 0.075,-0.06665 0.10831,-0.09998 0.0167,-0.01666 0.0333,-0.03333 0.05,-0.04999 0.0417,-0.04166 0.075,-0.08332 0.10831,-0.124977 0.008,-0.01666 0.025,-0.025 0.0333,-0.03333 0.0417,-0.05832 0.0916,-0.116644 0.13331,-0.183299 0.008,-0.01666 0.0167,-0.03333 0.0333,-0.04999 0.0333,-0.04999 0.0583,-0.09998 0.0917,-0.149971 0.0166,-0.025 0.025,-0.04999 0.0417,-0.06665 0.025,-0.04999 0.05,-0.09998 0.075,-0.149971 0.008,-0.025 0.025,-0.04999 0.0333,-0.07499 0.0333,-0.06665 0.0583,-0.133306 0.0833,-0.208293 0,-0.0083 0.008,-0.01666 0.008,-0.025 0.025,-0.08331 0.0583,-0.158302 0.075,-0.24995 0.008,-0.025 0.0167,-0.04999 0.0167,-0.07499 0.008,-0.04166 0.025,-0.07498 0.0333,-0.116642 v 0 c 0.075,-0.324938 0.11664,-0.666537 0.11664,-1.033133 v -20.75424 z"
       inkscape:connector-curvature="0"
       style="clip-rule:evenodd;fill:#e9bdac;fill-opacity:1;fill-rule:evenodd;stroke-width:0.08331697" /><rect
       style="clip-rule:evenodd;fill:#595a5c;fill-rule:evenodd;stroke-width:0.08331697"
       x="399.48807"
       y="78.831581"
       width="4.9157014"
       height="0.2332875"
       id="rect5937" /><rect
       style="clip-rule:evenodd;fill:#595a5c;fill-rule:evenodd;stroke-width:0.08331697"
       x="401.10443"
       y="79.74807"
       width="3.2993517"
       height="0.2332875"
       id="rect5939" /><rect
       style="clip-rule:evenodd;fill:#595a5c;fill-rule:evenodd;stroke-width:0.08331697"
       x="401.10443"
       y="80.664558"
       width="3.2993517"
       height="0.2332875"
       id="rect5941" /><rect
       style="clip-rule:evenodd;fill:#595a5c;fill-rule:evenodd;stroke-width:0.08331697"
       x="401.10443"
       y="81.581047"
       width="3.2993517"
       height="0.2332875"
       id="rect5943" /><rect
       style="clip-rule:evenodd;fill:#595a5c;fill-rule:evenodd;stroke-width:0.08331697"
       x="401.10443"
       y="82.497528"
       width="3.2993517"
       height="0.2332875"
       id="rect5945" /><rect
       style="clip-rule:evenodd;fill:#595a5c;fill-rule:evenodd;stroke-width:0.08331697"
       x="399.48807"
       y="83.414017"
       width="4.9157014"
       height="0.2332875"
       id="rect5947" /><rect
       style="clip-rule:evenodd;fill:#595a5c;fill-rule:evenodd;stroke-width:0.08331697"
       x="401.10443"
       y="84.330505"
       width="3.2993517"
       height="0.2332875"
       id="rect5949" /><rect
       style="clip-rule:evenodd;fill:#595a5c;fill-rule:evenodd;stroke-width:0.08331697"
       x="401.10443"
       y="85.246994"
       width="3.2993517"
       height="0.2332875"
       id="rect5951" /><rect
       style="clip-rule:evenodd;fill:#595a5c;fill-rule:evenodd;stroke-width:0.08331697"
       x="401.10443"
       y="86.163475"
       width="3.2993517"
       height="0.2332875"
       id="rect5953" /><rect
       style="clip-rule:evenodd;fill:#595a5c;fill-rule:evenodd;stroke-width:0.08331697"
       x="401.10443"
       y="87.079964"
       width="3.2993517"
       height="0.2332875"
       id="rect5955" /><rect
       style="clip-rule:evenodd;fill:#595a5c;fill-rule:evenodd;stroke-width:0.08331697"
       x="399.48807"
       y="88.004784"
       width="4.9157014"
       height="0.2332875"
       id="rect5957" /><rect
       style="clip-rule:evenodd;fill:#595a5c;fill-rule:evenodd;stroke-width:0.08331697"
       x="401.10443"
       y="88.921272"
       width="3.2993517"
       height="0.2332875"
       id="rect5959" /><rect
       style="clip-rule:evenodd;fill:#595a5c;fill-rule:evenodd;stroke-width:0.08331697"
       x="401.10443"
       y="89.837753"
       width="3.2993517"
       height="0.2332875"
       id="rect5961" /><rect
       style="clip-rule:evenodd;fill:#595a5c;fill-rule:evenodd;stroke-width:0.08331697"
       x="401.10443"
       y="90.754242"
       width="3.2993517"
       height="0.2332875"
       id="rect5963" /><rect
       style="clip-rule:evenodd;fill:#595a5c;fill-rule:evenodd;stroke-width:0.08331697"
       x="401.10443"
       y="91.670731"
       width="3.2993517"
       height="0.2332875"
       id="rect5965" /><rect
       style="clip-rule:evenodd;fill:#595a5c;fill-rule:evenodd;stroke-width:0.08331697"
       x="399.48807"
       y="92.587219"
       width="4.9157014"
       height="0.2332875"
       id="rect5967" /><rect
       style="clip-rule:evenodd;fill:#595a5c;fill-rule:evenodd;stroke-width:0.08331697"
       x="401.10443"
       y="93.503708"
       width="3.2993517"
       height="0.2332875"
       id="rect5969" /><rect
       style="clip-rule:evenodd;fill:#595a5c;fill-rule:evenodd;stroke-width:0.08331697"
       x="401.10443"
       y="94.420189"
       width="3.2993517"
       height="0.2332875"
       id="rect5971" /><rect
       style="clip-rule:evenodd;fill:#595a5c;fill-rule:evenodd;stroke-width:0.08331697"
       x="401.10443"
       y="95.336678"
       width="3.2993517"
       height="0.2332875"
       id="rect5973" /><rect
       style="clip-rule:evenodd;fill:#595a5c;fill-rule:evenodd;stroke-width:0.08331697"
       x="401.10443"
       y="96.253166"
       width="3.2993517"
       height="0.2332875"
       id="rect5975" /><path
       d="m 351.19932,100.38878 q 0,0.13973 -0.12703,0.13973 l -1.15599,0.11433 -0.55894,10.31499 q 0.10162,-0.0127 0.24136,-0.0381 0.15244,-0.0127 0.30487,-0.0381 0.16515,-0.0254 0.30488,-0.0508 0.15244,-0.0127 0.24136,-0.0127 0.0635,0 0.0889,0.0381 0.0381,0.0508 0.0381,0.11433 0,0.12703 -0.11433,0.12703 l -2.61685,0.35569 h -0.0254 q -0.0635,0 -0.10162,-0.0508 -0.0381,-0.0381 -0.0381,-0.10163 0,-0.11433 0.12703,-0.13973 l 0.94003,-0.11433 -0.0254,-9.05737 -2.27387,10.35309 q -0.0254,0.10163 -0.13974,0.10163 -0.10162,0 -0.12703,-0.10163 l -2.52793,-10.73419 0.0508,9.37495 1.07977,0.25407 q 0.10163,0.0254 0.10163,0.12703 0,0.13973 -0.13974,0.13973 -0.0254,0 -0.20325,-0.0381 -0.17784,-0.0381 -0.43191,-0.10162 -0.25406,-0.0508 -0.55894,-0.11433 -0.29217,-0.0635 -0.57164,-0.12703 -0.26677,-0.0635 -0.47002,-0.11433 -0.19055,-0.0508 -0.25406,-0.0635 -0.11433,-0.0254 -0.11433,-0.12703 0,-0.15244 0.13973,-0.15244 0.0254,0 0.19055,0.0381 0.16514,0.0381 0.35569,0.0762 0.19055,0.0508 0.36839,0.0889 0.17785,0.0381 0.22866,0.0508 l -0.0508,-10.23877 q -0.0508,0.0127 -0.21596,0.0508 -0.16514,0.0381 -0.35569,0.0889 -0.17784,0.0381 -0.34298,0.0762 -0.15244,0.0254 -0.17785,0.0254 -0.13973,0 -0.13973,-0.13973 0,-0.11433 0.11433,-0.13974 0.0762,-0.0254 0.4065,-0.10162 0.34298,-0.0762 0.71138,-0.15244 0.36839,-0.0889 0.67327,-0.15244 0.31758,-0.0762 0.35568,-0.0762 0.11433,0 0.13974,0.11433 l 2.12143,9.75604 2.08332,-9.45116 q 0.0254,-0.11433 0.12704,-0.11433 l 2.17224,-0.21596 h 0.0127 q 0.13974,0 0.13974,0.13974 z"
       style="font-size:12.70318413px;font-family:FontdinerdotcomSparkly;fill:#046939;stroke-width:0.08468789"
       id="path6128"
       inkscape:connector-curvature="0" /><path
       d="m 352.42478,106.8547 q 0,-0.12703 -0.0127,-0.31758 -0.0127,-0.19055 -0.0762,-0.35569 -0.0508,-0.17784 -0.15244,-0.30488 -0.10163,-0.12703 -0.29218,-0.12703 -0.17784,0 -0.31757,0.19055 -0.12704,0.17784 -0.22866,0.43191 -0.0889,0.24136 -0.15244,0.49542 -0.0508,0.24136 -0.0762,0.36839 l 1.29573,-0.10162 q 0.0127,-0.0635 0.0127,-0.13974 0,-0.0762 0,-0.13973 z m 0.88922,0.35569 q 0,0.12703 -0.13973,0.15244 l -2.09603,0.16514 q -0.0127,0.16514 -0.0254,0.33028 0,0.15244 0,0.33028 0,0.19055 0.0254,0.48272 0.0254,0.29218 0.10163,0.57165 0.0889,0.29217 0.25406,0.49542 0.16514,0.20325 0.43191,0.20325 0.20325,0 0.33028,-0.0635 0.12703,-0.0635 0.21596,-0.13974 0.0889,-0.0635 0.13973,-0.12703 0.0508,-0.0635 0.10163,-0.0635 0.13973,0 0.13973,0.13974 0,0.0381 -0.0127,0.0635 -0.0508,0.11433 -0.16514,0.20326 -0.10163,0.0889 -0.22866,0.13973 -0.12703,0.0635 -0.26677,0.0889 -0.13973,0.0381 -0.25406,0.0381 -0.4065,0 -0.69868,-0.22865 -0.27947,-0.22866 -0.47001,-0.57165 -0.17785,-0.34298 -0.26677,-0.73678 -0.0889,-0.3938 -0.0889,-0.72408 0,-0.34299 0.0762,-0.7749 0.0889,-0.43191 0.26676,-0.813 0.19055,-0.3811 0.48272,-0.64786 0.30488,-0.26677 0.72408,-0.26677 0.55895,0 0.87652,0.36839 0.31758,0.35569 0.45732,0.83841 0.0254,0.13974 0.0508,0.27947 0.0381,0.12703 0.0381,0.26677 z"
       style="font-size:12.70318413px;font-family:FontdinerdotcomSparkly;fill:#046939;stroke-width:0.08468789"
       id="path6130"
       inkscape:connector-curvature="0" /><path
       d="m 356.96597,106.93092 q -0.21596,-0.21596 -0.53354,-0.31758 -0.30487,-0.10163 -0.62245,-0.10163 -0.22866,0 -0.45732,0.0635 -0.22865,0.0508 -0.4192,0.16514 -0.17785,0.11433 -0.29217,0.30488 -0.10163,0.19054 -0.10163,0.45731 0,0.22866 0.0889,0.3811 0.10163,0.13973 0.25407,0.22865 0.16514,0.0762 0.35569,0.10163 0.19054,0.0254 0.38109,0.0254 0.34299,0 0.69868,-0.0889 0.35568,-0.0889 0.62245,-0.31758 0.0127,-0.21595 0.0127,-0.44461 0.0127,-0.22865 0.0127,-0.45731 z m 1.48627,1.35924 q 0,0.10162 -0.10162,0.13973 -0.0508,0.0127 -0.25407,0.0762 -0.20325,0.0635 -0.43191,0.13974 -0.22865,0.0635 -0.4192,0.12703 -0.19055,0.0508 -0.21596,0.0508 -0.0635,0 -0.10162,-0.0381 -0.0381,-0.0508 -0.0381,-0.11433 0,-0.11432 0.0127,-0.22865 0.0127,-0.12703 0.0127,-0.24136 -0.11433,0.0635 -0.29218,0.12703 -0.16514,0.0508 -0.35569,0.10162 -0.17784,0.0381 -0.35569,0.0635 -0.17784,0.0254 -0.31758,0.0254 -0.24136,0 -0.59705,-0.0381 -0.34298,-0.0508 -0.66056,-0.17785 -0.31758,-0.12703 -0.54624,-0.33028 -0.21595,-0.21596 -0.21595,-0.53353 0,-0.35569 0.22866,-0.58435 0.24136,-0.22866 0.57164,-0.36839 0.34298,-0.13974 0.71138,-0.19055 0.36839,-0.0635 0.63516,-0.0635 0.33028,0 0.64786,0.0762 0.31758,0.0635 0.60975,0.26677 0.0127,-0.24136 0.0127,-0.48272 0,-0.24136 0,-0.49543 0,-1.23221 -0.0127,-2.45171 -0.0127,-1.23221 -0.0381,-2.46442 h -0.76219 q -0.15244,0 -0.15244,-0.13973 0,-0.13974 0.15244,-0.13974 h 1.62601 q 0.13973,0 0.13973,0.15244 0,0.11433 -0.0127,0.24136 -0.0127,0.11433 -0.0254,0.21595 l -0.0762,0.87652 q -0.11432,1.38465 -0.15243,2.782 -0.0381,1.11788 -0.0381,2.27387 0,0.35569 0,0.69868 0,0.34298 0.0127,0.69867 0.0381,-0.0127 0.13974,-0.0381 0.10162,-0.0381 0.20325,-0.0635 0.11432,-0.0381 0.20325,-0.0635 0.0889,-0.0254 0.11433,-0.0254 0.13973,0 0.13973,0.13974 z"
       style="font-size:12.70318413px;font-family:FontdinerdotcomSparkly;fill:#046939;stroke-width:0.08468789"
       id="path6132"
       inkscape:connector-curvature="0" /><path
       d="m 359.39585,105.19058 -0.13974,1.25762 -0.13973,-1.25762 -0.74949,0.68597 0.69868,-0.77489 -0.66057,-0.12703 0.66057,-0.11433 -0.69868,-0.7749 0.74949,0.68598 0.13973,-1.25762 0.13974,1.25762 0.74949,-0.68598 -0.69868,0.7749 0.66057,0.11433 -0.66057,0.12703 0.69868,0.77489 z m 1.10518,3.87447 q 0,0.11433 -0.12704,0.13974 l -1.77844,0.16514 h -0.0127 q -0.13974,0 -0.13974,-0.13974 0,-0.13973 0.12703,-0.13973 l 0.59705,-0.0635 -0.16514,-2.0071 q -0.13973,0.0254 -0.29217,0.0508 -0.15244,0.0127 -0.29218,0.0127 -0.13973,0 -0.13973,-0.13974 0,-0.13973 0.12703,-0.13973 0.11433,-0.0127 0.29217,-0.0381 0.17785,-0.0254 0.35569,-0.0381 0.19055,-0.0254 0.35569,-0.0381 0.16514,-0.0254 0.26677,-0.0254 0.13973,0 0.13973,0.13974 l -0.0254,2.17224 q 0.13973,-0.0127 0.27947,-0.0254 0.15244,-0.0254 0.29217,-0.0254 0.13974,0 0.13974,0.13973 z"
       style="font-size:12.70318413px;font-family:FontdinerdotcomSparkly;fill:#046939;stroke-width:0.08468789"
       id="path6134"
       inkscape:connector-curvature="0" /><path
       d="m 363.78897,106.93092 q -0.21596,-0.21596 -0.53354,-0.31758 -0.30487,-0.10163 -0.62245,-0.10163 -0.22866,0 -0.45732,0.0635 -0.22865,0.0508 -0.4192,0.16514 -0.17785,0.11433 -0.29217,0.30488 -0.10163,0.19054 -0.10163,0.45731 0,0.22866 0.0889,0.3811 0.10163,0.13973 0.25407,0.22865 0.16514,0.0762 0.35569,0.10163 0.19054,0.0254 0.38109,0.0254 0.34299,0 0.69868,-0.0889 0.35568,-0.0889 0.62245,-0.31758 0.0127,-0.21595 0.0127,-0.44461 0.0127,-0.22865 0.0127,-0.45731 z m 1.48627,1.35924 q 0,0.10162 -0.10162,0.13973 -0.0508,0.0127 -0.25407,0.0762 -0.20325,0.0635 -0.43191,0.13974 -0.22865,0.0635 -0.4192,0.12703 -0.19055,0.0508 -0.21596,0.0508 -0.0635,0 -0.10162,-0.0381 -0.0381,-0.0508 -0.0381,-0.11433 0,-0.11432 0.0127,-0.22865 0.0127,-0.12703 0.0127,-0.24136 -0.11433,0.0635 -0.29218,0.12703 -0.16514,0.0508 -0.35569,0.10162 -0.17784,0.0381 -0.35569,0.0635 -0.17784,0.0254 -0.31758,0.0254 -0.24136,0 -0.59705,-0.0381 -0.34298,-0.0508 -0.66056,-0.17785 -0.31758,-0.12703 -0.54624,-0.33028 -0.21595,-0.21596 -0.21595,-0.53353 0,-0.35569 0.22866,-0.58435 0.24136,-0.22866 0.57164,-0.36839 0.34298,-0.13974 0.71138,-0.19055 0.36839,-0.0635 0.63516,-0.0635 0.33028,0 0.64786,0.0762 0.31758,0.0635 0.60975,0.26677 0.0127,-0.24136 0.0127,-0.48272 0,-0.24136 0,-0.49543 0,-1.23221 -0.0127,-2.45171 -0.0127,-1.23221 -0.0381,-2.46442 h -0.76219 q -0.15244,0 -0.15244,-0.13973 0,-0.13974 0.15244,-0.13974 h 1.62601 q 0.13973,0 0.13973,0.15244 0,0.11433 -0.0127,0.24136 -0.0127,0.11433 -0.0254,0.21595 l -0.0762,0.87652 q -0.11432,1.38465 -0.15243,2.782 -0.0381,1.11788 -0.0381,2.27387 0,0.35569 0,0.69868 0,0.34298 0.0127,0.69867 0.0381,-0.0127 0.13974,-0.0381 0.10162,-0.0381 0.20325,-0.0635 0.11432,-0.0381 0.20325,-0.0635 0.0889,-0.0254 0.11433,-0.0254 0.13973,0 0.13973,0.13974 z"
       style="font-size:12.70318413px;font-family:FontdinerdotcomSparkly;fill:#046939;stroke-width:0.08468789"
       id="path6136"
       inkscape:connector-curvature="0" /><path
       d="m 367.90539,103.14537 -0.13973,1.25761 -0.13974,-1.25761 -0.74948,0.67327 0.69867,-0.76219 -0.66056,-0.12703 0.66056,-0.12704 -0.69867,-0.76219 0.74948,0.68597 0.13974,-1.27031 0.13973,1.27031 0.74949,-0.68597 -0.69867,0.76219 0.66056,0.12704 -0.66056,0.12703 0.69867,0.76219 z m 0.0254,4.99235 q -0.17784,-0.0508 -0.36839,-0.0635 -0.17785,-0.0254 -0.35569,-0.0254 -0.13974,0 -0.34299,0.0381 -0.20325,0.0254 -0.3938,0.10162 -0.17784,0.0762 -0.31758,0.20325 -0.12703,0.11433 -0.12703,0.30488 0,0.15244 0.0762,0.25406 0.0889,0.0889 0.21596,0.15244 0.12703,0.0508 0.26676,0.0762 0.13974,0.0127 0.26677,0.0127 0.27947,0 0.55894,-0.0635 0.29217,-0.0762 0.50813,-0.26677 z m 1.25762,1.1814 q 0,0.13973 -0.12704,0.15243 l -1.00355,0.12704 q -0.0762,0.0127 -0.11433,-0.0381 -0.0381,-0.0381 -0.0508,-0.10163 0,-0.0635 0,-0.13973 0.0127,-0.0635 0.0127,-0.10163 -0.20325,0.11433 -0.53353,0.19055 -0.31758,0.0762 -0.53353,0.0762 -0.20325,0 -0.49543,-0.0254 -0.27947,-0.0254 -0.54623,-0.12703 -0.25407,-0.0889 -0.43191,-0.25406 -0.17785,-0.17785 -0.17785,-0.47002 0,-0.31758 0.24136,-0.48272 0.24136,-0.17785 0.57165,-0.25407 0.33028,-0.0762 0.67327,-0.0889 0.35568,-0.0127 0.57164,-0.0127 0.15244,0 0.34298,0.0254 0.19055,0.0127 0.34299,0.0508 v -0.21596 q 0,-0.27947 -0.0508,-0.54623 -0.0381,-0.27947 -0.16514,-0.49543 -0.11433,-0.21595 -0.33029,-0.34298 -0.21595,-0.13974 -0.54623,-0.13974 -0.12704,0 -0.27947,0.0254 -0.13974,0.0254 -0.26677,0.0889 -0.12703,0.0635 -0.21595,0.17784 -0.0762,0.10163 -0.0762,0.26677 0,0.21596 0.10162,0.29217 0.10163,0.0762 0.21596,0.10163 0.12703,0.0254 0.22865,0.0508 0.10163,0.0127 0.10163,0.11433 0,0.0635 -0.0508,0.10163 -0.0381,0.0381 -0.0889,0.0381 -0.15243,0 -0.33028,-0.0381 -0.17784,-0.0508 -0.33028,-0.13974 -0.13974,-0.0889 -0.24136,-0.21595 -0.0889,-0.13974 -0.0889,-0.31758 0,-0.24136 0.11432,-0.3938 0.12704,-0.16514 0.31758,-0.25406 0.19055,-0.10163 0.40651,-0.13974 0.21595,-0.0381 0.4065,-0.0381 0.52083,0 0.87652,0.16514 0.36839,0.16514 0.58434,0.47002 0.22866,0.29217 0.31758,0.71138 0.10163,0.4065 0.10163,0.88922 0,0.29217 -0.0254,0.59705 -0.0254,0.30488 -0.0508,0.59705 l 0.47002,-0.0635 q 0.0508,0 0.10162,0.0254 0.0508,0.0381 0.0508,0.10163 z"
       style="font-size:12.70318413px;font-family:FontdinerdotcomSparkly;fill:#046939;stroke-width:0.08468789"
       id="path6138"
       inkscape:connector-curvature="0" /><path
       d="m 370.24119,102.90401 -0.13973,1.25761 -0.13974,-1.25761 -0.74949,0.68597 0.69868,-0.77489 -0.66057,-0.12704 0.66057,-0.11432 -0.69868,-0.7749 0.74949,0.68597 0.13974,-1.25761 0.13973,1.25761 0.74949,-0.68597 -0.69868,0.7749 0.66057,0.11432 -0.66057,0.12704 0.69868,0.77489 z m 1.84196,5.32263 q 0,0.25407 -0.12703,0.44461 -0.12703,0.19055 -0.31758,0.31758 -0.19055,0.12704 -0.43191,0.19055 -0.22865,0.0635 -0.45731,0.0635 -0.16514,0 -0.4065,-0.0381 -0.24136,-0.0381 -0.47002,-0.12703 -0.21595,-0.0889 -0.3811,-0.22866 -0.15243,-0.15244 -0.15243,-0.3811 0,-0.21595 0.13973,-0.34298 0.15244,-0.13974 0.36839,-0.13974 0.16514,0 0.34299,0.12703 0.17784,0.11433 0.17784,0.30488 0,0.13974 -0.13973,0.13974 -0.0762,0 -0.10163,-0.0381 -0.0254,-0.0508 -0.0508,-0.10163 -0.0254,-0.0635 -0.0762,-0.10162 -0.0381,-0.0508 -0.15244,-0.0508 -0.16514,0 -0.16514,0.20325 0,0.13974 0.12703,0.24136 0.12704,0.0889 0.30488,0.15244 0.17784,0.0508 0.35569,0.0762 0.17784,0.0127 0.27947,0.0127 0.11433,0 0.24136,-0.0127 0.12703,-0.0254 0.24136,-0.0762 0.11433,-0.0635 0.17784,-0.15244 0.0762,-0.10162 0.0762,-0.24136 0,-0.15243 -0.17784,-0.25406 -0.17785,-0.10163 -0.44461,-0.19055 -0.25407,-0.0889 -0.55894,-0.19055 -0.30488,-0.11432 -0.57165,-0.26676 -0.25406,-0.16514 -0.4319,-0.4065 -0.17785,-0.24137 -0.17785,-0.60976 0,-0.29217 0.11433,-0.53353 0.11433,-0.25406 0.30488,-0.43191 0.20325,-0.19055 0.45731,-0.29217 0.25406,-0.11433 0.53354,-0.12703 0.10162,0 0.21595,0.0127 0.11433,0 0.21595,0 0.25407,0 0.45732,-0.0508 0.20325,-0.0635 0.30487,-0.33029 0.0254,-0.10162 0.12704,-0.10162 0.0635,0 0.10162,0.0381 0.0508,0.0381 0.0508,0.10162 l -0.12703,1.5752 -0.0381,0.55894 q 0,0.0635 -0.0508,0.10162 -0.0381,0.0254 -0.10163,0.0254 -0.0635,0 -0.10162,-0.0381 -0.0254,-0.0508 -0.0254,-0.11433 0.0127,-0.16514 0.0254,-0.31758 0.0254,-0.16514 0.0254,-0.33028 0,-0.44461 -0.27947,-0.64786 -0.27947,-0.20325 -0.69868,-0.20325 -0.35569,0 -0.60975,0.17784 -0.25407,0.17784 -0.25407,0.57164 0,0.27947 0.16515,0.47002 0.17784,0.19055 0.4319,0.34299 0.25407,0.13973 0.55894,0.26676 0.30488,0.11433 0.55894,0.25407 0.25407,0.12703 0.41921,0.29217 0.17784,0.16514 0.17784,0.4065 z"
       style="font-size:12.70318413px;font-family:FontdinerdotcomSparkly;fill:#046939;stroke-width:0.08468789"
       id="path6140"
       inkscape:connector-curvature="0" /><path
       d="m 378.82438,106.93092 q -0.21596,-0.21596 -0.53354,-0.31758 -0.30487,-0.10163 -0.62245,-0.10163 -0.22866,0 -0.45732,0.0635 -0.22866,0.0508 -0.4192,0.16514 -0.17785,0.11433 -0.29218,0.30488 -0.10162,0.19054 -0.10162,0.45731 0,0.22866 0.0889,0.3811 0.10163,0.13973 0.25406,0.22865 0.16515,0.0762 0.35569,0.10163 0.19055,0.0254 0.3811,0.0254 0.34298,0 0.69867,-0.0889 0.35569,-0.0889 0.62246,-0.31758 0.0127,-0.21595 0.0127,-0.44461 0.0127,-0.22865 0.0127,-0.45731 z m 1.48627,1.35924 q 0,0.10162 -0.10163,0.13973 -0.0508,0.0127 -0.25406,0.0762 -0.20325,0.0635 -0.43191,0.13974 -0.22866,0.0635 -0.4192,0.12703 -0.19055,0.0508 -0.21596,0.0508 -0.0635,0 -0.10162,-0.0381 -0.0381,-0.0508 -0.0381,-0.11433 0,-0.11432 0.0127,-0.22865 0.0127,-0.12703 0.0127,-0.24136 -0.11433,0.0635 -0.29217,0.12703 -0.16514,0.0508 -0.35569,0.10162 -0.17784,0.0381 -0.35569,0.0635 -0.17784,0.0254 -0.31758,0.0254 -0.24136,0 -0.59705,-0.0381 -0.34298,-0.0508 -0.66056,-0.17785 -0.31758,-0.12703 -0.54624,-0.33028 -0.21595,-0.21596 -0.21595,-0.53353 0,-0.35569 0.22865,-0.58435 0.24136,-0.22866 0.57165,-0.36839 0.34298,-0.13974 0.71137,-0.19055 0.3684,-0.0635 0.63516,-0.0635 0.33029,0 0.64787,0.0762 0.31758,0.0635 0.60975,0.26677 0.0127,-0.24136 0.0127,-0.48272 0,-0.24136 0,-0.49543 0,-1.23221 -0.0127,-2.45171 -0.0127,-1.23221 -0.0381,-2.46442 h -0.76219 q -0.15244,0 -0.15244,-0.13973 0,-0.13974 0.15244,-0.13974 h 1.62601 q 0.13973,0 0.13973,0.15244 0,0.11433 -0.0127,0.24136 -0.0127,0.11433 -0.0254,0.21595 l -0.0762,0.87652 q -0.11433,1.38465 -0.15244,2.782 -0.0381,1.11788 -0.0381,2.27387 0,0.35569 0,0.69868 0,0.34298 0.0127,0.69867 0.0381,-0.0127 0.13973,-0.0381 0.10163,-0.0381 0.20325,-0.0635 0.11433,-0.0381 0.20326,-0.0635 0.0889,-0.0254 0.11432,-0.0254 0.13974,0 0.13974,0.13974 z"
       style="font-size:12.70318413px;font-family:FontdinerdotcomSparkly;fill:#046939;stroke-width:0.08468789"
       id="path6142"
       inkscape:connector-curvature="0" /><path
       d="m 382.47079,106.8547 q 0,-0.12703 -0.0127,-0.31758 -0.0127,-0.19055 -0.0762,-0.35569 -0.0508,-0.17784 -0.15243,-0.30488 -0.10163,-0.12703 -0.29218,-0.12703 -0.17784,0 -0.31758,0.19055 -0.12703,0.17784 -0.22865,0.43191 -0.0889,0.24136 -0.15244,0.49542 -0.0508,0.24136 -0.0762,0.36839 l 1.29572,-0.10162 q 0.0127,-0.0635 0.0127,-0.13974 0,-0.0762 0,-0.13973 z m 0.88922,0.35569 q 0,0.12703 -0.13974,0.15244 l -2.09602,0.16514 q -0.0127,0.16514 -0.0254,0.33028 0,0.15244 0,0.33028 0,0.19055 0.0254,0.48272 0.0254,0.29218 0.10162,0.57165 0.0889,0.29217 0.25407,0.49542 0.16514,0.20325 0.43191,0.20325 0.20325,0 0.33028,-0.0635 0.12703,-0.0635 0.21595,-0.13974 0.0889,-0.0635 0.13974,-0.12703 0.0508,-0.0635 0.10162,-0.0635 0.13974,0 0.13974,0.13974 0,0.0381 -0.0127,0.0635 -0.0508,0.11433 -0.16515,0.20326 -0.10162,0.0889 -0.22865,0.13973 -0.12704,0.0635 -0.26677,0.0889 -0.13974,0.0381 -0.25406,0.0381 -0.40651,0 -0.69868,-0.22865 -0.27947,-0.22866 -0.47002,-0.57165 -0.17784,-0.34298 -0.26676,-0.73678 -0.0889,-0.3938 -0.0889,-0.72408 0,-0.34299 0.0762,-0.7749 0.0889,-0.43191 0.26677,-0.813 0.19055,-0.3811 0.48272,-0.64786 0.30488,-0.26677 0.72408,-0.26677 0.55894,0 0.87652,0.36839 0.31758,0.35569 0.45732,0.83841 0.0254,0.13974 0.0508,0.27947 0.0381,0.12703 0.0381,0.26677 z"
       style="font-size:12.70318413px;font-family:FontdinerdotcomSparkly;fill:#046939;stroke-width:0.08468789"
       id="path6144"
       inkscape:connector-curvature="0" /><path
       d="m 392.08769,100.17282 -0.50812,2.7566 q -0.0127,0.11432 -0.13974,0.11432 -0.13973,0 -0.13973,-0.13973 0,-0.0635 0.0254,-0.24136 0.0381,-0.19055 0.0762,-0.4065 0.0508,-0.22866 0.0889,-0.43191 0.0508,-0.20325 0.0635,-0.29218 -0.21595,-0.16514 -0.43191,-0.26676 -0.20325,-0.10163 -0.48272,-0.10163 -0.71138,0 -1.21951,0.3938 -0.50812,0.3811 -0.86381,0.95274 -0.35569,0.57164 -0.57165,1.24491 -0.20325,0.67327 -0.30487,1.24491 -0.12703,0.68598 -0.17785,1.37195 -0.0508,0.67327 -0.0508,1.35924 0,0.48272 0.0381,1.10518 0.0381,0.60975 0.16514,1.2195 0.12703,0.62246 0.36839,1.16869 0.24136,0.55894 0.63516,0.91463 0.17785,0.16514 0.3938,0.26677 0.21596,0.11433 0.47002,0.11433 h 0.0889 q 0.19055,0.0127 0.36839,-0.0381 0.19055,-0.0381 0.3684,-0.11433 -0.0127,-0.0381 -0.0762,-0.19055 -0.0635,-0.15244 -0.12703,-0.31758 -0.0635,-0.16514 -0.12704,-0.30487 -0.0508,-0.13974 -0.0508,-0.16514 0,-0.13974 0.13974,-0.13974 0.0889,0 0.12703,0.0889 0.0254,0.0508 0.0889,0.21596 0.0762,0.16514 0.16514,0.3938 0.0889,0.22865 0.19055,0.47001 0.11433,0.25407 0.20325,0.47002 0.0889,0.21596 0.13974,0.36839 0.0635,0.15244 0.0635,0.16515 0,0.0635 -0.0508,0.10162 -0.0381,0.0381 -0.10163,0.0381 -0.0762,0 -0.12703,-0.0889 l -0.34298,-0.85112 q -0.41921,0.19055 -0.85112,0.19055 h -0.10162 q -0.64787,-0.0381 -1.11788,-0.34298 -0.47002,-0.29218 -0.8003,-0.76219 -0.33029,-0.47002 -0.54624,-1.05437 -0.20325,-0.58435 -0.31758,-1.2068 -0.11433,-0.60975 -0.16514,-1.2068 -0.0381,-0.59705 -0.0381,-1.07977 0,-0.62246 0.0381,-1.29573 0.0508,-0.68597 0.16514,-1.35924 0.11433,-0.67327 0.30488,-1.30843 0.19054,-0.64786 0.48272,-1.2068 0.17784,-0.34299 0.4192,-0.66057 0.24136,-0.31758 0.54624,-0.55894 0.30488,-0.25406 0.66056,-0.3938 0.35569,-0.15243 0.7749,-0.15243 0.53353,0 0.96544,0.24136 0.44461,0.22865 0.73679,0.66056 l 0.19054,-1.00355 q 0.0254,-0.11433 0.13974,-0.11433 0.13973,0 0.13973,0.13974 z"
       style="font-size:12.70318413px;font-family:FontdinerdotcomSparkly;fill:#046939;stroke-width:0.08468789"
       id="path6146"
       inkscape:connector-curvature="0" /><path
       d="m 392.41857,103.14537 -0.13973,1.25761 -0.13974,-1.25761 -0.74949,0.67327 0.69868,-0.76219 -0.66057,-0.12703 0.66057,-0.12704 -0.69868,-0.76219 0.74949,0.68597 0.13974,-1.27031 0.13973,1.27031 0.74949,-0.68597 -0.69868,0.76219 0.66057,0.12704 -0.66057,0.12703 0.69868,0.76219 z m 0.0254,4.99235 q -0.17785,-0.0508 -0.36839,-0.0635 -0.17785,-0.0254 -0.35569,-0.0254 -0.13974,0 -0.34299,0.0381 -0.20325,0.0254 -0.3938,0.10162 -0.17784,0.0762 -0.31758,0.20325 -0.12703,0.11433 -0.12703,0.30488 0,0.15244 0.0762,0.25406 0.0889,0.0889 0.21595,0.15244 0.12704,0.0508 0.26677,0.0762 0.13974,0.0127 0.26677,0.0127 0.27947,0 0.55894,-0.0635 0.29217,-0.0762 0.50813,-0.26677 z m 1.25761,1.1814 q 0,0.13973 -0.12703,0.15243 l -1.00355,0.12704 q -0.0762,0.0127 -0.11433,-0.0381 -0.0381,-0.0381 -0.0508,-0.10163 0,-0.0635 0,-0.13973 0.0127,-0.0635 0.0127,-0.10163 -0.20325,0.11433 -0.53353,0.19055 -0.31758,0.0762 -0.53354,0.0762 -0.20325,0 -0.49542,-0.0254 -0.27947,-0.0254 -0.54624,-0.12703 -0.25406,-0.0889 -0.4319,-0.25406 -0.17785,-0.17785 -0.17785,-0.47002 0,-0.31758 0.24136,-0.48272 0.24136,-0.17785 0.57164,-0.25407 0.33029,-0.0762 0.67327,-0.0889 0.35569,-0.0127 0.57165,-0.0127 0.15243,0 0.34298,0.0254 0.19055,0.0127 0.34299,0.0508 v -0.21596 q 0,-0.27947 -0.0508,-0.54623 -0.0381,-0.27947 -0.16515,-0.49543 -0.11432,-0.21595 -0.33028,-0.34298 -0.21595,-0.13974 -0.54624,-0.13974 -0.12703,0 -0.27947,0.0254 -0.13973,0.0254 -0.26676,0.0889 -0.12703,0.0635 -0.21596,0.17784 -0.0762,0.10163 -0.0762,0.26677 0,0.21596 0.10163,0.29217 0.10163,0.0762 0.21595,0.10163 0.12704,0.0254 0.22866,0.0508 0.10163,0.0127 0.10163,0.11433 0,0.0635 -0.0508,0.10163 -0.0381,0.0381 -0.0889,0.0381 -0.15244,0 -0.33028,-0.0381 -0.17785,-0.0508 -0.33028,-0.13974 -0.13974,-0.0889 -0.24136,-0.21595 -0.0889,-0.13974 -0.0889,-0.31758 0,-0.24136 0.11433,-0.3938 0.12703,-0.16514 0.31758,-0.25406 0.19055,-0.10163 0.4065,-0.13974 0.21596,-0.0381 0.40651,-0.0381 0.52083,0 0.87652,0.16514 0.36839,0.16514 0.58434,0.47002 0.22866,0.29217 0.31758,0.71138 0.10163,0.4065 0.10163,0.88922 0,0.29217 -0.0254,0.59705 -0.0254,0.30488 -0.0508,0.59705 l 0.47002,-0.0635 q 0.0508,0 0.10162,0.0254 0.0508,0.0381 0.0508,0.10163 z"
       style="font-size:12.70318413px;font-family:FontdinerdotcomSparkly;fill:#046939;stroke-width:0.08468789"
       id="path6148"
       inkscape:connector-curvature="0" /><path
       d="m 397.32716,106.10521 q 0,-0.22866 -0.10163,-0.36839 -0.0889,-0.15244 -0.25406,-0.22866 -0.15244,-0.0762 -0.35569,-0.10162 -0.19055,-0.0254 -0.3811,-0.0254 -0.34298,0 -0.69867,0.0889 -0.34299,0.0762 -0.60975,0.30488 -0.0127,0.21595 -0.0254,0.44461 0,0.22866 -0.0127,0.45731 0.22865,0.22866 0.53353,0.33029 0.31758,0.0889 0.63516,0.0889 0.22866,0 0.45731,-0.0508 0.22866,-0.0635 0.40651,-0.17785 0.19054,-0.11433 0.29217,-0.30487 0.11433,-0.19055 0.11433,-0.45732 z m 0.96544,0.0762 q 0,0.34299 -0.24136,0.58435 -0.22866,0.22865 -0.57164,0.36839 -0.33029,0.12703 -0.69868,0.19055 -0.36839,0.0508 -0.63516,0.0508 -0.34298,0 -0.66056,-0.0635 -0.31758,-0.0762 -0.59705,-0.27947 -0.0127,0.25407 -0.0127,0.49543 0,0.22865 0,0.48272 0,1.24491 0.0254,2.46442 0.0254,1.23221 0.0254,2.47712 0,0.16514 -0.16514,0.13973 l -1.5625,-0.15244 q -0.0635,0 -0.0889,-0.0508 -0.0381,-0.0381 -0.0381,-0.10162 0,-0.0635 0.0508,-0.10163 0.0508,-0.0254 0.10163,-0.0254 l 0.77489,0.0762 q 0.13974,-1.52438 0.20326,-3.03606 0.0762,-1.49897 0.0762,-3.03606 0,-0.35569 -0.0127,-0.69867 0,-0.35569 -0.0127,-0.71138 -0.0381,0.0127 -0.13974,0.0508 -0.10162,0.0254 -0.21595,0.0635 -0.11433,0.0381 -0.21596,0.0635 -0.10162,0.0254 -0.12703,0.0254 -0.13973,0 -0.13973,-0.13974 0,-0.10162 0.10162,-0.13973 0.0508,-0.0127 0.25407,-0.0762 0.20325,-0.0635 0.43191,-0.12703 0.22865,-0.0762 0.4192,-0.12703 0.19055,-0.0635 0.21595,-0.0635 0.0635,0 0.10163,0.0508 0.0381,0.0381 0.0381,0.10163 0,0.12703 -0.0127,0.24136 -0.0127,0.11433 -0.0254,0.24136 0.11433,-0.0762 0.27947,-0.12703 0.17784,-0.0635 0.35569,-0.10163 0.19055,-0.0508 0.36839,-0.0762 0.19055,-0.0254 0.31758,-0.0254 0.24136,0 0.58435,0.0508 0.35569,0.0381 0.67327,0.16514 0.31758,0.12703 0.54623,0.34299 0.22866,0.20325 0.22866,0.53353 z"
       style="font-size:12.70318413px;font-family:FontdinerdotcomSparkly;fill:#046939;stroke-width:0.08468789"
       id="path6150"
       inkscape:connector-curvature="0" /><path
       d="m 401.17682,103.14537 -0.13974,1.25761 -0.13973,-1.25761 -0.74949,0.67327 0.69868,-0.76219 -0.66057,-0.12703 0.66057,-0.12704 -0.69868,-0.76219 0.74949,0.68597 0.13973,-1.27031 0.13974,1.27031 0.74949,-0.68597 -0.69868,0.76219 0.66057,0.12704 -0.66057,0.12703 0.69868,0.76219 z m 0.0254,4.99235 q -0.17785,-0.0508 -0.3684,-0.0635 -0.17784,-0.0254 -0.35569,-0.0254 -0.13973,0 -0.34298,0.0381 -0.20325,0.0254 -0.3938,0.10162 -0.17784,0.0762 -0.31758,0.20325 -0.12703,0.11433 -0.12703,0.30488 0,0.15244 0.0762,0.25406 0.0889,0.0889 0.21595,0.15244 0.12703,0.0508 0.26677,0.0762 0.13973,0.0127 0.26677,0.0127 0.27947,0 0.55894,-0.0635 0.29217,-0.0762 0.50812,-0.26677 z m 1.25761,1.1814 q 0,0.13973 -0.12703,0.15243 l -1.00355,0.12704 q -0.0762,0.0127 -0.11433,-0.0381 -0.0381,-0.0381 -0.0508,-0.10163 0,-0.0635 0,-0.13973 0.0127,-0.0635 0.0127,-0.10163 -0.20325,0.11433 -0.53353,0.19055 -0.31758,0.0762 -0.53354,0.0762 -0.20325,0 -0.49542,-0.0254 -0.27947,-0.0254 -0.54624,-0.12703 -0.25406,-0.0889 -0.43191,-0.25406 -0.17784,-0.17785 -0.17784,-0.47002 0,-0.31758 0.24136,-0.48272 0.24136,-0.17785 0.57164,-0.25407 0.33028,-0.0762 0.67327,-0.0889 0.35569,-0.0127 0.57164,-0.0127 0.15244,0 0.34299,0.0254 0.19055,0.0127 0.34299,0.0508 v -0.21596 q 0,-0.27947 -0.0508,-0.54623 -0.0381,-0.27947 -0.16514,-0.49543 -0.11433,-0.21595 -0.33028,-0.34298 -0.21596,-0.13974 -0.54624,-0.13974 -0.12703,0 -0.27947,0.0254 -0.13973,0.0254 -0.26676,0.0889 -0.12704,0.0635 -0.21596,0.17784 -0.0762,0.10163 -0.0762,0.26677 0,0.21596 0.10163,0.29217 0.10162,0.0762 0.21595,0.10163 0.12703,0.0254 0.22866,0.0508 0.10162,0.0127 0.10162,0.11433 0,0.0635 -0.0508,0.10163 -0.0381,0.0381 -0.0889,0.0381 -0.15244,0 -0.33028,-0.0381 -0.17785,-0.0508 -0.33029,-0.13974 -0.13973,-0.0889 -0.24136,-0.21595 -0.0889,-0.13974 -0.0889,-0.31758 0,-0.24136 0.11433,-0.3938 0.12703,-0.16514 0.31758,-0.25406 0.19055,-0.10163 0.4065,-0.13974 0.21596,-0.0381 0.4065,-0.0381 0.52083,0 0.87652,0.16514 0.36839,0.16514 0.58435,0.47002 0.22866,0.29217 0.31758,0.71138 0.10162,0.4065 0.10162,0.88922 0,0.29217 -0.0254,0.59705 -0.0254,0.30488 -0.0508,0.59705 l 0.47001,-0.0635 q 0.0508,0 0.10163,0.0254 0.0508,0.0381 0.0508,0.10163 z"
       style="font-size:12.70318413px;font-family:FontdinerdotcomSparkly;fill:#046939;stroke-width:0.08468789"
       id="path6152"
       inkscape:connector-curvature="0" /><path
       d="m 404.04317,103.52646 -0.13973,1.25762 -0.13974,-1.25762 -0.74948,0.67327 0.69867,-0.76219 -0.66056,-0.12703 0.66056,-0.12703 -0.69867,-0.76219 0.74948,0.68597 0.13974,-1.27032 0.13973,1.27032 0.74949,-0.68597 -0.69867,0.76219 0.66056,0.12703 -0.66056,0.12703 0.69867,0.76219 z m 1.71493,2.03251 q 0,0.0127 -0.0254,0.0635 l -0.31758,0.68597 q -0.0508,0.0762 -0.12703,0.0762 -0.0254,0 -0.0762,-0.0254 -0.13974,-0.0508 -0.27947,-0.0762 -0.12703,-0.0254 -0.29218,-0.0254 -0.27947,0 -0.54623,0.12703 -0.25407,0.11433 -0.45732,0.31758 -0.20325,0.19055 -0.33028,0.45732 -0.12703,0.25406 -0.12703,0.53353 0,0.60975 0.38109,1.00355 0.3938,0.3811 1.01626,0.3811 0.16514,0 0.29217,-0.0508 0.13974,-0.0635 0.24136,-0.13973 0.10163,-0.0762 0.16514,-0.12703 0.0762,-0.0635 0.11433,-0.0635 0.13974,0 0.13974,0.13974 0,0.0508 -0.0381,0.0889 -0.0762,0.11433 -0.22866,0.21595 -0.13973,0.0889 -0.31758,0.15244 -0.16514,0.0762 -0.33028,0.10163 -0.16514,0.0381 -0.30488,0.0381 -0.34298,0 -0.68597,-0.13974 -0.33028,-0.12703 -0.59705,-0.35569 -0.25406,-0.24136 -0.4192,-0.54624 -0.16515,-0.31758 -0.16515,-0.67326 0,-0.43191 0.19055,-0.74949 0.20325,-0.33029 0.52083,-0.54624 0.31758,-0.22866 0.71138,-0.33028 0.3938,-0.11433 0.77489,-0.11433 0.13974,0 0.27947,0.0127 0.13974,0.0127 0.27947,0.0635 l 0.17785,-0.54624 q 0.0254,-0.0762 0.0889,-0.0762 0.0762,-0.0127 0.13974,-0.0127 0.0635,0 0.10162,0.0381 0.0508,0.0381 0.0508,0.10162 z"
       style="font-size:12.70318413px;font-family:FontdinerdotcomSparkly;fill:#046939;stroke-width:0.08468789"
       id="path6154"
       inkscape:connector-curvature="0" /><path
       d="m 406.8343,105.19058 -0.13973,1.25762 -0.13974,-1.25762 -0.74949,0.68597 0.69868,-0.77489 -0.66057,-0.12703 0.66057,-0.11433 -0.69868,-0.7749 0.74949,0.68598 0.13974,-1.25762 0.13973,1.25762 0.74949,-0.68598 -0.69867,0.7749 0.66056,0.11433 -0.66056,0.12703 0.69867,0.77489 z m 1.10518,3.87447 q 0,0.11433 -0.12703,0.13974 l -1.77845,0.16514 h -0.0127 q -0.13974,0 -0.13974,-0.13974 0,-0.13973 0.12704,-0.13973 l 0.59705,-0.0635 -0.16515,-2.0071 q -0.13973,0.0254 -0.29217,0.0508 -0.15244,0.0127 -0.29217,0.0127 -0.13974,0 -0.13974,-0.13974 0,-0.13973 0.12703,-0.13973 0.11433,-0.0127 0.29218,-0.0381 0.17784,-0.0254 0.35569,-0.0381 0.19054,-0.0254 0.35569,-0.0381 0.16514,-0.0254 0.26676,-0.0254 0.13974,0 0.13974,0.13974 l -0.0254,2.17224 q 0.13974,-0.0127 0.27947,-0.0254 0.15244,-0.0254 0.29217,-0.0254 0.13974,0 0.13974,0.13973 z"
       style="font-size:12.70318413px;font-family:FontdinerdotcomSparkly;fill:#046939;stroke-width:0.08468789"
       id="path6156"
       inkscape:connector-curvature="0" /><path
       d="m 411.22742,106.93092 q -0.21595,-0.21596 -0.53353,-0.31758 -0.30488,-0.10163 -0.62246,-0.10163 -0.22866,0 -0.45731,0.0635 -0.22866,0.0508 -0.41921,0.16514 -0.17784,0.11433 -0.29217,0.30488 -0.10163,0.19054 -0.10163,0.45731 0,0.22866 0.0889,0.3811 0.10162,0.13973 0.25406,0.22865 0.16514,0.0762 0.35569,0.10163 0.19055,0.0254 0.38109,0.0254 0.34299,0 0.69868,-0.0889 0.35569,-0.0889 0.62246,-0.31758 0.0127,-0.21595 0.0127,-0.44461 0.0127,-0.22865 0.0127,-0.45731 z m 1.48627,1.35924 q 0,0.10162 -0.10162,0.13973 -0.0508,0.0127 -0.25406,0.0762 -0.20326,0.0635 -0.43191,0.13974 -0.22866,0.0635 -0.41921,0.12703 -0.19055,0.0508 -0.21595,0.0508 -0.0635,0 -0.10163,-0.0381 -0.0381,-0.0508 -0.0381,-0.11433 0,-0.11432 0.0127,-0.22865 0.0127,-0.12703 0.0127,-0.24136 -0.11433,0.0635 -0.29217,0.12703 -0.16515,0.0508 -0.35569,0.10162 -0.17785,0.0381 -0.35569,0.0635 -0.17785,0.0254 -0.31758,0.0254 -0.24136,0 -0.59705,-0.0381 -0.34299,-0.0508 -0.66057,-0.17785 -0.31758,-0.12703 -0.54623,-0.33028 -0.21596,-0.21596 -0.21596,-0.53353 0,-0.35569 0.22866,-0.58435 0.24136,-0.22866 0.57164,-0.36839 0.34299,-0.13974 0.71138,-0.19055 0.36839,-0.0635 0.63516,-0.0635 0.33028,0 0.64786,0.0762 0.31758,0.0635 0.60976,0.26677 0.0127,-0.24136 0.0127,-0.48272 0,-0.24136 0,-0.49543 0,-1.23221 -0.0127,-2.45171 -0.0127,-1.23221 -0.0381,-2.46442 h -0.7622 q -0.15243,0 -0.15243,-0.13973 0,-0.13974 0.15243,-0.13974 h 1.62601 q 0.13974,0 0.13974,0.15244 0,0.11433 -0.0127,0.24136 -0.0127,0.11433 -0.0254,0.21595 l -0.0762,0.87652 q -0.11433,1.38465 -0.15244,2.782 -0.0381,1.11788 -0.0381,2.27387 0,0.35569 0,0.69868 0,0.34298 0.0127,0.69867 0.0381,-0.0127 0.13974,-0.0381 0.10162,-0.0381 0.20325,-0.0635 0.11433,-0.0381 0.20325,-0.0635 0.0889,-0.0254 0.11433,-0.0254 0.13973,0 0.13973,0.13974 z"
       style="font-size:12.70318413px;font-family:FontdinerdotcomSparkly;fill:#046939;stroke-width:0.08468789"
       id="path6158"
       inkscape:connector-curvature="0" /><path
       d="m 415.34385,103.14537 -0.13974,1.25761 -0.13973,-1.25761 -0.74949,0.67327 0.69868,-0.76219 -0.66057,-0.12703 0.66057,-0.12704 -0.69868,-0.76219 0.74949,0.68597 0.13973,-1.27031 0.13974,1.27031 0.74949,-0.68597 -0.69868,0.76219 0.66057,0.12704 -0.66057,0.12703 0.69868,0.76219 z m 0.0254,4.99235 q -0.17785,-0.0508 -0.3684,-0.0635 -0.17784,-0.0254 -0.35569,-0.0254 -0.13973,0 -0.34298,0.0381 -0.20325,0.0254 -0.3938,0.10162 -0.17784,0.0762 -0.31758,0.20325 -0.12703,0.11433 -0.12703,0.30488 0,0.15244 0.0762,0.25406 0.0889,0.0889 0.21595,0.15244 0.12703,0.0508 0.26677,0.0762 0.13973,0.0127 0.26677,0.0127 0.27947,0 0.55894,-0.0635 0.29217,-0.0762 0.50812,-0.26677 z m 1.25761,1.1814 q 0,0.13973 -0.12703,0.15243 l -1.00355,0.12704 q -0.0762,0.0127 -0.11433,-0.0381 -0.0381,-0.0381 -0.0508,-0.10163 0,-0.0635 0,-0.13973 0.0127,-0.0635 0.0127,-0.10163 -0.20325,0.11433 -0.53353,0.19055 -0.31758,0.0762 -0.53354,0.0762 -0.20325,0 -0.49542,-0.0254 -0.27947,-0.0254 -0.54624,-0.12703 -0.25406,-0.0889 -0.43191,-0.25406 -0.17784,-0.17785 -0.17784,-0.47002 0,-0.31758 0.24136,-0.48272 0.24136,-0.17785 0.57164,-0.25407 0.33028,-0.0762 0.67327,-0.0889 0.35569,-0.0127 0.57164,-0.0127 0.15244,0 0.34299,0.0254 0.19055,0.0127 0.34299,0.0508 v -0.21596 q 0,-0.27947 -0.0508,-0.54623 -0.0381,-0.27947 -0.16514,-0.49543 -0.11433,-0.21595 -0.33028,-0.34298 -0.21595,-0.13974 -0.54624,-0.13974 -0.12703,0 -0.27947,0.0254 -0.13973,0.0254 -0.26676,0.0889 -0.12704,0.0635 -0.21596,0.17784 -0.0762,0.10163 -0.0762,0.26677 0,0.21596 0.10163,0.29217 0.10162,0.0762 0.21595,0.10163 0.12703,0.0254 0.22866,0.0508 0.10162,0.0127 0.10162,0.11433 0,0.0635 -0.0508,0.10163 -0.0381,0.0381 -0.0889,0.0381 -0.15244,0 -0.33028,-0.0381 -0.17785,-0.0508 -0.33029,-0.13974 -0.13973,-0.0889 -0.24136,-0.21595 -0.0889,-0.13974 -0.0889,-0.31758 0,-0.24136 0.11433,-0.3938 0.12703,-0.16514 0.31758,-0.25406 0.19055,-0.10163 0.4065,-0.13974 0.21596,-0.0381 0.4065,-0.0381 0.52083,0 0.87652,0.16514 0.3684,0.16514 0.58435,0.47002 0.22866,0.29217 0.31758,0.71138 0.10162,0.4065 0.10162,0.88922 0,0.29217 -0.0254,0.59705 -0.0254,0.30488 -0.0508,0.59705 l 0.47001,-0.0635 q 0.0508,0 0.10163,0.0254 0.0508,0.0381 0.0508,0.10163 z"
       style="font-size:12.70318413px;font-family:FontdinerdotcomSparkly;fill:#046939;stroke-width:0.08468789"
       id="path6160"
       inkscape:connector-curvature="0" /><path
       d="m 419.86162,106.93092 q -0.21596,-0.21596 -0.53354,-0.31758 -0.30487,-0.10163 -0.62245,-0.10163 -0.22866,0 -0.45732,0.0635 -0.22866,0.0508 -0.4192,0.16514 -0.17785,0.11433 -0.29218,0.30488 -0.10162,0.19054 -0.10162,0.45731 0,0.22866 0.0889,0.3811 0.10162,0.13973 0.25406,0.22865 0.16514,0.0762 0.35569,0.10163 0.19055,0.0254 0.3811,0.0254 0.34298,0 0.69867,-0.0889 0.35569,-0.0889 0.62246,-0.31758 0.0127,-0.21595 0.0127,-0.44461 0.0127,-0.22865 0.0127,-0.45731 z m 1.48627,1.35924 q 0,0.10162 -0.10163,0.13973 -0.0508,0.0127 -0.25406,0.0762 -0.20325,0.0635 -0.43191,0.13974 -0.22866,0.0635 -0.4192,0.12703 -0.19055,0.0508 -0.21596,0.0508 -0.0635,0 -0.10162,-0.0381 -0.0381,-0.0508 -0.0381,-0.11433 0,-0.11432 0.0127,-0.22865 0.0127,-0.12703 0.0127,-0.24136 -0.11433,0.0635 -0.29217,0.12703 -0.16514,0.0508 -0.35569,0.10162 -0.17784,0.0381 -0.35569,0.0635 -0.17784,0.0254 -0.31758,0.0254 -0.24136,0 -0.59705,-0.0381 -0.34298,-0.0508 -0.66056,-0.17785 -0.31758,-0.12703 -0.54624,-0.33028 -0.21595,-0.21596 -0.21595,-0.53353 0,-0.35569 0.22865,-0.58435 0.24136,-0.22866 0.57165,-0.36839 0.34298,-0.13974 0.71137,-0.19055 0.3684,-0.0635 0.63516,-0.0635 0.33029,0 0.64787,0.0762 0.31758,0.0635 0.60975,0.26677 0.0127,-0.24136 0.0127,-0.48272 0,-0.24136 0,-0.49543 0,-1.23221 -0.0127,-2.45171 -0.0127,-1.23221 -0.0381,-2.46442 h -0.76219 q -0.15244,0 -0.15244,-0.13973 0,-0.13974 0.15244,-0.13974 h 1.62601 q 0.13973,0 0.13973,0.15244 0,0.11433 -0.0127,0.24136 -0.0127,0.11433 -0.0254,0.21595 l -0.0762,0.87652 q -0.11433,1.38465 -0.15244,2.782 -0.0381,1.11788 -0.0381,2.27387 0,0.35569 0,0.69868 0,0.34298 0.0127,0.69867 0.0381,-0.0127 0.13973,-0.0381 0.10163,-0.0381 0.20325,-0.0635 0.11433,-0.0381 0.20325,-0.0635 0.0889,-0.0254 0.11433,-0.0254 0.13974,0 0.13974,0.13974 z"
       style="font-size:12.70318413px;font-family:FontdinerdotcomSparkly;fill:#046939;stroke-width:0.08468789"
       id="path6162"
       inkscape:connector-curvature="0" /></g></svg>