<?xml version="1.0" encoding="UTF-8" standalone="no"?>
<!-- Generator: Adobe Illustrator 18.0.0, SVG Export Plug-In . SVG Version: 6.00 Build 0)  -->

<svg
   xmlns:dc="http://purl.org/dc/elements/1.1/"
   xmlns:cc="http://creativecommons.org/ns#"
   xmlns:rdf="http://www.w3.org/1999/02/22-rdf-syntax-ns#"
   xmlns:svg="http://www.w3.org/2000/svg"
   xmlns="http://www.w3.org/2000/svg"
   xmlns:sodipodi="http://sodipodi.sourceforge.net/DTD/sodipodi-0.dtd"
   xmlns:inkscape="http://www.inkscape.org/namespaces/inkscape"
   version="1.1"
   id="Capa_1"
   x="0px"
   y="0px"
   viewBox="0 0 299.36129 143.23057"
   enable-background="new 0 0 277.1 286.2"
   xml:space="preserve"
   sodipodi:docname="Medidas de Capacidad.svg"
   width="299.3613"
   height="143.23058"
   inkscape:version="0.92.1 r"><metadata
     id="metadata57"><rdf:RDF><cc:Work
         rdf:about=""><dc:format>image/svg+xml</dc:format><dc:type
           rdf:resource="http://purl.org/dc/dcmitype/StillImage" /><dc:title></dc:title></cc:Work></rdf:RDF></metadata><defs
     id="defs55" /><sodipodi:namedview
     pagecolor="#ffffff"
     bordercolor="#666666"
     borderopacity="1"
     objecttolerance="10"
     gridtolerance="10"
     guidetolerance="10"
     inkscape:pageopacity="0"
     inkscape:pageshadow="2"
     inkscape:window-width="1920"
     inkscape:window-height="1012"
     id="namedview53"
     showgrid="false"
     fit-margin-top="0"
     fit-margin-left="0"
     fit-margin-right="0"
     fit-margin-bottom="0"
     inkscape:zoom="0.82459815"
     inkscape:cx="99.019218"
     inkscape:cy="-43.400662"
     inkscape:window-x="0"
     inkscape:window-y="32"
     inkscape:window-maximized="1"
     inkscape:current-layer="Capa_1" /><g
     transform="matrix(3.7795276,0,0,3.7795276,-1293.1349,-285.97999)"
     id="g6245"><path
       id="path5933"
       d="m 406.95328,79.906373 h 4.14085 c 0.29994,0 0.54156,0.308273 0.54156,0.691531 v 11.997644 c 0,0.374925 -0.24162,0.69153 -0.54156,0.69153 h -4.14085 c -0.29994,0 -0.54156,-0.308273 -0.54156,-0.69153 V 80.597904 c 0,-0.383258 0.24995,-0.691531 0.54156,-0.691531 z m 0.54156,1.824641 v 9.731424 h 3.06606 v -9.731424 z"
       inkscape:connector-curvature="0"
       style="clip-rule:evenodd;fill:#5a4b43;fill-rule:evenodd;stroke-width:0.08331697" /><path
       id="path5935"
       d="m 407.64481,75.665539 h -15.50529 -3.59096 c 0.025,0.04166 0.0583,0.08332 0.0833,0.124975 0.43325,0.624878 1.0248,1.558028 1.54969,2.607822 0.10831,0.208292 0.20829,0.424916 0.30827,0.64154 0.42492,0.941482 0.75819,1.941286 0.84151,2.874436 v 14.497154 0 c 0,0.958143 0.2916,1.82464 0.74152,2.391197 0.34993,0.441579 0.80817,0.708194 1.29141,0.708194 h 12.23093 c 0.0667,0 0.12498,-0.0083 0.19163,-0.01666 0.0167,0 0.0417,-0.0083 0.0583,-0.0083 0.0417,-0.0083 0.0833,-0.01666 0.13331,-0.03333 0.0167,-0.0083 0.0417,-0.0083 0.0583,-0.01666 0.0417,-0.01666 0.0833,-0.03333 0.13331,-0.04999 0.0167,-0.0083 0.0333,-0.01666 0.05,-0.025 0.0583,-0.025 0.11664,-0.05832 0.16663,-0.09165 0.008,-0.0083 0.0167,-0.01666 0.025,-0.01666 0.0417,-0.03333 0.0916,-0.06665 0.1333,-0.09998 0.0167,-0.01666 0.0333,-0.025 0.05,-0.04166 0.0333,-0.03333 0.075,-0.06665 0.10831,-0.09998 0.0167,-0.01666 0.0333,-0.03333 0.05,-0.04999 0.0417,-0.04166 0.075,-0.08332 0.10831,-0.124977 0.008,-0.01666 0.025,-0.025 0.0333,-0.03333 0.0417,-0.05832 0.0916,-0.116644 0.13331,-0.183299 0.008,-0.01666 0.0167,-0.03333 0.0333,-0.04999 0.0333,-0.04999 0.0583,-0.09998 0.0917,-0.149971 0.0166,-0.025 0.025,-0.04999 0.0417,-0.06665 0.025,-0.04999 0.05,-0.09998 0.075,-0.149971 0.008,-0.025 0.025,-0.04999 0.0333,-0.07499 0.0333,-0.06665 0.0583,-0.133306 0.0833,-0.208293 0,-0.0083 0.008,-0.01666 0.008,-0.025 0.025,-0.08331 0.0583,-0.158302 0.075,-0.24995 0.008,-0.025 0.0167,-0.04999 0.0167,-0.07499 0.008,-0.04166 0.025,-0.07498 0.0333,-0.116642 v 0 c 0.075,-0.324938 0.11664,-0.666537 0.11664,-1.033133 v -20.75424 z"
       inkscape:connector-curvature="0"
       style="clip-rule:evenodd;fill:#e9bdac;fill-opacity:1;fill-rule:evenodd;stroke-width:0.08331697" /><rect
       style="clip-rule:evenodd;fill:#595a5c;fill-rule:evenodd;stroke-width:0.08331697"
       x="399.48807"
       y="78.831581"
       width="4.9157014"
       height="0.2332875"
       id="rect5937" /><rect
       style="clip-rule:evenodd;fill:#595a5c;fill-rule:evenodd;stroke-width:0.08331697"
       x="401.10443"
       y="79.74807"
       width="3.2993517"
       height="0.2332875"
       id="rect5939" /><rect
       style="clip-rule:evenodd;fill:#595a5c;fill-rule:evenodd;stroke-width:0.08331697"
       x="401.10443"
       y="80.664558"
       width="3.2993517"
       height="0.2332875"
       id="rect5941" /><rect
       style="clip-rule:evenodd;fill:#595a5c;fill-rule:evenodd;stroke-width:0.08331697"
       x="401.10443"
       y="81.581047"
       width="3.2993517"
       height="0.2332875"
       id="rect5943" /><rect
       style="clip-rule:evenodd;fill:#595a5c;fill-rule:evenodd;stroke-width:0.08331697"
       x="401.10443"
       y="82.497528"
       width="3.2993517"
       height="0.2332875"
       id="rect5945" /><rect
       style="clip-rule:evenodd;fill:#595a5c;fill-rule:evenodd;stroke-width:0.08331697"
       x="399.48807"
       y="83.414017"
       width="4.9157014"
       height="0.2332875"
       id="rect5947" /><rect
       style="clip-rule:evenodd;fill:#595a5c;fill-rule:evenodd;stroke-width:0.08331697"
       x="401.10443"
       y="84.330505"
       width="3.2993517"
       height="0.2332875"
       id="rect5949" /><rect
       style="clip-rule:evenodd;fill:#595a5c;fill-rule:evenodd;stroke-width:0.08331697"
       x="401.10443"
       y="85.246994"
       width="3.2993517"
       height="0.2332875"
       id="rect5951" /><rect
       style="clip-rule:evenodd;fill:#595a5c;fill-rule:evenodd;stroke-width:0.08331697"
       x="401.10443"
       y="86.163475"
       width="3.2993517"
       height="0.2332875"
       id="rect5953" /><rect
       style="clip-rule:evenodd;fill:#595a5c;fill-rule:evenodd;stroke-width:0.08331697"
       x="401.10443"
       y="87.079964"
       width="3.2993517"
       height="0.2332875"
       id="rect5955" /><rect
       style="clip-rule:evenodd;fill:#595a5c;fill-rule:evenodd;stroke-width:0.08331697"
       x="399.48807"
       y="88.004784"
       width="4.9157014"
       height="0.2332875"
       id="rect5957" /><rect
       style="clip-rule:evenodd;fill:#595a5c;fill-rule:evenodd;stroke-width:0.08331697"
       x="401.10443"
       y="88.921272"
       width="3.2993517"
       height="0.2332875"
       id="rect5959" /><rect
       style="clip-rule:evenodd;fill:#595a5c;fill-rule:evenodd;stroke-width:0.08331697"
       x="401.10443"
       y="89.837753"
       width="3.2993517"
       height="0.2332875"
       id="rect5961" /><rect
       style="clip-rule:evenodd;fill:#595a5c;fill-rule:evenodd;stroke-width:0.08331697"
       x="401.10443"
       y="90.754242"
       width="3.2993517"
       height="0.2332875"
       id="rect5963" /><rect
       style="clip-rule:evenodd;fill:#595a5c;fill-rule:evenodd;stroke-width:0.08331697"
       x="401.10443"
       y="91.670731"
       width="3.2993517"
       height="0.2332875"
       id="rect5965" /><rect
       style="clip-rule:evenodd;fill:#595a5c;fill-rule:evenodd;stroke-width:0.08331697"
       x="399.48807"
       y="92.587219"
       width="4.9157014"
       height="0.2332875"
       id="rect5967" /><rect
       style="clip-rule:evenodd;fill:#595a5c;fill-rule:evenodd;stroke-width:0.08331697"
       x="401.10443"
       y="93.503708"
       width="3.2993517"
       height="0.2332875"
       id="rect5969" /><rect
       style="clip-rule:evenodd;fill:#595a5c;fill-rule:evenodd;stroke-width:0.08331697"
       x="401.10443"
       y="94.420189"
       width="3.2993517"
       height="0.2332875"
       id="rect5971" /><rect
       style="clip-rule:evenodd;fill:#595a5c;fill-rule:evenodd;stroke-width:0.08331697"
       x="401.10443"
       y="95.336678"
       width="3.2993517"
       height="0.2332875"
       id="rect5973" /><rect
       style="clip-rule:evenodd;fill:#595a5c;fill-rule:evenodd;stroke-width:0.08331697"
       x="401.10443"
       y="96.253166"
       width="3.2993517"
       height="0.2332875"
       id="rect5975" /><path
       d="m 351.19932,100.38878 q 0,0.13973 -0.12703,0.13973 l -1.15599,0.11433 -0.55894,10.31499 q 0.10162,-0.0127 0.24136,-0.0381 0.15244,-0.0127 0.30487,-0.0381 0.16515,-0.0254 0.30488,-0.0508 0.15244,-0.0127 0.24136,-0.0127 0.0635,0 0.0889,0.0381 0.0381,0.0508 0.0381,0.11433 0,0.12703 -0.11433,0.12703 l -2.61685,0.35569 h -0.0254 q -0.0635,0 -0.10162,-0.0508 -0.0381,-0.0381 -0.0381,-0.10163 0,-0.11433 0.12703,-0.13973 l 0.94003,-0.11433 -0.0254,-9.05737 -2.27387,10.35309 q -0.0254,0.10163 -0.13974,0.10163 -0.10162,0 -0.12703,-0.10163 l -2.52793,-10.73419 0.0508,9.37495 1.07977,0.25407 q 0.10163,0.0254 0.10163,0.12703 0,0.13973 -0.13974,0.13973 -0.0254,0 -0.20325,-0.0381 -0.17784,-0.0381 -0.43191,-0.10162 -0.25406,-0.0508 -0.55894,-0.11433 -0.29217,-0.0635 -0.57164,-0.12703 -0.26677,-0.0635 -0.47002,-0.11433 -0.19055,-0.0508 -0.25406,-0.0635 -0.11433,-0.0254 -0.11433,-0.12703 0,-0.15244 0.13973,-0.15244 0.0254,0 0.19055,0.0381 0.16514,0.0381 0.35569,0.0762 0.19055,0.0508 0.36839,0.0889 0.17785,0.0381 0.22866,0.0508 l -0.0508,-10.23877 q -0.0508,0.0127 -0.21596,0.0508 -0.16514,0.0381 -0.35569,0.0889 -0.17784,0.0381 -0.34298,0.0762 -0.15244,0.0254 -0.17785,0.0254 -0.13973,0 -0.13973,-0.13973 0,-0.11433 0.11433,-0.13974 0.0762,-0.0254 0.4065,-0.10162 0.34298,-0.0762 0.71138,-0.15244 0.36839,-0.0889 0.67327,-0.15244 0.31758,-0.0762 0.35568,-0.0762 0.11433,0 0.13974,0.11433 l 2.12143,9.75604 2.08332,-9.45116 q 0.0254,-0.11433 0.12704,-0.11433 l 2.17224,-0.21596 h 0.0127 q 0.13974,0 0.13974,0.13974 z"
       style="font-size:12.70318413px;font-family:FontdinerdotcomSparkly;fill:#046939;stroke-width:0.08468789"
       id="path6128"
       inkscape:connector-curvature="0" /><path
       d="m 352.42478,106.8547 q 0,-0.12703 -0.0127,-0.31758 -0.0127,-0.19055 -0.0762,-0.35569 -0.0508,-0.17784 -0.15244,-0.30488 -0.10163,-0.12703 -0.29218,-0.12703 -0.17784,0 -0.31757,0.19055 -0.12704,0.17784 -0.22866,0.43191 -0.0889,0.24136 -0.15244,0.49542 -0.0508,0.24136 -0.0762,0.36839 l 1.29573,-0.10162 q 0.0127,-0.0635 0.0127,-0.13974 0,-0.0762 0,-0.13973 z m 0.88922,0.35569 q 0,0.12703 -0.13973,0.15244 l -2.09603,0.16514 q -0.0127,0.16514 -0.0254,0.33028 0,0.15244 0,0.33028 0,0.19055 0.0254,0.48272 0.0254,0.29218 0.10163,0.57165 0.0889,0.29217 0.25406,0.49542 0.16514,0.20325 0.43191,0.20325 0.20325,0 0.33028,-0.0635 0.12703,-0.0635 0.21596,-0.13974 0.0889,-0.0635 0.13973,-0.12703 0.0508,-0.0635 0.10163,-0.0635 0.13973,0 0.13973,0.13974 0,0.0381 -0.0127,0.0635 -0.0508,0.11433 -0.16514,0.20326 -0.10163,0.0889 -0.22866,0.13973 -0.12703,0.0635 -0.26677,0.0889 -0.13973,0.0381 -0.25406,0.0381 -0.4065,0 -0.69868,-0.22865 -0.27947,-0.22866 -0.47001,-0.57165 -0.17785,-0.34298 -0.26677,-0.73678 -0.0889,-0.3938 -0.0889,-0.72408 0,-0.34299 0.0762,-0.7749 0.0889,-0.43191 0.26676,-0.813 0.19055,-0.3811 0.48272,-0.64786 0.30488,-0.26677 0.72408,-0.26677 0.55895,0 0.87652,0.36839 0.31758,0.35569 0.45732,0.83841 0.0254,0.13974 0.0508,0.27947 0.0381,0.12703 0.0381,0.26677 z"
       style="font-size:12.70318413px;font-family:FontdinerdotcomSparkly;fill:#046939;stroke-width:0.08468789"
       id="path6130"
       inkscape:connector-curvature="0" /><path
       d="m 356.96597,106.93092 q -0.21596,-0.21596 -0.53354,-0.31758 -0.30487,-0.10163 -0.62245,-0.10163 -0.22866,0 -0.45732,0.0635 -0.22865,0.0508 -0.4192,0.16514 -0.17785,0.11433 -0.29217,0.30488 -0.10163,0.19054 -0.10163,0.45731 0,0.22866 0.0889,0.3811 0.10163,0.13973 0.25407,0.22865 0.16514,0.0762 0.35569,0.10163 0.19054,0.0254 0.38109,0.0254 0.34299,0 0.69868,-0.0889 0.35568,-0.0889 0.62245,-0.31758 0.0127,-0.21595 0.0127,-0.44461 0.0127,-0.22865 0.0127,-0.45731 z m 1.48627,1.35924 q 0,0.10162 -0.10162,0.13973 -0.0508,0.0127 -0.25407,0.0762 -0.20325,0.0635 -0.43191,0.13974 -0.22865,0.0635 -0.4192,0.12703 -0.19055,0.0508 -0.21596,0.0508 -0.0635,0 -0.10162,-0.0381 -0.0381,-0.0508 -0.0381,-0.11433 0,-0.11432 0.0127,-0.22865 0.0127,-0.12703 0.0127,-0.24136 -0.11433,0.0635 -0.29218,0.12703 -0.16514,0.0508 -0.35569,0.10162 -0.17784,0.0381 -0.35569,0.0635 -0.17784,0.0254 -0.31758,0.0254 -0.24136,0 -0.59705,-0.0381 -0.34298,-0.0508 -0.66056,-0.17785 -0.31758,-0.12703 -0.54624,-0.33028 -0.21595,-0.21596 -0.21595,-0.53353 0,-0.35569 0.22866,-0.58435 0.24136,-0.22866 0.57164,-0.36839 0.34298,-0.13974 0.71138,-0.19055 0.36839,-0.0635 0.63516,-0.0635 0.33028,0 0.64786,0.0762 0.31758,0.0635 0.60975,0.26677 0.0127,-0.24136 0.0127,-0.48272 0,-0.24136 0,-0.49543 0,-1.23221 -0.0127,-2.45171 -0.0127,-1.23221 -0.0381,-2.46442 h -0.76219 q -0.15244,0 -0.15244,-0.13973 0,-0.13974 0.15244,-0.13974 h 1.62601 q 0.13973,0 0.13973,0.15244 0,0.11433 -0.0127,0.24136 -0.0127,0.11433 -0.0254,0.21595 l -0.0762,0.87652 q -0.11432,1.38465 -0.15243,2.782 -0.0381,1.11788 -0.0381,2.27387 0,0.35569 0,0.69868 0,0.34298 0.0127,0.69867 0.0381,-0.0127 0.13974,-0.0381 0.10162,-0.0381 0.20325,-0.0635 0.11432,-0.0381 0.20325,-0.0635 0.0889,-0.0254 0.11433,-0.0254 0.13973,0 0.13973,0.13974 z"
       style="font-size:12.70318413px;font-family:FontdinerdotcomSparkly;fill:#046939;stroke-width:0.08468789"
       id="path6132"
       inkscape:connector-curvature="0" /><path
       d="m 359.39585,105.19058 -0.13974,1.25762 -0.13973,-1.25762 -0.74949,0.68597 0.69868,-0.77489 -0.66057,-0.12703 0.66057,-0.11433 -0.69868,-0.7749 0.74949,0.68598 0.13973,-1.25762 0.13974,1.25762 0.74949,-0.68598 -0.69868,0.7749 0.66057,0.11433 -0.66057,0.12703 0.69868,0.77489 z m 1.10518,3.87447 q 0,0.11433 -0.12704,0.13974 l -1.77844,0.16514 h -0.0127 q -0.13974,0 -0.13974,-0.13974 0,-0.13973 0.12703,-0.13973 l 0.59705,-0.0635 -0.16514,-2.0071 q -0.13973,0.0254 -0.29217,0.0508 -0.15244,0.0127 -0.29218,0.0127 -0.13973,0 -0.13973,-0.13974 0,-0.13973 0.12703,-0.13973 0.11433,-0.0127 0.29217,-0.0381 0.17785,-0.0254 0.35569,-0.0381 0.19055,-0.0254 0.35569,-0.0381 0.16514,-0.0254 0.26677,-0.0254 0.13973,0 0.13973,0.13974 l -0.0254,2.17224 q 0.13973,-0.0127 0.27947,-0.0254 0.15244,-0.0254 0.29217,-0.0254 0.13974,0 0.13974,0.13973 z"
       style="font-size:12.70318413px;font-family:FontdinerdotcomSparkly;fill:#046939;stroke-width:0.08468789"
       id="path6134"
       inkscape:connector-curvature="0" /><path
       d="m 363.78897,106.93092 q -0.21596,-0.21596 -0.53354,-0.31758 -0.30487,-0.10163 -0.62245,-0.10163 -0.22866,0 -0.45732,0.0635 -0.22865,0.0508 -0.4192,0.16514 -0.17785,0.11433 -0.29217,0.30488 -0.10163,0.19054 -0.10163,0.45731 0,0.22866 0.0889,0.3811 0.10163,0.13973 0.25407,0.22865 0.16514,0.0762 0.35569,0.10163 0.19054,0.0254 0.38109,0.0254 0.34299,0 0.69868,-0.0889 0.35568,-0.0889 0.62245,-0.31758 0.0127,-0.21595 0.0127,-0.44461 0.0127,-0.22865 0.0127,-0.45731 z m 1.48627,1.35924 q 0,0.10162 -0.10162,0.13973 -0.0508,0.0127 -0.25407,0.0762 -0.20325,0.0635 -0.43191,0.13974 -0.22865,0.0635 -0.4192,0.12703 -0.19055,0.0508 -0.21596,0.0508 -0.0635,0 -0.10162,-0.0381 -0.0381,-0.0508 -0.0381,-0.11433 0,-0.11432 0.0127,-0.22865 0.0127,-0.12703 0.0127,-0.24136 -0.11433,0.0635 -0.29218,0.12703 -0.16514,0.0508 -0.35569,0.10162 -0.17784,0.0381 -0.35569,0.0635 -0.17784,0.0254 -0.31758,0.0254 -0.24136,0 -0.59705,-0.0381 -0.34298,-0.0508 -0.66056,-0.17785 -0.31758,-0.12703 -0.54624,-0.33028 -0.21595,-0.21596 -0.21595,-0.53353 0,-0.35569 0.22866,-0.58435 0.24136,-0.22866 0.57164,-0.36839 0.34298,-0.13974 0.71138,-0.19055 0.36839,-0.0635 0.63516,-0.0635 0.33028,0 0.64786,0.0762 0.31758,0.0635 0.60975,0.26677 0.0127,-0.24136 0.0127,-0.48272 0,-0.24136 0,-0.49543 0,-1.23221 -0.0127,-2.45171 -0.0127,-1.23221 -0.0381,-2.46442 h -0.76219 q -0.15244,0 -0.15244,-0.13973 0,-0.13974 0.15244,-0.13974 h 1.62601 q 0.13973,0 0.13973,0.15244 0,0.11433 -0.0127,0.24136 -0.0127,0.11433 -0.0254,0.21595 l -0.0762,0.87652 q -0.11432,1.38465 -0.15243,2.782 -0.0381,1.11788 -0.0381,2.27387 0,0.35569 0,0.69868 0,0.34298 0.0127,0.69867 0.0381,-0.0127 0.13974,-0.0381 0.10162,-0.0381 0.20325,-0.0635 0.11432,-0.0381 0.20325,-0.0635 0.0889,-0.0254 0.11433,-0.0254 0.13973,0 0.13973,0.13974 z"
       style="font-size:12.70318413px;font-family:FontdinerdotcomSparkly;fill:#046939;stroke-width:0.08468789"
       id="path6136"
       inkscape:connector-curvature="0" /><path
       d="m 367.90539,103.14537 -0.13973,1.25761 -0.13974,-1.25761 -0.74948,0.67327 0.69867,-0.76219 -0.66056,-0.12703 0.66056,-0.12704 -0.69867,-0.76219 0.74948,0.68597 0.13974,-1.27031 0.13973,1.27031 0.74949,-0.68597 -0.69867,0.76219 0.66056,0.12704 -0.66056,0.12703 0.69867,0.76219 z m 0.0254,4.99235 q -0.17784,-0.0508 -0.36839,-0.0635 -0.17785,-0.0254 -0.35569,-0.0254 -0.13974,0 -0.34299,0.0381 -0.20325,0.0254 -0.3938,0.10162 -0.17784,0.0762 -0.31758,0.20325 -0.12703,0.11433 -0.12703,0.30488 0,0.15244 0.0762,0.25406 0.0889,0.0889 0.21596,0.15244 0.12703,0.0508 0.26676,0.0762 0.13974,0.0127 0.26677,0.0127 0.27947,0 0.55894,-0.0635 0.29217,-0.0762 0.50813,-0.26677 z m 1.25762,1.1814 q 0,0.13973 -0.12704,0.15243 l -1.00355,0.12704 q -0.0762,0.0127 -0.11433,-0.0381 -0.0381,-0.0381 -0.0508,-0.10163 0,-0.0635 0,-0.13973 0.0127,-0.0635 0.0127,-0.10163 -0.20325,0.11433 -0.53353,0.19055 -0.31758,0.0762 -0.53353,0.0762 -0.20325,0 -0.49543,-0.0254 -0.27947,-0.0254 -0.54623,-0.12703 -0.25407,-0.0889 -0.43191,-0.25406 -0.17785,-0.17785 -0.17785,-0.47002 0,-0.31758 0.24136,-0.48272 0.24136,-0.17785 0.57165,-0.25407 0.33028,-0.0762 0.67327,-0.0889 0.35568,-0.0127 0.57164,-0.0127 0.15244,0 0.34298,0.0254 0.19055,0.0127 0.34299,0.0508 v -0.21596 q 0,-0.27947 -0.0508,-0.54623 -0.0381,-0.27947 -0.16514,-0.49543 -0.11433,-0.21595 -0.33029,-0.34298 -0.21595,-0.13974 -0.54623,-0.13974 -0.12704,0 -0.27947,0.0254 -0.13974,0.0254 -0.26677,0.0889 -0.12703,0.0635 -0.21595,0.17784 -0.0762,0.10163 -0.0762,0.26677 0,0.21596 0.10162,0.29217 0.10163,0.0762 0.21596,0.10163 0.12703,0.0254 0.22865,0.0508 0.10163,0.0127 0.10163,0.11433 0,0.0635 -0.0508,0.10163 -0.0381,0.0381 -0.0889,0.0381 -0.15243,0 -0.33028,-0.0381 -0.17784,-0.0508 -0.33028,-0.13974 -0.13974,-0.0889 -0.24136,-0.21595 -0.0889,-0.13974 -0.0889,-0.31758 0,-0.24136 0.11432,-0.3938 0.12704,-0.16514 0.31758,-0.25406 0.19055,-0.10163 0.40651,-0.13974 0.21595,-0.0381 0.4065,-0.0381 0.52083,0 0.87652,0.16514 0.36839,0.16514 0.58434,0.47002 0.22866,0.29217 0.31758,0.71138 0.10163,0.4065 0.10163,0.88922 0,0.29217 -0.0254,0.59705 -0.0254,0.30488 -0.0508,0.59705 l 0.47002,-0.0635 q 0.0508,0 0.10162,0.0254 0.0508,0.0381 0.0508,0.10163 z"
       style="font-size:12.70318413px;font-family:FontdinerdotcomSparkly;fill:#046939;stroke-width:0.08468789"
       id="path6138"
       inkscape:connector-curvature="0" /><path
       d="m 370.24119,102.90401 -0.13973,1.25761 -0.13974,-1.25761 -0.74949,0.68597 0.69868,-0.77489 -0.66057,-0.12704 0.66057,-0.11432 -0.69868,-0.7749 0.74949,0.68597 0.13974,-1.25761 0.13973,1.25761 0.74949,-0.68597 -0.69868,0.7749 0.66057,0.11432 -0.66057,0.12704 0.69868,0.77489 z m 1.84196,5.32263 q 0,0.25407 -0.12703,0.44461 -0.12703,0.19055 -0.31758,0.31758 -0.19055,0.12704 -0.43191,0.19055 -0.22865,0.0635 -0.45731,0.0635 -0.16514,0 -0.4065,-0.0381 -0.24136,-0.0381 -0.47002,-0.12703 -0.21595,-0.0889 -0.3811,-0.22866 -0.15243,-0.15244 -0.15243,-0.3811 0,-0.21595 0.13973,-0.34298 0.15244,-0.13974 0.36839,-0.13974 0.16514,0 0.34299,0.12703 0.17784,0.11433 0.17784,0.30488 0,0.13974 -0.13973,0.13974 -0.0762,0 -0.10163,-0.0381 -0.0254,-0.0508 -0.0508,-0.10163 -0.0254,-0.0635 -0.0762,-0.10162 -0.0381,-0.0508 -0.15244,-0.0508 -0.16514,0 -0.16514,0.20325 0,0.13974 0.12703,0.24136 0.12704,0.0889 0.30488,0.15244 0.17784,0.0508 0.35569,0.0762 0.17784,0.0127 0.27947,0.0127 0.11433,0 0.24136,-0.0127 0.12703,-0.0254 0.24136,-0.0762 0.11433,-0.0635 0.17784,-0.15244 0.0762,-0.10162 0.0762,-0.24136 0,-0.15243 -0.17784,-0.25406 -0.17785,-0.10163 -0.44461,-0.19055 -0.25407,-0.0889 -0.55894,-0.19055 -0.30488,-0.11432 -0.57165,-0.26676 -0.25406,-0.16514 -0.4319,-0.4065 -0.17785,-0.24137 -0.17785,-0.60976 0,-0.29217 0.11433,-0.53353 0.11433,-0.25406 0.30488,-0.43191 0.20325,-0.19055 0.45731,-0.29217 0.25406,-0.11433 0.53354,-0.12703 0.10162,0 0.21595,0.0127 0.11433,0 0.21595,0 0.25407,0 0.45732,-0.0508 0.20325,-0.0635 0.30487,-0.33029 0.0254,-0.10162 0.12704,-0.10162 0.0635,0 0.10162,0.0381 0.0508,0.0381 0.0508,0.10162 l -0.12703,1.5752 -0.0381,0.55894 q 0,0.0635 -0.0508,0.10162 -0.0381,0.0254 -0.10163,0.0254 -0.0635,0 -0.10162,-0.0381 -0.0254,-0.0508 -0.0254,-0.11433 0.0127,-0.16514 0.0254,-0.31758 0.0254,-0.16514 0.0254,-0.33028 0,-0.44461 -0.27947,-0.64786 -0.27947,-0.20325 -0.69868,-0.20325 -0.35569,0 -0.60975,0.17784 -0.25407,0.17784 -0.25407,0.57164 0,0.27947 0.16515,0.47002 0.17784,0.19055 0.4319,0.34299 0.25407,0.13973 0.55894,0.26676 0.30488,0.11433 0.55894,0.25407 0.25407,0.12703 0.41921,0.29217 0.17784,0.16514 0.17784,0.4065 z"
       style="font-size:12.70318413px;font-family:FontdinerdotcomSparkly;fill:#046939;stroke-width:0.08468789"
       id="path6140"
       inkscape:connector-curvature="0" /><path
       d="m 378.82438,106.93092 q -0.21596,-0.21596 -0.53354,-0.31758 -0.30487,-0.10163 -0.62245,-0.10163 -0.22866,0 -0.45732,0.0635 -0.22866,0.0508 -0.4192,0.16514 -0.17785,0.11433 -0.29218,0.30488 -0.10162,0.19054 -0.10162,0.45731 0,0.22866 0.0889,0.3811 0.10163,0.13973 0.25406,0.22865 0.16515,0.0762 0.35569,0.10163 0.19055,0.0254 0.3811,0.0254 0.34298,0 0.69867,-0.0889 0.35569,-0.0889 0.62246,-0.31758 0.0127,-0.21595 0.0127,-0.44461 0.0127,-0.22865 0.0127,-0.45731 z m 1.48627,1.35924 q 0,0.10162 -0.10163,0.13973 -0.0508,0.0127 -0.25406,0.0762 -0.20325,0.0635 -0.43191,0.13974 -0.22866,0.0635 -0.4192,0.12703 -0.19055,0.0508 -0.21596,0.0508 -0.0635,0 -0.10162,-0.0381 -0.0381,-0.0508 -0.0381,-0.11433 0,-0.11432 0.0127,-0.22865 0.0127,-0.12703 0.0127,-0.24136 -0.11433,0.0635 -0.29217,0.12703 -0.16514,0.0508 -0.35569,0.10162 -0.17784,0.0381 -0.35569,0.0635 -0.17784,0.0254 -0.31758,0.0254 -0.24136,0 -0.59705,-0.0381 -0.34298,-0.0508 -0.66056,-0.17785 -0.31758,-0.12703 -0.54624,-0.33028 -0.21595,-0.21596 -0.21595,-0.53353 0,-0.35569 0.22865,-0.58435 0.24136,-0.22866 0.57165,-0.36839 0.34298,-0.13974 0.71137,-0.19055 0.3684,-0.0635 0.63516,-0.0635 0.33029,0 0.64787,0.0762 0.31758,0.0635 0.60975,0.26677 0.0127,-0.24136 0.0127,-0.48272 0,-0.24136 0,-0.49543 0,-1.23221 -0.0127,-2.45171 -0.0127,-1.23221 -0.0381,-2.46442 h -0.76219 q -0.15244,0 -0.15244,-0.13973 0,-0.13974 0.15244,-0.13974 h 1.62601 q 0.13973,0 0.13973,0.15244 0,0.11433 -0.0127,0.24136 -0.0127,0.11433 -0.0254,0.21595 l -0.0762,0.87652 q -0.11433,1.38465 -0.15244,2.782 -0.0381,1.11788 -0.0381,2.27387 0,0.35569 0,0.69868 0,0.34298 0.0127,0.69867 0.0381,-0.0127 0.13973,-0.0381 0.10163,-0.0381 0.20325,-0.0635 0.11433,-0.0381 0.20326,-0.0635 0.0889,-0.0254 0.11432,-0.0254 0.13974,0 0.13974,0.13974 z"
       style="font-size:12.70318413px;font-family:FontdinerdotcomSparkly;fill:#046939;stroke-width:0.08468789"
       id="path6142"
       inkscape:connector-curvature="0" /><path
       d="m 382.47079,106.8547 q 0,-0.12703 -0.0127,-0.31758 -0.0127,-0.19055 -0.0762,-0.35569 -0.0508,-0.17784 -0.15243,-0.30488 -0.10163,-0.12703 -0.29218,-0.12703 -0.17784,0 -0.31758,0.19055 -0.12703,0.17784 -0.22865,0.43191 -0.0889,0.24136 -0.15244,0.49542 -0.0508,0.24136 -0.0762,0.36839 l 1.29572,-0.10162 q 0.0127,-0.0635 0.0127,-0.13974 0,-0.0762 0,-0.13973 z m 0.88922,0.35569 q 0,0.12703 -0.13974,0.15244 l -2.09602,0.16514 q -0.0127,0.16514 -0.0254,0.33028 0,0.15244 0,0.33028 0,0.19055 0.0254,0.48272 0.0254,0.29218 0.10162,0.57165 0.0889,0.29217 0.25407,0.49542 0.16514,0.20325 0.43191,0.20325 0.20325,0 0.33028,-0.0635 0.12703,-0.0635 0.21595,-0.13974 0.0889,-0.0635 0.13974,-0.12703 0.0508,-0.0635 0.10162,-0.0635 0.13974,0 0.13974,0.13974 0,0.0381 -0.0127,0.0635 -0.0508,0.11433 -0.16515,0.20326 -0.10162,0.0889 -0.22865,0.13973 -0.12704,0.0635 -0.26677,0.0889 -0.13974,0.0381 -0.25406,0.0381 -0.40651,0 -0.69868,-0.22865 -0.27947,-0.22866 -0.47002,-0.57165 -0.17784,-0.34298 -0.26676,-0.73678 -0.0889,-0.3938 -0.0889,-0.72408 0,-0.34299 0.0762,-0.7749 0.0889,-0.43191 0.26677,-0.813 0.19055,-0.3811 0.48272,-0.64786 0.30488,-0.26677 0.72408,-0.26677 0.55894,0 0.87652,0.36839 0.31758,0.35569 0.45732,0.83841 0.0254,0.13974 0.0508,0.27947 0.0381,0.12703 0.0381,0.26677 z"
       style="font-size:12.70318413px;font-family:FontdinerdotcomSparkly;fill:#046939;stroke-width:0.08468789"
       id="path6144"
       inkscape:connector-curvature="0" /><path
       d="m 392.08769,100.17282 -0.50812,2.7566 q -0.0127,0.11432 -0.13974,0.11432 -0.13973,0 -0.13973,-0.13973 0,-0.0635 0.0254,-0.24136 0.0381,-0.19055 0.0762,-0.4065 0.0508,-0.22866 0.0889,-0.43191 0.0508,-0.20325 0.0635,-0.29218 -0.21595,-0.16514 -0.43191,-0.26676 -0.20325,-0.10163 -0.48272,-0.10163 -0.71138,0 -1.21951,0.3938 -0.50812,0.3811 -0.86381,0.95274 -0.35569,0.57164 -0.57165,1.24491 -0.20325,0.67327 -0.30487,1.24491 -0.12703,0.68598 -0.17785,1.37195 -0.0508,0.67327 -0.0508,1.35924 0,0.48272 0.0381,1.10518 0.0381,0.60975 0.16514,1.2195 0.12703,0.62246 0.36839,1.16869 0.24136,0.55894 0.63516,0.91463 0.17785,0.16514 0.3938,0.26677 0.21596,0.11433 0.47002,0.11433 h 0.0889 q 0.19055,0.0127 0.36839,-0.0381 0.19055,-0.0381 0.3684,-0.11433 -0.0127,-0.0381 -0.0762,-0.19055 -0.0635,-0.15244 -0.12703,-0.31758 -0.0635,-0.16514 -0.12704,-0.30487 -0.0508,-0.13974 -0.0508,-0.16514 0,-0.13974 0.13974,-0.13974 0.0889,0 0.12703,0.0889 0.0254,0.0508 0.0889,0.21596 0.0762,0.16514 0.16514,0.3938 0.0889,0.22865 0.19055,0.47001 0.11433,0.25407 0.20325,0.47002 0.0889,0.21596 0.13974,0.36839 0.0635,0.15244 0.0635,0.16515 0,0.0635 -0.0508,0.10162 -0.0381,0.0381 -0.10163,0.0381 -0.0762,0 -0.12703,-0.0889 l -0.34298,-0.85112 q -0.41921,0.19055 -0.85112,0.19055 h -0.10162 q -0.64787,-0.0381 -1.11788,-0.34298 -0.47002,-0.29218 -0.8003,-0.76219 -0.33029,-0.47002 -0.54624,-1.05437 -0.20325,-0.58435 -0.31758,-1.2068 -0.11433,-0.60975 -0.16514,-1.2068 -0.0381,-0.59705 -0.0381,-1.07977 0,-0.62246 0.0381,-1.29573 0.0508,-0.68597 0.16514,-1.35924 0.11433,-0.67327 0.30488,-1.30843 0.19054,-0.64786 0.48272,-1.2068 0.17784,-0.34299 0.4192,-0.66057 0.24136,-0.31758 0.54624,-0.55894 0.30488,-0.25406 0.66056,-0.3938 0.35569,-0.15243 0.7749,-0.15243 0.53353,0 0.96544,0.24136 0.44461,0.22865 0.73679,0.66056 l 0.19054,-1.00355 q 0.0254,-0.11433 0.13974,-0.11433 0.13973,0 0.13973,0.13974 z"
       style="font-size:12.70318413px;font-family:FontdinerdotcomSparkly;fill:#046939;stroke-width:0.08468789"
       id="path6146"
       inkscape:connector-curvature="0" /><path
       d="m 392.41857,103.14537 -0.13973,1.25761 -0.13974,-1.25761 -0.74949,0.67327 0.69868,-0.76219 -0.66057,-0.12703 0.66057,-0.12704 -0.69868,-0.76219 0.74949,0.68597 0.13974,-1.27031 0.13973,1.27031 0.74949,-0.68597 -0.69868,0.76219 0.66057,0.12704 -0.66057,0.12703 0.69868,0.76219 z m 0.0254,4.99235 q -0.17785,-0.0508 -0.36839,-0.0635 -0.17785,-0.0254 -0.35569,-0.0254 -0.13974,0 -0.34299,0.0381 -0.20325,0.0254 -0.3938,0.10162 -0.17784,0.0762 -0.31758,0.20325 -0.12703,0.11433 -0.12703,0.30488 0,0.15244 0.0762,0.25406 0.0889,0.0889 0.21595,0.15244 0.12704,0.0508 0.26677,0.0762 0.13974,0.0127 0.26677,0.0127 0.27947,0 0.55894,-0.0635 0.29217,-0.0762 0.50813,-0.26677 z m 1.25761,1.1814 q 0,0.13973 -0.12703,0.15243 l -1.00355,0.12704 q -0.0762,0.0127 -0.11433,-0.0381 -0.0381,-0.0381 -0.0508,-0.10163 0,-0.0635 0,-0.13973 0.0127,-0.0635 0.0127,-0.10163 -0.20325,0.11433 -0.53353,0.19055 -0.31758,0.0762 -0.53354,0.0762 -0.20325,0 -0.49542,-0.0254 -0.27947,-0.0254 -0.54624,-0.12703 -0.25406,-0.0889 -0.4319,-0.25406 -0.17785,-0.17785 -0.17785,-0.47002 0,-0.31758 0.24136,-0.48272 0.24136,-0.17785 0.57164,-0.25407 0.33029,-0.0762 0.67327,-0.0889 0.35569,-0.0127 0.57165,-0.0127 0.15243,0 0.34298,0.0254 0.19055,0.0127 0.34299,0.0508 v -0.21596 q 0,-0.27947 -0.0508,-0.54623 -0.0381,-0.27947 -0.16515,-0.49543 -0.11432,-0.21595 -0.33028,-0.34298 -0.21595,-0.13974 -0.54624,-0.13974 -0.12703,0 -0.27947,0.0254 -0.13973,0.0254 -0.26676,0.0889 -0.12703,0.0635 -0.21596,0.17784 -0.0762,0.10163 -0.0762,0.26677 0,0.21596 0.10163,0.29217 0.10163,0.0762 0.21595,0.10163 0.12704,0.0254 0.22866,0.0508 0.10163,0.0127 0.10163,0.11433 0,0.0635 -0.0508,0.10163 -0.0381,0.0381 -0.0889,0.0381 -0.15244,0 -0.33028,-0.0381 -0.17785,-0.0508 -0.33028,-0.13974 -0.13974,-0.0889 -0.24136,-0.21595 -0.0889,-0.13974 -0.0889,-0.31758 0,-0.24136 0.11433,-0.3938 0.12703,-0.16514 0.31758,-0.25406 0.19055,-0.10163 0.4065,-0.13974 0.21596,-0.0381 0.40651,-0.0381 0.52083,0 0.87652,0.16514 0.36839,0.16514 0.58434,0.47002 0.22866,0.29217 0.31758,0.71138 0.10163,0.4065 0.10163,0.88922 0,0.29217 -0.0254,0.59705 -0.0254,0.30488 -0.0508,0.59705 l 0.47002,-0.0635 q 0.0508,0 0.10162,0.0254 0.0508,0.0381 0.0508,0.10163 z"
       style="font-size:12.70318413px;font-family:FontdinerdotcomSparkly;fill:#046939;stroke-width:0.08468789"
       id="path6148"
       inkscape:connector-curvature="0" /><path
       d="m 397.32716,106.10521 q 0,-0.22866 -0.10163,-0.36839 -0.0889,-0.15244 -0.25406,-0.22866 -0.15244,-0.0762 -0.35569,-0.10162 -0.19055,-0.0254 -0.3811,-0.0254 -0.34298,0 -0.69867,0.0889 -0.34299,0.0762 -0.60975,0.30488 -0.0127,0.21595 -0.0254,0.44461 0,0.22866 -0.0127,0.45731 0.22865,0.22866 0.53353,0.33029 0.31758,0.0889 0.63516,0.0889 0.22866,0 0.45731,-0.0508 0.22866,-0.0635 0.40651,-0.17785 0.19054,-0.11433 0.29217,-0.30487 0.11433,-0.19055 0.11433,-0.45732 z m 0.96544,0.0762 q 0,0.34299 -0.24136,0.58435 -0.22866,0.22865 -0.57164,0.36839 -0.33029,0.12703 -0.69868,0.19055 -0.36839,0.0508 -0.63516,0.0508 -0.34298,0 -0.66056,-0.0635 -0.31758,-0.0762 -0.59705,-0.27947 -0.0127,0.25407 -0.0127,0.49543 0,0.22865 0,0.48272 0,1.24491 0.0254,2.46442 0.0254,1.23221 0.0254,2.47712 0,0.16514 -0.16514,0.13973 l -1.5625,-0.15244 q -0.0635,0 -0.0889,-0.0508 -0.0381,-0.0381 -0.0381,-0.10162 0,-0.0635 0.0508,-0.10163 0.0508,-0.0254 0.10163,-0.0254 l 0.77489,0.0762 q 0.13974,-1.52438 0.20326,-3.03606 0.0762,-1.49897 0.0762,-3.03606 0,-0.35569 -0.0127,-0.69867 0,-0.35569 -0.0127,-0.71138 -0.0381,0.0127 -0.13974,0.0508 -0.10162,0.0254 -0.21595,0.0635 -0.11433,0.0381 -0.21596,0.0635 -0.10162,0.0254 -0.12703,0.0254 -0.13973,0 -0.13973,-0.13974 0,-0.10162 0.10162,-0.13973 0.0508,-0.0127 0.25407,-0.0762 0.20325,-0.0635 0.43191,-0.12703 0.22865,-0.0762 0.4192,-0.12703 0.19055,-0.0635 0.21595,-0.0635 0.0635,0 0.10163,0.0508 0.0381,0.0381 0.0381,0.10163 0,0.12703 -0.0127,0.24136 -0.0127,0.11433 -0.0254,0.24136 0.11433,-0.0762 0.27947,-0.12703 0.17784,-0.0635 0.35569,-0.10163 0.19055,-0.0508 0.36839,-0.0762 0.19055,-0.0254 0.31758,-0.0254 0.24136,0 0.58435,0.0508 0.35569,0.0381 0.67327,0.16514 0.31758,0.12703 0.54623,0.34299 0.22866,0.20325 0.22866,0.53353 z"
       style="font-size:12.70318413px;font-family:FontdinerdotcomSparkly;fill:#046939;stroke-width:0.08468789"
       id="path6150"
       inkscape:connector-curvature="0" /><path
       d="m 401.17682,103.14537 -0.13974,1.25761 -0.13973,-1.25761 -0.74949,0.67327 0.69868,-0.76219 -0.66057,-0.12703 0.66057,-0.12704 -0.69868,-0.76219 0.74949,0.68597 0.13973,-1.27031 0.13974,1.27031 0.74949,-0.68597 -0.69868,0.76219 0.66057,0.12704 -0.66057,0.12703 0.69868,0.76219 z m 0.0254,4.99235 q -0.17785,-0.0508 -0.3684,-0.0635 -0.17784,-0.0254 -0.35569,-0.0254 -0.13973,0 -0.34298,0.0381 -0.20325,0.0254 -0.3938,0.10162 -0.17784,0.0762 -0.31758,0.20325 -0.12703,0.11433 -0.12703,0.30488 0,0.15244 0.0762,0.25406 0.0889,0.0889 0.21595,0.15244 0.12703,0.0508 0.26677,0.0762 0.13973,0.0127 0.26677,0.0127 0.27947,0 0.55894,-0.0635 0.29217,-0.0762 0.50812,-0.26677 z m 1.25761,1.1814 q 0,0.13973 -0.12703,0.15243 l -1.00355,0.12704 q -0.0762,0.0127 -0.11433,-0.0381 -0.0381,-0.0381 -0.0508,-0.10163 0,-0.0635 0,-0.13973 0.0127,-0.0635 0.0127,-0.10163 -0.20325,0.11433 -0.53353,0.19055 -0.31758,0.0762 -0.53354,0.0762 -0.20325,0 -0.49542,-0.0254 -0.27947,-0.0254 -0.54624,-0.12703 -0.25406,-0.0889 -0.43191,-0.25406 -0.17784,-0.17785 -0.17784,-0.47002 0,-0.31758 0.24136,-0.48272 0.24136,-0.17785 0.57164,-0.25407 0.33028,-0.0762 0.67327,-0.0889 0.35569,-0.0127 0.57164,-0.0127 0.15244,0 0.34299,0.0254 0.19055,0.0127 0.34299,0.0508 v -0.21596 q 0,-0.27947 -0.0508,-0.54623 -0.0381,-0.27947 -0.16514,-0.49543 -0.11433,-0.21595 -0.33028,-0.34298 -0.21596,-0.13974 -0.54624,-0.13974 -0.12703,0 -0.27947,0.0254 -0.13973,0.0254 -0.26676,0.0889 -0.12704,0.0635 -0.21596,0.17784 -0.0762,0.10163 -0.0762,0.26677 0,0.21596 0.10163,0.29217 0.10162,0.0762 0.21595,0.10163 0.12703,0.0254 0.22866,0.0508 0.10162,0.0127 0.10162,0.11433 0,0.0635 -0.0508,0.10163 -0.0381,0.0381 -0.0889,0.0381 -0.15244,0 -0.33028,-0.0381 -0.17785,-0.0508 -0.33029,-0.13974 -0.13973,-0.0889 -0.24136,-0.21595 -0.0889,-0.13974 -0.0889,-0.31758 0,-0.24136 0.11433,-0.3938 0.12703,-0.16514 0.31758,-0.25406 0.19055,-0.10163 0.4065,-0.13974 0.21596,-0.0381 0.4065,-0.0381 0.52083,0 0.87652,0.16514 0.36839,0.16514 0.58435,0.47002 0.22866,0.29217 0.31758,0.71138 0.10162,0.4065 0.10162,0.88922 0,0.29217 -0.0254,0.59705 -0.0254,0.30488 -0.0508,0.59705 l 0.47001,-0.0635 q 0.0508,0 0.10163,0.0254 0.0508,0.0381 0.0508,0.10163 z"
       style="font-size:12.70318413px;font-family:FontdinerdotcomSparkly;fill:#046939;stroke-width:0.08468789"
       id="path6152"
       inkscape:connector-curvature="0" /><path
       d="m 404.04317,103.52646 -0.13973,1.25762 -0.13974,-1.25762 -0.74948,0.67327 0.69867,-0.76219 -0.66056,-0.12703 0.66056,-0.12703 -0.69867,-0.76219 0.74948,0.68597 0.13974,-1.27032 0.13973,1.27032 0.74949,-0.68597 -0.69867,0.76219 0.66056,0.12703 -0.66056,0.12703 0.69867,0.76219 z m 1.71493,2.03251 q 0,0.0127 -0.0254,0.0635 l -0.31758,0.68597 q -0.0508,0.0762 -0.12703,0.0762 -0.0254,0 -0.0762,-0.0254 -0.13974,-0.0508 -0.27947,-0.0762 -0.12703,-0.0254 -0.29218,-0.0254 -0.27947,0 -0.54623,0.12703 -0.25407,0.11433 -0.45732,0.31758 -0.20325,0.19055 -0.33028,0.45732 -0.12703,0.25406 -0.12703,0.53353 0,0.60975 0.38109,1.00355 0.3938,0.3811 1.01626,0.3811 0.16514,0 0.29217,-0.0508 0.13974,-0.0635 0.24136,-0.13973 0.10163,-0.0762 0.16514,-0.12703 0.0762,-0.0635 0.11433,-0.0635 0.13974,0 0.13974,0.13974 0,0.0508 -0.0381,0.0889 -0.0762,0.11433 -0.22866,0.21595 -0.13973,0.0889 -0.31758,0.15244 -0.16514,0.0762 -0.33028,0.10163 -0.16514,0.0381 -0.30488,0.0381 -0.34298,0 -0.68597,-0.13974 -0.33028,-0.12703 -0.59705,-0.35569 -0.25406,-0.24136 -0.4192,-0.54624 -0.16515,-0.31758 -0.16515,-0.67326 0,-0.43191 0.19055,-0.74949 0.20325,-0.33029 0.52083,-0.54624 0.31758,-0.22866 0.71138,-0.33028 0.3938,-0.11433 0.77489,-0.11433 0.13974,0 0.27947,0.0127 0.13974,0.0127 0.27947,0.0635 l 0.17785,-0.54624 q 0.0254,-0.0762 0.0889,-0.0762 0.0762,-0.0127 0.13974,-0.0127 0.0635,0 0.10162,0.0381 0.0508,0.0381 0.0508,0.10162 z"
       style="font-size:12.70318413px;font-family:FontdinerdotcomSparkly;fill:#046939;stroke-width:0.08468789"
       id="path6154"
       inkscape:connector-curvature="0" /><path
       d="m 406.8343,105.19058 -0.13973,1.25762 -0.13974,-1.25762 -0.74949,0.68597 0.69868,-0.77489 -0.66057,-0.12703 0.66057,-0.11433 -0.69868,-0.7749 0.74949,0.68598 0.13974,-1.25762 0.13973,1.25762 0.74949,-0.68598 -0.69867,0.7749 0.66056,0.11433 -0.66056,0.12703 0.69867,0.77489 z m 1.10518,3.87447 q 0,0.11433 -0.12703,0.13974 l -1.77845,0.16514 h -0.0127 q -0.13974,0 -0.13974,-0.13974 0,-0.13973 0.12704,-0.13973 l 0.59705,-0.0635 -0.16515,-2.0071 q -0.13973,0.0254 -0.29217,0.0508 -0.15244,0.0127 -0.29217,0.0127 -0.13974,0 -0.13974,-0.13974 0,-0.13973 0.12703,-0.13973 0.11433,-0.0127 0.29218,-0.0381 0.17784,-0.0254 0.35569,-0.0381 0.19054,-0.0254 0.35569,-0.0381 0.16514,-0.0254 0.26676,-0.0254 0.13974,0 0.13974,0.13974 l -0.0254,2.17224 q 0.13974,-0.0127 0.27947,-0.0254 0.15244,-0.0254 0.29217,-0.0254 0.13974,0 0.13974,0.13973 z"
       style="font-size:12.70318413px;font-family:FontdinerdotcomSparkly;fill:#046939;stroke-width:0.08468789"
       id="path6156"
       inkscape:connector-curvature="0" /><path
       d="m 411.22742,106.93092 q -0.21595,-0.21596 -0.53353,-0.31758 -0.30488,-0.10163 -0.62246,-0.10163 -0.22866,0 -0.45731,0.0635 -0.22866,0.0508 -0.41921,0.16514 -0.17784,0.11433 -0.29217,0.30488 -0.10163,0.19054 -0.10163,0.45731 0,0.22866 0.0889,0.3811 0.10162,0.13973 0.25406,0.22865 0.16514,0.0762 0.35569,0.10163 0.19055,0.0254 0.38109,0.0254 0.34299,0 0.69868,-0.0889 0.35569,-0.0889 0.62246,-0.31758 0.0127,-0.21595 0.0127,-0.44461 0.0127,-0.22865 0.0127,-0.45731 z m 1.48627,1.35924 q 0,0.10162 -0.10162,0.13973 -0.0508,0.0127 -0.25406,0.0762 -0.20326,0.0635 -0.43191,0.13974 -0.22866,0.0635 -0.41921,0.12703 -0.19055,0.0508 -0.21595,0.0508 -0.0635,0 -0.10163,-0.0381 -0.0381,-0.0508 -0.0381,-0.11433 0,-0.11432 0.0127,-0.22865 0.0127,-0.12703 0.0127,-0.24136 -0.11433,0.0635 -0.29217,0.12703 -0.16515,0.0508 -0.35569,0.10162 -0.17785,0.0381 -0.35569,0.0635 -0.17785,0.0254 -0.31758,0.0254 -0.24136,0 -0.59705,-0.0381 -0.34299,-0.0508 -0.66057,-0.17785 -0.31758,-0.12703 -0.54623,-0.33028 -0.21596,-0.21596 -0.21596,-0.53353 0,-0.35569 0.22866,-0.58435 0.24136,-0.22866 0.57164,-0.36839 0.34299,-0.13974 0.71138,-0.19055 0.36839,-0.0635 0.63516,-0.0635 0.33028,0 0.64786,0.0762 0.31758,0.0635 0.60976,0.26677 0.0127,-0.24136 0.0127,-0.48272 0,-0.24136 0,-0.49543 0,-1.23221 -0.0127,-2.45171 -0.0127,-1.23221 -0.0381,-2.46442 h -0.7622 q -0.15243,0 -0.15243,-0.13973 0,-0.13974 0.15243,-0.13974 h 1.62601 q 0.13974,0 0.13974,0.15244 0,0.11433 -0.0127,0.24136 -0.0127,0.11433 -0.0254,0.21595 l -0.0762,0.87652 q -0.11433,1.38465 -0.15244,2.782 -0.0381,1.11788 -0.0381,2.27387 0,0.35569 0,0.69868 0,0.34298 0.0127,0.69867 0.0381,-0.0127 0.13974,-0.0381 0.10162,-0.0381 0.20325,-0.0635 0.11433,-0.0381 0.20325,-0.0635 0.0889,-0.0254 0.11433,-0.0254 0.13973,0 0.13973,0.13974 z"
       style="font-size:12.70318413px;font-family:FontdinerdotcomSparkly;fill:#046939;stroke-width:0.08468789"
       id="path6158"
       inkscape:connector-curvature="0" /><path
       d="m 415.34385,103.14537 -0.13974,1.25761 -0.13973,-1.25761 -0.74949,0.67327 0.69868,-0.76219 -0.66057,-0.12703 0.66057,-0.12704 -0.69868,-0.76219 0.74949,0.68597 0.13973,-1.27031 0.13974,1.27031 0.74949,-0.68597 -0.69868,0.76219 0.66057,0.12704 -0.66057,0.12703 0.69868,0.76219 z m 0.0254,4.99235 q -0.17785,-0.0508 -0.3684,-0.0635 -0.17784,-0.0254 -0.35569,-0.0254 -0.13973,0 -0.34298,0.0381 -0.20325,0.0254 -0.3938,0.10162 -0.17784,0.0762 -0.31758,0.20325 -0.12703,0.11433 -0.12703,0.30488 0,0.15244 0.0762,0.25406 0.0889,0.0889 0.21595,0.15244 0.12703,0.0508 0.26677,0.0762 0.13973,0.0127 0.26677,0.0127 0.27947,0 0.55894,-0.0635 0.29217,-0.0762 0.50812,-0.26677 z m 1.25761,1.1814 q 0,0.13973 -0.12703,0.15243 l -1.00355,0.12704 q -0.0762,0.0127 -0.11433,-0.0381 -0.0381,-0.0381 -0.0508,-0.10163 0,-0.0635 0,-0.13973 0.0127,-0.0635 0.0127,-0.10163 -0.20325,0.11433 -0.53353,0.19055 -0.31758,0.0762 -0.53354,0.0762 -0.20325,0 -0.49542,-0.0254 -0.27947,-0.0254 -0.54624,-0.12703 -0.25406,-0.0889 -0.43191,-0.25406 -0.17784,-0.17785 -0.17784,-0.47002 0,-0.31758 0.24136,-0.48272 0.24136,-0.17785 0.57164,-0.25407 0.33028,-0.0762 0.67327,-0.0889 0.35569,-0.0127 0.57164,-0.0127 0.15244,0 0.34299,0.0254 0.19055,0.0127 0.34299,0.0508 v -0.21596 q 0,-0.27947 -0.0508,-0.54623 -0.0381,-0.27947 -0.16514,-0.49543 -0.11433,-0.21595 -0.33028,-0.34298 -0.21595,-0.13974 -0.54624,-0.13974 -0.12703,0 -0.27947,0.0254 -0.13973,0.0254 -0.26676,0.0889 -0.12704,0.0635 -0.21596,0.17784 -0.0762,0.10163 -0.0762,0.26677 0,0.21596 0.10163,0.29217 0.10162,0.0762 0.21595,0.10163 0.12703,0.0254 0.22866,0.0508 0.10162,0.0127 0.10162,0.11433 0,0.0635 -0.0508,0.10163 -0.0381,0.0381 -0.0889,0.0381 -0.15244,0 -0.33028,-0.0381 -0.17785,-0.0508 -0.33029,-0.13974 -0.13973,-0.0889 -0.24136,-0.21595 -0.0889,-0.13974 -0.0889,-0.31758 0,-0.24136 0.11433,-0.3938 0.12703,-0.16514 0.31758,-0.25406 0.19055,-0.10163 0.4065,-0.13974 0.21596,-0.0381 0.4065,-0.0381 0.52083,0 0.87652,0.16514 0.3684,0.16514 0.58435,0.47002 0.22866,0.29217 0.31758,0.71138 0.10162,0.4065 0.10162,0.88922 0,0.29217 -0.0254,0.59705 -0.0254,0.30488 -0.0508,0.59705 l 0.47001,-0.0635 q 0.0508,0 0.10163,0.0254 0.0508,0.0381 0.0508,0.10163 z"
       style="font-size:12.70318413px;font-family:FontdinerdotcomSparkly;fill:#046939;stroke-width:0.08468789"
       id="path6160"
       inkscape:connector-curvature="0" /><path
       d="m 419.86162,106.93092 q -0.21596,-0.21596 -0.53354,-0.31758 -0.30487,-0.10163 -0.62245,-0.10163 -0.22866,0 -0.45732,0.0635 -0.22866,0.0508 -0.4192,0.16514 -0.17785,0.11433 -0.29218,0.30488 -0.10162,0.19054 -0.10162,0.45731 0,0.22866 0.0889,0.3811 0.10162,0.13973 0.25406,0.22865 0.16514,0.0762 0.35569,0.10163 0.19055,0.0254 0.3811,0.0254 0.34298,0 0.69867,-0.0889 0.35569,-0.0889 0.62246,-0.31758 0.0127,-0.21595 0.0127,-0.44461 0.0127,-0.22865 0.0127,-0.45731 z m 1.48627,1.35924 q 0,0.10162 -0.10163,0.13973 -0.0508,0.0127 -0.25406,0.0762 -0.20325,0.0635 -0.43191,0.13974 -0.22866,0.0635 -0.4192,0.12703 -0.19055,0.0508 -0.21596,0.0508 -0.0635,0 -0.10162,-0.0381 -0.0381,-0.0508 -0.0381,-0.11433 0,-0.11432 0.0127,-0.22865 0.0127,-0.12703 0.0127,-0.24136 -0.11433,0.0635 -0.29217,0.12703 -0.16514,0.0508 -0.35569,0.10162 -0.17784,0.0381 -0.35569,0.0635 -0.17784,0.0254 -0.31758,0.0254 -0.24136,0 -0.59705,-0.0381 -0.34298,-0.0508 -0.66056,-0.17785 -0.31758,-0.12703 -0.54624,-0.33028 -0.21595,-0.21596 -0.21595,-0.53353 0,-0.35569 0.22865,-0.58435 0.24136,-0.22866 0.57165,-0.36839 0.34298,-0.13974 0.71137,-0.19055 0.3684,-0.0635 0.63516,-0.0635 0.33029,0 0.64787,0.0762 0.31758,0.0635 0.60975,0.26677 0.0127,-0.24136 0.0127,-0.48272 0,-0.24136 0,-0.49543 0,-1.23221 -0.0127,-2.45171 -0.0127,-1.23221 -0.0381,-2.46442 h -0.76219 q -0.15244,0 -0.15244,-0.13973 0,-0.13974 0.15244,-0.13974 h 1.62601 q 0.13973,0 0.13973,0.15244 0,0.11433 -0.0127,0.24136 -0.0127,0.11433 -0.0254,0.21595 l -0.0762,0.87652 q -0.11433,1.38465 -0.15244,2.782 -0.0381,1.11788 -0.0381,2.27387 0,0.35569 0,0.69868 0,0.34298 0.0127,0.69867 0.0381,-0.0127 0.13973,-0.0381 0.10163,-0.0381 0.20325,-0.0635 0.11433,-0.0381 0.20325,-0.0635 0.0889,-0.0254 0.11433,-0.0254 0.13974,0 0.13974,0.13974 z"
       style="font-size:12.70318413px;font-family:FontdinerdotcomSparkly;fill:#046939;stroke-width:0.08468789"
       id="path6162"
       inkscape:connector-curvature="0" /></g></svg>