<?xml version="1.0" encoding="UTF-8" standalone="no"?>
<!-- Generator: Adobe Illustrator 18.0.0, SVG Export Plug-In . SVG Version: 6.00 Build 0)  -->

<svg
   xmlns:dc="http://purl.org/dc/elements/1.1/"
   xmlns:cc="http://creativecommons.org/ns#"
   xmlns:rdf="http://www.w3.org/1999/02/22-rdf-syntax-ns#"
   xmlns:svg="http://www.w3.org/2000/svg"
   xmlns="http://www.w3.org/2000/svg"
   xmlns:sodipodi="http://sodipodi.sourceforge.net/DTD/sodipodi-0.dtd"
   xmlns:inkscape="http://www.inkscape.org/namespaces/inkscape"
   version="1.1"
   id="Capa_1"
   x="0px"
   y="0px"
   viewBox="0 0 215.95166 131.14092"
   enable-background="new 0 0 188.6 112.3"
   xml:space="preserve"
   sodipodi:docname="boton_inicio.svg"
   width="215.95168"
   height="131.14091"
   inkscape:version="0.92.1 r"
   inkscape:export-filename="/home/fundacion/Documentos/fundecyt_02/resuelvo/nuevo_diseño/boton-inicio.png"
   inkscape:export-xdpi="96"
   inkscape:export-ydpi="96"><metadata
     id="metadata9"><rdf:RDF><cc:Work
         rdf:about=""><dc:format>image/svg+xml</dc:format><dc:type
           rdf:resource="http://purl.org/dc/dcmitype/StillImage" /><dc:title></dc:title></cc:Work></rdf:RDF></metadata><defs
     id="defs7" /><sodipodi:namedview
     pagecolor="#ffffff"
     bordercolor="#666666"
     borderopacity="1"
     objecttolerance="10"
     gridtolerance="10"
     guidetolerance="10"
     inkscape:pageopacity="0"
     inkscape:pageshadow="2"
     inkscape:window-width="1920"
     inkscape:window-height="1012"
     id="namedview5"
     showgrid="false"
     fit-margin-top="0"
     fit-margin-left="0"
     fit-margin-right="0"
     fit-margin-bottom="0"
     inkscape:zoom="4.2030275"
     inkscape:cx="162.08765"
     inkscape:cy="73.368288"
     inkscape:window-x="0"
     inkscape:window-y="32"
     inkscape:window-maximized="1"
     inkscape:current-layer="Capa_1" /><g
     transform="matrix(3.8110413,0,0,3.8110413,86.069132,-726.48587)"
     id="g10693"><path
       inkscape:connector-curvature="0"
       style="opacity:1;fill:#ffffff;fill-opacity:1;stroke:none;stroke-width:9.63855839;stroke-miterlimit:4;stroke-dasharray:9.63855836, 9.63855836;stroke-dashoffset:0;stroke-opacity:1"
       d="m -45.457031,720.47852 a 28.284271,31.590855 0 0 0 -28.283203,31.59179 28.284271,31.590855 0 0 0 3.726562,15.59571 21.844549,20.960663 0 0 0 -15.34375,19.98828 21.844549,20.960663 0 0 0 6.804688,15.16797 22.602163,22.2169 0 0 0 -4.785157,13.62695 22.602163,22.2169 0 0 0 22.601563,22.2168 22.602163,22.2169 0 0 0 0.152344,-0.006 11.869292,13.258252 0 0 0 11.464843,9.85546 11.869292,13.258252 0 0 0 11.8125,-11.98437 11.498379,10.810675 0 0 0 1.544922,0.10937 11.498379,10.810675 0 0 0 11.375,-9.32031 11.827504,10.606602 0 0 0 10.539063,5.79102 11.827504,10.606602 0 0 0 1.642578,-0.11524 34.976529,28.41054 0 0 0 32.28125,17.53907 34.976529,28.41054 0 0 0 29.43164,-13.11524 27.598811,20.076781 0 0 0 18.244141,5.03516 27.598811,20.076781 0 0 0 25.75,-12.91406 17.388433,25.794433 47.677817 0 0 10.714847,-0.45899 17.388433,25.794433 47.677817 0 0 24.15625,-27.0293 17.388433,25.794433 47.677817 0 0 -12.125,-15.12695 20.205648,29.973559 41.43215 0 0 12.55664,-26.38867 20.205648,29.973559 41.43215 0 0 -20.77735,-15.3418 21.529557,15.08109 0 0 0 0.0312,-0.45117 A 21.529557,15.08109 0 0 0 86.529297,729.66211 21.529557,15.08109 0 0 0 65.783203,740.77539 31.160716,19.821428 0 0 0 34.732422,722.51953 31.160716,19.821428 0 0 0 3.8574219,739.8125 14.732143,12.678571 0 0 0 -8.125,734.48438 a 14.732143,12.678571 0 0 0 -11.511719,4.7871 28.284271,31.590855 0 0 0 -25.820312,-18.79296 z m 18.255859,116.9375 a 1.6294642,2.0089285 42.628459 0 0 -1.519531,0.74023 1.6294642,2.0089285 42.628459 0 0 -0.162109,2.58203 1.6294642,2.0089285 42.628459 0 0 2.558593,-0.37305 1.6294642,2.0089285 42.628459 0 0 0.16211,-2.58203 1.6294642,2.0089285 42.628459 0 0 -1.039063,-0.36718 z m -5.851562,1.40429 a 3.0387709,3.7707379 52.80767 0 0 -2.712891,0.90039 3.0387709,3.7707379 52.80767 0 0 -1.166016,4.69922 3.0387709,3.7707379 52.80767 0 0 4.839844,0.14258 3.0387709,3.7707379 52.80767 0 0 1.167969,-4.70117 3.0387709,3.7707379 52.80767 0 0 -2.128906,-1.04102 z m -31.613282,3.71485 a 2.7932383,2.4852251 0 0 0 -2.792968,2.48437 2.7932383,2.4852251 0 0 0 2.792968,2.48633 2.7932383,2.4852251 0 0 0 2.794922,-2.48633 2.7932383,2.4852251 0 0 0 -2.794922,-2.48437 z m 4.810547,4.77343 a 1.6267497,1.226319 36.155575 0 0 -0.916015,0.41993 1.6267497,1.226319 36.155575 0 0 0.589843,1.94921 1.6267497,1.226319 36.155575 0 0 2.03711,-0.0312 1.6267497,1.226319 36.155575 0 0 -0.589844,-1.94921 1.6267497,1.226319 36.155575 0 0 -1.121094,-0.38868 z"
       transform="scale(0.26458333)"
       id="path10569" /><path
       id="path10642"
       style="font-style:normal;font-variant:normal;font-weight:normal;font-stretch:normal;font-size:21.58781815px;line-height:1.25;font-family:'Fontdinerdotcom Sparkly';-inkscape-font-specification:'Fontdinerdotcom Sparkly, Normal';font-variant-ligatures:normal;font-variant-caps:normal;font-variant-numeric:normal;font-feature-settings:normal;text-align:start;letter-spacing:0px;word-spacing:0px;writing-mode:lr-tb;text-anchor:start;fill:#006838;fill-opacity:1;stroke:none;stroke-width:0.53969544"
       d="m -8.3985965,196.28812 q 0,0.21588 -0.2158782,0.25906 l -1.2089178,0.0648 -0.3669925,19.47221 q 0.302229,-0.0432 0.6260463,-0.0863 0.3454051,-0.0432 0.6476345,-0.0432 0.237466,0 0.237466,0.23746 0,0.19429 -0.2158782,0.23747 l -3.7994556,0.43175 h -0.02159 q -0.107939,0 -0.194291,-0.0648 -0.06476,-0.0648 -0.06476,-0.1727 0,-0.23747 0.215878,-0.23747 l 1.424796,-0.1727 -0.626047,-19.45063 -1.467971,0.0864 q -0.107939,0.0216 -0.172703,-0.0432 -0.08635,-0.0648 -0.08635,-0.1727 0,-0.10794 0.06476,-0.1727 0.04318,-0.0864 0.151115,-0.0864 l 4.8140836,-0.32381 q 0.1079391,0 0.1727026,0.0648 0.086351,0.0648 0.086351,0.1727 z"
       inkscape:connector-curvature="0" /><path
       id="path10644"
       style="font-style:normal;font-variant:normal;font-weight:normal;font-stretch:normal;font-size:21.58781815px;line-height:1.25;font-family:'Fontdinerdotcom Sparkly';-inkscape-font-specification:'Fontdinerdotcom Sparkly, Normal';font-variant-ligatures:normal;font-variant-caps:normal;font-variant-numeric:normal;font-feature-settings:normal;text-align:start;letter-spacing:0px;word-spacing:0px;writing-mode:lr-tb;text-anchor:start;fill:#006838;fill-opacity:1;stroke:none;stroke-width:0.53969544"
       d="m -4.7175364,199.05136 -0.237466,2.1372 -0.237466,-2.1372 -1.2736812,1.16575 1.18733,-1.31686 -1.1225666,-0.21588 1.1225666,-0.19429 -1.18733,-1.31686 1.2736812,1.16575 0.237466,-2.1372 0.237466,2.1372 1.2736813,-1.16575 -1.18733,1.31686 1.1225666,0.19429 -1.1225666,0.21588 1.18733,1.31686 z m 4.70614439,12.04601 q 0,0.10794 -0.06476345,0.19429 -0.06476345,0.0648 -0.17270255,0.0648 l -3.64834129,0.0432 q -0.237466,0 -0.237466,-0.23747 0,-0.21588 0.237466,-0.25905 h 1.1441544 q 0.064763,-0.69081 0.1079391,-1.38162 0.043176,-0.7124 0.043176,-1.40321 0,-0.367 -0.021588,-0.90669 -0.021588,-0.5397 -0.1727025,-1.03622 -0.129527,-0.49652 -0.4317564,-0.84192 -0.2806416,-0.34541 -0.7987493,-0.34541 -0.3885807,0 -0.7339858,0.23747 -0.3238173,0.19429 -0.5396955,0.51811 -0.2158781,0.30223 -0.345405,0.66922 -0.129527,0.36699 -0.1942904,0.75557 -0.043176,0.38858 -0.043176,0.75558 v 1.79179 l 0.9714518,-0.0432 q 0.1079391,0 0.1727025,0.0648 0.086351,0.0432 0.086351,0.15112 0,0.25905 -0.237466,0.25905 l -3.8210438,0.15112 q -0.1079391,0 -0.1727026,-0.0432 -0.086351,-0.0648 -0.086351,-0.1727 0,-0.25906 0.237466,-0.25906 l 2.0508427,-0.0864 -0.7771615,-4.64138 -1.5759107,0.0864 q -0.1079391,0.0216 -0.1727025,-0.0432 -0.086351,-0.0648 -0.086351,-0.1727 0,-0.21588 0.2158782,-0.25906 l 2.8711798,-0.15111 q 0.2590538,0 0.2590538,0.23746 l 0.021588,1.05781 q 0.2806417,-0.56129 0.7555737,-0.94987 0.4965198,-0.38858 1.1441543,-0.38858 0.7987493,0 1.3168569,0.21588 0.5181077,0.21588 0.8203371,0.62605 0.3238173,0.41017 0.4533442,0.99304 0.1295269,0.58287 0.1295269,1.31685 0,1.61909 -0.3669929,3.21659 l 1.40320818,-0.0216 q 0.10793909,0 0.17270254,0.0648 0.08635127,0.0648 0.08635127,0.17271 z"
       inkscape:connector-curvature="0" /><path
       id="path10646"
       style="font-style:normal;font-variant:normal;font-weight:normal;font-stretch:normal;font-size:21.58781815px;line-height:1.25;font-family:'Fontdinerdotcom Sparkly';-inkscape-font-specification:'Fontdinerdotcom Sparkly, Normal';font-variant-ligatures:normal;font-variant-caps:normal;font-variant-numeric:normal;font-feature-settings:normal;text-align:start;letter-spacing:0px;word-spacing:0px;writing-mode:lr-tb;text-anchor:start;fill:#006838;fill-opacity:1;stroke:none;stroke-width:0.53969544"
       d="m 1.5088633,204.44832 -0.237466,2.13719 -0.237466,-2.13719 -1.27368131,1.16574 1.18733,-1.31686 -1.12256655,-0.21587 1.12256655,-0.1943 -1.18733,-1.31685 1.27368131,1.16574 0.237466,-2.13719 0.237466,2.13719 1.2736812,-1.16574 -1.18733,1.31685 1.1225666,0.1943 -1.1225666,0.21587 1.18733,1.31686 z m 1.8781401,6.58428 q 0,0.19429 -0.2158781,0.23747 l -3.02229458,0.28064 H 0.1272429 q -0.237466,0 -0.237466,-0.23747 0,-0.23746 0.21587818,-0.23746 l 1.01462742,-0.10794 -0.2806416,-3.41088 q -0.237466,0.0432 -0.49651982,0.0864 -0.25905382,0.0216 -0.49651982,0.0216 -0.237466,0 -0.237466,-0.23746 0,-0.23747 0.21587818,-0.23747 0.19429037,-0.0216 0.49651982,-0.0648 0.30222945,-0.0432 0.60445891,-0.0648 0.32381723,-0.0432 0.60445893,-0.0648 0.2806416,-0.0432 0.4533442,-0.0432 0.237466,0 0.237466,0.23746 l -0.043176,3.69152 q 0.237466,-0.0216 0.474932,-0.0432 0.2590538,-0.0432 0.4965198,-0.0432 0.237466,0 0.237466,0.23746 z"
       inkscape:connector-curvature="0" /><path
       id="path10648"
       style="font-style:normal;font-variant:normal;font-weight:normal;font-stretch:normal;font-size:21.58781815px;line-height:1.25;font-family:'Fontdinerdotcom Sparkly';-inkscape-font-specification:'Fontdinerdotcom Sparkly, Normal';font-variant-ligatures:normal;font-variant-caps:normal;font-variant-numeric:normal;font-feature-settings:normal;text-align:start;letter-spacing:0px;word-spacing:0px;writing-mode:lr-tb;text-anchor:start;fill:#006838;fill-opacity:1;stroke:none;stroke-width:0.53969544"
       d="m 6.1681208,201.62031 -0.237466,2.1372 -0.237466,-2.1372 -1.2736813,1.14416 1.18733,-1.29527 -1.1225665,-0.21588 1.1225665,-0.21588 -1.18733,-1.29527 1.2736813,1.16575 0.237466,-2.15879 0.237466,2.15879 1.2736813,-1.16575 -1.18733,1.29527 1.1225665,0.21588 -1.1225665,0.21588 1.18733,1.29527 z m 2.9143555,3.45405 q 0,0.0216 -0.043176,0.10794 l -0.5396954,1.16575 q -0.086351,0.12952 -0.2158782,0.12952 -0.043176,0 -0.1295269,-0.0432 -0.237466,-0.0864 -0.474932,-0.12953 -0.2158782,-0.0432 -0.4965198,-0.0432 -0.474932,0 -0.9282762,0.21588 -0.4317564,0.19429 -0.7771615,0.5397 -0.3454051,0.32382 -0.5612832,0.77716 -0.2158782,0.43176 -0.2158782,0.90669 0,1.03621 0.6476345,1.70544 0.6692224,0.64763 1.7270255,0.64763 0.2806416,0 0.4965198,-0.0864 0.237466,-0.10794 0.4101685,-0.23747 0.1727026,-0.12952 0.2806417,-0.21587 0.1295269,-0.10794 0.1942903,-0.10794 0.237466,0 0.237466,0.23746 0,0.0863 -0.064763,0.15112 -0.1295269,0.19429 -0.3885807,0.36699 -0.237466,0.15111 -0.5396955,0.25905 -0.2806416,0.12953 -0.5612833,0.17271 -0.2806416,0.0648 -0.5181076,0.0648 -0.5828711,0 -1.1657422,-0.23747 -0.5612833,-0.21587 -1.0146274,-0.60446 -0.4317564,-0.41016 -0.712398,-0.92827 -0.2806417,-0.5397 -0.2806417,-1.14416 0,-0.73398 0.3238173,-1.27368 0.3454051,-0.56128 0.8851005,-0.92827 0.5396955,-0.38858 1.2089179,-0.56129 0.6692223,-0.19429 1.3168569,-0.19429 0.237466,0 0.474932,0.0216 0.237466,0.0216 0.474932,0.10794 l 0.3022294,-0.92828 q 0.043176,-0.12952 0.1511148,-0.12952 0.1295269,-0.0216 0.237466,-0.0216 0.107939,0 0.1727025,0.0648 0.086351,0.0648 0.086351,0.1727 z"
       inkscape:connector-curvature="0" /><path
       id="path10650"
       style="font-style:normal;font-variant:normal;font-weight:normal;font-stretch:normal;font-size:21.58781815px;line-height:1.25;font-family:'Fontdinerdotcom Sparkly';-inkscape-font-specification:'Fontdinerdotcom Sparkly, Normal';font-variant-ligatures:normal;font-variant-caps:normal;font-variant-numeric:normal;font-feature-settings:normal;text-align:start;letter-spacing:0px;word-spacing:0px;writing-mode:lr-tb;text-anchor:start;fill:#006838;fill-opacity:1;stroke:none;stroke-width:0.53969544"
       d="m 10.911369,204.44832 -0.237466,2.13719 -0.237466,-2.13719 -1.2736811,1.16574 1.1873301,-1.31686 -1.1225667,-0.21587 1.1225667,-0.1943 -1.1873301,-1.31685 1.2736811,1.16574 0.237466,-2.13719 0.237466,2.13719 1.273681,-1.16574 -1.18733,1.31685 1.122567,0.1943 -1.122567,0.21587 1.18733,1.31686 z m 1.87814,6.58428 q 0,0.19429 -0.215878,0.23747 l -3.0222944,0.28064 h -0.021588 q -0.237466,0 -0.237466,-0.23747 0,-0.23746 0.2158782,-0.23746 l 1.0146272,-0.10794 -0.280641,-3.41088 q -0.237466,0.0432 -0.4965202,0.0864 -0.2590539,0.0216 -0.4965199,0.0216 -0.237466,0 -0.237466,-0.23746 0,-0.23747 0.2158782,-0.23747 0.1942904,-0.0216 0.4965198,-0.0648 0.3022301,-0.0432 0.6044591,-0.0648 0.323817,-0.0432 0.604459,-0.0648 0.280642,-0.0432 0.453344,-0.0432 0.237466,0 0.237466,0.23746 l -0.04318,3.69152 q 0.237466,-0.0216 0.474932,-0.0432 0.259054,-0.0432 0.49652,-0.0432 0.237466,0 0.237466,0.23746 z"
       inkscape:connector-curvature="0" /><path
       id="path10652"
       style="font-style:normal;font-variant:normal;font-weight:normal;font-stretch:normal;font-size:21.58781815px;line-height:1.25;font-family:'Fontdinerdotcom Sparkly';-inkscape-font-specification:'Fontdinerdotcom Sparkly, Normal';font-variant-ligatures:normal;font-variant-caps:normal;font-variant-numeric:normal;font-feature-settings:normal;text-align:start;letter-spacing:0px;word-spacing:0px;writing-mode:lr-tb;text-anchor:start;fill:#006838;fill-opacity:1;stroke:none;stroke-width:0.53969544"
       d="m 16.779545,202.57018 -0.237466,2.13719 -0.237466,-2.13719 -1.273682,1.16574 1.18733,-1.31686 -1.122566,-0.21587 1.122566,-0.1943 -1.18733,-1.31685 1.273682,1.16574 0.237466,-2.13719 0.237466,2.13719 1.273681,-1.16574 -1.18733,1.31685 1.122566,0.1943 -1.122566,0.21587 1.18733,1.31686 z m 0.971451,5.1379 q 0,-0.79875 -0.410168,-1.12257 -0.410169,-0.3454 -1.165742,-0.3454 -0.733986,0 -1.316857,0.41017 -0.561284,0.38858 -0.561284,1.20891 0,0.73399 0.518108,1.10098 0.539696,0.367 1.208918,0.367 0.69081,0 1.208918,-0.45335 0.518107,-0.47493 0.518107,-1.16574 z m 1.360033,0.0432 q 0,0.51811 -0.323817,0.90669 -0.323818,0.38858 -0.79875,0.64764 -0.474932,0.25905 -1.014627,0.38858 -0.539696,0.10794 -0.971452,0.10794 -0.453344,0 -1.036215,-0.10794 -0.561283,-0.10794 -1.057803,-0.34541 -0.49652,-0.23746 -0.841925,-0.62604 -0.323817,-0.41017 -0.323817,-0.99304 0,-0.56129 0.366992,-0.92828 0.366993,-0.36699 0.885101,-0.60446 0.518108,-0.23746 1.100979,-0.32382 0.582871,-0.10793 0.993039,-0.10793 0.431757,0 0.949864,0.12952 0.539696,0.10794 0.99304,0.34541 0.453344,0.23746 0.755574,0.62604 0.323817,0.367 0.323817,0.8851 z"
       inkscape:connector-curvature="0" /></g></svg>