<?xml version="1.0" encoding="UTF-8" standalone="no"?>
<!-- Generator: Adobe Illustrator 18.0.0, SVG Export Plug-In . SVG Version: 6.00 Build 0)  -->

<svg
   xmlns:dc="http://purl.org/dc/elements/1.1/"
   xmlns:cc="http://creativecommons.org/ns#"
   xmlns:rdf="http://www.w3.org/1999/02/22-rdf-syntax-ns#"
   xmlns:svg="http://www.w3.org/2000/svg"
   xmlns="http://www.w3.org/2000/svg"
   xmlns:sodipodi="http://sodipodi.sourceforge.net/DTD/sodipodi-0.dtd"
   xmlns:inkscape="http://www.inkscape.org/namespaces/inkscape"
   version="1.1"
   id="Capa_1"
   x="0px"
   y="0px"
   viewBox="-100 0 1200 845"
   enable-background="new -100 0 1200 845"
   xml:space="preserve"
   sodipodi:docname="fondo_pantalla_inicial.svg"
   width="1200"
   height="845"
   inkscape:version="0.92.1 r"><metadata
     id="metadata225"><rdf:RDF><cc:Work
         rdf:about=""><dc:format>image/svg+xml</dc:format><dc:type
           rdf:resource="http://purl.org/dc/dcmitype/StillImage" /><dc:title></dc:title></cc:Work></rdf:RDF></metadata><defs
     id="defs223" /><sodipodi:namedview
     pagecolor="#ffffff"
     bordercolor="#666666"
     borderopacity="1"
     objecttolerance="10"
     gridtolerance="10"
     guidetolerance="10"
     inkscape:pageopacity="0"
     inkscape:pageshadow="2"
     inkscape:window-width="1920"
     inkscape:window-height="1012"
     id="namedview221"
     showgrid="false"
     fit-margin-top="0"
     fit-margin-left="0"
     fit-margin-right="0"
     fit-margin-bottom="0"
     inkscape:zoom="0.19748781"
     inkscape:cx="361.07509"
     inkscape:cy="177.13439"
     inkscape:window-x="0"
     inkscape:window-y="32"
     inkscape:window-maximized="1"
     inkscape:current-layer="Capa_1" /><g
     transform="matrix(3.7795276,0,0,3.7795276,-1338.5714,-115.83398)"
     id="g5722"><rect
       id="rect4498"
       height="223.57291"
       width="317.5"
       y="30.647739"
       x="327.70535"
       style="fill:#3bd9ed;fill-opacity:1;stroke-width:0.26458332" /><ellipse
       id="ellipse4500"
       ry="104.37812"
       rx="98.821877"
       cy="142.4342"
       cx="486.45535"
       style="opacity:1;fill:#52e1f1;fill-opacity:1;stroke-width:0.26458332" /><ellipse
       id="ellipse4502"
       ry="87.973961"
       rx="83.687706"
       cy="141.56108"
       cx="485.23828"
       style="opacity:1;fill:#66e7f4;fill-opacity:1;stroke-width:0.26458332" /><ellipse
       id="ellipse4504"
       ry="65.272705"
       rx="61.806667"
       cy="142.4342"
       cx="486.45535"
       style="opacity:1;fill:#78ecf6;fill-opacity:1;stroke-width:0.26458332" /><path
       id="path4506"
       d="m 498.14994,48.454198 c -1.00542,-0.211667 -1.98437,-0.07937 -2.8575,0.264583 -0.84667,-2.301875 -3.06917,-4.101042 -5.84729,-4.28625 -1.08479,-0.07937 -2.11667,0.105833 -3.04271,0.47625 -1.53458,-4.28625 -6.35,-7.381875 -11.87979,-6.720416 -6.24417,0.740833 -10.45104,5.820833 -10.26583,10.980208 -1.13771,-0.264584 -2.38125,-0.211667 -3.59834,0.185208 -3.83645,1.296458 -5.66208,5.476875 -4.23333,8.89 2.03729,-0.899583 4.10104,-1.719792 6.19125,-2.407708 2.09021,-0.714375 4.20688,-1.296459 6.32354,-1.799167 7.64646,-1.772708 15.53104,-2.196042 23.33625,-1.243542 2.75167,0.343959 5.47688,0.846667 8.20208,1.508125 0.58209,0.15875 1.16417,0.291042 1.74625,0.449792 0.68792,-2.751667 -1.11125,-5.715 -4.07458,-6.297083 z"
       inkscape:connector-curvature="0"
       style="fill:#ffffff;stroke-width:0.26458332" /><path
       id="path4508"
       d="m 412.58369,177.33274 c 0.34396,0.76729 0.84667,1.40229 1.45521,1.82562 -1.03187,1.61396 -1.11125,3.96875 0.0529,5.95313 0.44979,0.76729 1.03187,1.40229 1.66687,1.85208 -1.93146,2.98979 -1.64041,7.67292 1.29646,11.16542 3.28083,3.91583 8.30792,4.47146 11.37708,2.01083 0.34396,0.89958 0.9525,1.71979 1.77271,2.38125 2.54,2.03729 5.92667,1.37583 7.35542,-1.16417 -1.48167,-0.97895 -2.91042,-2.01083 -4.28625,-3.12208 -1.37583,-1.11125 -2.69875,-2.27542 -3.96875,-3.4925 -4.57729,-4.41854 -8.41375,-9.60437 -11.37708,-15.34583 -1.05834,-2.03729 -1.98438,-4.1275 -2.80459,-6.29709 -0.18521,-0.47625 -0.34396,-0.92604 -0.50271,-1.40229 -2.03729,0.76729 -3.01625,3.33375 -2.03729,5.63563 z"
       inkscape:connector-curvature="0"
       style="fill:#ffffff;stroke-width:0.26458332" /><path
       id="path4510"
       d="m 419.96179,85.284197 c -0.55562,0.47625 -0.92604,1.084792 -1.16416,1.719792 -1.53459,-0.555625 -3.43959,-0.105833 -4.7625,1.349375 -0.52917,0.582083 -0.89959,1.217083 -1.13771,1.905 -2.83104,-1.058333 -6.53521,0.238125 -8.67834,3.65125 -2.4077,3.81 -1.7727,8.466666 0.89959,10.662706 -0.635,0.52917 -1.16417,1.24354 -1.50813,2.11667 -1.05833,2.72521 0.21167,5.63562 2.56646,6.35 0.44979,-1.53458 0.97896,-3.06917 1.56104,-4.55083 0.58209,-1.48167 1.21709,-2.93688 1.93146,-4.33917 2.54,-5.080001 5.84729,-9.683751 9.81604,-13.626043 1.40229,-1.375833 2.88396,-2.69875 4.445,-3.915833 0.34396,-0.264583 0.66146,-0.529167 1.00542,-0.767292 -1.05833,-1.640416 -3.36021,-1.957916 -4.97417,-0.555625 z"
       inkscape:connector-curvature="0"
       style="fill:#ffffff;stroke-width:0.26458332" /><path
       id="path4512"
       d="m 523.49702,212.54878 c 0.1323,-0.0529 0.23813,-0.10583 0.34396,-0.15875 1.13771,0.71437 2.67229,0.82021 4.07459,0.18521 0.3175,-0.15875 0.60854,-0.3175 0.87312,-0.52917 1.64042,1.56104 4.41854,1.905 6.79979,0.44979 0.55563,-0.3175 1.03188,-0.71437 1.45521,-1.16416 2.56646,0.52916 5.58271,-0.18521 8.09625,-2.24896 4.25979,-3.46604 5.21229,-9.18104 2.91042,-12.85875 0.92604,-0.34396 1.82562,-0.97896 2.54,-1.85209 2.24896,-2.75166 1.79916,-6.6675 -0.71438,-8.46666 -1.08479,1.64041 -2.2225,3.20146 -3.43958,4.68312 -1.21708,1.50813 -2.48708,2.93688 -3.83646,4.28625 -4.81542,4.89479 -10.42458,8.86354 -16.53646,11.7475 -2.16958,1.00542 -4.39208,1.87854 -6.6675,2.61938 -0.50271,0.15875 -0.97896,0.3175 -1.48166,0.44979 0.60854,2.40771 3.14854,3.78354 5.5827,2.8575 z"
       inkscape:connector-curvature="0"
       style="fill:#ffffff;stroke-width:0.26458332" /><path
       id="path4514"
       d="m 550.69619,75.573989 c -0.0529,-0.07937 -0.13229,-0.15875 -0.18521,-0.264583 0.26459,-1.084792 0.0265,-2.354792 -0.74083,-3.360209 -0.18521,-0.238125 -0.37042,-0.423333 -0.58208,-0.608541 0.79375,-1.666875 0.42333,-3.995208 -1.13771,-5.635625 -0.34396,-0.370417 -0.74084,-0.687917 -1.16417,-0.926042 -0.18521,-2.196041 -1.34937,-4.497916 -3.38667,-6.085416 -3.46604,-2.725209 -7.83166,-2.248959 -10.00125,0.423333 -0.44979,-0.687917 -1.11125,-1.27 -1.905,-1.666875 -2.48708,-1.217083 -5.2652,0 -6.00604,2.407708 1.42875,0.529167 2.80459,1.11125 4.15396,1.799167 1.34938,0.661458 2.67229,1.402292 3.96875,2.196042 4.60375,2.8575 8.70479,6.535208 12.14438,10.900833 1.21708,1.534583 2.32833,3.148541 3.3602,4.841875 0.21167,0.370416 0.4498,0.740833 0.66146,1.11125 1.56104,-0.978959 2.01084,-3.33375 0.82021,-5.132917 z"
       inkscape:connector-curvature="0"
       style="fill:#ffffff;stroke-width:0.26458332" /><path
       id="path4516"
       d="m 567.25911,174.02545 c 0.26458,-0.74084 0.3175,-1.50813 0.21166,-2.19605 1.66688,-0.34395 3.20146,-1.79916 3.70417,-3.86291 0.18521,-0.82021 0.21167,-1.61396 0.0794,-2.38125 3.12208,-0.60854 5.87375,-3.83646 6.13833,-8.12271 0.3175,-4.81542 -2.56646,-8.70479 -6.11188,-9.26042 0.3175,-0.82021 0.47625,-1.77271 0.34396,-2.77812 -0.37041,-3.06917 -2.96333,-5.02709 -5.50333,-4.39209 0.34396,1.66688 0.635,3.33375 0.82021,5.00063 0.21166,1.66687 0.3175,3.36021 0.37041,5.05354 0.18521,6.0325 -0.55562,12.09146 -2.24895,17.88583 -0.58209,2.0373 -1.29646,4.04813 -2.11667,6.0325 -0.18521,0.42334 -0.37042,0.84667 -0.55563,1.27 1.82563,0.89959 4.07459,-0.0794 4.86834,-2.24895 z"
       inkscape:connector-curvature="0"
       style="fill:#ffffff;stroke-width:0.26458332" /><path
       id="path4518"
       d="m 555.53807,123.78107 c -0.1323,-0.76729 -0.47625,-1.45521 -0.92605,-1.98437 1.24355,-1.21709 1.82563,-3.30729 1.19063,-5.34459 -0.23813,-0.8202 -0.635,-1.53458 -1.13771,-2.11666 0.60854,-1.45521 0.635,-3.30729 -0.10583,-5.02709 -0.68792,-1.5875 -1.87854,-2.75166 -3.175,-3.30729 -0.0265,-0.0794 -0.0529,-0.15875 -0.0794,-0.23812 0.15875,-1.16417 -0.10583,-2.48709 -0.76729,-3.62479 -1.05833,-1.79917 -2.83104,-2.725213 -4.49792,-2.592921 -0.13229,-0.873125 -0.5027,-1.74625 -1.08479,-2.513542 -1.85208,-2.407708 -5.02708,-2.619375 -6.85271,-0.661458 1.13771,1.217083 2.19605,2.487083 3.20146,3.783541 1.00542,1.32292 1.95792,2.67229 2.83104,4.07458 3.175,5.02709 5.55625,10.58334 7.01146,16.43063 0.50271,2.06375 0.92604,4.18042 1.21709,6.29708 0.0529,0.44979 0.10583,0.92604 0.15875,1.37584 2.01083,-0.18521 3.43958,-2.24896 3.01625,-4.55084 z"
       inkscape:connector-curvature="0"
       style="fill:#ffffff;stroke-width:0.26458332" /><path
       id="path4520"
       d="m 417.24036,117.29878 c -0.23813,0.74083 -0.26458,1.50813 -0.13229,2.2225 -1.66688,0.39688 -3.12209,1.905 -3.57188,3.99521 -0.18521,0.84667 -0.15875,1.66687 0,2.43417 -1.21708,0.9525 -2.11666,2.54 -2.27541,4.41854 -0.15875,1.74625 0.3175,3.36021 1.19062,4.55083 -0.0265,0.0794 -0.0265,0.15875 -0.0529,0.23813 -0.68791,0.95249 -1.08479,2.19604 -1.03187,3.54541 0.0794,2.09021 1.19062,3.83646 2.67229,4.60375 -0.29104,0.82021 -0.39687,1.77271 -0.23812,2.72521 0.47625,3.06917 3.12208,4.92125 5.63562,4.18042 -0.39687,-1.64042 -0.74083,-3.3073 -0.97896,-4.97417 -0.26458,-1.66688 -0.44979,-3.33375 -0.55562,-5.02708 -0.39688,-6.0325 0.15875,-12.09146 1.66687,-17.93875 0.52917,-2.06375 1.16417,-4.10104 1.93146,-6.08542 0.15875,-0.42333 0.34396,-0.84667 0.50271,-1.29646 -1.79917,-0.84666 -4.02167,0.18521 -4.7625,2.40771 z"
       inkscape:connector-curvature="0"
       style="fill:#ffffff;stroke-width:0.26458332" /><path
       id="path4522"
       d="m 470.47453,220.43336 c 0.89958,0.26459 1.7727,0.18521 2.54,-0.15875 0.60854,1.50813 2.01083,2.72521 3.81,2.98979 1.00541,0.15875 1.98437,0 2.83104,-0.39687 0.79375,1.40229 2.38125,2.40771 4.23333,2.43417 1.16417,0.0264 2.24896,-0.34396 3.06917,-0.9525 1.64041,1.50812 4.10104,2.32833 6.69395,1.905 5.15938,-0.84667 8.04334,-5.82084 6.58813,-10.10709 -1.13771,0.39688 -2.30188,0.74084 -3.43958,1.03188 0,-0.0265 0,-0.0265 0,-0.0265 -7.14375,1.85208 -14.57854,2.01083 -21.77521,0.50271 -1.98438,-0.42334 -3.94229,-0.97896 -5.87375,-1.64042 -0.42333,-0.15875 -0.82021,-0.29104 -1.24354,-0.44979 -0.71438,1.95792 0.42333,4.23333 2.56646,4.86833 z"
       inkscape:connector-curvature="0"
       style="fill:#ffffff;stroke-width:0.26458332" /><path
       id="path4526"
       d="m 486.50166,81.471156 c -0.2373,-0.0051 -0.47781,-0.0036 -0.72088,0.0047 -2.94981,0.07972 -5.43385,1.135566 -6.4575,2.545065 -0.85632,-0.169852 -1.7943,-0.249934 -2.77656,-0.216525 -2.94876,0.0797 -5.43163,1.13478 -6.45594,2.543516 -0.30374,-0.01148 -0.61198,-0.01429 -0.92604,-0.0036 -0.61172,0.01654 -1.19865,0.0805 -1.76062,0.176217 -0.96925,-0.23241 -2.05933,-0.347757 -3.21323,-0.308509 -3.26581,0.08827 -5.9598,1.373127 -6.73397,3.009635 -0.40171,-0.04408 -0.82105,-0.06342 -1.25677,-0.04599 -2.61937,0.07937 -4.73583,1.296146 -4.68291,2.724896 0.0366,0.969375 1.08524,1.786233 2.59416,2.172477 -0.11036,0.228108 -0.16928,0.466318 -0.16021,0.711584 0.0529,1.402292 2.22272,2.486975 4.84209,2.407605 2.61938,-0.07937 4.7358,-1.296146 4.68291,-2.724896 -0.009,-0.2364 -0.0762,-0.462727 -0.19224,-0.676447 0.36571,0.01931 0.73755,0.02794 1.11829,0.01498 0.62457,-0.01688 1.22494,-0.08187 1.79834,-0.180354 0.95922,0.227092 2.03542,0.343472 3.17603,0.312645 2.95,-0.07973 5.43357,-1.135838 6.45698,-2.545582 0.30384,0.0114 0.61121,0.01585 0.92501,0.0052 0.52599,-0.01421 1.03523,-0.06161 1.52598,-0.134358 1.24481,0.5163 2.83657,0.801706 4.55943,0.743106 2.67814,-0.07238 4.97113,-0.949505 6.13709,-2.165242 0.45299,0.06291 0.93316,0.08998 1.42989,0.07493 1.57411,-0.0477 2.96246,-0.507769 3.81164,-1.176154 0.36248,0.101682 0.75398,0.177514 1.1679,0.224276 -0.0217,0.130977 -0.0354,0.262821 -0.032,0.396357 0.0529,2.090211 3.28072,3.704169 7.1701,3.571875 1.60885,-0.04348 3.07424,-0.380646 4.24471,-0.90382 1.30791,0.695701 3.14081,1.102075 5.15781,1.036111 -0.32276,0.362464 -0.50144,0.766707 -0.48575,1.190625 0.0529,1.402295 2.19573,2.486975 4.84156,2.407605 2.61938,-0.07937 4.73633,-1.296146 4.68344,-2.724896 -0.0175,-0.472665 -0.26902,-0.906544 -0.68987,-1.272791 0.40137,-0.394417 0.62788,-0.844931 0.61029,-1.320334 -0.0316,-0.836221 -0.81899,-1.557118 -2.00248,-1.987992 0.0135,-0.103804 0.0209,-0.208219 0.018,-0.313674 -0.0529,-2.090209 -3.28073,-3.704167 -7.17011,-3.571875 -1.60901,0.04348 -3.07366,0.380568 -4.24315,0.904335 -1.31159,-0.698307 -3.15139,-1.10549 -5.17591,-1.036627 -0.44505,0.01201 -0.87701,0.04938 -1.29656,0.104902 -0.67509,-0.983874 -2.46198,-1.643658 -4.55062,-1.56011 -0.60055,0.0182 -1.17256,0.09866 -1.70016,0.225308 -0.63783,-0.381365 -0.96515,-1.176893 -2.99516,-1.069702 -1.16227,-0.915548 -3.07819,-1.52154 -5.27307,-1.568381 z"
       style="fill:#2c7f34;stroke-width:0.26458332"
       inkscape:connector-curvature="0" /><path
       style="fill:#59af31;stroke-width:0.26458332"
       inkscape:connector-curvature="0"
       d="m 460.4865,83.777888 c 2.16958,2.169583 1.71979,5.318125 -1.00542,7.064375 -2.69875,1.719792 -6.6675,1.375833 -8.81062,-0.79375 -2.16959,-2.169583 -5.00063,-8.625417 -2.30188,-10.371667 2.69875,-1.719791 9.94834,1.931459 12.11792,4.101042 z"
       id="path4574" /><path
       id="path4580"
       d="m 450.37932,81.68768 0.13332,0.148312 -0.13332,-0.121957 5.62705,6.244582 -2.74299,-0.423748 3.07526,0.792199 1.91926,2.129586 -4.65035,-0.725535 5.28236,1.426784 3.79253,4.208529 c 0.34396,0.343958 0.97917,0.396875 1.40251,0.132292 0.0529,-0.02646 0.10583,-0.07895 0.13229,-0.105418 0.13229,-0.132292 0.21177,-0.264999 0.23823,-0.423749 0.0265,-0.211667 -0.0267,-0.423127 -0.21188,-0.581877 l -4.32739,-3.95583 -0.54105,-4.325835 -0.0434,3.791501 -2.27996,-2.08411 -0.2961,-2.527496 0.0217,2.276348 -5.64822,-5.162991 c -0.4372,-0.425792 -0.7252,-0.70103 -0.74983,-0.711587 z"
       style="fill:#a2532c;fill-opacity:1;stroke-width:0.26458332"
       inkscape:connector-curvature="0" /><path
       id="path4596"
       d="m 469.13837,78.35393 c 1.42875,2.8575 -0.29104,6.111875 -3.86291,7.276041 -3.57188,1.164167 -7.64646,-0.238125 -9.07521,-3.095625 -1.42875,-2.8575 0.29104,-6.111875 3.86292,-7.276041 3.57187,-1.164167 7.62,0.238125 9.0752,3.095625 z"
       inkscape:connector-curvature="0"
       style="fill:#3bab4b;stroke-width:0.26458332" /><path
       id="path4600"
       d="m 460.53943,76.078723 c -0.0101,0 1.2891,2.759498 2.78794,5.938136 l -4.16357,-1.652095 4.49792,2.43396 c 0.0127,0.0055 0.0262,0.0056 0.0393,0.0098 2.42155,5.133782 5.30511,11.234973 5.30511,11.234973 0.23813,0.47625 0.92583,0.688125 1.50792,0.476456 0.0794,-0.02646 0.1326,-0.05313 0.18552,-0.07958 0.18518,-0.105834 0.34385,-0.238022 0.42323,-0.42323 0.10583,-0.211667 0.10583,-0.476145 0,-0.687814 l -6.80114,-11.113532 0.82166,-3.915007 -1.12035,3.427182 -3.45715,-5.649267 0.0749,0.159679 c -0.044,-0.07212 -0.0932,-0.153887 -0.10128,-0.159679 z"
       style="fill:#a2532c;fill-opacity:1;stroke-width:0.26458332"
       inkscape:connector-curvature="0" /><path
       style="fill:#408f35;stroke-width:0.26458332"
       inkscape:connector-curvature="0"
       d="m 489.6965,73.59143 c -1.19063,4.206875 2.11666,8.387291 7.38187,9.339791 5.26521,0.9525 10.4775,-1.693333 11.66813,-5.900208 1.19062,-4.206875 -2.11667,-8.387291 -7.38188,-9.339791 -5.23875,-0.9525 -10.4775,1.693333 -11.66812,5.900208 z"
       id="path4612" /><path
       id="path4616"
       d="m 501.23255,68.405806 -3.80907,10.282576 -1.58853,-2.821535 1.42729,3.256132 -1.38803,3.747577 -2.81739,-4.754751 2.48513,5.652371 -2.59107,6.994921 c -0.10583,0.3175 -0.0266,0.608333 0.15865,0.846458 0.15875,0.185208 0.34417,0.343861 0.60875,0.42323 0.0794,0.02646 0.18518,0.05312 0.26458,0.07958 0.74084,0.132292 1.48135,-0.211566 1.66656,-0.820105 0,0 0.99296,-4.036965 1.72858,-7.027479 l 5.6007,-4.244186 -5.31233,3.072164 c 0.3952,-1.607156 0.45355,-1.842712 0.88262,-3.589446 l 3.26543,-2.472198 -3.09747,1.78697 c 1.30744,-5.323779 2.55434,-10.412283 2.54196,-10.412283 -0.007,0.0071 -0.0431,0.108426 -0.0703,0.180867 z"
       style="fill:#a2532c;stroke-width:0.26458332"
       inkscape:connector-curvature="0" /><path
       id="path4632"
       d="m 512.42421,83.777888 c -2.16959,2.169583 -1.7198,5.318125 1.00541,7.064375 2.69875,1.719792 6.6675,1.375833 8.81063,-0.79375 2.16958,-2.169583 5.00062,-8.625417 2.30187,-10.371667 -2.72521,-1.719791 -9.94833,1.931459 -12.11791,4.101042 z"
       inkscape:connector-curvature="0"
       style="fill:#3bab4b;fill-opacity:1;stroke-width:0.26458332" /><path
       id="path4638"
       d="m 522.50463,81.68768 c -0.0246,0.0105 -0.30843,0.282588 -0.74258,0.705385 l -5.65497,5.169193 0.0212,-2.276348 -0.29559,2.527496 -2.27997,2.08411 -0.0439,-3.791501 -0.54054,4.325835 -4.32737,3.95583 c -0.18518,0.15875 -0.23839,0.37021 -0.21188,0.581877 0.0265,0.15875 0.10594,0.291457 0.23823,0.423749 0.0265,0.02646 0.0794,0.07896 0.13229,0.105418 0.42334,0.264583 1.05802,0.211666 1.40198,-0.132292 l 3.79254,-4.208529 5.28288,-1.426784 -4.65087,0.725535 1.91873,-2.129586 3.07631,-0.792199 -2.74352,0.423748 5.62705,-6.244582 -0.12919,0.117825 c 0.006,-0.0077 0.12964,-0.14418 0.12919,-0.14418 z"
       style="fill:#a2532c;stroke-width:0.26458332"
       inkscape:connector-curvature="0" /><path
       style="fill:#92c035;stroke-width:0.26458332"
       inkscape:connector-curvature="0"
       d="m 503.77233,78.35393 c -1.42875,2.8575 0.29104,6.111875 3.86292,7.276041 3.57187,1.164167 7.64646,-0.238125 9.07521,-3.095625 1.42875,-2.8575 -0.29105,-6.111875 -3.86292,-7.276041 -3.57188,-1.164167 -7.64646,0.238125 -9.07521,3.095625 z"
       id="path4654" /><path
       id="path4658"
       d="m 512.34505,76.078723 -3.45768,5.649782 -1.11982,-3.427698 0.82166,3.915008 -6.80114,11.113532 c -0.10586,0.211669 -0.10586,0.476147 0,0.687813 0.0794,0.185209 0.23802,0.317397 0.42323,0.42323 0.0529,0.02646 0.10559,0.05312 0.185,0.07958 0.58208,0.211669 1.27031,-2.07e-4 1.50844,-0.476457 0,0 2.88353,-6.101177 5.30511,-11.234972 0.013,-0.0043 0.0265,-0.0043 0.0393,-0.0098 l 4.49792,-2.43396 -4.16409,1.652096 c 1.49886,-3.178689 2.79844,-5.938137 2.78847,-5.938137 -0.008,0.0058 -0.0573,0.08756 -0.10129,0.159679 z"
       style="fill:#a2532c;stroke-width:0.26458332"
       inkscape:connector-curvature="0" /><path
       id="path4672"
       d="m 483.18775,73.59143 c 1.19062,4.206875 -2.11667,8.387291 -7.38188,9.339791 -5.2652,0.9525 -10.4775,-1.693333 -11.66812,-5.900208 -1.19063,-4.206875 2.11667,-8.387291 7.38187,-9.339791 5.26521,-0.9525 10.4775,1.693333 11.66813,5.900208 z"
       inkscape:connector-curvature="0"
       style="fill:#adca40;stroke-width:0.26458332" /><path
       id="path4676"
       d="m 471.65193,68.405806 c -0.0124,0 1.23451,5.088496 2.54195,10.412283 l -3.09747,-1.78697 3.26543,2.472198 c 0.42908,1.74675 0.48739,1.98228 0.88262,3.589446 l -5.31233,-3.072164 5.6007,4.244186 c 0.73562,2.990485 1.72805,7.027479 1.72805,7.027479 0.18521,0.608539 0.92625,0.952397 1.66709,0.820105 0.0794,-0.02646 0.18521,-0.05313 0.26458,-0.07958 0.26458,-0.07937 0.45,-0.238022 0.60875,-0.42323 0.18521,-0.238125 0.26448,-0.528958 0.15865,-0.846458 l -2.60348,-7.027994 2.47119,-5.619298 -2.80139,4.727361 -1.37821,-3.720187 1.42782,-3.256132 -1.58853,2.822051 -3.80907,-10.283092 0.0439,0.180351 c -0.0271,-0.0721 -0.0632,-0.173289 -0.0703,-0.180351 z"
       style="fill:#a2532c;fill-opacity:1;stroke-width:0.26458332"
       inkscape:connector-curvature="0" /><path
       id="path4692"
       d="m 496.20525,76.316638 c 0,4.312708 -4.36563,7.805208 -9.76313,7.805208 -5.3975,0 -9.76312,-3.4925 -9.76312,-7.805208 0,-4.312708 4.36562,-14.366875 9.76312,-14.366875 5.3975,-0.02646 9.76313,10.054167 9.76313,14.366875 z"
       inkscape:connector-curvature="0"
       style="fill:#59af31;stroke-width:0.26458332" /><path
       id="path4698"
       d="m 486.54818,64.542474 c -0.01,0.01762 -0.0204,0.216855 -0.0315,0.499713 l -0.71363,11.248409 -2.61536,-2.69906 2.58538,3.16983 -0.27131,4.276744 -4.50979,-4.509805 4.44727,5.498373 -0.5054,7.969025 c 0,0.317497 0.18552,0.634791 0.45011,0.846457 0.21166,0.15875 0.47635,0.264891 0.76739,0.317812 0.10584,0.02646 0.18511,0.02635 0.29094,0.02635 0.82021,0 1.50791,-0.555524 1.50791,-1.21698 0,0 -0.24005,-4.480044 -0.41703,-7.788672 l 4.59766,-5.65237 -4.66638,4.367694 c -0.0963,-1.795667 -0.10914,-2.056808 -0.21497,-4.01216 l 2.6851,-3.292303 -2.72645,2.54713 c -0.32171,-5.932747 -0.63514,-11.608583 -0.6599,-11.596193 z"
       style="fill:#a2532c;stroke-width:0.26458332"
       inkscape:connector-curvature="0" /><path
       id="path4560"
       d="m 539.19071,158.19396 c -8.18906,28.98805 -38.45645,45.41878 -67.58381,36.71924 -14.9651,-4.46691 -26.73486,-14.71268 -33.5109,-27.55115 -0.0321,-0.0469 -0.0482,-0.0937 -0.0803,-0.15618 -2.47278,-4.7168 -4.27116,-9.77722 -5.31486,-15.00944 0,0 0,0 0,-0.0157 -1.63781,-8.23097 -1.41301,-16.93051 1.01159,-25.50511 6.14983,-21.75666 24.72774,-36.438106 45.93901,-38.734035 3.16322,-0.343608 6.39067,-0.406083 9.63418,-0.187423 0,0 0,0 0,0 3.78945,0.265516 7.611,0.921496 11.41651,2.014795 0.19269,0.06247 0.40143,0.10933 0.59411,0.171804 2.58517,0.780928 5.09006,1.718042 7.46649,2.82696 23.89278,11.026709 37.25219,37.687589 30.9418,63.505079 -0.17663,0.65598 -0.3372,1.28072 -0.51383,1.92108 z"
       inkscape:connector-curvature="0"
       style="fill:#30cbef;fill-opacity:1;stroke-width:0.15836252" /><path
       id="path4562"
       d="m 539.57611,152.92306 c -0.56199,1.01159 -0.80284,2.11952 -0.80284,2.11952 0,0 -0.81891,5.02584 -3.40408,6.75999 -2.58518,1.73416 -2.97054,-2.0874 -5.78052,-2.02318 -2.80997,0.0803 -0.43353,3.33985 -0.73861,4.84921 -0.30509,1.50936 -2.44067,0.89919 -3.91791,0.0963 -1.47724,-0.78679 0.24086,-2.50489 1.01159,-6.19799 0.77074,-3.69311 1.39696,-3.19534 1.31667,-6.198 -0.0963,-3.00266 0.0803,-3.16322 1.34879,-4.70469 1.2685,-1.52542 0.85102,-1.18822 1.75021,-6.05349 0.91525,-4.84921 -3.16322,-8.41386 -3.16322,-8.41386 0,0 -3.3238,-4.91343 -2.03924,-6.1177 1.28456,-1.20428 -0.25691,-2.66546 -1.2685,-3.80551 -0.32114,-0.36931 -0.28903,-0.83496 -0.1124,-1.28455 8.26935,2.03923 15.01328,14.9651 15.80006,30.97391 z"
       inkscape:connector-curvature="0"
       style="fill:#80ac29;stroke-width:0.1605698" /><path
       id="path4564"
       d="m 509.13208,181.03883 c 0,0 -2.10347,-0.99553 -2.9866,0.30509 -0.88313,1.30062 -1.0437,2.84209 -0.80285,2.90631 0.16057,0.0482 2.34432,-0.85102 3.40408,-1.81444 0.57805,-0.52988 0.38537,-1.39696 0.38537,-1.39696 z"
       inkscape:connector-curvature="0"
       style="fill:#80ac29;stroke-width:0.1605698" /><path
       id="path4566"
       d="m 460.80057,122.88045 c -0.30509,1.0437 -1.65387,4.04636 -1.81444,3.01871 -0.16057,-1.0437 -1.50936,-1.14004 -1.73416,-0.40142 -0.2248,0.73862 -1.65387,9.79475 -3.4683,10.18012 -1.81444,0.38537 -3.00266,-1.31667 -3.25957,-2.55306 -0.25691,-1.23638 -7.86792,-4.19087 -8.5102,-0.96341 -0.64228,3.21139 -2.44066,6.02136 -2.537,5.39514 0,0 0,0 0,-0.0161 0,0 0,0 0,0 -0.73863,-4.65653 -0.48171,-9.55391 0.94736,-14.371 3.61282,-12.23542 13.69661,-20.44054 24.98466,-21.64481 0,0.44959 -0.32114,0.99553 -1.12399,1.65387 -3.86973,3.16322 -9.87504,7.37015 -10.61366,10.35675 -0.72257,2.9866 -0.20875,5.61995 2.66546,4.9295 2.89026,-0.70651 4.78498,3.3559 4.46384,4.41566 z"
       inkscape:connector-curvature="0"
       style="fill:#80ac29;stroke-width:0.1605698" /><path
       id="path4568"
       d="m 449.0308,153.29237 c 2.40854,-1.36485 3.40408,3.00266 6.10165,3.46831 2.69758,0.48171 4.5923,1.55753 4.49596,3.61282 -0.0963,2.05529 -1.17216,3.67705 -1.39696,7.28987 -0.20874,3.61282 0,5.636 1.63781,8.83134 1.62176,3.19534 0.8992,6.40674 0.0161,5.89291 -0.88314,-0.51382 -3.099,-0.96342 -4.15876,-2.26403 -1.04371,-1.30062 -2.11953,-4.8171 -3.45225,-7.93215 -1.33273,-3.11506 -6.77605,-4.78498 -7.41833,-7.30593 -0.62622,-2.52095 2.03924,-7.33804 2.03924,-7.33804 0,0 -0.0963,-2.9866 2.13557,-4.2551 z"
       inkscape:connector-curvature="0"
       style="fill:#80ac29;stroke-width:0.1605698" /><path
       id="path4570"
       d="m 491.06798,89.241073 c -0.57805,1.156103 -1.55753,2.264034 -2.56912,3.066883 -2.52095,1.991065 -1.94289,2.007123 -4.17482,3.098997 -2.24797,1.091875 -1.99106,3.275624 -2.64939,5.668117 -0.65835,2.39249 0,0 -2.11953,2.80997 -2.11952,2.80997 -2.537,-1.1561 -6.71182,-3.08294 -4.17481,-1.926839 -0.22479,-3.468309 8.30146,-6.374623 5.87686,-1.991065 4.64047,-4.849208 3.30774,-6.438849 2.21587,0.176627 4.41567,0.594108 6.61548,1.252445 z"
       inkscape:connector-curvature="0"
       style="fill:#80ac29;stroke-width:0.1605698" /><path
       inkscape:connector-curvature="0"
       id="polygon5566"
       d="M 426.1,6.8 411,55.6 426.1,106.8 H 0 L 13.2,55.6 0,6.8 Z"
       style="fill:#ea8c19"
       transform="matrix(0.28747781,0,0,0.24988351,425.20821,128.24081)" /><path
       d="m 470.59726,133.5365 q 0,-0.60278 -0.44662,-0.99029 -0.42632,-0.40902 -1.03536,-0.64582 -0.60903,-0.25834 -1.25868,-0.34445 -0.64963,-0.10764 -1.07596,-0.10764 -0.14211,0 -0.28421,0.0215 -0.12181,0 -0.26392,0 l -0.0609,3.74583 h 0.0812 q 0.36543,0 1.09627,-0.043 0.73084,-0.0646 1.44139,-0.23681 0.73083,-0.17222 1.25867,-0.49513 0.54812,-0.34445 0.54812,-0.90417 z m 3.16699,17.88959 q 0,0.25833 -0.22331,0.25833 l -4.42566,0.27986 q -0.1015,0 -0.18271,-0.0646 -0.0609,-0.0646 -0.0609,-0.17222 0,-0.23681 0.203,-0.23681 l 2.03012,-0.12916 q 0.0406,-0.68889 0.0609,-1.37778 0.0406,-0.68889 0.0406,-1.37778 0,-1.9375 -0.16241,-3.83195 -0.1421,-1.91597 -0.48723,-3.81041 -0.1218,-0.66736 -0.32482,-1.35626 -0.1827,-0.68888 -0.48723,-1.31319 -0.30451,-0.62431 -0.75114,-1.1625 -0.42633,-0.5382 -1.01505,-0.88264 -0.40603,-0.2368 -0.83235,-0.36598 -0.42632,-0.15069 -0.89325,-0.12916 h -0.0812 l -0.22331,15.6507 1.42108,0.30139 q 0.18271,0.043 0.18271,0.23681 0,0.23681 -0.22331,0.23681 -0.0609,0 -0.38572,-0.0646 -0.32482,-0.0646 -0.81205,-0.17222 -0.46693,-0.10764 -1.01506,-0.23681 -0.52783,-0.10763 -1.03536,-0.21528 -0.48723,-0.10764 -0.85265,-0.19375 -0.36542,-0.0861 -0.48723,-0.10764 -0.18271,-0.043 -0.18271,-0.2368 0,-0.23681 0.22331,-0.23681 0.0609,0 0.36542,0.0646 0.30452,0.0646 0.66994,0.15069 0.36542,0.0861 0.69025,0.1507 0.34511,0.0861 0.44662,0.10763 l -0.89325,-19.61181 q -0.34513,0.043 -0.71054,0.0646 -0.36542,0.0215 -0.71055,0.0646 -0.1624,0.0215 -0.30451,0.0431 -0.14211,0.0215 -0.30452,0.0215 -0.0812,0 -0.16241,-0.043 -0.0812,-0.0646 -0.0812,-0.17222 0,-0.23681 0.20302,-0.25834 0.34512,-0.0861 0.71054,-0.0861 0.36542,-0.0215 0.71054,-0.043 0.85265,-0.0861 1.7053,-0.0861 0.87295,-0.0215 1.7256,-0.10764 h 0.0609 q 0.38572,-0.043 0.93386,-0.043 0.54813,0 1.15716,0.0646 0.62934,0.0646 1.23837,0.21527 0.62933,0.12918 1.11657,0.40904 0.48723,0.27986 0.79174,0.71041 0.30452,0.43056 0.30452,1.03333 0,0.64584 -0.34512,1.05487 -0.34512,0.40902 -0.85265,0.64583 -0.50753,0.23681 -1.09626,0.34444 -0.56843,0.10764 -1.03536,0.1507 0.95415,0.64584 1.52258,1.82986 0.56844,1.18403 0.85265,2.56181 0.30453,1.35625 0.38573,2.75555 0.10151,1.37778 0.10151,2.45418 0,1.54999 -0.10151,3.07847 -0.10151,1.55 -0.30452,3.07848 l 1.94891,-0.10765 q 0.10151,0 0.16242,0.0431 0.0812,0.0646 0.0812,0.17222 z"
       style="font-size:20.90548515px;font-family:FontdinerdotcomSparkly;fill:#ffffff;stroke-width:0.24266014"
       id="path5653"
       inkscape:connector-curvature="0" /><path
       d="m 476.26098,142.53511 q 0,-0.21528 -0.0203,-0.53819 -0.0203,-0.32292 -0.1218,-0.60278 -0.0812,-0.30139 -0.24362,-0.51666 -0.16241,-0.21529 -0.46692,-0.21529 -0.28422,0 -0.50753,0.32292 -0.20302,0.30139 -0.36543,0.73195 -0.14211,0.40902 -0.24361,0.83958 -0.0812,0.40903 -0.12181,0.6243 l 2.07072,-0.17222 q 0.0203,-0.10764 0.0203,-0.2368 0,-0.12916 0,-0.23681 z m 1.42107,0.60278 q 0,0.21528 -0.22331,0.25834 l -3.34969,0.27986 q -0.0203,0.27986 -0.0406,0.55972 0,0.25833 0,0.55972 0,0.32292 0.0406,0.81805 0.0406,0.49515 0.16241,0.96876 0.14211,0.49514 0.40602,0.83958 0.26392,0.34444 0.69025,0.34444 0.32481,0 0.52782,-0.10764 0.20301,-0.10763 0.34512,-0.2368 0.14211,-0.10763 0.22331,-0.21528 0.0812,-0.10764 0.16242,-0.10764 0.22331,0 0.22331,0.23681 0,0.0646 -0.0203,0.10764 -0.0812,0.19375 -0.26392,0.34445 -0.1624,0.15068 -0.36542,0.2368 -0.20301,0.10763 -0.42632,0.1507 -0.22331,0.0646 -0.40602,0.0646 -0.64965,0 -1.11658,-0.3875 -0.44662,-0.3875 -0.75114,-0.96874 -0.28422,-0.58125 -0.42632,-1.24861 -0.14211,-0.66737 -0.14211,-1.22709 0,-0.58125 0.12181,-1.3132 0.14211,-0.73194 0.42633,-1.37777 0.30451,-0.64583 0.77143,-1.09792 0.48724,-0.45209 1.15718,-0.45209 0.89325,0 1.40078,0.62431 0.50752,0.60278 0.73083,1.42084 0.0406,0.2368 0.0812,0.47361 0.0609,0.21527 0.0609,0.45208 z"
       style="font-size:20.90548515px;font-family:FontdinerdotcomSparkly;fill:#ffffff;stroke-width:0.24266014"
       id="path5655"
       inkscape:connector-curvature="0" /><path
       d="m 480.22953,135.83997 -0.22331,2.13126 -0.22331,-2.13126 -1.19777,1.1625 1.11657,-1.3132 -1.05567,-0.21527 1.05567,-0.19375 -1.11657,-1.31319 1.19777,1.16249 0.22331,-2.13125 0.22331,2.13125 1.19778,-1.16249 -1.11657,1.31319 1.05566,0.19375 -1.05566,0.21527 1.11657,1.3132 z m 2.94368,9.02014 q 0,0.43056 -0.20302,0.75347 -0.20301,0.32292 -0.50752,0.5382 -0.30453,0.21527 -0.69025,0.32292 -0.36542,0.10764 -0.73084,0.10764 -0.26391,0 -0.64963,-0.0646 -0.38573,-0.0646 -0.75115,-0.21527 -0.34512,-0.1507 -0.60903,-0.3875 -0.24362,-0.25834 -0.24362,-0.64584 0,-0.36597 0.22331,-0.58124 0.24362,-0.23681 0.58874,-0.23681 0.26391,0 0.54813,0.21527 0.28422,0.19375 0.28422,0.51667 0,0.2368 -0.22331,0.2368 -0.12182,0 -0.16242,-0.0646 -0.0406,-0.0861 -0.0812,-0.17223 -0.0406,-0.10763 -0.12181,-0.17222 -0.0609,-0.0861 -0.24361,-0.0861 -0.26392,0 -0.26392,0.34444 0,0.23681 0.20302,0.40903 0.20301,0.1507 0.48723,0.25833 0.28421,0.0861 0.56842,0.12917 0.28422,0.0215 0.44663,0.0215 0.18271,0 0.38573,-0.0215 0.203,-0.043 0.38572,-0.12917 0.18271,-0.10763 0.28422,-0.25833 0.1218,-0.17222 0.1218,-0.40903 0,-0.25833 -0.28422,-0.43055 -0.28421,-0.17223 -0.71054,-0.32292 -0.40602,-0.1507 -0.89325,-0.32292 -0.48723,-0.19375 -0.91356,-0.45208 -0.40602,-0.27987 -0.69023,-0.68889 -0.28422,-0.40902 -0.28422,-1.03333 0,-0.49514 0.18271,-0.90417 0.18271,-0.43055 0.48723,-0.73194 0.32482,-0.32292 0.73084,-0.49515 0.40603,-0.19375 0.85265,-0.21527 0.16241,0 0.34512,0.0215 0.18271,0 0.34513,0 0.40601,0 0.73083,-0.0861 0.32482,-0.10764 0.48723,-0.55972 0.0406,-0.17222 0.20301,-0.17222 0.10151,0 0.16241,0.0646 0.0812,0.0646 0.0812,0.17223 l -0.203,2.66945 -0.0609,0.94722 q 0,0.10763 -0.0812,0.17221 -0.0609,0.043 -0.16241,0.043 -0.10151,0 -0.16242,-0.0646 -0.0406,-0.0861 -0.0406,-0.19375 0.0203,-0.27986 0.0406,-0.5382 0.0406,-0.27986 0.0406,-0.55972 0,-0.75348 -0.44663,-1.09791 -0.44662,-0.34445 -1.11656,-0.34445 -0.56843,0 -0.97445,0.30139 -0.40603,0.30138 -0.40603,0.96875 0,0.47361 0.26392,0.79653 0.28422,0.32292 0.69024,0.58124 0.40602,0.23681 0.89325,0.45209 0.48723,0.19375 0.89325,0.43056 0.40602,0.21527 0.66994,0.49514 0.28422,0.27986 0.28422,0.68888 z"
       style="font-size:20.90548515px;font-family:FontdinerdotcomSparkly;fill:#ffffff;stroke-width:0.24266014"
       id="path5657"
       inkscape:connector-curvature="0" /><path
       d="m 490.02168,145.11845 q 0,0.25833 -0.22332,0.25833 l -1.62409,0.12917 q -0.20301,0 -0.24361,-0.21528 l -0.10151,-1.24861 q -0.28422,0.55972 -0.75114,0.92569 -0.44662,0.36597 -1.09627,0.36597 -0.56843,0 -0.95415,-0.27986 -0.36543,-0.30139 -0.58874,-0.75347 -0.22331,-0.45209 -0.32481,-0.99027 -0.0812,-0.5382 -0.0812,-1.01181 0,-0.60279 0.0406,-1.18403 0.0406,-0.60278 0.1015,-1.18403 l -0.87295,0.0646 q -0.10151,0 -0.16241,-0.0646 -0.0812,-0.0646 -0.0812,-0.17222 0,-0.23681 0.20302,-0.23681 l 1.88801,-0.12916 q 0.1218,-0.0215 0.18271,0.0646 0.0609,0.0861 0.0609,0.19375 0,0.23681 -0.0406,0.51667 -0.0406,0.25834 -0.0812,0.49514 -0.0812,0.6889 -0.1624,1.42084 -0.0609,0.71041 -0.0609,1.39931 0,0.21527 0.0406,0.47361 0.0609,0.2368 0.16241,0.45208 0.12181,0.19374 0.28422,0.32292 0.18271,0.12916 0.44662,0.12916 0.58874,0 0.91356,-0.51666 0.32482,-0.51667 0.48722,-1.22708 0.18272,-0.71042 0.22332,-1.44237 0.0406,-0.73195 0.0406,-1.1625 0,-0.23681 -0.0203,-0.45208 -0.0203,-0.23681 -0.0203,-0.47361 0,-0.25834 0.20301,-0.25834 l 0.79175,-0.0861 q 0.1015,-0.0215 0.18271,0.0646 0.0812,0.0646 0.0609,0.17222 l -0.10149,5.48958 1.03536,-0.0646 q 0.10149,0 0.1624,0.0646 0.0812,0.043 0.0812,0.1507 z"
       style="font-size:20.90548515px;font-family:FontdinerdotcomSparkly;fill:#ffffff;stroke-width:0.24266014"
       id="path5659"
       inkscape:connector-curvature="0" /><path
       d="m 493.23149,142.53511 q 0,-0.21528 -0.0203,-0.53819 -0.0203,-0.32292 -0.1218,-0.60278 -0.0812,-0.30139 -0.24362,-0.51666 -0.16241,-0.21529 -0.46692,-0.21529 -0.28422,0 -0.50753,0.32292 -0.20302,0.30139 -0.36543,0.73195 -0.14211,0.40902 -0.24361,0.83958 -0.0812,0.40903 -0.12181,0.6243 l 2.07072,-0.17222 q 0.0203,-0.10764 0.0203,-0.2368 0,-0.12916 0,-0.23681 z m 1.42108,0.60278 q 0,0.21528 -0.22332,0.25834 l -3.34969,0.27986 q -0.0203,0.27986 -0.0406,0.55972 0,0.25833 0,0.55972 0,0.32292 0.0406,0.81805 0.0406,0.49515 0.16241,0.96876 0.14211,0.49514 0.40602,0.83958 0.26392,0.34444 0.69025,0.34444 0.32481,0 0.52783,-0.10764 0.203,-0.10763 0.34511,-0.2368 0.14211,-0.10763 0.22331,-0.21528 0.0812,-0.10764 0.16242,-0.10764 0.22331,0 0.22331,0.23681 0,0.0646 -0.0203,0.10764 -0.0812,0.19375 -0.26392,0.34445 -0.16241,0.15068 -0.36542,0.2368 -0.20301,0.10763 -0.42633,0.1507 -0.22331,0.0646 -0.40601,0.0646 -0.64964,0 -1.11658,-0.3875 -0.44662,-0.3875 -0.75114,-0.96874 -0.28422,-0.58125 -0.42632,-1.24861 -0.14211,-0.66737 -0.14211,-1.22709 0,-0.58125 0.12181,-1.3132 0.14211,-0.73194 0.42633,-1.37777 0.30451,-0.64583 0.77143,-1.09792 0.48724,-0.45209 1.15718,-0.45209 0.89325,0 1.40077,0.62431 0.50753,0.60278 0.73085,1.42084 0.0406,0.2368 0.0812,0.47361 0.0609,0.21527 0.0609,0.45208 z"
       style="font-size:20.90548515px;font-family:FontdinerdotcomSparkly;fill:#ffffff;stroke-width:0.24266014"
       id="path5661"
       inkscape:connector-curvature="0" /><path
       d="m 497.98101,147.33581 q 0,0.21528 -0.20301,0.25834 l -2.67976,0.32291 h -0.0203 q -0.1015,0.0215 -0.16241,-0.043 -0.0609,-0.0646 -0.0609,-0.17223 0,-0.21528 0.1827,-0.25833 l 0.93386,-0.10764 -0.38572,-14.22986 q -0.26392,0.043 -0.64964,0.12916 -0.38572,0.0646 -0.62933,0.0646 -0.10151,0 -0.16242,-0.0646 -0.0609,-0.0861 -0.0609,-0.19375 0,-0.21528 0.20301,-0.21528 l 2.57825,-0.40903 h 0.0406 q 0.10151,0 0.16241,0.0646 0.0609,0.0646 0.0406,0.17222 l -0.38572,14.57431 q 0.24362,-0.0215 0.50754,-0.0861 0.28421,-0.043 0.50752,-0.043 0.10151,0 0.16241,0.0646 0.0812,0.0646 0.0812,0.17222 z"
       style="font-size:20.90548515px;font-family:FontdinerdotcomSparkly;fill:#ffffff;stroke-width:0.24266014"
       id="path5663"
       inkscape:connector-curvature="0" /><path
       d="m 504.29118,138.27261 q 0,0.19375 -0.20301,0.2368 l -0.85265,0.0646 -2.70005,8.1375 q -0.0406,0.17223 -0.22332,0.17223 -0.16241,0 -0.20301,-0.17223 -0.0406,-0.1507 -0.22332,-0.79652 -0.1624,-0.66737 -0.40602,-1.55001 -0.22331,-0.90417 -0.50752,-1.89444 -0.26392,-1.01181 -0.48724,-1.85139 -0.22331,-0.86111 -0.36542,-1.42083 -0.1421,-0.58126 -0.1421,-0.62431 -0.20302,0.043 -0.40602,0.0646 -0.22332,0.0215 -0.42633,0.0215 -0.22332,0 -0.22332,-0.23681 0,-0.19375 0.20302,-0.2368 l 2.61885,-0.25834 h 0.0203 q 0.10151,-0.0215 0.16241,0.0646 0.0812,0.0646 0.0812,0.17221 0,0.19376 -0.22331,0.23682 l -0.56843,0.043 1.42108,6.54444 2.11133,-6.39375 q -0.22332,0.0215 -0.46693,0.043 -0.22332,0.0215 -0.44663,0.0215 -0.22331,0 -0.22331,-0.23681 0,-0.2368 0.22331,-0.2368 0.52783,-0.043 1.11656,-0.0861 0.58874,-0.0646 1.11657,-0.0646 0.22331,0 0.22331,0.23681 z"
       style="font-size:20.90548515px;font-family:FontdinerdotcomSparkly;fill:#ffffff;stroke-width:0.24266014"
       id="path5665"
       inkscape:connector-curvature="0" /><path
       d="m 506.71845,137.84205 -0.22332,2.13126 -0.22331,-2.13126 -1.19778,1.16251 1.11657,-1.3132 -1.05566,-0.21528 1.05566,-0.19375 -1.11657,-1.31319 1.19778,1.1625 0.22331,-2.13125 0.22332,2.13125 1.19776,-1.1625 -1.11656,1.31319 1.05565,0.19375 -1.05565,0.21528 1.11656,1.3132 z m 0.91354,5.12362 q 0,-0.79654 -0.38572,-1.11945 -0.38572,-0.34445 -1.09626,-0.34445 -0.69024,0 -1.23837,0.40904 -0.52783,0.3875 -0.52783,1.20556 0,0.73193 0.48723,1.09791 0.50752,0.36597 1.13686,0.36597 0.64964,0 1.13686,-0.45209 0.48723,-0.47361 0.48723,-1.16249 z m 1.27898,0.043 q 0,0.51667 -0.30452,0.90417 -0.30452,0.3875 -0.75115,0.64583 -0.44662,0.25834 -0.95414,0.3875 -0.50754,0.10764 -0.91356,0.10764 -0.42633,0 -0.97445,-0.10764 -0.52784,-0.10763 -0.99476,-0.34445 -0.46693,-0.2368 -0.79175,-0.62429 -0.30452,-0.40904 -0.30452,-0.99029 0,-0.55972 0.34512,-0.92569 0.34513,-0.36598 0.83235,-0.60278 0.48723,-0.23681 1.03536,-0.32292 0.54814,-0.10764 0.93385,-0.10764 0.40603,0 0.89325,0.12918 0.50754,0.10763 0.93386,0.34443 0.42632,0.23682 0.71054,0.62431 0.30452,0.36598 0.30452,0.88264 z"
       style="font-size:20.90548515px;font-family:FontdinerdotcomSparkly;fill:#ffffff;stroke-width:0.24266014"
       id="path5667"
       inkscape:connector-curvature="0" /></g></svg>