<?xml version="1.0" encoding="UTF-8" standalone="no"?>
<!-- Generator: Adobe Illustrator 18.0.0, SVG Export Plug-In . SVG Version: 6.00 Build 0)  -->

<svg
   xmlns:dc="http://purl.org/dc/elements/1.1/"
   xmlns:cc="http://creativecommons.org/ns#"
   xmlns:rdf="http://www.w3.org/1999/02/22-rdf-syntax-ns#"
   xmlns:svg="http://www.w3.org/2000/svg"
   xmlns="http://www.w3.org/2000/svg"
   xmlns:xlink="http://www.w3.org/1999/xlink"
   xmlns:sodipodi="http://sodipodi.sourceforge.net/DTD/sodipodi-0.dtd"
   xmlns:inkscape="http://www.inkscape.org/namespaces/inkscape"
   version="1.1"
   id="Capa_1"
   x="0px"
   y="0px"
   viewBox="0 0 285.72864 167.02225"
   enable-background="new 0 0 634.8 370.9"
   xml:space="preserve"
   sodipodi:docname="boton_jugar.svg"
   inkscape:version="0.92.1 r"
   width="285.72864"
   height="167.02225"><metadata
     id="metadata463"><rdf:RDF><cc:Work
         rdf:about=""><dc:format>image/svg+xml</dc:format><dc:type
           rdf:resource="http://purl.org/dc/dcmitype/StillImage" /><dc:title></dc:title></cc:Work></rdf:RDF></metadata><defs
     id="defs461"><radialGradient
       id="SVGID_1_"
       cx="477.27121"
       cy="-7.6975002"
       r="161.6769"
       gradientTransform="matrix(-0.7225,0.1217,0.09629591,0.9132,854.962,97.9003)"
       gradientUnits="userSpaceOnUse"><stop
         offset="0"
         style="stop-color:#FFFFFF"
         id="stop6" /><stop
         offset="1"
         style="stop-color:#75B8E6;stop-opacity:0"
         id="stop8" /></radialGradient><linearGradient
       gradientTransform="matrix(-0.8546,0.2338,0.2055,0.9723,989.658,-73.6555)"
       y2="89.2481"
       x2="703.10602"
       y1="67.797501"
       x1="706.89142"
       gradientUnits="userSpaceOnUse"
       id="SVGID_21_"><stop
         id="stop284"
         style="stop-color:#B71824"
         offset="0" /><stop
         id="stop286"
         style="stop-color:#E64C3D"
         offset="0.5796" /><stop
         id="stop288"
         style="stop-color:#C02C38"
         offset="0.8749" /></linearGradient><linearGradient
       gradientTransform="matrix(-0.8546,0.2338,0.2055,0.9723,989.658,-73.6555)"
       y2="76.157501"
       x2="729.40479"
       y1="76.157501"
       x1="680.47992"
       gradientUnits="userSpaceOnUse"
       id="SVGID_22_"><stop
         id="stop293"
         style="stop-color:#E5232D"
         offset="0" /><stop
         id="stop295"
         style="stop-color:#EF7F84"
         offset="0.312" /></linearGradient><linearGradient
       gradientTransform="matrix(-0.8546,0.2338,0.2055,0.9723,989.658,-73.6555)"
       y2="18.9988"
       x2="683.79059"
       y1="18.9988"
       x1="462.0365"
       gradientUnits="userSpaceOnUse"
       id="SVGID_2_"><stop
         id="stop15"
         style="stop-color:#D06133"
         offset="0" /><stop
         id="stop17"
         style="stop-color:#EAB342"
         offset="0.4475" /><stop
         id="stop19"
         style="stop-color:#F0C343"
         offset="0.9048" /></linearGradient><linearGradient
       id="SVGID_4_"
       gradientUnits="userSpaceOnUse"
       x1="492.32971"
       y1="115.4585"
       x2="567.89972"
       y2="115.4585"
       gradientTransform="matrix(-0.8546,0.2338,0.2055,0.9723,989.658,-73.6555)"><stop
         offset="0"
         style="stop-color:#EAB342"
         id="stop51" /><stop
         offset="1"
         style="stop-color:#CA4A2D"
         id="stop53" /></linearGradient><linearGradient
       id="SVGID_5_"
       gradientUnits="userSpaceOnUse"
       x1="492.32941"
       y1="115.4578"
       x2="554.35309"
       y2="115.4578"
       gradientTransform="matrix(-0.8546,0.2338,0.2055,0.9723,989.658,-73.6555)"><stop
         offset="0"
         style="stop-color:#F7D573"
         id="stop58" /><stop
         offset="1"
         style="stop-color:#D05F33"
         id="stop60" /></linearGradient><linearGradient
       id="SVGID_6_"
       gradientUnits="userSpaceOnUse"
       x1="555.59308"
       y1="101.5202"
       x2="567.9007"
       y2="101.5202"
       gradientTransform="matrix(-0.8546,0.2338,0.2055,0.9723,989.658,-73.6555)"><stop
         offset="0"
         style="stop-color:#F7D573"
         id="stop65" /><stop
         offset="1"
         style="stop-color:#CA4A2D"
         id="stop67" /></linearGradient><linearGradient
       id="SVGID_7_"
       gradientUnits="userSpaceOnUse"
       x1="554.35309"
       y1="98.161797"
       x2="555.59308"
       y2="98.161797"
       gradientTransform="matrix(-0.8546,0.2338,0.2055,0.9723,989.658,-73.6555)"><stop
         offset="0"
         style="stop-color:#F7D573"
         id="stop72" /><stop
         offset="1"
         style="stop-color:#CA4A2D"
         id="stop74" /></linearGradient><linearGradient
       id="SVGID_3_"
       gradientUnits="userSpaceOnUse"
       x1="502.53979"
       y1="47.0443"
       x2="519.12152"
       y2="104.3698"
       gradientTransform="matrix(-0.8546,0.2338,0.2055,0.9723,989.658,-73.6555)"><stop
         offset="0"
         style="stop-color:#E5913C"
         id="stop32" /><stop
         offset="7.485702e-002"
         style="stop-color:#E79640"
         id="stop34" /><stop
         offset="0.1775"
         style="stop-color:#EBA54D"
         id="stop36" /><stop
         offset="0.2963"
         style="stop-color:#F2BD63"
         id="stop38" /><stop
         offset="0.4261"
         style="stop-color:#FCDC83"
         id="stop40" /><stop
         offset="0.4799"
         style="stop-color:#FFEB93"
         id="stop42" /><stop
         offset="0.9975"
         style="stop-color:#E79741"
         id="stop44" /></linearGradient><linearGradient
       id="SVGID_19_"
       gradientUnits="userSpaceOnUse"
       x1="576.09637"
       y1="60.877399"
       x2="685.22162"
       y2="60.877399"
       gradientTransform="matrix(-0.8546,0.2338,0.2055,0.9723,989.658,-73.6555)"><stop
         offset="0"
         style="stop-color:#D16433"
         id="stop262" /><stop
         offset="0.4792"
         style="stop-color:#EAB342"
         id="stop264" /><stop
         offset="1"
         style="stop-color:#F8D544"
         id="stop266" /></linearGradient><linearGradient
       id="SVGID_20_"
       gradientUnits="userSpaceOnUse"
       x1="576.09387"
       y1="57.155602"
       x2="685.20862"
       y2="57.155602"
       gradientTransform="matrix(-0.8546,0.2338,0.2055,0.9723,989.658,-73.6555)"><stop
         offset="0"
         style="stop-color:#EFC043"
         id="stop271" /><stop
         offset="1"
         style="stop-color:#FFE28D"
         id="stop273" /></linearGradient><linearGradient
       id="SVGID_18_"
       gradientUnits="userSpaceOnUse"
       x1="641.36542"
       y1="6.1666999"
       x2="657.95819"
       y2="63.530399"
       gradientTransform="matrix(-0.8546,0.2338,0.2055,0.9723,989.658,-73.6555)"><stop
         offset="0"
         style="stop-color:#E5913C"
         id="stop241" /><stop
         offset="7.485702e-002"
         style="stop-color:#E79640"
         id="stop243" /><stop
         offset="0.1775"
         style="stop-color:#EBA54D"
         id="stop245" /><stop
         offset="0.2963"
         style="stop-color:#F2BD63"
         id="stop247" /><stop
         offset="0.4261"
         style="stop-color:#FCDC83"
         id="stop249" /><stop
         offset="0.4799"
         style="stop-color:#FFEB93"
         id="stop251" /><stop
         offset="0.9975"
         style="stop-color:#E79741"
         id="stop253" /></linearGradient><linearGradient
       id="SVGID_26_"
       gradientUnits="userSpaceOnUse"
       x1="531.24658"
       y1="125.5172"
       x2="572.15912"
       y2="125.5172"
       gradientTransform="matrix(-0.8546,0.2338,0.2055,0.9723,989.658,-73.6555)"><stop
         offset="0"
         style="stop-color:#B71824"
         id="stop351" /><stop
         offset="0.105"
         style="stop-color:#BC1F27"
         id="stop353" /><stop
         offset="0.2489"
         style="stop-color:#C82E31"
         id="stop355" /><stop
         offset="0.4146"
         style="stop-color:#DE4644"
         id="stop357" /><stop
         offset="0.4971"
         style="stop-color:#EB5753"
         id="stop359" /><stop
         offset="0.8356"
         style="stop-color:#CD3537"
         id="stop361" /><stop
         offset="1"
         style="stop-color:#BD252B"
         id="stop363" /></linearGradient><radialGradient
       id="SVGID_23_"
       cx="435.6022"
       cy="-37.283798"
       r="34.792702"
       gradientTransform="matrix(-0.7087,0.2153,0.1003,0.5273,852.0031,88.5487)"
       gradientUnits="userSpaceOnUse"><stop
         offset="0"
         style="stop-color:#E64C3D"
         id="stop302" /><stop
         offset="0.5586"
         style="stop-color:#F8D544"
         id="stop304" /><stop
         offset="0.6171"
         style="stop-color:#F8D144"
         id="stop306" /><stop
         offset="0.6955"
         style="stop-color:#F6C646"
         id="stop308" /><stop
         offset="0.7851"
         style="stop-color:#F3B347"
         id="stop310" /><stop
         offset="0.8823"
         style="stop-color:#EF9546"
         id="stop312" /><stop
         offset="0.9772"
         style="stop-color:#EB7042"
         id="stop314" /></radialGradient><linearGradient
       id="SVGID_24_"
       gradientUnits="userSpaceOnUse"
       x1="548.90558"
       y1="82.978996"
       x2="551.40411"
       y2="122.0182"
       gradientTransform="matrix(-0.8546,0.2338,0.2055,0.9723,989.658,-73.6555)"><stop
         offset="0"
         style="stop-color:#E5913C"
         id="stop319" /><stop
         offset="7.485702e-002"
         style="stop-color:#E79640"
         id="stop321" /><stop
         offset="0.1775"
         style="stop-color:#EBA54D"
         id="stop323" /><stop
         offset="0.2963"
         style="stop-color:#F2BD63"
         id="stop325" /><stop
         offset="0.4261"
         style="stop-color:#FCDC83"
         id="stop327" /><stop
         offset="0.4799"
         style="stop-color:#FFEB93"
         id="stop329" /><stop
         offset="0.9975"
         style="stop-color:#E79741"
         id="stop331" /></linearGradient><radialGradient
       gradientUnits="userSpaceOnUse"
       gradientTransform="matrix(-0.7087,0.2153,0.1704,0.8957,854.6157,102.2842)"
       r="9.5108004"
       cy="-30.486601"
       cx="456.8125"
       id="SVGID_27_"><stop
         id="stop370"
         style="stop-color:#F0878C"
         offset="0" /><stop
         id="stop372"
         style="stop-color:#E5232D"
         offset="1" /></radialGradient><radialGradient
       gradientUnits="userSpaceOnUse"
       gradientTransform="matrix(-0.7087,0.2153,0.1704,0.8957,854.6157,102.2842)"
       r="9.5127001"
       cy="-10.3665"
       cx="407.45541"
       id="SVGID_25_"><stop
         id="stop340"
         style="stop-color:#B43632"
         offset="0" /><stop
         id="stop342"
         style="stop-color:#661222"
         offset="0.9641" /></radialGradient><linearGradient
       gradientTransform="matrix(-0.8546,0.2338,0.2055,0.9723,989.658,-73.6555)"
       y2="74.071602"
       x2="739.74048"
       y1="74.071602"
       x1="700.02942"
       gradientUnits="userSpaceOnUse"
       id="SVGID_13_"><stop
         id="stop138"
         style="stop-color:#EAB342"
         offset="0" /><stop
         id="stop140"
         style="stop-color:#F8D544"
         offset="1" /></linearGradient><radialGradient
       id="SVGID_15_"
       cx="406.6459"
       cy="-96.591499"
       r="17.786501"
       gradientTransform="matrix(-0.7087,0.2153,0.1704,0.8957,854.6157,102.2842)"
       gradientUnits="userSpaceOnUse"><stop
         offset="0"
         style="stop-color:#D7443D"
         id="stop188" /><stop
         offset="1"
         style="stop-color:#E5913C"
         id="stop190" /></radialGradient><linearGradient
       id="SVGID_14_"
       gradientUnits="userSpaceOnUse"
       x1="535.48682"
       y1="27.992201"
       x2="535.17279"
       y2="77.919197"
       gradientTransform="matrix(-0.8546,0.2338,0.2055,0.9723,989.658,-73.6555)"><stop
         offset="0"
         style="stop-color:#EB7044"
         id="stop155" /><stop
         offset="9.835823e-002"
         style="stop-color:#EF9647"
         id="stop157" /><stop
         offset="0.199"
         style="stop-color:#F3B348"
         id="stop159" /><stop
         offset="0.2917"
         style="stop-color:#F6C646"
         id="stop161" /><stop
         offset="0.3729"
         style="stop-color:#F8D145"
         id="stop163" /><stop
         offset="0.4335"
         style="stop-color:#F8D544"
         id="stop165" /><stop
         offset="0.5279"
         style="stop-color:#F8D344"
         id="stop167" /><stop
         offset="0.6262"
         style="stop-color:#F6CA46"
         id="stop169" /><stop
         offset="0.7264"
         style="stop-color:#F5BC47"
         id="stop171" /><stop
         offset="0.8279"
         style="stop-color:#F2A747"
         id="stop173" /><stop
         offset="0.9294"
         style="stop-color:#EE8A46"
         id="stop175" /><stop
         offset="1"
         style="stop-color:#EB7044"
         id="stop177" /></linearGradient><linearGradient
       gradientTransform="matrix(-0.8546,0.2338,0.2055,0.9723,989.658,-73.6555)"
       y2="60.439301"
       x2="591.44"
       y1="37.663399"
       x1="595.45929"
       gradientUnits="userSpaceOnUse"
       id="SVGID_12_"><stop
         id="stop121"
         style="stop-color:#E64C3D"
         offset="0" /><stop
         id="stop123"
         style="stop-color:#B71824"
         offset="0.5813" /><stop
         id="stop125"
         style="stop-color:#661222"
         offset="0.9641" /></linearGradient><radialGradient
       gradientUnits="userSpaceOnUse"
       gradientTransform="matrix(-0.6655,0.3756,0.1315,0.3722,830.3387,-7.3781)"
       r="99.009903"
       cy="-51.369598"
       cx="516.44232"
       id="SVGID_10_"><stop
         id="stop103"
         style="stop-color:#F29195"
         offset="0" /><stop
         id="stop105"
         style="stop-color:#E5232D"
         offset="1" /></radialGradient><radialGradient
       gradientUnits="userSpaceOnUse"
       gradientTransform="matrix(-0.6655,0.3756,0.1722,0.4876,832.083,-2.4816)"
       r="100.3535"
       cy="-50.725899"
       cx="524.49652"
       id="SVGID_11_"><stop
         id="stop110"
         style="stop-color:#F29195;stop-opacity:0"
         offset="4.384566e-004" /><stop
         id="stop112"
         style="stop-color:#AD1E2B"
         offset="1" /></radialGradient><radialGradient
       gradientUnits="userSpaceOnUse"
       gradientTransform="matrix(-0.6927,0.2868,0.1004,0.3874,839.4937,2.0228)"
       r="102.9094"
       cy="-18.7169"
       cx="521.29413"
       id="SVGID_8_"><stop
         id="stop85"
         style="stop-color:#F29195"
         offset="0" /><stop
         id="stop87"
         style="stop-color:#E5232D"
         offset="1" /></radialGradient><radialGradient
       gradientUnits="userSpaceOnUse"
       gradientTransform="matrix(-0.6927,0.2868,0.1315,0.5074,839.7528,3.9124)"
       r="104.3368"
       cy="-16.3339"
       cx="529.31543"
       id="SVGID_9_"><stop
         id="stop92"
         style="stop-color:#F29195;stop-opacity:0"
         offset="4.384566e-004" /><stop
         id="stop94"
         style="stop-color:#AD1E2B"
         offset="1" /></radialGradient><linearGradient
       gradientTransform="matrix(-0.8713,0.1321,0.1161,0.9912,990.0756,-78.4142)"
       y2="115.435"
       x2="545.57098"
       y1="115.435"
       x1="518.91602"
       gradientUnits="userSpaceOnUse"
       id="SVGID_17_"><stop
         id="stop212"
         style="stop-color:#F2F5F5"
         offset="5.663720e-002" /><stop
         id="stop214"
         style="stop-color:#FFF6C5"
         offset="0.5214" /><stop
         id="stop216"
         style="stop-color:#F1F5F6"
         offset="0.8097" /></linearGradient><linearGradient
       gradientTransform="matrix(-0.8713,0.1321,0.1161,0.9912,990.0756,-78.4142)"
       y2="110.8723"
       x2="519.39349"
       y1="110.8723"
       x1="492.44379"
       gradientUnits="userSpaceOnUse"
       id="SVGID_16_"><stop
         id="stop199"
         style="stop-color:#F2F5F5"
         offset="5.663720e-002" /><stop
         id="stop201"
         style="stop-color:#FFF6C5"
         offset="0.5214" /><stop
         id="stop203"
         style="stop-color:#F1F5F6"
         offset="0.8097" /></linearGradient><linearGradient
       gradientTransform="matrix(-0.1210413,0.03311427,0.029106,0.13771174,431.65531,169.16522)"
       y2="101.5202"
       x2="567.9007"
       y1="101.5202"
       x1="555.59308"
       gradientUnits="userSpaceOnUse"
       id="SVGID_6_-3"><stop
         id="stop65-6"
         style="stop-color:#F7D573"
         offset="0" /><stop
         id="stop67-7"
         style="stop-color:#CA4A2D"
         offset="1" /></linearGradient><linearGradient
       gradientTransform="matrix(-0.1210413,0.03311427,0.029106,0.13771174,431.65531,169.16522)"
       y2="98.161797"
       x2="555.59308"
       y1="98.161797"
       x1="554.35309"
       gradientUnits="userSpaceOnUse"
       id="SVGID_7_-5"><stop
         id="stop72-3"
         style="stop-color:#F7D573"
         offset="0" /><stop
         id="stop74-5"
         style="stop-color:#CA4A2D"
         offset="1" /></linearGradient><radialGradient
       id="SVGID_8_-6"
       cx="521.29413"
       cy="-18.7169"
       r="102.9094"
       gradientTransform="matrix(-0.09811058,0.04062093,0.01422016,0.05486941,410.38679,179.88391)"
       gradientUnits="userSpaceOnUse"><stop
         offset="0"
         style="stop-color:#F29195"
         id="stop85-2" /><stop
         offset="1"
         style="stop-color:#E5232D"
         id="stop87-9" /></radialGradient><mask
       maskUnits="userSpaceOnUse"
       x="78.9"
       y="149.8"
       width="301.3"
       height="201.4"
       id="SVGID_28_"><g
         id="g400"
         style="filter:url(#Adobe_OpacityMaskFilter-2)"><path
           style="fill:#ffffff"
           inkscape:connector-curvature="0"
           d="m 355.8,189.1 c 0.8,5.8 3.9,9.4 7,8 3.1,-1.4 5.1,-7.3 4.3,-13.1 -0.8,-5.8 -3.9,-9.4 -7,-8 -3.1,1.4 -5,7.3 -4.3,13.1 z"
           id="path398" /></g></mask><filter
       height="201.39999"
       width="301.29999"
       y="149.8"
       x="78.900002"
       filterUnits="userSpaceOnUse"
       id="Adobe_OpacityMaskFilter-2"><feColorMatrix
         style="color-interpolation-filters:sRGB"
         id="feColorMatrix389"
         result="source"
         values="-1 0 0 0 1  0 -1 0 0 1  0 0 -1 0 1  0 0 0 1 0"
         type="matrix" /><feFlood
         id="feFlood391"
         result="back" /><feBlend
         id="feBlend393"
         mode="normal"
         in2="back"
         in="source" /></filter><linearGradient
       id="SVGID_29_"
       gradientUnits="userSpaceOnUse"
       x1="744.26453"
       y1="102.9153"
       x2="1072.5839"
       y2="102.9153"
       gradientTransform="matrix(-0.8546,0.2338,0.2055,0.9723,989.658,-73.6555)"><stop
         offset="3.778699e-002"
         style="stop-color:#FFFFFF"
         id="stop407" /><stop
         offset="1"
         style="stop-color:#E4F4FD"
         id="stop409" /></linearGradient><mask
       maskUnits="userSpaceOnUse"
       x="359.1"
       y="138.9"
       width="48"
       height="59.1"
       id="SVGID_30_"><g
         id="g427"
         style="filter:url(#Adobe_OpacityMaskFilter_1_-5)"><path
           style="fill:#ffffff"
           inkscape:connector-curvature="0"
           d="m 361.4,166.4 c 0.6,-1.2 1.2,-2.2 2,-2.8 1.8,-1.6 3,-5 4.5,-7.4 2.6,-4.3 5.5,-8.3 8.5,-11.6 7,-7.7 15.7,-10.2 23.7,-10.2 1.3,0 2.6,0.2 3.8,1.4 1.1,1.2 1.9,3.7 1.6,6 -10.9,6 -21.6,13.6 -31.9,22.9 -1.7,1.5 -3.4,3.1 -4.6,5.6 -1.2,2.4 -1.2,5.3 -2,8.1 -0.1,0.4 -0.3,0.9 -0.5,1 -0.2,0.1 -0.4,0 -0.6,-0.1 -1.1,-0.6 -2,-2.2 -3.1,-3 -1.1,-0.8 -2.4,-0.9 -3.5,-0.1 -0.5,-1.3 -0.3,-3.2 0.1,-4.6 0.6,-1.7 1.3,-3.6 2,-5.2 z"
           id="path425" /></g></mask><filter
       height="59.099998"
       width="48"
       y="138.89999"
       x="359.10001"
       filterUnits="userSpaceOnUse"
       id="Adobe_OpacityMaskFilter_1_-5"><feColorMatrix
         style="color-interpolation-filters:sRGB"
         id="feColorMatrix416"
         result="source"
         values="-1 0 0 0 1  0 -1 0 0 1  0 0 -1 0 1  0 0 0 1 0"
         type="matrix" /><feFlood
         id="feFlood418-4"
         result="back" /><feBlend
         id="feBlend420-0"
         mode="normal"
         in2="back"
         in="source" /></filter><path
       style="fill:none;stroke-width:0.14163503"
       inkscape:connector-curvature="0"
       id="SVGID_x5F_32_x5F_"
       d="m 307.1924,217.4423 c 0,0 12.43556,-1.38803 23.83717,-2.35115 6.52938,-0.55237 17.47776,-4.64563 17.15201,-7.45" /><filter
       id="filter11078"
       filterUnits="userSpaceOnUse"
       x="78.900002"
       y="149.8"
       width="301.29999"
       height="201.39999"><feColorMatrix
         style="color-interpolation-filters:sRGB"
         type="matrix"
         values="-1 0 0 0 1  0 -1 0 0 1  0 0 -1 0 1  0 0 0 1 0"
         result="source"
         id="feColorMatrix11072" /><feFlood
         result="back"
         id="feFlood11074" /><feBlend
         in="source"
         in2="back"
         mode="normal"
         id="feBlend11076" /></filter><filter
       id="filter11097"
       filterUnits="userSpaceOnUse"
       x="359.10001"
       y="138.89999"
       width="48"
       height="59.099998"><feColorMatrix
         style="color-interpolation-filters:sRGB"
         type="matrix"
         values="-1 0 0 0 1  0 -1 0 0 1  0 0 -1 0 1  0 0 0 1 0"
         result="source"
         id="feColorMatrix11091" /><feFlood
         result="back"
         id="feFlood11093" /><feBlend
         in="source"
         in2="back"
         mode="normal"
         id="feBlend11095" /></filter></defs><sodipodi:namedview
     pagecolor="#ffffff"
     bordercolor="#666666"
     borderopacity="1"
     objecttolerance="10"
     gridtolerance="10"
     guidetolerance="10"
     inkscape:pageopacity="0"
     inkscape:pageshadow="2"
     inkscape:window-width="1920"
     inkscape:window-height="1012"
     id="namedview459"
     showgrid="false"
     inkscape:zoom="1.2725802"
     inkscape:cx="84.092805"
     inkscape:cy="16.137625"
     inkscape:window-x="0"
     inkscape:window-y="32"
     inkscape:window-maximized="1"
     inkscape:current-layer="Capa_1"
     fit-margin-top="0"
     fit-margin-left="0"
     fit-margin-right="0"
     fit-margin-bottom="0" /><g
     transform="matrix(3.7795276,0,0,3.7795276,-1141.1418,-699.77323)"
     id="g11448"><path
       inkscape:connector-curvature="0"
       style="fill:#f6d044;fill-opacity:1;stroke-width:0.14163503"
       id="path22"
       d="m 351.49584,185.192 c -0.41075,-0.11331 -0.92064,0 -1.11893,0.2691 l -2.09619,2.77605 c -0.19829,0.26911 -0.0283,0.58071 0.38241,0.70817 l 25.56513,7.36503 c 0.41074,0.1133 0.92062,0 1.11891,-0.26911 l 2.0962,-2.77605 c 0.19829,-0.2691 0.0283,-0.5807 -0.38241,-0.70817 L 351.49584,185.192" /><path
       d="m 370.914,203.03802 c 0.1133,-0.0141 0.21245,-0.11332 0.2691,-0.24078 l 3.49839,-8.6964 c 0.085,-0.22661 0.0141,-0.49572 -0.1558,-0.60903 -0.18412,-0.11331 -0.39658,-0.0283 -0.48156,0.19829 l -2.94601,7.32253 -0.75066,-9.34791 c -0.0141,-0.25495 -0.19829,-0.43907 -0.39658,-0.41075 -0.19829,0.0283 -0.33993,0.25495 -0.32576,0.49573 l 0.87814,10.89174 c 0.0141,0.19829 0.14163,0.36824 0.29743,0.39658 0.0425,0.0141 0.0708,0.0141 0.11331,0 z"
       id="path30"
       inkscape:connector-curvature="0"
       style="fill:#e5913c;stroke-width:0.14163503" /><path
       d="m 368.10963,200.21948 6.8268,1.96872 c 0.779,0.22661 1.0481,0.87814 0.6232,1.44468 -0.42491,0.56654 -0.79316,1.0481 -0.80733,1.0481 -0.0141,0 -0.0567,0.0283 -0.0567,0.0283 0,0 -0.0567,0.0141 -0.14164,0.0141 -0.0708,0.0141 -0.87814,-0.19829 -1.65713,-0.42491 l -6.96845,-2.01121 c 0.0567,-0.0708 0.0991,-0.14164 0.14164,-0.21246 0.92062,-0.60902 1.57215,-1.28888 2.03955,-1.85541 z"
       id="path56"
       style="fill:#f6d044;fill-opacity:1;stroke-width:0.14163503"
       inkscape:connector-curvature="0" /><path
       d="m 365.94261,202.30151 0.1133,0.0283 c 0.49573,-0.41075 0.8923,-0.83565 1.21807,-1.2039 -0.33992,0.32576 -0.7365,0.65152 -1.17557,0.96312 -0.0567,0.0708 -0.0991,0.14163 -0.1558,0.21245 z"
       id="path70"
       style="fill:url(#SVGID_6_-3);stroke-width:0.14163503"
       inkscape:connector-curvature="0" /><path
       d="m 367.27398,201.12594 c 0.0425,-0.0425 0.085,-0.085 0.12747,-0.12747 h -0.0141 c -0.0425,0.0425 -0.085,0.085 -0.1133,0.12747 z"
       id="path77"
       style="fill:url(#SVGID_7_-5);stroke-width:0.14163503"
       inkscape:connector-curvature="0" /><path
       inkscape:connector-curvature="0"
       style="fill:url(#SVGID_8_-6);stroke-width:0.14163503"
       id="path90"
       d="m 348.28072,205.09172 c 0.12747,0.66568 0.50989,1.11892 0.84981,1.01977 0.0141,0 0.0283,-0.0141 0.0283,-0.0141 14.24848,-2.6344 15.04164,-3.00265 15.04164,-3.00265 3.34258,-1.30305 4.71644,-4.06493 4.71644,-4.06493 l -2.71938,-7.47833 c -1.85543,0.58071 -4.70229,2.54943 -7.50667,4.88641 -5.11302,4.24906 -10.01359,7.23755 -10.01359,7.23755 v 0 c -0.0141,0 -0.0141,0 -0.0283,0 -0.33994,0.1133 -0.50989,0.75066 -0.36826,1.41635 z" /><path
       inkscape:connector-curvature="0"
       style="fill:#b52532;fill-opacity:1;stroke-width:0.14163503"
       id="path97"
       d="m 348.28072,205.09172 c 0.12747,0.66568 0.50989,1.11892 0.84981,1.01977 0.0141,0 0.0283,-0.0141 0.0283,-0.0141 14.24848,-2.6344 15.04164,-3.00265 15.04164,-3.00265 3.34258,-1.30305 4.71644,-4.06493 4.71644,-4.06493 l -2.71938,-7.47833 c -1.85543,0.58071 -4.70229,2.54943 -7.50667,4.88641 -5.11302,4.24906 -10.01359,7.23755 -10.01359,7.23755 v 0 c -0.0141,0 -0.0141,0 -0.0283,0 -0.33994,0.1133 -0.50989,0.75066 -0.36826,1.41635 z" /><path
       inkscape:connector-curvature="0"
       style="fill:#e5913c;fill-opacity:1;stroke-width:0.14163503"
       id="path128"
       d="m 359.73899,197.81168 c -0.53821,-0.69401 -0.48155,-1.43051 -0.29743,-1.99705 1.17557,-0.94896 2.32282,-1.79877 3.39924,-2.50694 -0.92062,1.38802 0.0141,2.63441 0.0141,2.63441 z" /><path
       inkscape:connector-curvature="0"
       style="fill:#f6d044;fill-opacity:1;stroke-width:0.14163503"
       id="path143"
       d="m 344.08832,202.99553 c -0.63736,-3.1868 4.10742,-4.8156 4.75894,-1.50134 l 0.085,0.43907 c 0.12747,0.66569 0.0283,1.33137 -0.25494,1.86958 0.0991,0.48156 0.45323,2.29448 0.45323,2.29448 0.0141,0.0425 -0.96312,0 -0.99144,0 -0.90647,-0.0991 -2.03955,-0.14163 -2.84687,-0.75065 -0.35409,-0.26912 -0.60903,-0.66569 -0.82148,-1.10476 -0.0567,-0.0991 -0.11331,-0.21246 -0.1558,-0.32576 -0.0567,-0.1558 -0.11331,-0.3116 -0.14163,-0.49572 0,0.0141 -0.085,-0.4249 -0.085,-0.4249 z" /><path
       d="m 366.01342,191.60806 c 0,0 0.97728,-0.75066 1.26056,-0.83564 1.54382,-0.41074 2.88935,0.97728 3.54088,2.6769 0.14163,0.36825 0.24078,0.73651 0.31159,1.0906 0.11331,0.52404 0.16996,1.11891 0.0567,1.65712 -0.3116,1.52966 -1.09059,2.33698 -2.09619,3.1443 0,0 -0.0141,0 -0.0141,0.0141 -0.0425,0.0425 -0.0991,0.0708 -0.14163,0.085 -0.84982,0.39658 -2.01122,-1.17557 -2.73355,-3.44173 -1.07644,-3.41341 -0.18414,-4.39069 -0.18414,-4.39069 z"
       id="path180"
       style="fill:#f6d044;fill-opacity:1;stroke-width:0.14163503"
       inkscape:connector-curvature="0" /><path
       d="m 368.36456,194.85151 c 0.56655,1.473 1.47301,2.37947 2.03955,2.03954 0.56654,-0.33992 0.56654,-1.81292 0.0141,-3.28593 -0.56655,-1.473 -1.47301,-2.37947 -2.03955,-2.03955 -0.5807,0.35409 -0.5807,1.8271 -0.0141,3.28594 z"
       id="path193"
       style="fill:#e5913c;fill-opacity:1;stroke-width:0.14163503"
       inkscape:connector-curvature="0" /><path
       inkscape:connector-curvature="0"
       style="fill:#ffffff;stroke-width:0.14163503"
       id="path206"
       d="m 371.96209,192.35873 c -0.87813,0.19829 -2.49277,1.64296 -2.49277,1.64296 0,0 2.28033,0.53823 3.04515,0.35409 0.26911,-0.0708 0.36826,-0.56653 0.22662,-1.11891 -0.1558,-0.55238 -0.50988,-0.94896 -0.779,-0.87814 z" /><path
       inkscape:connector-curvature="0"
       style="fill:#ffffff;stroke-width:0.14163503"
       id="path219"
       d="m 366.52331,193.8459 c 0.86397,-0.26911 3.00267,0.14164 3.00267,0.14164 0,0 -1.65713,1.61463 -2.4078,1.84125 -0.26911,0.085 -0.6232,-0.28327 -0.79316,-0.83565 -0.1558,-0.55237 -0.0708,-1.06226 0.19829,-1.14724 z" /><path
       d="m 369.25686,194.21415 c 0.0991,0.35409 0.32577,0.59487 0.49573,0.55238 0.16996,-0.0425 0.22662,-0.36826 0.12748,-0.72234 -0.0991,-0.35409 -0.32577,-0.59487 -0.49573,-0.55238 -0.16996,0.0425 -0.24078,0.36825 -0.12748,0.72234 z"
       id="path225"
       inkscape:connector-curvature="0"
       style="fill:#f6d044;fill-opacity:1;stroke-width:0.14163503" /><path
       d="m 354.25771,197.79751 c 0.14165,-0.0283 0.25495,-0.14163 0.29744,-0.31159 l 2.08204,-8.5406 c 0.0567,-0.24078 -0.0424,-0.49572 -0.24078,-0.56653 -0.18413,-0.0708 -0.39658,0.0567 -0.45324,0.29743 l -1.69961,6.98261 -1.54383,-7.81825 c -0.0424,-0.24078 -0.24078,-0.39658 -0.43907,-0.32577 -0.19829,0.0567 -0.3116,0.3116 -0.2691,0.55238 l 1.86958,9.41873 c 0.0425,0.19829 0.18413,0.33993 0.33993,0.33993 0.0141,-0.0141 0.0424,-0.0141 0.0567,-0.0283 z"
       id="path239"
       inkscape:connector-curvature="0"
       style="fill:#e5913c;stroke-width:0.14163503" /><path
       d="m 350.02284,196.45199 c 0.4249,-0.56655 0.79314,-1.04811 0.82148,-1.06227 0,0 0,0 0.0425,-0.0141 0.12747,-0.0425 0.12747,-0.0425 0.12747,-0.0425 0.14164,0.0141 0.8923,0.21246 1.6713,0.43908 l 11.54326,3.32842 c -0.19829,0.70817 -0.49573,1.38803 -0.84981,2.02538 -0.0567,0.12747 -0.11332,0.25494 -0.18413,0.38242 l -12.54886,-3.6117 c -0.779,-0.22661 -1.06227,-0.87814 -0.62319,-1.44467 z"
       id="path269"
       style="fill:#f6d044;fill-opacity:1;stroke-width:0.14163503"
       inkscape:connector-curvature="0" /><polygon
       style="fill:#b52532;fill-opacity:1"
       id="polygon291"
       points="408.2,175 424.9,164.7 399.4,159.7 381.9,170.8 "
       transform="matrix(0.14163503,0,0,0.14163503,291.48507,179.59741)" /><path
       d="m 368.77531,199.48297 1.79876,4.91474 0.65152,-0.38241 -1.81293,-4.95723 c -0.0991,0.0991 -0.21245,0.18412 -0.32575,0.2691 0,0 0,0.0141 -0.0141,0.0141 -0.0424,0.0425 -0.0991,0.0708 -0.14163,0.085 -0.0424,0.0283 -0.0991,0.0425 -0.1558,0.0567 z m -2.49278,4.80143 1.62881,-6.34525 -0.67986,-0.28327 -1.62879,6.34525 z"
       id="path317"
       style="fill:#e5913c;fill-opacity:1;stroke-width:0.14163503"
       inkscape:connector-curvature="0" /><path
       style="fill:#522323;fill-opacity:1;stroke-width:0.14163503"
       inkscape:connector-curvature="0"
       id="path338"
       d="m 370.00753,205.62993 c 0.24078,1.23223 1.06226,2.03954 1.81293,1.79876 0.76483,-0.24077 1.17557,-1.43051 0.93479,-2.66274 -0.24078,-1.23221 -1.06226,-2.03953 -1.81293,-1.79876 -0.76482,0.24078 -1.17557,1.43052 -0.93479,2.66274 z" /><path
       inkscape:connector-curvature="0"
       style="fill:#b52532;fill-opacity:1;stroke-width:0.14163503"
       id="path345"
       d="m 371.66466,206.62138 c 0.39658,-0.12748 0.60903,-0.8923 0.45323,-1.65714 -0.1558,-0.76482 -0.62319,-1.3172 -1.01977,-1.18972 -0.39657,0.12746 -0.60903,0.90646 -0.45323,1.65712 0.1558,0.75067 0.62319,1.31721 1.01977,1.18974 z" /><path
       d="m 371.15478,205.72908 c 0.1558,-0.0283 0.28327,-0.16997 0.31159,-0.36826 0.0283,-0.25493 -0.0991,-0.48155 -0.29743,-0.52404 l -5.16967,-1.13308 c -0.19829,-0.0425 -0.38243,0.12747 -0.41075,0.36825 -0.0283,0.25494 0.0991,0.48156 0.29744,0.52405 l 5.16968,1.13308 c 0.0283,0.0141 0.0708,0.0141 0.0991,0 z"
       id="path349"
       inkscape:connector-curvature="0"
       style="fill:#b52532;fill-opacity:1;stroke-width:0.14163503" /><path
       style="fill:#522323;fill-opacity:1;stroke-width:0.14163503"
       inkscape:connector-curvature="0"
       id="path368"
       d="m 364.56875,204.58183 c 0.24078,1.23223 1.06226,2.03955 1.81293,1.79877 0.76482,-0.24078 1.17557,-1.43051 0.93479,-2.66274 -0.24078,-1.23222 -1.06227,-2.03955 -1.81293,-1.79877 -0.76483,0.24079 -1.17557,1.43052 -0.93479,2.66274 z" /><path
       inkscape:connector-curvature="0"
       style="fill:#b52532;fill-opacity:1;stroke-width:0.14163503"
       id="path375"
       d="m 366.22588,205.57328 c 0.39658,-0.12747 0.60903,-0.8923 0.45323,-1.65713 -0.1558,-0.76483 -0.6232,-1.3172 -1.01978,-1.18973 -0.39657,0.12746 -0.60902,0.8923 -0.45322,1.65712 0.14163,0.76484 0.62319,1.31721 1.01977,1.18974 z" /><g
       id="g449"
       transform="matrix(0.14163503,0,0,0.14163503,291.48507,179.59741)"><defs
         id="defs396"><filter
           id="filter4826"
           filterUnits="userSpaceOnUse"
           x="78.900002"
           y="149.8"
           width="301.29999"
           height="201.39999"><feColorMatrix
             style="color-interpolation-filters:sRGB"
             type="matrix"
             values="-1 0 0 0 1  0 -1 0 0 1  0 0 -1 0 1  0 0 0 1 0"
             result="source"
             id="feColorMatrix4820" /><feFlood
             result="back"
             id="feFlood4822" /><feBlend
             in="source"
             in2="back"
             mode="normal"
             id="feBlend4824" /></filter></defs><mask
         maskUnits="userSpaceOnUse"
         x="78.9"
         y="149.8"
         width="301.3"
         height="201.4"
         id="mask11545"><g
           id="g11543"
           style="filter:url(#Adobe_OpacityMaskFilter-2)"><path
             style="fill:#ffffff"
             inkscape:connector-curvature="0"
             d="m 355.8,189.1 c 0.8,5.8 3.9,9.4 7,8 3.1,-1.4 5.1,-7.3 4.3,-13.1 -0.8,-5.8 -3.9,-9.4 -7,-8 -3.1,1.4 -5,7.3 -4.3,13.1 z"
             id="path11541" /></g></mask><g
         mask="url(#SVGID_28_)"
         id="g414"><path
           style="fill:#52b3dd"
           inkscape:connector-curvature="0"
           d="m 91,351.2 c 80.8,-120.3 188.3,-16.7 274.6,-106.5 5.2,-16.1 10,-32.4 14.6,-49.1 -2,-15.3 -3.9,-30.5 -5.9,-45.8 -6.9,1.7 -13.8,2.1 -20.8,1.4 -86.4,89.8 -193.9,-13.7 -274.6,106.5 6.6,9.7 13,19.7 19.3,30 -2.6,21.1 -5,42.3 -7.2,63.5 z"
           id="path403" /><path
           style="fill:#ffffff"
           inkscape:connector-curvature="0"
           d="m 100.9,326.5 c 1.5,-13.7 3,-26.1 4.4,-37.9 l 0.3,-2.5 -1.3,-2.1 c -5.6,-9.2 -11.2,-18 -16.7,-26.2 40.6,-57.4 87.4,-57.5 137,-57.6 44.4,-0.1 90.2,-0.2 131.7,-41.6 1.2,0.1 2.4,0.1 3.5,0.1 2.8,0 5.5,-0.2 8.3,-0.5 l 4.8,36.8 c -4.4,16 -8.9,31 -13.6,45.8 -37.6,38.2 -78.9,38.3 -122.6,38.4 -46.3,0.1 -93.9,0.2 -135.8,47.3 z"
           id="path405" /><linearGradient
           id="linearGradient11553"
           gradientUnits="userSpaceOnUse"
           x1="744.26453"
           y1="102.9153"
           x2="1072.5839"
           y2="102.9153"
           gradientTransform="matrix(-0.8546,0.2338,0.2055,0.9723,989.658,-73.6555)"><stop
             offset="3.778699e-002"
             style="stop-color:#FFFFFF"
             id="stop11549" /><stop
             offset="1"
             style="stop-color:#E4F4FD"
             id="stop11551" /></linearGradient><path
           style="fill:url(#SVGID_29_)"
           inkscape:connector-curvature="0"
           d="m 103.6,320.5 c 1.3,-11.3 2.5,-21.6 3.7,-31.6 l 0.4,-3.2 -1.7,-2.7 c -5.4,-8.8 -10.7,-17.2 -16,-25.1 39.8,-55.4 85.8,-55.5 134.5,-55.6 44.6,-0.1 90.6,-0.2 132.5,-41.5 0.9,0 1.8,0.1 2.7,0.1 2.2,0 4.3,-0.1 6.5,-0.3 l 4.5,34.4 c -4.3,15.7 -8.7,30.4 -13.3,44.8 -36.9,37.3 -77.7,37.4 -120.8,37.4 -45.1,0.1 -91.6,0.2 -133,43.3 z"
           id="path412" /></g><defs
         id="defs423"><filter
           id="filter4845"
           filterUnits="userSpaceOnUse"
           x="359.10001"
           y="138.89999"
           width="48"
           height="59.099998"><feColorMatrix
             style="color-interpolation-filters:sRGB"
             type="matrix"
             values="-1 0 0 0 1  0 -1 0 0 1  0 0 -1 0 1  0 0 0 1 0"
             result="source"
             id="feColorMatrix4839" /><feFlood
             result="back"
             id="feFlood4841" /><feBlend
             in="source"
             in2="back"
             mode="normal"
             id="feBlend4843" /></filter></defs><mask
         maskUnits="userSpaceOnUse"
         x="359.1"
         y="138.9"
         width="48"
         height="59.1"
         id="mask11566"><g
           id="g11564"
           style="filter:url(#Adobe_OpacityMaskFilter_1_-5)"><path
             style="fill:#ffffff"
             inkscape:connector-curvature="0"
             d="m 361.4,166.4 c 0.6,-1.2 1.2,-2.2 2,-2.8 1.8,-1.6 3,-5 4.5,-7.4 2.6,-4.3 5.5,-8.3 8.5,-11.6 7,-7.7 15.7,-10.2 23.7,-10.2 1.3,0 2.6,0.2 3.8,1.4 1.1,1.2 1.9,3.7 1.6,6 -10.9,6 -21.6,13.6 -31.9,22.9 -1.7,1.5 -3.4,3.1 -4.6,5.6 -1.2,2.4 -1.2,5.3 -2,8.1 -0.1,0.4 -0.3,0.9 -0.5,1 -0.2,0.1 -0.4,0 -0.6,-0.1 -1.1,-0.6 -2,-2.2 -3.1,-3 -1.1,-0.8 -2.4,-0.9 -3.5,-0.1 -0.5,-1.3 -0.3,-3.2 0.1,-4.6 0.6,-1.7 1.3,-3.6 2,-5.2 z"
             id="path11562" /></g></mask><g
         mask="url(#SVGID_30_)"
         id="g447"><g
           id="g445"><path
             style="fill:#49bfda"
             inkscape:connector-curvature="0"
             d="m 404.9,140.9 c -3.8,0.2 -8,2.2 -11.7,3.8 -4.2,1.9 -8.2,5.1 -12,9 -4,4.1 -22.1,23 -16.8,33.1 3,5.7 8.6,5.3 12.4,4.1 4.4,-1.3 8.4,-5.1 12,-9.4 3.5,-4.2 6.9,-9.3 9.8,-14.7 1.5,-2.7 2.5,-5.9 3.4,-9.3 0.6,-2.3 1,-4.7 1.5,-7.1 0.1,-0.5 1.4,-9.2 -0.3,-7.7 -1.1,1 -2,-1.8 -0.9,-3 1.2,-1.3 2.2,-0.9 3.4,0.4 1.9,2 1.3,6.5 0.9,9.7 -1.4,11.3 -4.1,19.2 -8.8,26.7 -8.7,14 -20.5,26.5 -32.4,19.5 -4.2,-2.5 -7.5,-8.7 -6,-17.2 0.8,-4.3 3.1,-7.9 4.8,-10.9 2.3,-3.9 4.9,-7.4 7.5,-10.7 5,-6.4 10.6,-11.2 16.4,-14.6 2.5,-1.5 5.2,-2.7 7.8,-3.2 3.2,-0.5 5.7,0.4 8.8,1.2 0.4,-0.1 0.3,0.3 0.2,0.3 z"
             id="path430" /><g
             id="g443"><linearGradient
               id="SVGID_31_"
               gradientUnits="userSpaceOnUse"
               x1="680.96503"
               y1="168.44231"
               x2="731.651"
               y2="168.44231"
               gradientTransform="matrix(-0.879,0,0,1,1003.7546,-1.980549e-5)"><stop
                 offset="1.923230e-002"
                 style="stop-color:#76C9DF"
                 id="stop432" /><stop
                 offset="0.3695"
                 style="stop-color:#F8FCFE"
                 id="stop434" /><stop
                 offset="0.6349"
                 style="stop-color:#FFFFFF"
                 id="stop436" /><stop
                 offset="1"
                 style="stop-color:#49BFDA"
                 id="stop438" /></linearGradient></g></g></g></g><path
       style="fill:none;stroke-width:0.14163503"
       inkscape:connector-curvature="0"
       id="path11578"
       d="m 307.1924,217.4423 c 0,0 12.43556,-1.38803 23.83717,-2.35115 6.52938,-0.55237 17.47776,-4.64563 17.15201,-7.45" /><path
       inkscape:connector-curvature="0"
       style="fill:#ffffff;fill-opacity:1;stroke:none;stroke-width:0.92475915;stroke-linecap:butt;stroke-linejoin:miter;stroke-miterlimit:4;stroke-dasharray:none;stroke-opacity:1"
       d="m 344.93572,203.49958 -2.33345,-0.0789 c 0,0 -3.84933,2.37935 -6.07777,2.97562 -9.55453,2.55657 -18.98867,-1.91057 -27.78164,1.77188 -2.47237,1.03542 -6.21497,4.38619 -6.21497,4.38619 l 2.19617,3.89975 -1.68823,6.21927 c 0,0 3.49047,-3.56665 8.80829,-4.83942 7.70346,-1.84377 16.11773,1.12761 23.80222,-0.56934 2.45592,-0.54234 6.75682,-2.98997 6.75682,-2.98997 l 2.57686,-5.61323 z m -1.69968,2.44891 a 0.85448973,1.3965868 7.7585788 0 1 0.68961,1.45941 0.85448973,1.3965868 7.7585788 0 1 -1.01449,1.31379 0.85448973,1.3965868 7.7585788 0 1 -0.68961,-1.45941 0.85448973,1.3965868 7.7585788 0 1 1.01449,-1.31379 z"
       id="path5904-3" /><path
       inkscape:connector-curvature="0"
       style="color:#000000;font-style:normal;font-variant:normal;font-weight:normal;font-stretch:normal;font-size:medium;line-height:normal;font-family:sans-serif;font-variant-ligatures:normal;font-variant-position:normal;font-variant-caps:normal;font-variant-numeric:normal;font-variant-alternates:normal;font-feature-settings:normal;text-indent:0;text-align:start;text-decoration:none;text-decoration-line:none;text-decoration-style:solid;text-decoration-color:#000000;letter-spacing:normal;word-spacing:normal;text-transform:none;writing-mode:lr-tb;direction:ltr;text-orientation:mixed;dominant-baseline:auto;baseline-shift:baseline;text-anchor:start;white-space:normal;shape-padding:0;clip-rule:nonzero;display:inline;overflow:visible;visibility:visible;opacity:1;isolation:auto;mix-blend-mode:normal;color-interpolation:sRGB;color-interpolation-filters:linearRGB;solid-color:#000000;solid-opacity:1;vector-effect:none;fill:#52b1db;fill-opacity:1;fill-rule:nonzero;stroke:none;stroke-width:0.92475915;stroke-linecap:butt;stroke-linejoin:miter;stroke-miterlimit:4;stroke-dasharray:none;stroke-dashoffset:0;stroke-opacity:1;color-rendering:auto;image-rendering:auto;shape-rendering:auto;text-rendering:auto;enable-background:accumulate"
       d="m 345.43254,203.08862 -2.98326,-0.10082 -0.14036,0.0867 c 0,0 -0.95046,0.58734 -2.17698,1.24896 -1.22651,0.66163 -2.74547,1.3945 -3.75695,1.66514 -4.65309,1.24506 -9.3215,0.78331 -13.98457,0.44562 -4.66307,-0.33767 -9.33598,-0.54749 -13.86779,1.35041 -1.33814,0.56041 -2.89237,1.67095 -4.15111,2.64899 -1.25874,0.97804 -2.20558,1.82598 -2.20558,1.82598 l -0.23885,0.21372 0.15006,0.26637 2.11973,3.76429 -1.64836,6.07289 9.6e-4,5.8e-4 -0.31888,1.4861 1.18752,-1.11663 0.002,6.6e-4 c 0,0 3.42057,-3.47215 8.5593,-4.70206 3.7389,-0.89488 7.70438,-0.62568 11.72969,-0.32556 4.02531,0.30012 8.10913,0.63135 12.06276,-0.24173 1.33603,-0.29503 3.02635,-1.05439 4.42389,-1.74163 1.39753,-0.68723 2.48536,-1.30649 2.48536,-1.30649 l 0.13077,-0.0743 2.6695,-5.81476 z m -0.9936,0.82167 0.04,4.67194 -2.4805,5.40386 c -0.10363,0.0587 -1.00704,0.5728 -2.30231,1.20974 -1.36694,0.6722 -3.0551,1.40776 -4.17496,1.65506 -3.73088,0.82388 -7.69632,0.51801 -11.72519,0.21762 -4.02886,-0.30042 -8.1223,-0.5949 -12.08684,0.35399 -3.56258,0.85267 -6.29021,2.6786 -7.78379,3.86654 l 1.32593,-4.88473 -2.11978,-3.76382 c 0.27214,-0.23913 0.92395,-0.80575 1.91349,-1.57462 1.23062,-0.9562 2.78387,-2.03884 3.9181,-2.51385 4.26117,-1.78456 8.70191,-1.60221 13.34274,-1.26613 4.64083,0.33612 9.46676,0.82965 14.36819,-0.48183 1.21698,-0.32564 2.73696,-1.08074 3.99228,-1.75791 1.17062,-0.63147 1.95932,-1.11957 2.07897,-1.19311 z"
       id="path5904" /><path
       sodipodi:nodetypes="ccccccccccccsccccccc"
       inkscape:connector-curvature="0"
       style="color:#000000;font-style:normal;font-variant:normal;font-weight:normal;font-stretch:normal;font-size:medium;line-height:normal;font-family:sans-serif;font-variant-ligatures:normal;font-variant-position:normal;font-variant-caps:normal;font-variant-numeric:normal;font-variant-alternates:normal;font-feature-settings:normal;text-indent:0;text-align:start;text-decoration:none;text-decoration-line:none;text-decoration-style:solid;text-decoration-color:#000000;letter-spacing:normal;word-spacing:normal;text-transform:none;writing-mode:lr-tb;direction:ltr;text-orientation:mixed;dominant-baseline:auto;baseline-shift:baseline;text-anchor:start;white-space:normal;shape-padding:0;clip-rule:nonzero;display:inline;overflow:visible;visibility:visible;opacity:1;isolation:auto;mix-blend-mode:normal;color-interpolation:sRGB;color-interpolation-filters:linearRGB;solid-color:#000000;solid-opacity:1;vector-effect:none;fill:#52b1db;fill-opacity:1;fill-rule:nonzero;stroke:none;stroke-width:0.70817512;stroke-linecap:butt;stroke-linejoin:miter;stroke-miterlimit:4;stroke-dasharray:none;stroke-dashoffset:0;stroke-opacity:1;color-rendering:auto;image-rendering:auto;shape-rendering:auto;text-rendering:auto;enable-background:accumulate"
       d="m 348.32079,200.36027 c 0.44804,0.72225 0.48991,1.64184 0.28853,2.61528 -0.2014,0.97344 -0.64528,1.98007 -1.10432,2.8114 -0.62671,1.13497 -1.70399,2.27331 -2.87309,2.45786 -0.19448,0.0308 -0.45182,0.004 -0.66889,-0.0783 -0.21709,-0.0822 -0.38533,-0.21523 -0.46197,-0.35353 -0.2971,-0.53607 -0.3598,-1.18015 -0.26501,-1.86449 -0.0919,-0.0637 -0.18883,-0.0966 -0.28659,-0.0974 -0.15715,4.4e-4 -0.31115,0.084 -0.44483,0.24149 -0.0654,0.71538 0.0251,1.42856 0.37704,2.06367 0.18434,0.33262 0.49791,0.54652 0.83045,0.67249 0.33255,0.12597 0.69287,0.1686 1.03017,0.11535 1.52477,-0.2407 2.69108,-1.56257 3.38265,-2.81499 0.48201,-0.87291 0.95464,-1.93118 1.1779,-3.0103 0.22325,-1.07911 0.19784,-2.19964 -0.38037,-3.13174 -0.12751,-0.20552 -0.32644,-0.31181 -0.5137,-0.36598 -0.14044,-0.0406 -0.28097,-0.055 -0.41744,-0.0476 l -1.5e-4,6e-5 c -0.0455,0.002 -0.0906,0.007 -0.135,0.0146 z"
       id="path5912-4" /><text
       transform="matrix(0.78066473,0,0,0.78066473,69.099318,45.416885)"
       id="text456"><textPath
         xlink:href="#SVGID_x5F_32_x5F_"
         startOffset="21.100001%"
         id="textPath454"><tspan
   style="font-size:12.74715233px;font-family:FontdinerdotcomSparkly;fill:#006633"
   font-size="90"
   id="tspan452">Jugar</tspan></textPath></text>
</g></svg>